<svg width="370" height="222" viewBox="0 0 370 222" fill="none" xmlns="http://www.w3.org/2000/svg">
<g clip-path="url(#clip0_1134_2769)">
<rect width="370" height="222" fill="white"/>
<rect x="0.280273" y="219.468" width="117.447" height="73.5319" rx="3.8024" fill="#F1F3F9"/>
<rect width="9.11392" height="2.02532" transform="translate(154 189)" fill="#D0D6E7"/>
<rect width="9.11392" height="2.02532" transform="translate(193.494 189)" fill="#D0D6E7"/>
<rect width="9.11392" height="2.02532" transform="translate(180.329 189)" fill="#D0D6E7"/>
<rect width="9.11392" height="2.02532" transform="translate(167.165 189)" fill="#9EA8C7"/>
<rect width="9.11392" height="2.02532" transform="translate(206.658 189)" fill="#D0D6E7"/>
<rect x="127" y="31" width="116" height="142" rx="3.5383" fill="#F1F3F9"/>
<path d="M196.539 126.949L181.871 99.6901L193.459 80.1135L218.1 126.949H196.539ZM171.898 92.6029L190.379 126.949H153.417L171.898 92.6029ZM164.197 86.3582C159.944 86.3582 156.497 82.8634 156.497 78.5523C156.497 74.2412 159.944 70.7464 164.197 70.7464C168.45 70.7464 171.898 74.2412 171.898 78.5523C171.898 82.8634 168.45 86.3582 164.197 86.3582Z" fill="white"/>
<rect x="255" y="31" width="115" height="142" rx="3.5383" fill="#F1F3F9"/>
<path d="M324.538 126.949L309.871 99.6901L321.458 80.1135L346.1 126.949H324.538ZM299.897 92.6029L318.378 126.949H281.416L299.897 92.6029ZM292.197 86.3582C287.944 86.3582 284.496 82.8634 284.496 78.5523C284.496 74.2412 287.944 70.7464 292.197 70.7464C296.449 70.7464 299.897 74.2412 299.897 78.5523C299.897 82.8634 296.449 86.3582 292.197 86.3582Z" fill="white"/>
<rect y="31" width="115" height="142" rx="3.5383" fill="#F1F3F9"/>
<path d="M69.5386 126.949L54.8712 99.6901L66.4585 80.1135L91.0998 126.949H69.5386ZM44.8973 92.6029L63.3783 126.949H26.4163L44.8973 92.6029ZM37.1968 86.3582C32.944 86.3582 29.4964 82.8634 29.4964 78.5523C29.4964 74.2412 32.944 70.7464 37.1968 70.7464C41.4497 70.7464 44.8973 74.2412 44.8973 78.5523C44.8973 82.8634 41.4497 86.3582 37.1968 86.3582Z" fill="white"/>
</g>
<defs>
<clipPath id="clip0_1134_2769">
<rect width="370" height="222" fill="white"/>
</clipPath>
</defs>
</svg>
