
<svg width="60" height="60" viewBox="0 0 60 60" fill="none" xmlns="http://www.w3.org/2000/svg">
	<path d="M2 50.7096C2 53.1316 3.89237 55 6.34543 55H53.6546C56.1076 55 58 53.1316 58 50.7096V8.29037C58 5.86839 56.1076 4 53.6546 4H6.34543C3.89237 4 2 5.86839 2 8.29037V50.7096ZM4.31289 8.29037C4.31289 7.18318 5.29412 6.00678 6.62578 6.00678H53.8648C54.9862 6.00678 56.1777 6.97558 56.1777 8.29037V50.7096C56.1777 51.8168 55.1965 52.9932 53.8648 52.9932H6.34543C5.22403 52.9932 4.03254 52.0244 4.03254 50.7096L4.31289 8.29037Z" fill="#6C3BFF"/>
	<path d="M50 47L49.2417 47L44 47" stroke="#6C3BFF" stroke-width="2" stroke-linecap="round"/>
	<g clip-path="url(#clip0_1344_26)">
	<path d="M38 44C36.3457 44 35 45.3457 35 47C35 48.6543 36.3457 50 38 50C39.6543 50 41 48.6543 41 47C41 45.3457 39.6543 44 38 44ZM39.4268 48.5517C39.378 48.6005 39.314 48.625 39.25 48.625C39.186 48.625 39.122 48.6005 39.0733 48.5517L37.8233 47.3018C37.7762 47.255 37.75 47.1915 37.75 47.125V45.5C37.75 45.3618 37.862 45.25 38 45.25C38.138 45.25 38.25 45.3618 38.25 45.5V47.0215L39.4268 48.1982C39.5245 48.296 39.5245 48.454 39.4268 48.5517Z" fill="#6C3BFF"/>
	</g>
	<path d="M12.0001 44C10.3434 44 9 45.3431 9 47C9 48.6569 10.3432 50 12.0001 50C13.6571 50 15.0003 48.6569 15.0003 47C15.0003 45.3431 13.6571 44 12.0001 44ZM12.0001 44.897C12.5483 44.897 12.9926 45.3414 12.9926 45.8893C12.9926 46.4374 12.5483 46.8817 12.0001 46.8817C11.4522 46.8817 11.008 46.4374 11.008 45.8893C11.008 45.3414 11.4522 44.897 12.0001 44.897ZM11.9995 49.2156C11.4527 49.2156 10.9519 49.0165 10.5657 48.6869C10.4716 48.6067 10.4173 48.489 10.4173 48.3655C10.4173 47.8098 10.8671 47.365 11.4229 47.365H12.5776C13.1336 47.365 13.5816 47.8098 13.5816 48.3655C13.5816 48.4891 13.5276 48.6065 13.4334 48.6868C13.0473 49.0165 12.5464 49.2156 11.9995 49.2156Z" fill="#6C3BFF"/>
	<path d="M28 47L25.2417 47L18 47" stroke="#6C3BFF" stroke-width="2" stroke-linecap="round"/>
	<path d="M47.9806 11H12.0194C10.8227 11 10 11.8302 10 13.0377V31.9623C10 33.1698 10.8227 34 12.0194 34H13.6648H15.0111H47.9806C49.1773 34 50 33.1698 50 31.9623V13.0377C50 11.8302 49.1773 11 47.9806 11ZM47.9806 31.9623H15.0111H13.6648H12.0194L12.0194 13.0377H47.9806V31.9623Z" fill="#6C3BFF"/>
	<path d="M34 17C32.3432 17 31 18.3431 31 20C31 21.6568 32.3431 23 34 23C35.6568 23 37 21.6569 37 20C37 18.3431 35.6569 17 34 17ZM34 21.5714C33.1321 21.5714 32.4285 20.8678 32.4285 19.9999C32.4285 19.1321 33.1321 18.4285 34 18.4285C34.8679 18.4285 35.5714 19.1321 35.5714 19.9999C35.5714 20.8678 34.8679 21.5714 34 21.5714Z" fill="#6C3BFF"/>
	<path d="M11.5 32.5L25.5 23L35.5 32.5L48.5 19.5" stroke="#6C3BFF" stroke-width="2" stroke-linecap="round" stroke-linejoin="round"/>
	<path d="M56.4898 38.2H3.0656C2.47698 38.2 2 38.6476 2 39.2C2 39.7524 2.47698 40.2 3.0656 40.2H56.5C57.0886 40.2 57.5656 39.7524 57.5656 39.2C57.5656 38.6476 57.0886 38.2 56.5 38.2H56.4898Z" fill="#6C3BFF"/>
	<defs>
	<clipPath id="clip0_1344_26">
	<rect width="6" height="6" fill="white" transform="translate(35 44)"/>
	</clipPath>
	</defs>
</svg>
	