<svg width="57" height="60" viewBox="0 0 57 60" fill="none" xmlns="http://www.w3.org/2000/svg">
	<g clip-path="url(#clip0_2_22944)">
		<path d="M2.48569 6.77142H0.599976V8.65714H2.48569V6.77142Z" fill="#6C3BFF" />
		<path d="M6.34287 6.77142H4.45715V8.65714H6.34287V6.77142Z" fill="#6C3BFF" />
		<path d="M10.0286 6.77142H8.14288V8.65714H10.0286V6.77142Z" fill="#6C3BFF" />
		<path
			d="M34.0286 47.3143H21.4286C20.8286 47.3143 20.4 46.8857 20.4 46.2857V14.4857C20.4 13.8857 20.8286 13.4572 21.4286 13.4572H34.0286C34.6286 13.4572 35.0572 13.8857 35.0572 14.4857V46.4572C34.9715 46.8857 34.5429 47.3143 34.0286 47.3143ZM22.4572 45.5143H33.1715V15.5143H22.4572V45.5143Z"
			fill="#6C3BFF" />
		<path
			d="M55.5429 47.3143H43.0286C42.4286 47.3143 42 46.8857 42 46.2857V14.4857C42 13.8857 42.4286 13.4572 43.0286 13.4572H55.6286C56.1429 13.4572 56.5714 13.8857 56.5714 14.4857V46.4572C56.4 46.8857 55.9714 47.3143 55.5429 47.3143ZM43.8857 45.5143H54.6V15.5143H43.8857V45.5143Z"
			fill="#6C3BFF" />
		<path
			d="M12.6 47.3143H1.02857C0.428571 47.3143 0 46.8857 0 46.2857V14.4857C0 13.8857 0.428571 13.4572 1.02857 13.4572H12.6C13.2 13.4572 13.6286 13.8857 13.6286 14.4857V46.4572C13.5429 46.8857 13.1143 47.3143 12.6 47.3143ZM1.97143 45.5143H11.6571V15.5143H1.97143V45.5143Z"
			fill="#6C3BFF" />
		<path d="M10.5429 51.7714H1.97144V53.6571H10.5429V51.7714Z" fill="#6C3BFF" />
		<path d="M31.9715 51.7714H23.4V53.6571H31.9715V51.7714Z" fill="#6C3BFF" />
		<path d="M53.4 51.7714H44.8286V53.6571H53.4V51.7714Z" fill="#6C3BFF" />
		<path d="M7.71427 29.6572H5.82855V36.3429H7.71427V29.6572Z" fill="#6C3BFF" />
		<path d="M28.7143 24.0857H26.8286V36.3428H28.7143V24.0857Z" fill="#6C3BFF" />
		<path d="M49.7143 24.0857H47.8286V31.8H49.7143V24.0857Z" fill="#6C3BFF" />
	</g>
	<defs>
		<clipPath id="clip0_2_22944">
			<rect width="56.5714" height="60" fill="white" />
		</clipPath>
	</defs>
</svg>
