<svg width="24" height="24" viewBox="0 0 24 24" fill="none" xmlns="http://www.w3.org/2000/svg">
<path d="M9.49436 3.43274V21.0822H8.49436V3.43274H9.49436Z" fill="#6C3BFF"/>
<path d="M15.5057 3.43274V21.0822H14.5057V3.43274H15.5057Z" fill="#6C3BFF"/>
<path d="M20.2931 3.9928C20.2931 3.87376 20.1963 3.77698 20.0773 3.77698H3.8595C3.74047 3.77698 3.64368 3.87377 3.64368 3.9928V20.2106C3.64368 20.3296 3.74046 20.4264 3.8595 20.4264H20.0773C20.1963 20.4264 20.2931 20.3296 20.2931 20.2106V3.9928ZM21.2931 20.2106C21.2931 20.8819 20.7486 21.4264 20.0773 21.4264H3.8595C3.1882 21.4264 2.64368 20.8819 2.64368 20.2106V3.9928C2.64368 3.32149 3.18819 2.77698 3.8595 2.77698H20.0773C20.7486 2.77698 21.2931 3.3215 21.2931 3.9928V20.2106Z" fill="#6C3BFF"/>
</svg>
