<svg width="32" height="32" viewBox="0 0 32 32" fill="none" xmlns="http://www.w3.org/2000/svg">
	<path d="M26.9375 3.73334H3.00171C1.90798 3.73334 1.06665 4.58299 1.06665 5.50989V24.3568C1.06665 25.3609 1.99211 26.1333 3.00171 26.1333H26.8534C27.9471 26.1333 28.7884 25.2837 28.7884 24.3568V5.50989C28.9146 4.50575 27.9892 3.73334 26.9375 3.73334ZM2.16038 5.50989C2.16038 5.04644 2.58104 4.73748 3.00171 4.73748H26.8534C27.3582 4.73748 27.6947 5.12368 27.6947 5.50989V24.3568C27.6947 24.8202 27.274 25.1292 26.8534 25.1292H3.00171C2.49691 25.1292 2.16038 24.743 2.16038 24.3568V5.50989Z" fill="#6C3BFF"/>
	<path fill-rule="evenodd" clip-rule="evenodd" d="M28.2551 5.47651L28.2592 5.44338C28.3122 5.02221 28.0378 4.59104 27.5575 4.38735C27.967 4.62063 28.228 5.0491 28.228 5.50989V24.3568C28.228 24.5406 28.192 24.7068 28.1289 24.8544C28.2107 24.6955 28.2551 24.5249 28.2551 24.3568V5.47651ZM1.77684 24.9471C1.66417 24.7684 1.59998 24.5658 1.59998 24.3568V5.50989C1.59998 5.34182 1.64433 5.17115 1.72613 5.0123C1.6631 5.15985 1.62704 5.32612 1.62704 5.50989V24.3568C1.62704 24.5652 1.68045 24.767 1.77684 24.9471ZM3.00171 3.73334H26.9375C27.9892 3.73334 28.9146 4.50575 28.7884 5.50989V24.3568C28.7884 25.2837 27.9471 26.1333 26.8534 26.1333H3.00171C1.99211 26.1333 1.06665 25.3609 1.06665 24.3568V5.50989C1.06665 4.58299 1.90798 3.73334 3.00171 3.73334ZM3.00171 4.73748C2.58104 4.73748 2.16038 5.04644 2.16038 5.50989V24.3568C2.16038 24.743 2.49691 25.1292 3.00171 25.1292H26.8534C27.274 25.1292 27.6947 24.8202 27.6947 24.3568V5.50989C27.6947 5.12368 27.3582 4.73748 26.8534 4.73748H3.00171Z" fill="#6C3BFF"/>
	<path fill-rule="evenodd" clip-rule="evenodd" d="M10.4131 7.60998C10.5388 7.70014 10.6133 7.84533 10.6133 7.99999C10.6133 8.44905 10.7892 8.87832 11.1 9.19375C11.4107 9.50893 11.8304 9.6847 12.2667 9.6847C12.7029 9.6847 13.1227 9.50893 13.4333 9.19375C13.7441 8.87832 13.92 8.44905 13.92 7.99999C13.92 7.84533 13.9945 7.70014 14.1202 7.60998C14.2459 7.51982 14.4073 7.49574 14.5538 7.5453L18.8205 8.98843C19.0154 9.05438 19.1467 9.2373 19.1467 9.44313V13.051C19.1467 13.3161 18.9318 13.531 18.6667 13.531H17.0133V19.5451C17.0133 19.8615 16.8895 20.1664 16.6669 20.3922C16.4441 20.6183 16.1404 20.7467 15.8222 20.7467H8.7111C8.39292 20.7467 8.08921 20.6183 7.86639 20.3922C7.64381 20.1664 7.51999 19.8615 7.51999 19.5451V13.531H5.86666C5.60156 13.531 5.38666 13.3161 5.38666 13.051V9.44313C5.38666 9.2373 5.51789 9.05438 5.71286 8.98843L9.97953 7.5453C10.126 7.49574 10.2875 7.51982 10.4131 7.60998ZM6.34666 9.78749V12.571H7.99999C8.26509 12.571 8.47999 12.7859 8.47999 13.051V19.5451C8.47999 19.6114 8.50602 19.6736 8.55015 19.7184C8.59405 19.7629 8.65209 19.7867 8.7111 19.7867H15.8222C15.8812 19.7867 15.9393 19.7629 15.9832 19.7184C16.0273 19.6736 16.0533 19.6114 16.0533 19.5451V13.051C16.0533 12.7859 16.2682 12.571 16.5333 12.571H18.1867V9.78749L14.8017 8.64257C14.688 9.10175 14.4535 9.52615 14.117 9.8676C13.6275 10.3643 12.962 10.6447 12.2667 10.6447C11.5713 10.6447 10.9058 10.3643 10.4163 9.8676C10.0798 9.52615 9.84529 9.10175 9.73163 8.64257L6.34666 9.78749Z" fill="#6C3BFF"/>
	<path d="M30.9334 22.4C30.9334 25.9346 28.068 28.8 24.5334 28.8C20.9987 28.8 18.1334 25.9346 18.1334 22.4C18.1334 18.8654 20.9987 16 24.5334 16C28.068 16 30.9334 18.8654 30.9334 22.4Z" fill="white"/>
	<path fill-rule="evenodd" clip-rule="evenodd" d="M24.5334 28C27.6262 28 30.1334 25.4928 30.1334 22.4C30.1334 19.3072 27.6262 16.8 24.5334 16.8C21.4406 16.8 18.9334 19.3072 18.9334 22.4C18.9334 25.4928 21.4406 28 24.5334 28ZM24.5334 28.8C28.068 28.8 30.9334 25.9346 30.9334 22.4C30.9334 18.8654 28.068 16 24.5334 16C20.9987 16 18.1334 18.8654 18.1334 22.4C18.1334 25.9346 20.9987 28.8 24.5334 28.8Z" fill="#6C3BFF"/>
	<path d="M25.0549 22.2244H24.1457C23.6044 22.2244 23.1639 21.7841 23.1639 21.2427C23.1639 20.7012 23.6042 20.2609 24.1457 20.2609H25.9638C26.1748 20.2609 26.3458 20.0899 26.3458 19.879C26.3458 19.668 26.1748 19.497 25.9638 19.497H24.9821V18.5153C24.9821 18.3044 24.8111 18.1333 24.6001 18.1333C24.3892 18.1333 24.2182 18.3044 24.2182 18.5153V19.497H24.1457C23.1832 19.497 22.4 20.28 22.4 21.2427C22.4 22.2053 23.183 22.9883 24.1457 22.9883H25.0549C25.5961 22.9883 26.0366 23.4288 26.0366 23.9701C26.0366 24.5113 25.5963 24.9518 25.0549 24.9518H23.2367C23.0258 24.9518 22.8547 25.1228 22.8547 25.3338C22.8547 25.5447 23.0258 25.7157 23.2367 25.7157H24.2184V26.6975C24.2184 26.9084 24.3895 27.0794 24.6004 27.0794C24.8113 27.0794 24.9823 26.9084 24.9823 26.6975V25.7157H25.0549C26.0173 25.7157 26.8005 24.9327 26.8005 23.9701C26.8005 23.0074 26.0175 22.2244 25.0549 22.2244Z" fill="#6C3BFF"/>
	</svg>
