<svg width="374" height="242" viewBox="0 0 374 242" fill="none" xmlns="http://www.w3.org/2000/svg">
<g clip-path="url(#clip0_1249_1339)">
<rect x="16" y="97" width="115" height="85" rx="3.72319" fill="#F1F3F9"/>
<path d="M83.7085 162.124L71.8888 140.455L81.2263 124.892L101.083 162.124H83.7085ZM63.8515 134.821L78.7442 162.124H48.9587L63.8515 134.821ZM57.6462 129.856C54.2191 129.856 51.4409 127.078 51.4409 123.651C51.4409 120.224 54.2191 117.446 57.6462 117.446C61.0733 117.446 63.8515 120.224 63.8515 123.651C63.8515 127.078 61.0733 129.856 57.6462 129.856Z" fill="white"/>
<rect x="147" y="105" width="103" height="5" rx="2.5" fill="#EBEDF4"/>
<rect x="147" y="115" width="50" height="5" rx="2.5" fill="#EBEDF4"/>
<g clip-path="url(#clip1_1249_1339)">
<path d="M151.216 129H148.5L148.443 129.003C148.36 129.013 148.281 129.043 148.212 129.091C148.144 129.139 148.089 129.204 148.052 129.279C148.015 129.354 147.997 129.437 148.001 129.52C148.004 129.604 148.028 129.685 148.071 129.757L149.416 132L148.071 134.243L148.044 134.293C148.01 134.369 147.995 134.453 148.001 134.536C148.007 134.62 148.034 134.7 148.079 134.771C148.125 134.841 148.187 134.899 148.26 134.939C148.334 134.979 148.416 135 148.5 135H151.217L152.571 137.257L152.608 137.311C152.659 137.374 152.724 137.424 152.797 137.457C152.871 137.49 152.952 137.504 153.033 137.499C153.113 137.493 153.191 137.469 153.26 137.426C153.329 137.384 153.387 137.326 153.428 137.257L154.782 135H157.5L157.557 134.997C157.64 134.987 157.719 134.957 157.788 134.909C157.856 134.861 157.911 134.796 157.948 134.721C157.985 134.646 158.003 134.563 157.999 134.48C157.996 134.396 157.972 134.315 157.928 134.243L156.583 132L157.928 129.757L157.955 129.707C157.99 129.631 158.005 129.547 157.999 129.464C157.993 129.38 157.966 129.3 157.921 129.229C157.875 129.159 157.813 129.101 157.74 129.061C157.666 129.021 157.584 129 157.5 129H154.783L153.428 126.743C153.384 126.669 153.321 126.608 153.246 126.565C153.171 126.523 153.086 126.501 153 126.501C152.914 126.501 152.829 126.523 152.754 126.565C152.679 126.608 152.616 126.669 152.571 126.743L151.216 129Z" fill="#DEE2ED"/>
</g>
<g clip-path="url(#clip2_1249_1339)">
<path d="M164.216 129H161.5L161.443 129.003C161.36 129.013 161.281 129.043 161.212 129.091C161.144 129.139 161.089 129.204 161.052 129.279C161.015 129.354 160.997 129.437 161.001 129.52C161.004 129.604 161.028 129.685 161.071 129.757L162.416 132L161.071 134.243L161.044 134.293C161.01 134.369 160.995 134.453 161.001 134.536C161.007 134.62 161.034 134.7 161.079 134.771C161.125 134.841 161.187 134.899 161.26 134.939C161.334 134.979 161.416 135 161.5 135H164.217L165.571 137.257L165.608 137.311C165.659 137.374 165.724 137.424 165.797 137.457C165.871 137.49 165.952 137.504 166.033 137.499C166.113 137.493 166.191 137.469 166.26 137.426C166.329 137.384 166.387 137.326 166.428 137.257L167.782 135H170.5L170.557 134.997C170.64 134.987 170.719 134.957 170.788 134.909C170.856 134.861 170.911 134.796 170.948 134.721C170.985 134.646 171.003 134.563 170.999 134.48C170.996 134.396 170.972 134.315 170.928 134.243L169.583 132L170.928 129.757L170.955 129.707C170.99 129.631 171.005 129.547 170.999 129.464C170.993 129.38 170.966 129.3 170.921 129.229C170.875 129.159 170.813 129.101 170.74 129.061C170.666 129.021 170.584 129 170.5 129H167.783L166.428 126.743C166.384 126.669 166.321 126.608 166.246 126.565C166.171 126.523 166.086 126.501 166 126.501C165.914 126.501 165.829 126.523 165.754 126.565C165.679 126.608 165.616 126.669 165.571 126.743L164.216 129Z" fill="#DEE2ED"/>
</g>
<g clip-path="url(#clip3_1249_1339)">
<path d="M177.216 129H174.5L174.443 129.003C174.36 129.013 174.281 129.043 174.212 129.091C174.144 129.139 174.089 129.204 174.052 129.279C174.015 129.354 173.997 129.437 174.001 129.52C174.004 129.604 174.028 129.685 174.071 129.757L175.416 132L174.071 134.243L174.044 134.293C174.01 134.369 173.995 134.453 174.001 134.536C174.007 134.62 174.034 134.7 174.079 134.771C174.125 134.841 174.187 134.899 174.26 134.939C174.334 134.979 174.416 135 174.5 135H177.217L178.571 137.257L178.608 137.311C178.659 137.374 178.724 137.424 178.797 137.457C178.871 137.49 178.952 137.504 179.033 137.499C179.113 137.493 179.191 137.469 179.26 137.426C179.329 137.384 179.387 137.326 179.428 137.257L180.782 135H183.5L183.557 134.997C183.64 134.987 183.719 134.957 183.788 134.909C183.856 134.861 183.911 134.796 183.948 134.721C183.985 134.646 184.003 134.563 183.999 134.48C183.996 134.396 183.972 134.315 183.928 134.243L182.583 132L183.928 129.757L183.955 129.707C183.99 129.631 184.005 129.547 183.999 129.464C183.993 129.38 183.966 129.3 183.921 129.229C183.875 129.159 183.813 129.101 183.74 129.061C183.666 129.021 183.584 129 183.5 129H180.783L179.428 126.743C179.384 126.669 179.321 126.608 179.246 126.565C179.171 126.523 179.086 126.501 179 126.501C178.914 126.501 178.829 126.523 178.754 126.565C178.679 126.608 178.616 126.669 178.571 126.743L177.216 129Z" fill="#DEE2ED"/>
</g>
<g clip-path="url(#clip4_1249_1339)">
<path d="M190.216 129H187.5L187.443 129.003C187.36 129.013 187.281 129.043 187.212 129.091C187.144 129.139 187.089 129.204 187.052 129.279C187.015 129.354 186.997 129.437 187.001 129.52C187.004 129.604 187.028 129.685 187.071 129.757L188.416 132L187.071 134.243L187.044 134.293C187.01 134.369 186.995 134.453 187.001 134.536C187.007 134.62 187.034 134.7 187.079 134.771C187.125 134.841 187.187 134.899 187.26 134.939C187.334 134.979 187.416 135 187.5 135H190.217L191.571 137.257L191.608 137.311C191.659 137.374 191.724 137.424 191.797 137.457C191.871 137.49 191.952 137.504 192.033 137.499C192.113 137.493 192.191 137.469 192.26 137.426C192.329 137.384 192.387 137.326 192.428 137.257L193.782 135H196.5L196.557 134.997C196.64 134.987 196.719 134.957 196.788 134.909C196.856 134.861 196.911 134.796 196.948 134.721C196.985 134.646 197.003 134.563 196.999 134.48C196.996 134.396 196.972 134.315 196.928 134.243L195.583 132L196.928 129.757L196.955 129.707C196.99 129.631 197.005 129.547 196.999 129.464C196.993 129.38 196.966 129.3 196.921 129.229C196.875 129.159 196.813 129.101 196.74 129.061C196.666 129.021 196.584 129 196.5 129H193.783L192.428 126.743C192.384 126.669 192.321 126.608 192.246 126.565C192.171 126.523 192.086 126.501 192 126.501C191.914 126.501 191.829 126.523 191.754 126.565C191.679 126.608 191.616 126.669 191.571 126.743L190.216 129Z" fill="#DEE2ED"/>
</g>
<g clip-path="url(#clip5_1249_1339)">
<path d="M203.216 129H200.5L200.443 129.003C200.36 129.013 200.281 129.043 200.212 129.091C200.144 129.139 200.089 129.204 200.052 129.279C200.015 129.354 199.997 129.437 200.001 129.52C200.004 129.604 200.028 129.685 200.071 129.757L201.416 132L200.071 134.243L200.044 134.293C200.01 134.369 199.995 134.453 200.001 134.536C200.007 134.62 200.034 134.7 200.079 134.771C200.125 134.841 200.187 134.899 200.26 134.939C200.334 134.979 200.416 135 200.5 135H203.217L204.571 137.257L204.608 137.311C204.659 137.374 204.724 137.424 204.797 137.457C204.871 137.49 204.952 137.504 205.033 137.499C205.113 137.493 205.191 137.469 205.26 137.426C205.329 137.384 205.387 137.326 205.428 137.257L206.782 135H209.5L209.557 134.997C209.64 134.987 209.719 134.957 209.788 134.909C209.856 134.861 209.911 134.796 209.948 134.721C209.985 134.646 210.003 134.563 209.999 134.48C209.996 134.396 209.972 134.315 209.928 134.243L208.583 132L209.928 129.757L209.955 129.707C209.99 129.631 210.005 129.547 209.999 129.464C209.993 129.38 209.966 129.3 209.921 129.229C209.875 129.159 209.813 129.101 209.74 129.061C209.666 129.021 209.584 129 209.5 129H206.783L205.428 126.743C205.384 126.669 205.321 126.608 205.246 126.565C205.171 126.523 205.086 126.501 205 126.501C204.914 126.501 204.829 126.523 204.754 126.565C204.679 126.608 204.616 126.669 204.571 126.743L203.216 129Z" fill="#DEE2ED"/>
</g>
<rect x="148" y="160" width="32" height="11" rx="5.5" fill="#DEE2ED"/>
<rect x="153" y="164" width="22" height="3" rx="1.5" fill="#F1F2F7"/>
<rect x="148" y="142" width="199" height="4" rx="2" fill="#EBEDF4"/>
<rect x="148" y="150" width="161" height="4" rx="2" fill="#EBEDF4"/>
<rect x="16" y="194" width="115" height="85" rx="3.72319" fill="#F1F3F9"/>
<path d="M83.7085 259.124L71.8888 237.455L81.2263 221.892L101.083 259.124H83.7085ZM63.8515 231.821L78.7442 259.124H48.9587L63.8515 231.821ZM57.6462 226.856C54.2191 226.856 51.4409 224.078 51.4409 220.651C51.4409 217.224 54.2191 214.446 57.6462 214.446C61.0733 214.446 63.8515 217.224 63.8515 220.651C63.8515 224.078 61.0733 226.856 57.6462 226.856Z" fill="white"/>
<rect x="147" y="202" width="103" height="5" rx="2.5" fill="#EBEDF4"/>
<rect x="147" y="212" width="50" height="5" rx="2.5" fill="#EBEDF4"/>
<g clip-path="url(#clip6_1249_1339)">
<path d="M151.216 226H148.5L148.443 226.003C148.36 226.013 148.281 226.043 148.212 226.091C148.144 226.139 148.089 226.204 148.052 226.279C148.015 226.354 147.997 226.437 148.001 226.52C148.004 226.604 148.028 226.685 148.071 226.757L149.416 229L148.071 231.243L148.044 231.293C148.01 231.369 147.995 231.453 148.001 231.536C148.007 231.62 148.034 231.7 148.079 231.771C148.125 231.841 148.187 231.899 148.26 231.939C148.334 231.979 148.416 232 148.5 232H151.217L152.571 234.257L152.608 234.311C152.659 234.374 152.724 234.424 152.797 234.457C152.871 234.49 152.952 234.504 153.033 234.499C153.113 234.493 153.191 234.469 153.26 234.426C153.329 234.384 153.387 234.326 153.428 234.257L154.782 232H157.5L157.557 231.997C157.64 231.987 157.719 231.957 157.788 231.909C157.856 231.861 157.911 231.796 157.948 231.721C157.985 231.646 158.003 231.563 157.999 231.48C157.996 231.396 157.972 231.315 157.928 231.243L156.583 229L157.928 226.757L157.955 226.707C157.99 226.631 158.005 226.547 157.999 226.464C157.993 226.38 157.966 226.3 157.921 226.229C157.875 226.159 157.813 226.101 157.74 226.061C157.666 226.021 157.584 226 157.5 226H154.783L153.428 223.743C153.384 223.669 153.321 223.608 153.246 223.565C153.171 223.523 153.086 223.501 153 223.501C152.914 223.501 152.829 223.523 152.754 223.565C152.679 223.608 152.616 223.669 152.571 223.743L151.216 226Z" fill="#DEE2ED"/>
</g>
<g clip-path="url(#clip7_1249_1339)">
<path d="M164.216 226H161.5L161.443 226.003C161.36 226.013 161.281 226.043 161.212 226.091C161.144 226.139 161.089 226.204 161.052 226.279C161.015 226.354 160.997 226.437 161.001 226.52C161.004 226.604 161.028 226.685 161.071 226.757L162.416 229L161.071 231.243L161.044 231.293C161.01 231.369 160.995 231.453 161.001 231.536C161.007 231.62 161.034 231.7 161.079 231.771C161.125 231.841 161.187 231.899 161.26 231.939C161.334 231.979 161.416 232 161.5 232H164.217L165.571 234.257L165.608 234.311C165.659 234.374 165.724 234.424 165.797 234.457C165.871 234.49 165.952 234.504 166.033 234.499C166.113 234.493 166.191 234.469 166.26 234.426C166.329 234.384 166.387 234.326 166.428 234.257L167.782 232H170.5L170.557 231.997C170.64 231.987 170.719 231.957 170.788 231.909C170.856 231.861 170.911 231.796 170.948 231.721C170.985 231.646 171.003 231.563 170.999 231.48C170.996 231.396 170.972 231.315 170.928 231.243L169.583 229L170.928 226.757L170.955 226.707C170.99 226.631 171.005 226.547 170.999 226.464C170.993 226.38 170.966 226.3 170.921 226.229C170.875 226.159 170.813 226.101 170.74 226.061C170.666 226.021 170.584 226 170.5 226H167.783L166.428 223.743C166.384 223.669 166.321 223.608 166.246 223.565C166.171 223.523 166.086 223.501 166 223.501C165.914 223.501 165.829 223.523 165.754 223.565C165.679 223.608 165.616 223.669 165.571 223.743L164.216 226Z" fill="#DEE2ED"/>
</g>
<g clip-path="url(#clip8_1249_1339)">
<path d="M177.216 226H174.5L174.443 226.003C174.36 226.013 174.281 226.043 174.212 226.091C174.144 226.139 174.089 226.204 174.052 226.279C174.015 226.354 173.997 226.437 174.001 226.52C174.004 226.604 174.028 226.685 174.071 226.757L175.416 229L174.071 231.243L174.044 231.293C174.01 231.369 173.995 231.453 174.001 231.536C174.007 231.62 174.034 231.7 174.079 231.771C174.125 231.841 174.187 231.899 174.26 231.939C174.334 231.979 174.416 232 174.5 232H177.217L178.571 234.257L178.608 234.311C178.659 234.374 178.724 234.424 178.797 234.457C178.871 234.49 178.952 234.504 179.033 234.499C179.113 234.493 179.191 234.469 179.26 234.426C179.329 234.384 179.387 234.326 179.428 234.257L180.782 232H183.5L183.557 231.997C183.64 231.987 183.719 231.957 183.788 231.909C183.856 231.861 183.911 231.796 183.948 231.721C183.985 231.646 184.003 231.563 183.999 231.48C183.996 231.396 183.972 231.315 183.928 231.243L182.583 229L183.928 226.757L183.955 226.707C183.99 226.631 184.005 226.547 183.999 226.464C183.993 226.38 183.966 226.3 183.921 226.229C183.875 226.159 183.813 226.101 183.74 226.061C183.666 226.021 183.584 226 183.5 226H180.783L179.428 223.743C179.384 223.669 179.321 223.608 179.246 223.565C179.171 223.523 179.086 223.501 179 223.501C178.914 223.501 178.829 223.523 178.754 223.565C178.679 223.608 178.616 223.669 178.571 223.743L177.216 226Z" fill="#DEE2ED"/>
</g>
<g clip-path="url(#clip9_1249_1339)">
<path d="M190.216 226H187.5L187.443 226.003C187.36 226.013 187.281 226.043 187.212 226.091C187.144 226.139 187.089 226.204 187.052 226.279C187.015 226.354 186.997 226.437 187.001 226.52C187.004 226.604 187.028 226.685 187.071 226.757L188.416 229L187.071 231.243L187.044 231.293C187.01 231.369 186.995 231.453 187.001 231.536C187.007 231.62 187.034 231.7 187.079 231.771C187.125 231.841 187.187 231.899 187.26 231.939C187.334 231.979 187.416 232 187.5 232H190.217L191.571 234.257L191.608 234.311C191.659 234.374 191.724 234.424 191.797 234.457C191.871 234.49 191.952 234.504 192.033 234.499C192.113 234.493 192.191 234.469 192.26 234.426C192.329 234.384 192.387 234.326 192.428 234.257L193.782 232H196.5L196.557 231.997C196.64 231.987 196.719 231.957 196.788 231.909C196.856 231.861 196.911 231.796 196.948 231.721C196.985 231.646 197.003 231.563 196.999 231.48C196.996 231.396 196.972 231.315 196.928 231.243L195.583 229L196.928 226.757L196.955 226.707C196.99 226.631 197.005 226.547 196.999 226.464C196.993 226.38 196.966 226.3 196.921 226.229C196.875 226.159 196.813 226.101 196.74 226.061C196.666 226.021 196.584 226 196.5 226H193.783L192.428 223.743C192.384 223.669 192.321 223.608 192.246 223.565C192.171 223.523 192.086 223.501 192 223.501C191.914 223.501 191.829 223.523 191.754 223.565C191.679 223.608 191.616 223.669 191.571 223.743L190.216 226Z" fill="#DEE2ED"/>
</g>
<g clip-path="url(#clip10_1249_1339)">
<path d="M203.216 226H200.5L200.443 226.003C200.36 226.013 200.281 226.043 200.212 226.091C200.144 226.139 200.089 226.204 200.052 226.279C200.015 226.354 199.997 226.437 200.001 226.52C200.004 226.604 200.028 226.685 200.071 226.757L201.416 229L200.071 231.243L200.044 231.293C200.01 231.369 199.995 231.453 200.001 231.536C200.007 231.62 200.034 231.7 200.079 231.771C200.125 231.841 200.187 231.899 200.26 231.939C200.334 231.979 200.416 232 200.5 232H203.217L204.571 234.257L204.608 234.311C204.659 234.374 204.724 234.424 204.797 234.457C204.871 234.49 204.952 234.504 205.033 234.499C205.113 234.493 205.191 234.469 205.26 234.426C205.329 234.384 205.387 234.326 205.428 234.257L206.782 232H209.5L209.557 231.997C209.64 231.987 209.719 231.957 209.788 231.909C209.856 231.861 209.911 231.796 209.948 231.721C209.985 231.646 210.003 231.563 209.999 231.48C209.996 231.396 209.972 231.315 209.928 231.243L208.583 229L209.928 226.757L209.955 226.707C209.99 226.631 210.005 226.547 209.999 226.464C209.993 226.38 209.966 226.3 209.921 226.229C209.875 226.159 209.813 226.101 209.74 226.061C209.666 226.021 209.584 226 209.5 226H206.783L205.428 223.743C205.384 223.669 205.321 223.608 205.246 223.565C205.171 223.523 205.086 223.501 205 223.501C204.914 223.501 204.829 223.523 204.754 223.565C204.679 223.608 204.616 223.669 204.571 223.743L203.216 226Z" fill="#DEE2ED"/>
</g>
<rect x="148" y="239" width="199" height="4" rx="2" fill="#EBEDF4"/>
<rect x="16" width="115" height="85" rx="3.72319" fill="#F1F3F9"/>
<path d="M83.7085 65.124L71.8888 43.4546L81.2263 27.8922L101.083 65.124H83.7085ZM63.8515 37.8207L78.7442 65.124H48.9587L63.8515 37.8207ZM57.6462 32.8564C54.2191 32.8564 51.4409 30.0782 51.4409 26.6511C51.4409 23.224 54.2191 20.4458 57.6462 20.4458C61.0733 20.4458 63.8515 23.224 63.8515 26.6511C63.8515 30.0782 61.0733 32.8564 57.6462 32.8564Z" fill="white"/>
<rect x="147" y="8" width="103" height="5" rx="2.5" fill="#EBEDF4"/>
<rect x="147" y="18" width="50" height="5" rx="2.5" fill="#EBEDF4"/>
<g clip-path="url(#clip11_1249_1339)">
<path d="M151.216 32H148.5L148.443 32.003C148.36 32.0126 148.281 32.0428 148.212 32.091C148.144 32.1392 148.089 32.2037 148.052 32.2787C148.015 32.3537 147.997 32.4368 148.001 32.5204C148.004 32.6039 148.028 32.6853 148.071 32.757L149.416 35L148.071 37.243L148.044 37.293C148.01 37.3692 147.995 37.4529 148.001 37.5363C148.007 37.6198 148.034 37.7004 148.079 37.7708C148.125 37.8412 148.187 37.899 148.26 37.9391C148.334 37.9791 148.416 38.0001 148.5 38H151.217L152.571 40.257L152.608 40.311C152.659 40.3742 152.724 40.4243 152.797 40.457C152.871 40.4896 152.952 40.5039 153.033 40.4986C153.113 40.4933 153.191 40.4686 153.26 40.4265C153.329 40.3844 153.387 40.3263 153.428 40.257L154.782 38H157.5L157.557 37.997C157.64 37.9874 157.719 37.9572 157.788 37.909C157.856 37.8608 157.911 37.7963 157.948 37.7213C157.985 37.6463 158.003 37.5632 157.999 37.4796C157.996 37.3961 157.972 37.3147 157.928 37.243L156.583 35L157.928 32.757L157.955 32.707C157.99 32.6308 158.005 32.5471 157.999 32.4637C157.993 32.3802 157.966 32.2996 157.921 32.2292C157.875 32.1588 157.813 32.101 157.74 32.0609C157.666 32.0209 157.584 31.9999 157.5 32H154.783L153.428 29.743C153.384 29.6691 153.321 29.6079 153.246 29.5654C153.171 29.523 153.086 29.5007 153 29.5007C152.914 29.5007 152.829 29.523 152.754 29.5654C152.679 29.6079 152.616 29.6691 152.571 29.743L151.216 32Z" fill="#DEE2ED"/>
</g>
<g clip-path="url(#clip12_1249_1339)">
<path d="M164.216 32H161.5L161.443 32.003C161.36 32.0126 161.281 32.0428 161.212 32.091C161.144 32.1392 161.089 32.2037 161.052 32.2787C161.015 32.3537 160.997 32.4368 161.001 32.5204C161.004 32.6039 161.028 32.6853 161.071 32.757L162.416 35L161.071 37.243L161.044 37.293C161.01 37.3692 160.995 37.4529 161.001 37.5363C161.007 37.6198 161.034 37.7004 161.079 37.7708C161.125 37.8412 161.187 37.899 161.26 37.9391C161.334 37.9791 161.416 38.0001 161.5 38H164.217L165.571 40.257L165.608 40.311C165.659 40.3742 165.724 40.4243 165.797 40.457C165.871 40.4896 165.952 40.5039 166.033 40.4986C166.113 40.4933 166.191 40.4686 166.26 40.4265C166.329 40.3844 166.387 40.3263 166.428 40.257L167.782 38H170.5L170.557 37.997C170.64 37.9874 170.719 37.9572 170.788 37.909C170.856 37.8608 170.911 37.7963 170.948 37.7213C170.985 37.6463 171.003 37.5632 170.999 37.4796C170.996 37.3961 170.972 37.3147 170.928 37.243L169.583 35L170.928 32.757L170.955 32.707C170.99 32.6308 171.005 32.5471 170.999 32.4637C170.993 32.3802 170.966 32.2996 170.921 32.2292C170.875 32.1588 170.813 32.101 170.74 32.0609C170.666 32.0209 170.584 31.9999 170.5 32H167.783L166.428 29.743C166.384 29.6691 166.321 29.6079 166.246 29.5654C166.171 29.523 166.086 29.5007 166 29.5007C165.914 29.5007 165.829 29.523 165.754 29.5654C165.679 29.6079 165.616 29.6691 165.571 29.743L164.216 32Z" fill="#DEE2ED"/>
</g>
<g clip-path="url(#clip13_1249_1339)">
<path d="M177.216 32H174.5L174.443 32.003C174.36 32.0126 174.281 32.0428 174.212 32.091C174.144 32.1392 174.089 32.2037 174.052 32.2787C174.015 32.3537 173.997 32.4368 174.001 32.5204C174.004 32.6039 174.028 32.6853 174.071 32.757L175.416 35L174.071 37.243L174.044 37.293C174.01 37.3692 173.995 37.4529 174.001 37.5363C174.007 37.6198 174.034 37.7004 174.079 37.7708C174.125 37.8412 174.187 37.899 174.26 37.9391C174.334 37.9791 174.416 38.0001 174.5 38H177.217L178.571 40.257L178.608 40.311C178.659 40.3742 178.724 40.4243 178.797 40.457C178.871 40.4896 178.952 40.5039 179.033 40.4986C179.113 40.4933 179.191 40.4686 179.26 40.4265C179.329 40.3844 179.387 40.3263 179.428 40.257L180.782 38H183.5L183.557 37.997C183.64 37.9874 183.719 37.9572 183.788 37.909C183.856 37.8608 183.911 37.7963 183.948 37.7213C183.985 37.6463 184.003 37.5632 183.999 37.4796C183.996 37.3961 183.972 37.3147 183.928 37.243L182.583 35L183.928 32.757L183.955 32.707C183.99 32.6308 184.005 32.5471 183.999 32.4637C183.993 32.3802 183.966 32.2996 183.921 32.2292C183.875 32.1588 183.813 32.101 183.74 32.0609C183.666 32.0209 183.584 31.9999 183.5 32H180.783L179.428 29.743C179.384 29.6691 179.321 29.6079 179.246 29.5654C179.171 29.523 179.086 29.5007 179 29.5007C178.914 29.5007 178.829 29.523 178.754 29.5654C178.679 29.6079 178.616 29.6691 178.571 29.743L177.216 32Z" fill="#DEE2ED"/>
</g>
<g clip-path="url(#clip14_1249_1339)">
<path d="M190.216 32H187.5L187.443 32.003C187.36 32.0126 187.281 32.0428 187.212 32.091C187.144 32.1392 187.089 32.2037 187.052 32.2787C187.015 32.3537 186.997 32.4368 187.001 32.5204C187.004 32.6039 187.028 32.6853 187.071 32.757L188.416 35L187.071 37.243L187.044 37.293C187.01 37.3692 186.995 37.4529 187.001 37.5363C187.007 37.6198 187.034 37.7004 187.079 37.7708C187.125 37.8412 187.187 37.899 187.26 37.9391C187.334 37.9791 187.416 38.0001 187.5 38H190.217L191.571 40.257L191.608 40.311C191.659 40.3742 191.724 40.4243 191.797 40.457C191.871 40.4896 191.952 40.5039 192.033 40.4986C192.113 40.4933 192.191 40.4686 192.26 40.4265C192.329 40.3844 192.387 40.3263 192.428 40.257L193.782 38H196.5L196.557 37.997C196.64 37.9874 196.719 37.9572 196.788 37.909C196.856 37.8608 196.911 37.7963 196.948 37.7213C196.985 37.6463 197.003 37.5632 196.999 37.4796C196.996 37.3961 196.972 37.3147 196.928 37.243L195.583 35L196.928 32.757L196.955 32.707C196.99 32.6308 197.005 32.5471 196.999 32.4637C196.993 32.3802 196.966 32.2996 196.921 32.2292C196.875 32.1588 196.813 32.101 196.74 32.0609C196.666 32.0209 196.584 31.9999 196.5 32H193.783L192.428 29.743C192.384 29.6691 192.321 29.6079 192.246 29.5654C192.171 29.523 192.086 29.5007 192 29.5007C191.914 29.5007 191.829 29.523 191.754 29.5654C191.679 29.6079 191.616 29.6691 191.571 29.743L190.216 32Z" fill="#DEE2ED"/>
</g>
<g clip-path="url(#clip15_1249_1339)">
<path d="M203.216 32H200.5L200.443 32.003C200.36 32.0126 200.281 32.0428 200.212 32.091C200.144 32.1392 200.089 32.2037 200.052 32.2787C200.015 32.3537 199.997 32.4368 200.001 32.5204C200.004 32.6039 200.028 32.6853 200.071 32.757L201.416 35L200.071 37.243L200.044 37.293C200.01 37.3692 199.995 37.4529 200.001 37.5363C200.007 37.6198 200.034 37.7004 200.079 37.7708C200.125 37.8412 200.187 37.899 200.26 37.9391C200.334 37.9791 200.416 38.0001 200.5 38H203.217L204.571 40.257L204.608 40.311C204.659 40.3742 204.724 40.4243 204.797 40.457C204.871 40.4896 204.952 40.5039 205.033 40.4986C205.113 40.4933 205.191 40.4686 205.26 40.4265C205.329 40.3844 205.387 40.3263 205.428 40.257L206.782 38H209.5L209.557 37.997C209.64 37.9874 209.719 37.9572 209.788 37.909C209.856 37.8608 209.911 37.7963 209.948 37.7213C209.985 37.6463 210.003 37.5632 209.999 37.4796C209.996 37.3961 209.972 37.3147 209.928 37.243L208.583 35L209.928 32.757L209.955 32.707C209.99 32.6308 210.005 32.5471 209.999 32.4637C209.993 32.3802 209.966 32.2996 209.921 32.2292C209.875 32.1588 209.813 32.101 209.74 32.0609C209.666 32.0209 209.584 31.9999 209.5 32H206.783L205.428 29.743C205.384 29.6691 205.321 29.6079 205.246 29.5654C205.171 29.523 205.086 29.5007 205 29.5007C204.914 29.5007 204.829 29.523 204.754 29.5654C204.679 29.6079 204.616 29.6691 204.571 29.743L203.216 32Z" fill="#DEE2ED"/>
</g>
<rect x="148" y="57" width="32" height="11" rx="5.5" fill="#DEE2ED"/>
<rect x="153" y="61" width="22" height="3" rx="1.5" fill="#F1F2F7"/>
<rect x="148" y="45" width="199" height="4" rx="2" fill="#EBEDF4"/>
</g>
<defs>
<clipPath id="clip0_1249_1339">
<rect width="374" height="242" fill="white"/>
</clipPath>
<clipPath id="clip1_1249_1339">
<rect width="12" height="12" fill="white" transform="translate(147 126)"/>
</clipPath>
<clipPath id="clip2_1249_1339">
<rect width="12" height="12" fill="white" transform="translate(160 126)"/>
</clipPath>
<clipPath id="clip3_1249_1339">
<rect width="12" height="12" fill="white" transform="translate(173 126)"/>
</clipPath>
<clipPath id="clip4_1249_1339">
<rect width="12" height="12" fill="white" transform="translate(186 126)"/>
</clipPath>
<clipPath id="clip5_1249_1339">
<rect width="12" height="12" fill="white" transform="translate(199 126)"/>
</clipPath>
<clipPath id="clip6_1249_1339">
<rect width="12" height="12" fill="white" transform="translate(147 223)"/>
</clipPath>
<clipPath id="clip7_1249_1339">
<rect width="12" height="12" fill="white" transform="translate(160 223)"/>
</clipPath>
<clipPath id="clip8_1249_1339">
<rect width="12" height="12" fill="white" transform="translate(173 223)"/>
</clipPath>
<clipPath id="clip9_1249_1339">
<rect width="12" height="12" fill="white" transform="translate(186 223)"/>
</clipPath>
<clipPath id="clip10_1249_1339">
<rect width="12" height="12" fill="white" transform="translate(199 223)"/>
</clipPath>
<clipPath id="clip11_1249_1339">
<rect width="12" height="12" fill="white" transform="translate(147 29)"/>
</clipPath>
<clipPath id="clip12_1249_1339">
<rect width="12" height="12" fill="white" transform="translate(160 29)"/>
</clipPath>
<clipPath id="clip13_1249_1339">
<rect width="12" height="12" fill="white" transform="translate(173 29)"/>
</clipPath>
<clipPath id="clip14_1249_1339">
<rect width="12" height="12" fill="white" transform="translate(186 29)"/>
</clipPath>
<clipPath id="clip15_1249_1339">
<rect width="12" height="12" fill="white" transform="translate(199 29)"/>
</clipPath>
</defs>
</svg>
