<svg width="374" height="242" viewBox="0 0 374 242" fill="none" xmlns="http://www.w3.org/2000/svg">
<g clip-path="url(#clip0_1247_396)">
<rect x="130" y="172" width="115" height="106" rx="3.72319" fill="#F1F3F9"/>
<path d="M197.708 247.124L185.889 225.455L195.226 209.892L215.083 247.124H197.708ZM177.851 219.821L192.744 247.124H162.959L177.851 219.821ZM171.646 214.856C168.219 214.856 165.441 212.078 165.441 208.651C165.441 205.224 168.219 202.446 171.646 202.446C175.073 202.446 177.851 205.224 177.851 208.651C177.851 212.078 175.073 214.856 171.646 214.856Z" fill="white"/>
<rect x="259" y="172" width="115" height="106" rx="3.72319" fill="#F1F3F9"/>
<path d="M326.708 247.124L314.889 225.455L324.226 209.892L344.083 247.124H326.708ZM306.851 219.821L321.744 247.124H291.959L306.851 219.821ZM300.646 214.856C297.219 214.856 294.441 212.078 294.441 208.651C294.441 205.224 297.219 202.446 300.646 202.446C304.073 202.446 306.851 205.224 306.851 208.651C306.851 212.078 304.073 214.856 300.646 214.856Z" fill="white"/>
<rect y="172" width="115" height="106" rx="3.72319" fill="#F1F3F9"/>
<path d="M67.7085 247.124L55.8888 225.455L65.2263 209.892L85.0833 247.124H67.7085ZM47.8515 219.821L62.7442 247.124H32.9587L47.8515 219.821ZM41.6462 214.856C38.2191 214.856 35.4409 212.078 35.4409 208.651C35.4409 205.224 38.2191 202.446 41.6462 202.446C45.0733 202.446 47.8515 205.224 47.8515 208.651C47.8515 212.078 45.0733 214.856 41.6462 214.856Z" fill="white"/>
<rect x="130" width="115" height="106" rx="3.72319" fill="#F1F3F9"/>
<path d="M197.708 75.124L185.889 53.4546L195.226 37.8922L215.083 75.124H197.708ZM177.851 47.8207L192.744 75.124H162.959L177.851 47.8207ZM171.646 42.8564C168.219 42.8564 165.441 40.0782 165.441 36.6511C165.441 33.224 168.219 30.4458 171.646 30.4458C175.073 30.4458 177.851 33.224 177.851 36.6511C177.851 40.0782 175.073 42.8564 171.646 42.8564Z" fill="white"/>
<rect x="137" y="138" width="95" height="5" rx="2.5" fill="#EBEDF4"/>
<rect x="148" y="149" width="72" height="5" rx="2.5" fill="#EBEDF4"/>
<g clip-path="url(#clip1_1247_396)">
<path d="M159.216 122H156.5L156.443 122.003C156.36 122.013 156.281 122.043 156.212 122.091C156.144 122.139 156.089 122.204 156.052 122.279C156.015 122.354 155.997 122.437 156.001 122.52C156.004 122.604 156.028 122.685 156.071 122.757L157.416 125L156.071 127.243L156.044 127.293C156.01 127.369 155.995 127.453 156.001 127.536C156.007 127.62 156.034 127.7 156.079 127.771C156.125 127.841 156.187 127.899 156.26 127.939C156.334 127.979 156.416 128 156.5 128H159.217L160.571 130.257L160.608 130.311C160.659 130.374 160.724 130.424 160.797 130.457C160.871 130.49 160.952 130.504 161.033 130.499C161.113 130.493 161.191 130.469 161.26 130.426C161.329 130.384 161.387 130.326 161.428 130.257L162.782 128H165.5L165.557 127.997C165.64 127.987 165.719 127.957 165.788 127.909C165.856 127.861 165.911 127.796 165.948 127.721C165.985 127.646 166.003 127.563 165.999 127.48C165.996 127.396 165.972 127.315 165.928 127.243L164.583 125L165.928 122.757L165.955 122.707C165.99 122.631 166.005 122.547 165.999 122.464C165.993 122.38 165.966 122.3 165.921 122.229C165.875 122.159 165.813 122.101 165.74 122.061C165.666 122.021 165.584 122 165.5 122H162.783L161.428 119.743C161.384 119.669 161.321 119.608 161.246 119.565C161.171 119.523 161.086 119.501 161 119.501C160.914 119.501 160.829 119.523 160.754 119.565C160.679 119.608 160.616 119.669 160.571 119.743L159.216 122Z" fill="#DEE2ED"/>
</g>
<g clip-path="url(#clip2_1247_396)">
<path d="M172.216 122H169.5L169.443 122.003C169.36 122.013 169.281 122.043 169.212 122.091C169.144 122.139 169.089 122.204 169.052 122.279C169.015 122.354 168.997 122.437 169.001 122.52C169.004 122.604 169.028 122.685 169.071 122.757L170.416 125L169.071 127.243L169.044 127.293C169.01 127.369 168.995 127.453 169.001 127.536C169.007 127.62 169.034 127.7 169.079 127.771C169.125 127.841 169.187 127.899 169.26 127.939C169.334 127.979 169.416 128 169.5 128H172.217L173.571 130.257L173.608 130.311C173.659 130.374 173.724 130.424 173.797 130.457C173.871 130.49 173.952 130.504 174.033 130.499C174.113 130.493 174.191 130.469 174.26 130.426C174.329 130.384 174.387 130.326 174.428 130.257L175.782 128H178.5L178.557 127.997C178.64 127.987 178.719 127.957 178.788 127.909C178.856 127.861 178.911 127.796 178.948 127.721C178.985 127.646 179.003 127.563 178.999 127.48C178.996 127.396 178.972 127.315 178.928 127.243L177.583 125L178.928 122.757L178.955 122.707C178.99 122.631 179.005 122.547 178.999 122.464C178.993 122.38 178.966 122.3 178.921 122.229C178.875 122.159 178.813 122.101 178.74 122.061C178.666 122.021 178.584 122 178.5 122H175.783L174.428 119.743C174.384 119.669 174.321 119.608 174.246 119.565C174.171 119.523 174.086 119.501 174 119.501C173.914 119.501 173.829 119.523 173.754 119.565C173.679 119.608 173.616 119.669 173.571 119.743L172.216 122Z" fill="#DEE2ED"/>
</g>
<g clip-path="url(#clip3_1247_396)">
<path d="M185.216 122H182.5L182.443 122.003C182.36 122.013 182.281 122.043 182.212 122.091C182.144 122.139 182.089 122.204 182.052 122.279C182.015 122.354 181.997 122.437 182.001 122.52C182.004 122.604 182.028 122.685 182.071 122.757L183.416 125L182.071 127.243L182.044 127.293C182.01 127.369 181.995 127.453 182.001 127.536C182.007 127.62 182.034 127.7 182.079 127.771C182.125 127.841 182.187 127.899 182.26 127.939C182.334 127.979 182.416 128 182.5 128H185.217L186.571 130.257L186.608 130.311C186.659 130.374 186.724 130.424 186.797 130.457C186.871 130.49 186.952 130.504 187.033 130.499C187.113 130.493 187.191 130.469 187.26 130.426C187.329 130.384 187.387 130.326 187.428 130.257L188.782 128H191.5L191.557 127.997C191.64 127.987 191.719 127.957 191.788 127.909C191.856 127.861 191.911 127.796 191.948 127.721C191.985 127.646 192.003 127.563 191.999 127.48C191.996 127.396 191.972 127.315 191.928 127.243L190.583 125L191.928 122.757L191.955 122.707C191.99 122.631 192.005 122.547 191.999 122.464C191.993 122.38 191.966 122.3 191.921 122.229C191.875 122.159 191.813 122.101 191.74 122.061C191.666 122.021 191.584 122 191.5 122H188.783L187.428 119.743C187.384 119.669 187.321 119.608 187.246 119.565C187.171 119.523 187.086 119.501 187 119.501C186.914 119.501 186.829 119.523 186.754 119.565C186.679 119.608 186.616 119.669 186.571 119.743L185.216 122Z" fill="#DEE2ED"/>
</g>
<g clip-path="url(#clip4_1247_396)">
<path d="M198.216 122H195.5L195.443 122.003C195.36 122.013 195.281 122.043 195.212 122.091C195.144 122.139 195.089 122.204 195.052 122.279C195.015 122.354 194.997 122.437 195.001 122.52C195.004 122.604 195.028 122.685 195.071 122.757L196.416 125L195.071 127.243L195.044 127.293C195.01 127.369 194.995 127.453 195.001 127.536C195.007 127.62 195.034 127.7 195.079 127.771C195.125 127.841 195.187 127.899 195.26 127.939C195.334 127.979 195.416 128 195.5 128H198.217L199.571 130.257L199.608 130.311C199.659 130.374 199.724 130.424 199.797 130.457C199.871 130.49 199.952 130.504 200.033 130.499C200.113 130.493 200.191 130.469 200.26 130.426C200.329 130.384 200.387 130.326 200.428 130.257L201.782 128H204.5L204.557 127.997C204.64 127.987 204.719 127.957 204.788 127.909C204.856 127.861 204.911 127.796 204.948 127.721C204.985 127.646 205.003 127.563 204.999 127.48C204.996 127.396 204.972 127.315 204.928 127.243L203.583 125L204.928 122.757L204.955 122.707C204.99 122.631 205.005 122.547 204.999 122.464C204.993 122.38 204.966 122.3 204.921 122.229C204.875 122.159 204.813 122.101 204.74 122.061C204.666 122.021 204.584 122 204.5 122H201.783L200.428 119.743C200.384 119.669 200.321 119.608 200.246 119.565C200.171 119.523 200.086 119.501 200 119.501C199.914 119.501 199.829 119.523 199.754 119.565C199.679 119.608 199.616 119.669 199.571 119.743L198.216 122Z" fill="#DEE2ED"/>
</g>
<g clip-path="url(#clip5_1247_396)">
<path d="M211.216 122H208.5L208.443 122.003C208.36 122.013 208.281 122.043 208.212 122.091C208.144 122.139 208.089 122.204 208.052 122.279C208.015 122.354 207.997 122.437 208.001 122.52C208.004 122.604 208.028 122.685 208.071 122.757L209.416 125L208.071 127.243L208.044 127.293C208.01 127.369 207.995 127.453 208.001 127.536C208.007 127.62 208.034 127.7 208.079 127.771C208.125 127.841 208.187 127.899 208.26 127.939C208.334 127.979 208.416 128 208.5 128H211.217L212.571 130.257L212.608 130.311C212.659 130.374 212.724 130.424 212.797 130.457C212.871 130.49 212.952 130.504 213.033 130.499C213.113 130.493 213.191 130.469 213.26 130.426C213.329 130.384 213.387 130.326 213.428 130.257L214.782 128H217.5L217.557 127.997C217.64 127.987 217.719 127.957 217.788 127.909C217.856 127.861 217.911 127.796 217.948 127.721C217.985 127.646 218.003 127.563 217.999 127.48C217.996 127.396 217.972 127.315 217.928 127.243L216.583 125L217.928 122.757L217.955 122.707C217.99 122.631 218.005 122.547 217.999 122.464C217.993 122.38 217.966 122.3 217.921 122.229C217.875 122.159 217.813 122.101 217.74 122.061C217.666 122.021 217.584 122 217.5 122H214.783L213.428 119.743C213.384 119.669 213.321 119.608 213.246 119.565C213.171 119.523 213.086 119.501 213 119.501C212.914 119.501 212.829 119.523 212.754 119.565C212.679 119.608 212.616 119.669 212.571 119.743L211.216 122Z" fill="#DEE2ED"/>
</g>
<rect x="259" width="115" height="106" rx="3.72319" fill="#F1F3F9"/>
<path d="M326.708 75.124L314.889 53.4546L324.226 37.8922L344.083 75.124H326.708ZM306.851 47.8207L321.744 75.124H291.959L306.851 47.8207ZM300.646 42.8564C297.219 42.8564 294.441 40.0782 294.441 36.6511C294.441 33.224 297.219 30.4458 300.646 30.4458C304.073 30.4458 306.851 33.224 306.851 36.6511C306.851 40.0782 304.073 42.8564 300.646 42.8564Z" fill="white"/>
<rect x="266" y="138" width="95" height="5" rx="2.5" fill="#EBEDF4"/>
<rect x="277" y="149" width="72" height="5" rx="2.5" fill="#EBEDF4"/>
<g clip-path="url(#clip6_1247_396)">
<path d="M288.216 122H285.5L285.443 122.003C285.36 122.013 285.281 122.043 285.212 122.091C285.144 122.139 285.089 122.204 285.052 122.279C285.015 122.354 284.997 122.437 285.001 122.52C285.004 122.604 285.028 122.685 285.071 122.757L286.416 125L285.071 127.243L285.044 127.293C285.01 127.369 284.995 127.453 285.001 127.536C285.007 127.62 285.034 127.7 285.079 127.771C285.125 127.841 285.187 127.899 285.26 127.939C285.334 127.979 285.416 128 285.5 128H288.217L289.571 130.257L289.608 130.311C289.659 130.374 289.724 130.424 289.797 130.457C289.871 130.49 289.952 130.504 290.033 130.499C290.113 130.493 290.191 130.469 290.26 130.426C290.329 130.384 290.387 130.326 290.428 130.257L291.782 128H294.5L294.557 127.997C294.64 127.987 294.719 127.957 294.788 127.909C294.856 127.861 294.911 127.796 294.948 127.721C294.985 127.646 295.003 127.563 294.999 127.48C294.996 127.396 294.972 127.315 294.928 127.243L293.583 125L294.928 122.757L294.955 122.707C294.99 122.631 295.005 122.547 294.999 122.464C294.993 122.38 294.966 122.3 294.921 122.229C294.875 122.159 294.813 122.101 294.74 122.061C294.666 122.021 294.584 122 294.5 122H291.783L290.428 119.743C290.384 119.669 290.321 119.608 290.246 119.565C290.171 119.523 290.086 119.501 290 119.501C289.914 119.501 289.829 119.523 289.754 119.565C289.679 119.608 289.616 119.669 289.571 119.743L288.216 122Z" fill="#DEE2ED"/>
</g>
<g clip-path="url(#clip7_1247_396)">
<path d="M301.216 122H298.5L298.443 122.003C298.36 122.013 298.281 122.043 298.212 122.091C298.144 122.139 298.089 122.204 298.052 122.279C298.015 122.354 297.997 122.437 298.001 122.52C298.004 122.604 298.028 122.685 298.071 122.757L299.416 125L298.071 127.243L298.044 127.293C298.01 127.369 297.995 127.453 298.001 127.536C298.007 127.62 298.034 127.7 298.079 127.771C298.125 127.841 298.187 127.899 298.26 127.939C298.334 127.979 298.416 128 298.5 128H301.217L302.571 130.257L302.608 130.311C302.659 130.374 302.724 130.424 302.797 130.457C302.871 130.49 302.952 130.504 303.033 130.499C303.113 130.493 303.191 130.469 303.26 130.426C303.329 130.384 303.387 130.326 303.428 130.257L304.782 128H307.5L307.557 127.997C307.64 127.987 307.719 127.957 307.788 127.909C307.856 127.861 307.911 127.796 307.948 127.721C307.985 127.646 308.003 127.563 307.999 127.48C307.996 127.396 307.972 127.315 307.928 127.243L306.583 125L307.928 122.757L307.955 122.707C307.99 122.631 308.005 122.547 307.999 122.464C307.993 122.38 307.966 122.3 307.921 122.229C307.875 122.159 307.813 122.101 307.74 122.061C307.666 122.021 307.584 122 307.5 122H304.783L303.428 119.743C303.384 119.669 303.321 119.608 303.246 119.565C303.171 119.523 303.086 119.501 303 119.501C302.914 119.501 302.829 119.523 302.754 119.565C302.679 119.608 302.616 119.669 302.571 119.743L301.216 122Z" fill="#DEE2ED"/>
</g>
<g clip-path="url(#clip8_1247_396)">
<path d="M314.216 122H311.5L311.443 122.003C311.36 122.013 311.281 122.043 311.212 122.091C311.144 122.139 311.089 122.204 311.052 122.279C311.015 122.354 310.997 122.437 311.001 122.52C311.004 122.604 311.028 122.685 311.071 122.757L312.416 125L311.071 127.243L311.044 127.293C311.01 127.369 310.995 127.453 311.001 127.536C311.007 127.62 311.034 127.7 311.079 127.771C311.125 127.841 311.187 127.899 311.26 127.939C311.334 127.979 311.416 128 311.5 128H314.217L315.571 130.257L315.608 130.311C315.659 130.374 315.724 130.424 315.797 130.457C315.871 130.49 315.952 130.504 316.033 130.499C316.113 130.493 316.191 130.469 316.26 130.426C316.329 130.384 316.387 130.326 316.428 130.257L317.782 128H320.5L320.557 127.997C320.64 127.987 320.719 127.957 320.788 127.909C320.856 127.861 320.911 127.796 320.948 127.721C320.985 127.646 321.003 127.563 320.999 127.48C320.996 127.396 320.972 127.315 320.928 127.243L319.583 125L320.928 122.757L320.955 122.707C320.99 122.631 321.005 122.547 320.999 122.464C320.993 122.38 320.966 122.3 320.921 122.229C320.875 122.159 320.813 122.101 320.74 122.061C320.666 122.021 320.584 122 320.5 122H317.783L316.428 119.743C316.384 119.669 316.321 119.608 316.246 119.565C316.171 119.523 316.086 119.501 316 119.501C315.914 119.501 315.829 119.523 315.754 119.565C315.679 119.608 315.616 119.669 315.571 119.743L314.216 122Z" fill="#DEE2ED"/>
</g>
<g clip-path="url(#clip9_1247_396)">
<path d="M327.216 122H324.5L324.443 122.003C324.36 122.013 324.281 122.043 324.212 122.091C324.144 122.139 324.089 122.204 324.052 122.279C324.015 122.354 323.997 122.437 324.001 122.52C324.004 122.604 324.028 122.685 324.071 122.757L325.416 125L324.071 127.243L324.044 127.293C324.01 127.369 323.995 127.453 324.001 127.536C324.007 127.62 324.034 127.7 324.079 127.771C324.125 127.841 324.187 127.899 324.26 127.939C324.334 127.979 324.416 128 324.5 128H327.217L328.571 130.257L328.608 130.311C328.659 130.374 328.724 130.424 328.797 130.457C328.871 130.49 328.952 130.504 329.033 130.499C329.113 130.493 329.191 130.469 329.26 130.426C329.329 130.384 329.387 130.326 329.428 130.257L330.782 128H333.5L333.557 127.997C333.64 127.987 333.719 127.957 333.788 127.909C333.856 127.861 333.911 127.796 333.948 127.721C333.985 127.646 334.003 127.563 333.999 127.48C333.996 127.396 333.972 127.315 333.928 127.243L332.583 125L333.928 122.757L333.955 122.707C333.99 122.631 334.005 122.547 333.999 122.464C333.993 122.38 333.966 122.3 333.921 122.229C333.875 122.159 333.813 122.101 333.74 122.061C333.666 122.021 333.584 122 333.5 122H330.783L329.428 119.743C329.384 119.669 329.321 119.608 329.246 119.565C329.171 119.523 329.086 119.501 329 119.501C328.914 119.501 328.829 119.523 328.754 119.565C328.679 119.608 328.616 119.669 328.571 119.743L327.216 122Z" fill="#DEE2ED"/>
</g>
<g clip-path="url(#clip10_1247_396)">
<path d="M340.216 122H337.5L337.443 122.003C337.36 122.013 337.281 122.043 337.212 122.091C337.144 122.139 337.089 122.204 337.052 122.279C337.015 122.354 336.997 122.437 337.001 122.52C337.004 122.604 337.028 122.685 337.071 122.757L338.416 125L337.071 127.243L337.044 127.293C337.01 127.369 336.995 127.453 337.001 127.536C337.007 127.62 337.034 127.7 337.079 127.771C337.125 127.841 337.187 127.899 337.26 127.939C337.334 127.979 337.416 128 337.5 128H340.217L341.571 130.257L341.608 130.311C341.659 130.374 341.724 130.424 341.797 130.457C341.871 130.49 341.952 130.504 342.033 130.499C342.113 130.493 342.191 130.469 342.26 130.426C342.329 130.384 342.387 130.326 342.428 130.257L343.782 128H346.5L346.557 127.997C346.64 127.987 346.719 127.957 346.788 127.909C346.856 127.861 346.911 127.796 346.948 127.721C346.985 127.646 347.003 127.563 346.999 127.48C346.996 127.396 346.972 127.315 346.928 127.243L345.583 125L346.928 122.757L346.955 122.707C346.99 122.631 347.005 122.547 346.999 122.464C346.993 122.38 346.966 122.3 346.921 122.229C346.875 122.159 346.813 122.101 346.74 122.061C346.666 122.021 346.584 122 346.5 122H343.783L342.428 119.743C342.384 119.669 342.321 119.608 342.246 119.565C342.171 119.523 342.086 119.501 342 119.501C341.914 119.501 341.829 119.523 341.754 119.565C341.679 119.608 341.616 119.669 341.571 119.743L340.216 122Z" fill="#DEE2ED"/>
</g>
<rect width="115" height="106" rx="3.72319" fill="#F1F3F9"/>
<path d="M67.7085 75.124L55.8888 53.4546L65.2263 37.8922L85.0833 75.124H67.7085ZM47.8515 47.8207L62.7442 75.124H32.9587L47.8515 47.8207ZM41.6462 42.8564C38.2191 42.8564 35.4409 40.0782 35.4409 36.6511C35.4409 33.224 38.2191 30.4458 41.6462 30.4458C45.0733 30.4458 47.8515 33.224 47.8515 36.6511C47.8515 40.0782 45.0733 42.8564 41.6462 42.8564Z" fill="white"/>
<rect x="7" y="138" width="95" height="5" rx="2.5" fill="#EBEDF4"/>
<rect x="18" y="149" width="72" height="5" rx="2.5" fill="#EBEDF4"/>
<g clip-path="url(#clip11_1247_396)">
<path d="M29.2166 122H26.5001L26.4431 122.003C26.36 122.013 26.2807 122.043 26.2123 122.091C26.144 122.139 26.0888 122.204 26.0518 122.279C26.0149 122.354 25.9973 122.437 26.0008 122.52C26.0042 122.604 26.0286 122.685 26.0716 122.757L27.4166 125L26.0716 127.243L26.0446 127.293C26.01 127.369 25.995 127.453 26.0011 127.536C26.0072 127.62 26.0341 127.7 26.0794 127.771C26.1248 127.841 26.187 127.899 26.2605 127.939C26.334 127.979 26.4164 128 26.5001 128H29.2171L30.5716 130.257L30.6086 130.311C30.6589 130.374 30.7238 130.424 30.7976 130.457C30.8715 130.49 30.9522 130.504 31.0328 130.499C31.1133 130.493 31.1915 130.469 31.2604 130.426C31.3293 130.384 31.3871 130.326 31.4286 130.257L32.7826 128H35.5001L35.5571 127.997C35.6402 127.987 35.7195 127.957 35.7879 127.909C35.8563 127.861 35.9114 127.796 35.9484 127.721C35.9854 127.646 36.0029 127.563 35.9995 127.48C35.996 127.396 35.9716 127.315 35.9286 127.243L34.5831 125L35.9286 122.757L35.9556 122.707C35.9903 122.631 36.0052 122.547 35.9992 122.464C35.9931 122.38 35.9661 122.3 35.9208 122.229C35.8755 122.159 35.8132 122.101 35.7397 122.061C35.6662 122.021 35.5838 122 35.5001 122H32.7831L31.4286 119.743C31.3842 119.669 31.3213 119.608 31.2463 119.565C31.1712 119.523 31.0864 119.501 31.0001 119.501C30.9139 119.501 30.8291 119.523 30.754 119.565C30.6789 119.608 30.6161 119.669 30.5716 119.743L29.2166 122Z" fill="#DEE2ED"/>
</g>
<g clip-path="url(#clip12_1247_396)">
<path d="M42.2165 122H39.5L39.443 122.003C39.3599 122.013 39.2806 122.043 39.2122 122.091C39.1439 122.139 39.0887 122.204 39.0517 122.279C39.0147 122.354 38.9972 122.437 39.0006 122.52C39.0041 122.604 39.0285 122.685 39.0715 122.757L40.4165 125L39.0715 127.243L39.0445 127.293C39.0098 127.369 38.9949 127.453 39.001 127.536C39.007 127.62 39.034 127.7 39.0793 127.771C39.1246 127.841 39.1869 127.899 39.2604 127.939C39.3339 127.979 39.4163 128 39.5 128H42.217L43.5715 130.257L43.6085 130.311C43.6588 130.374 43.7236 130.424 43.7975 130.457C43.8714 130.49 43.952 130.504 44.0326 130.499C44.1132 130.493 44.1913 130.469 44.2603 130.426C44.3292 130.384 44.3869 130.326 44.4285 130.257L45.7825 128H48.5L48.557 127.997C48.6401 127.987 48.7194 127.957 48.7878 127.909C48.8561 127.861 48.9113 127.796 48.9483 127.721C48.9852 127.646 49.0028 127.563 48.9993 127.48C48.9959 127.396 48.9715 127.315 48.9285 127.243L47.583 125L48.9285 122.757L48.9555 122.707C48.9901 122.631 49.0051 122.547 48.999 122.464C48.993 122.38 48.966 122.3 48.9207 122.229C48.8753 122.159 48.8131 122.101 48.7396 122.061C48.6661 122.021 48.5837 122 48.5 122H45.783L44.4285 119.743C44.384 119.669 44.3212 119.608 44.2461 119.565C44.1711 119.523 44.0863 119.501 44 119.501C43.9137 119.501 43.8289 119.523 43.7539 119.565C43.6788 119.608 43.6159 119.669 43.5715 119.743L42.2165 122Z" fill="#DEE2ED"/>
</g>
<g clip-path="url(#clip13_1247_396)">
<path d="M55.2165 122H52.5L52.443 122.003C52.3599 122.013 52.2806 122.043 52.2122 122.091C52.1439 122.139 52.0887 122.204 52.0517 122.279C52.0147 122.354 51.9972 122.437 52.0006 122.52C52.0041 122.604 52.0285 122.685 52.0715 122.757L53.4165 125L52.0715 127.243L52.0445 127.293C52.0098 127.369 51.9949 127.453 52.001 127.536C52.007 127.62 52.034 127.7 52.0793 127.771C52.1246 127.841 52.1869 127.899 52.2604 127.939C52.3339 127.979 52.4163 128 52.5 128H55.217L56.5715 130.257L56.6085 130.311C56.6588 130.374 56.7236 130.424 56.7975 130.457C56.8714 130.49 56.952 130.504 57.0326 130.499C57.1132 130.493 57.1913 130.469 57.2603 130.426C57.3292 130.384 57.3869 130.326 57.4285 130.257L58.7825 128H61.5L61.557 127.997C61.6401 127.987 61.7194 127.957 61.7878 127.909C61.8561 127.861 61.9113 127.796 61.9483 127.721C61.9852 127.646 62.0028 127.563 61.9993 127.48C61.9959 127.396 61.9715 127.315 61.9285 127.243L60.583 125L61.9285 122.757L61.9555 122.707C61.9901 122.631 62.0051 122.547 61.999 122.464C61.993 122.38 61.966 122.3 61.9207 122.229C61.8753 122.159 61.8131 122.101 61.7396 122.061C61.6661 122.021 61.5837 122 61.5 122H58.783L57.4285 119.743C57.384 119.669 57.3212 119.608 57.2461 119.565C57.1711 119.523 57.0863 119.501 57 119.501C56.9137 119.501 56.8289 119.523 56.7539 119.565C56.6788 119.608 56.6159 119.669 56.5715 119.743L55.2165 122Z" fill="#DEE2ED"/>
</g>
<g clip-path="url(#clip14_1247_396)">
<path d="M68.2165 122H65.5L65.443 122.003C65.3599 122.013 65.2806 122.043 65.2122 122.091C65.1439 122.139 65.0887 122.204 65.0517 122.279C65.0147 122.354 64.9972 122.437 65.0006 122.52C65.0041 122.604 65.0285 122.685 65.0715 122.757L66.4165 125L65.0715 127.243L65.0445 127.293C65.0098 127.369 64.9949 127.453 65.001 127.536C65.007 127.62 65.034 127.7 65.0793 127.771C65.1246 127.841 65.1869 127.899 65.2604 127.939C65.3339 127.979 65.4163 128 65.5 128H68.217L69.5715 130.257L69.6085 130.311C69.6588 130.374 69.7236 130.424 69.7975 130.457C69.8714 130.49 69.952 130.504 70.0326 130.499C70.1132 130.493 70.1913 130.469 70.2603 130.426C70.3292 130.384 70.3869 130.326 70.4285 130.257L71.7825 128H74.5L74.557 127.997C74.6401 127.987 74.7194 127.957 74.7878 127.909C74.8561 127.861 74.9113 127.796 74.9483 127.721C74.9852 127.646 75.0028 127.563 74.9993 127.48C74.9959 127.396 74.9715 127.315 74.9285 127.243L73.583 125L74.9285 122.757L74.9555 122.707C74.9901 122.631 75.0051 122.547 74.999 122.464C74.993 122.38 74.966 122.3 74.9207 122.229C74.8753 122.159 74.8131 122.101 74.7396 122.061C74.6661 122.021 74.5837 122 74.5 122H71.783L70.4285 119.743C70.384 119.669 70.3212 119.608 70.2461 119.565C70.1711 119.523 70.0863 119.501 70 119.501C69.9137 119.501 69.8289 119.523 69.7539 119.565C69.6788 119.608 69.6159 119.669 69.5715 119.743L68.2165 122Z" fill="#DEE2ED"/>
</g>
<g clip-path="url(#clip15_1247_396)">
<path d="M81.2165 122H78.5L78.443 122.003C78.3599 122.013 78.2806 122.043 78.2122 122.091C78.1439 122.139 78.0887 122.204 78.0517 122.279C78.0147 122.354 77.9972 122.437 78.0006 122.52C78.0041 122.604 78.0285 122.685 78.0715 122.757L79.4165 125L78.0715 127.243L78.0445 127.293C78.0098 127.369 77.9949 127.453 78.001 127.536C78.007 127.62 78.034 127.7 78.0793 127.771C78.1246 127.841 78.1869 127.899 78.2604 127.939C78.3339 127.979 78.4163 128 78.5 128H81.217L82.5715 130.257L82.6085 130.311C82.6588 130.374 82.7236 130.424 82.7975 130.457C82.8714 130.49 82.952 130.504 83.0326 130.499C83.1132 130.493 83.1913 130.469 83.2603 130.426C83.3292 130.384 83.3869 130.326 83.4285 130.257L84.7825 128H87.5L87.557 127.997C87.6401 127.987 87.7194 127.957 87.7878 127.909C87.8561 127.861 87.9113 127.796 87.9483 127.721C87.9852 127.646 88.0028 127.563 87.9993 127.48C87.9959 127.396 87.9715 127.315 87.9285 127.243L86.583 125L87.9285 122.757L87.9555 122.707C87.9901 122.631 88.0051 122.547 87.999 122.464C87.993 122.38 87.966 122.3 87.9207 122.229C87.8753 122.159 87.8131 122.101 87.7396 122.061C87.6661 122.021 87.5837 122 87.5 122H84.783L83.4285 119.743C83.384 119.669 83.3212 119.608 83.2461 119.565C83.1711 119.523 83.0863 119.501 83 119.501C82.9137 119.501 82.8289 119.523 82.7539 119.565C82.6788 119.608 82.6159 119.669 82.5715 119.743L81.2165 122Z" fill="#DEE2ED"/>
</g>
</g>
<defs>
<clipPath id="clip0_1247_396">
<rect width="374" height="242" fill="white"/>
</clipPath>
<clipPath id="clip1_1247_396">
<rect width="12" height="12" fill="white" transform="translate(155 119)"/>
</clipPath>
<clipPath id="clip2_1247_396">
<rect width="12" height="12" fill="white" transform="translate(168 119)"/>
</clipPath>
<clipPath id="clip3_1247_396">
<rect width="12" height="12" fill="white" transform="translate(181 119)"/>
</clipPath>
<clipPath id="clip4_1247_396">
<rect width="12" height="12" fill="white" transform="translate(194 119)"/>
</clipPath>
<clipPath id="clip5_1247_396">
<rect width="12" height="12" fill="white" transform="translate(207 119)"/>
</clipPath>
<clipPath id="clip6_1247_396">
<rect width="12" height="12" fill="white" transform="translate(284 119)"/>
</clipPath>
<clipPath id="clip7_1247_396">
<rect width="12" height="12" fill="white" transform="translate(297 119)"/>
</clipPath>
<clipPath id="clip8_1247_396">
<rect width="12" height="12" fill="white" transform="translate(310 119)"/>
</clipPath>
<clipPath id="clip9_1247_396">
<rect width="12" height="12" fill="white" transform="translate(323 119)"/>
</clipPath>
<clipPath id="clip10_1247_396">
<rect width="12" height="12" fill="white" transform="translate(336 119)"/>
</clipPath>
<clipPath id="clip11_1247_396">
<rect width="12" height="12" fill="white" transform="translate(25 119)"/>
</clipPath>
<clipPath id="clip12_1247_396">
<rect width="12" height="12" fill="white" transform="translate(38 119)"/>
</clipPath>
<clipPath id="clip13_1247_396">
<rect width="12" height="12" fill="white" transform="translate(51 119)"/>
</clipPath>
<clipPath id="clip14_1247_396">
<rect width="12" height="12" fill="white" transform="translate(64 119)"/>
</clipPath>
<clipPath id="clip15_1247_396">
<rect width="12" height="12" fill="white" transform="translate(77 119)"/>
</clipPath>
</defs>
</svg>
