<svg width="370" height="222" viewBox="0 0 370 222" fill="none" xmlns="http://www.w3.org/2000/svg">
<g clip-path="url(#clip0_1134_843)">
<rect width="370" height="222" fill="white"/>
<rect width="115" height="72" rx="3.72319" fill="#F1F3F9"/>
<path d="M67.7085 58.6405L55.8888 36.9711L65.2263 21.4087L85.0833 58.6405H67.7085ZM47.8515 31.3372L62.7442 58.6405H32.9587L47.8515 31.3372ZM41.6462 26.3729C38.2191 26.3729 35.4409 23.5947 35.4409 20.1676C35.4409 16.7405 38.2191 13.9623 41.6462 13.9623C45.0733 13.9623 47.8515 16.7405 47.8515 20.1676C47.8515 23.5947 45.0733 26.3729 41.6462 26.3729Z" fill="white"/>
<rect y="80" width="115" height="5" rx="2.5" fill="#DEE2ED"/>
<rect y="90" width="115" height="5" rx="2.5" fill="#DEE2ED"/>
<rect x="0.234375" y="100.525" width="31.6471" height="8.24" rx="4.12" fill="#DEE2ED"/>
<g clip-path="url(#clip1_1134_843)">
<rect x="0.234375" y="116.211" width="11.1696" height="11.1696" rx="5.58478" fill="#DEE2ED"/>
<g clip-path="url(#clip2_1134_843)">
<path d="M5.81527 119.005C6.27551 119.005 6.7254 119.142 7.10808 119.397C7.49075 119.653 7.789 120.017 7.96513 120.442C8.14125 120.867 8.18733 121.335 8.09755 121.786C8.00776 122.238 7.78614 122.652 7.4607 122.978C7.13526 123.303 6.72064 123.525 6.26924 123.615C5.81785 123.704 5.34997 123.658 4.92477 123.482C4.49957 123.306 4.13614 123.008 3.88045 122.625C3.62476 122.242 3.48828 121.792 3.48828 121.332L3.49061 121.231C3.51663 120.632 3.77292 120.066 4.20603 119.652C4.63914 119.237 5.21562 119.005 5.81527 119.005Z" fill="white"/>
<path d="M6.74913 124.589C7.36628 124.589 7.95816 124.835 8.39456 125.271C8.83095 125.707 9.07612 126.299 9.07612 126.916V127.382C9.07612 127.629 8.97805 127.865 8.80349 128.04C8.62894 128.214 8.39218 128.313 8.14532 128.313H3.49134C3.24448 128.313 3.00773 128.214 2.83317 128.04C2.65861 127.865 2.56055 127.629 2.56055 127.382V126.916C2.56055 126.299 2.80571 125.707 3.24211 125.271C3.6785 124.835 4.27038 124.589 4.88754 124.589H6.74913Z" fill="white"/>
</g>
</g>
<rect x="15.125" y="119.934" width="15.8235" height="3.72319" rx="1.86159" fill="#DEE2ED"/>
<rect x="33.7422" y="119.934" width="26.9931" height="3.72319" rx="1.86159" fill="#DEE2ED"/>
<rect x="127" width="115" height="72" rx="3.72319" fill="#F1F3F9"/>
<path d="M194.708 58.6405L182.889 36.9711L192.226 21.4087L212.083 58.6405H194.708ZM174.851 31.3372L189.744 58.6405H159.959L174.851 31.3372ZM168.646 26.3729C165.219 26.3729 162.441 23.5947 162.441 20.1676C162.441 16.7405 165.219 13.9623 168.646 13.9623C172.073 13.9623 174.851 16.7405 174.851 20.1676C174.851 23.5947 172.073 26.3729 168.646 26.3729Z" fill="white"/>
<rect x="127" y="80" width="115" height="5" rx="2.5" fill="#DEE2ED"/>
<rect x="127" y="90" width="115" height="5" rx="2.5" fill="#DEE2ED"/>
<rect x="127" y="101" width="32" height="8" rx="4" fill="#DEE2ED"/>
<g clip-path="url(#clip3_1134_843)">
<rect x="128.234" y="116.211" width="11.1696" height="11.1696" rx="5.58478" fill="#DEE2ED"/>
<g clip-path="url(#clip4_1134_843)">
<path d="M133.815 119.005C134.276 119.005 134.725 119.142 135.108 119.397C135.491 119.653 135.789 120.017 135.965 120.442C136.141 120.867 136.187 121.335 136.098 121.786C136.008 122.238 135.786 122.652 135.461 122.978C135.135 123.303 134.721 123.525 134.269 123.615C133.818 123.704 133.35 123.658 132.925 123.482C132.5 123.306 132.136 123.008 131.88 122.625C131.625 122.242 131.488 121.792 131.488 121.332L131.491 121.231C131.517 120.632 131.773 120.066 132.206 119.652C132.639 119.237 133.216 119.005 133.815 119.005Z" fill="white"/>
<path d="M134.749 124.589C135.366 124.589 135.958 124.835 136.395 125.271C136.831 125.707 137.076 126.299 137.076 126.916V127.382C137.076 127.629 136.978 127.865 136.803 128.04C136.629 128.214 136.392 128.313 136.145 128.313H131.491C131.244 128.313 131.008 128.214 130.833 128.04C130.659 127.865 130.561 127.629 130.561 127.382V126.916C130.561 126.299 130.806 125.707 131.242 125.271C131.679 124.835 132.27 124.589 132.888 124.589H134.749Z" fill="white"/>
</g>
</g>
<rect x="143.125" y="119.934" width="15.8235" height="3.72319" rx="1.86159" fill="#DEE2ED"/>
<rect x="161.742" y="119.934" width="26.9931" height="3.72319" rx="1.86159" fill="#DEE2ED"/>
<rect x="255" width="115" height="72" rx="3.72319" fill="#F1F3F9"/>
<path d="M322.708 58.6405L310.889 36.9711L320.226 21.4087L340.083 58.6405H322.708ZM302.851 31.3372L317.744 58.6405H287.959L302.851 31.3372ZM296.646 26.3729C293.219 26.3729 290.441 23.5947 290.441 20.1676C290.441 16.7405 293.219 13.9623 296.646 13.9623C300.073 13.9623 302.851 16.7405 302.851 20.1676C302.851 23.5947 300.073 26.3729 296.646 26.3729Z" fill="white"/>
<rect x="255" y="80" width="115" height="5" rx="2.5" fill="#DEE2ED"/>
<rect x="255" y="90" width="115" height="5" rx="2.5" fill="#DEE2ED"/>
<rect x="255" y="101" width="32" height="8" rx="4" fill="#DEE2ED"/>
<g clip-path="url(#clip5_1134_843)">
<rect x="255" y="116.211" width="11.1696" height="11.1696" rx="5.58478" fill="#DEE2ED"/>
<g clip-path="url(#clip6_1134_843)">
<path d="M260.581 119.005C261.041 119.005 261.491 119.142 261.874 119.397C262.256 119.653 262.555 120.017 262.731 120.442C262.907 120.867 262.953 121.335 262.863 121.786C262.773 122.238 262.552 122.652 262.226 122.978C261.901 123.303 261.486 123.525 261.035 123.615C260.583 123.704 260.116 123.658 259.69 123.482C259.265 123.306 258.902 123.008 258.646 122.625C258.39 122.242 258.254 121.792 258.254 121.332L258.256 121.231C258.282 120.632 258.539 120.066 258.972 119.652C259.405 119.237 259.981 119.005 260.581 119.005Z" fill="white"/>
<path d="M261.515 124.589C262.132 124.589 262.724 124.835 263.16 125.271C263.597 125.707 263.842 126.299 263.842 126.916V127.382C263.842 127.629 263.744 127.865 263.569 128.04C263.395 128.214 263.158 128.313 262.911 128.313H258.257C258.01 128.313 257.773 128.214 257.599 128.04C257.424 127.865 257.326 127.629 257.326 127.382V126.916C257.326 126.299 257.571 125.707 258.008 125.271C258.444 124.835 259.036 124.589 259.653 124.589H261.515Z" fill="white"/>
</g>
</g>
<rect x="269.891" y="119.934" width="15.8235" height="3.72319" rx="1.86159" fill="#DEE2ED"/>
<rect x="288.508" y="119.934" width="26.9931" height="3.72319" rx="1.86159" fill="#DEE2ED"/>
<rect y="140" width="115" height="72" rx="3.72319" fill="#F1F3F9"/>
<path d="M67.7085 198.641L55.8888 176.971L65.2263 161.409L85.0833 198.641H67.7085ZM47.8515 171.337L62.7442 198.641H32.9587L47.8515 171.337ZM41.6462 166.373C38.2191 166.373 35.4409 163.595 35.4409 160.168C35.4409 156.74 38.2191 153.962 41.6462 153.962C45.0733 153.962 47.8515 156.74 47.8515 160.168C47.8515 163.595 45.0733 166.373 41.6462 166.373Z" fill="white"/>
<rect y="220" width="115" height="5" rx="2.5" fill="#DEE2ED"/>
<rect x="127" y="140" width="115" height="72" rx="3.72319" fill="#F1F3F9"/>
<path d="M194.708 198.641L182.889 176.971L192.226 161.409L212.083 198.641H194.708ZM174.851 171.337L189.744 198.641H159.959L174.851 171.337ZM168.646 166.373C165.219 166.373 162.441 163.595 162.441 160.168C162.441 156.74 165.219 153.962 168.646 153.962C172.073 153.962 174.851 156.74 174.851 160.168C174.851 163.595 172.073 166.373 168.646 166.373Z" fill="white"/>
<rect x="127" y="220" width="115" height="5" rx="2.5" fill="#DEE2ED"/>
<rect x="255" y="140" width="115" height="72" rx="3.72319" fill="#F1F3F9"/>
<path d="M322.708 198.641L310.889 176.971L320.226 161.409L340.083 198.641H322.708ZM302.851 171.337L317.744 198.641H287.959L302.851 171.337ZM296.646 166.373C293.219 166.373 290.441 163.595 290.441 160.168C290.441 156.74 293.219 153.962 296.646 153.962C300.073 153.962 302.851 156.74 302.851 160.168C302.851 163.595 300.073 166.373 296.646 166.373Z" fill="white"/>
<rect x="255" y="220" width="115" height="5" rx="2.5" fill="#DEE2ED"/>
</g>
<defs>
<clipPath id="clip0_1134_843">
<rect width="370" height="222" fill="white"/>
</clipPath>
<clipPath id="clip1_1134_843">
<rect x="0.234375" y="116.211" width="11.1696" height="11.1696" rx="5.58478" fill="white"/>
</clipPath>
<clipPath id="clip2_1134_843">
<rect width="11.1696" height="11.1696" fill="white" transform="translate(0.234375 118.073)"/>
</clipPath>
<clipPath id="clip3_1134_843">
<rect x="128.234" y="116.211" width="11.1696" height="11.1696" rx="5.58478" fill="white"/>
</clipPath>
<clipPath id="clip4_1134_843">
<rect width="11.1696" height="11.1696" fill="white" transform="translate(128.234 118.073)"/>
</clipPath>
<clipPath id="clip5_1134_843">
<rect x="255" y="116.211" width="11.1696" height="11.1696" rx="5.58478" fill="white"/>
</clipPath>
<clipPath id="clip6_1134_843">
<rect width="11.1696" height="11.1696" fill="white" transform="translate(255 118.073)"/>
</clipPath>
</defs>
</svg>
