<svg width="370" height="222" viewBox="0 0 370 222" fill="none" xmlns="http://www.w3.org/2000/svg">
<g clip-path="url(#clip0_1134_2160)">
<rect width="370" height="222" fill="white"/>
<rect x="0.280273" y="219.468" width="117.447" height="73.5319" rx="3.8024" fill="#F1F3F9"/>
<rect width="370" height="141" rx="3.72319" fill="#DEE2ED"/>
<path d="M203.399 116.227L178.875 71.2661L198.249 38.9766L239.449 116.227H203.399ZM162.199 59.5766L193.099 116.227H131.299L162.199 59.5766ZM149.324 49.2766C142.213 49.2766 136.449 43.5123 136.449 36.4016C136.449 29.291 142.213 23.5266 149.324 23.5266C156.434 23.5266 162.199 29.291 162.199 36.4016C162.199 43.5123 156.434 49.2766 149.324 49.2766Z" fill="white" fill-opacity="0.25"/>
<rect x="27" y="92" width="316" height="82" rx="4" fill="#F1F3F9"/>
<rect x="41" y="106" width="280" height="6" rx="3" fill="#DEE2ED"/>
<rect x="41" y="117" width="247" height="6" rx="3" fill="#DEE2ED"/>
<g clip-path="url(#clip1_1134_2160)">
<rect x="41.002" y="131" width="11.2615" height="11.2615" rx="5.63076" fill="#DEE2ED"/>
<g clip-path="url(#clip2_1134_2160)">
<path d="M46.6318 132.877C47.1886 132.877 47.7329 133.042 48.1959 133.352C48.6589 133.661 49.0198 134.101 49.2329 134.615C49.446 135.13 49.5017 135.696 49.3931 136.242C49.2844 136.788 49.0163 137.29 48.6226 137.683C48.2288 138.077 47.7272 138.345 47.181 138.454C46.6349 138.562 46.0688 138.507 45.5544 138.294C45.0399 138.081 44.6002 137.72 44.2909 137.257C43.9815 136.794 43.8164 136.249 43.8164 135.693L43.8192 135.57C43.8507 134.846 44.1608 134.161 44.6848 133.659C45.2088 133.157 45.9063 132.877 46.6318 132.877Z" fill="white"/>
<path d="M47.7033 139.446C48.4145 139.446 49.0965 139.693 49.5993 140.133C50.1022 140.573 50.3846 141.17 50.3846 141.792V142.262C50.3846 142.511 50.2716 142.749 50.0705 142.925C49.8694 143.101 49.5966 143.2 49.3121 143.2H43.9495C43.665 143.2 43.3922 143.101 43.1911 142.925C42.99 142.749 42.877 142.511 42.877 142.262V141.792C42.877 141.17 43.1594 140.573 43.6623 140.133C44.1651 139.693 44.8471 139.446 45.5583 139.446H47.7033Z" fill="white"/>
</g>
</g>
<rect x="57" y="136" width="9" height="3" rx="1.5" fill="#DEE2ED"/>
<rect x="68" y="136" width="32" height="3" rx="1.5" fill="#DEE2ED"/>
<rect x="41" y="152" width="39" height="8" rx="4" fill="#DEE2ED"/>
<rect y="185" width="115" height="72" rx="3.72319" fill="#F1F3F9"/>
<path d="M67.7085 243.641L55.8888 221.971L65.2263 206.409L85.0833 243.641H67.7085ZM47.8515 216.337L62.7442 243.641H32.9587L47.8515 216.337ZM41.6462 211.373C38.2191 211.373 35.4409 208.595 35.4409 205.168C35.4409 201.74 38.2191 198.962 41.6462 198.962C45.0733 198.962 47.8515 201.74 47.8515 205.168C47.8515 208.595 45.0733 211.373 41.6462 211.373Z" fill="white"/>
<rect x="127" y="185" width="115" height="72" rx="3.72319" fill="#F1F3F9"/>
<path d="M194.708 243.641L182.889 221.971L192.226 206.409L212.083 243.641H194.708ZM174.851 216.337L189.744 243.641H159.959L174.851 216.337ZM168.646 211.373C165.219 211.373 162.441 208.595 162.441 205.168C162.441 201.74 165.219 198.962 168.646 198.962C172.073 198.962 174.851 201.74 174.851 205.168C174.851 208.595 172.073 211.373 168.646 211.373Z" fill="white"/>
<rect x="253" y="185" width="115" height="72" rx="3.72319" fill="#F1F3F9"/>
<path d="M320.708 243.641L308.889 221.971L318.226 206.409L338.083 243.641H320.708ZM300.851 216.337L315.744 243.641H285.959L300.851 216.337ZM294.646 211.373C291.219 211.373 288.441 208.595 288.441 205.168C288.441 201.74 291.219 198.962 294.646 198.962C298.073 198.962 300.851 201.74 300.851 205.168C300.851 208.595 298.073 211.373 294.646 211.373Z" fill="white"/>
</g>
<defs>
<clipPath id="clip0_1134_2160">
<rect width="370" height="222" fill="white"/>
</clipPath>
<clipPath id="clip1_1134_2160">
<rect x="41.002" y="131" width="11.2615" height="11.2615" rx="5.63076" fill="white"/>
</clipPath>
<clipPath id="clip2_1134_2160">
<rect width="10.4822" height="10.4822" fill="white" transform="translate(41.002 132.877)"/>
</clipPath>
</defs>
</svg>
