<?xml version="1.0" encoding="UTF-8"?>
<svg id="Layer_2" data-name="Layer 2" xmlns="http://www.w3.org/2000/svg" viewBox="0 0 360.19 513.08">
  <defs>
    <style>
      .cls-1 {
        stroke-width: 2.19px;
      }

      .cls-1, .cls-2 {
        fill: none;
        stroke: #fff;
        stroke-linecap: round;
        stroke-linejoin: round;
      }

      .cls-2 {
        stroke-width: 3.5px;
      }

      .cls-3 {
        fill: #f5a81c;
      }
    </style>
  </defs>
  <g id="Layer_1-2" data-name="Layer 1">
    <path class="cls-3" d="M185.92,396.46v-192.85h174.27c0,106.51-78.02,192.85-174.27,192.85"/>
    <path class="cls-3" d="M185.92,0v192.85h174.27C360.19,86.35,282.17,0,185.92,0"/>
    <path class="cls-3" d="M175.17,192.85V0H.9c0,106.51,78.02,192.85,174.27,192.85"/>
    <path class="cls-3" d="M174.27,203.61v192.85H0c0-106.51,78.02-192.85,174.27-192.85"/>
    <g>
      <path class="cls-3" d="M15.26,419.95H3.33v48.49h11.93c7.64,0,13.21-2,16.69-6,3.49-4,5.23-10.08,5.23-18.24s-1.74-14.24-5.23-18.24c-3.49-4-9.05-6-16.69-6M.77,416.77h14.79c8.47,0,14.74,2.29,18.82,6.89,4.08,4.6,6.12,11.44,6.12,20.52s-2.04,15.93-6.12,20.52c-4.08,4.6-10.35,6.89-18.82,6.89H.77c-.52,0-.77-.26-.77-.77v-53.29c0-.51.25-.77.77-.77"/>
      <path class="cls-3" d="M71.72,416.77h31.91c.47,0,.7.26.7.77v1.7c0,.46-.23.7-.7.7h-29.35v22.31h28.5c.46,0,.7.26.7.77v1.63c0,.52-.23.77-.7.77h-28.5v23h29.82c.52,0,.77.23.77.7v1.71c0,.52-.26.77-.77.77h-32.38c-.52,0-.77-.26-.77-.77v-53.29c0-.52.26-.77.77-.77"/>
      <path class="cls-3" d="M150.71,416c5.89,0,10.89,1.03,15.03,3.1.41.26.51.6.31,1.01l-.7,1.47c-.16.47-.52.57-1.09.31-3.82-1.81-8.36-2.71-13.63-2.71-4.8,0-8.4.83-10.8,2.48-2.4,1.65-3.6,4.28-3.6,7.9,0,1.6.28,3.03.85,4.3.57,1.27,1.2,2.27,1.9,3.02.7.75,1.8,1.48,3.33,2.21,1.52.72,2.79,1.24,3.8,1.55,1.01.31,2.54.77,4.61,1.39,1.81.52,3.15.9,4.03,1.16.88.26,2.08.67,3.6,1.24,1.52.57,2.68,1.1,3.49,1.59.8.49,1.71,1.16,2.75,2.01,1.03.85,1.8,1.74,2.32,2.67.52.93.96,2.05,1.32,3.37.36,1.32.54,2.78.54,4.38,0,9.29-6.48,13.94-19.44,13.94-7.02,0-12.42-1.14-16.19-3.41-.42-.26-.52-.59-.31-1l.62-1.47c.26-.41.65-.52,1.16-.31,3.82,2.02,8.68,3.02,14.56,3.02,10.84,0,16.26-3.56,16.26-10.69,0-2.12-.39-3.94-1.16-5.46-.77-1.52-1.94-2.75-3.49-3.68-1.55-.93-3.12-1.68-4.72-2.25-1.6-.57-3.59-1.19-5.97-1.86-.57-.15-.98-.26-1.24-.31-2.12-.62-3.8-1.15-5.03-1.59-1.24-.44-2.65-1.07-4.22-1.9-1.58-.82-2.79-1.73-3.64-2.71-.85-.98-1.57-2.26-2.17-3.84-.6-1.57-.89-3.37-.89-5.38,0-9.04,5.94-13.55,17.81-13.55"/>
      <path class="cls-3" d="M199.66,416.77h1.86c.46,0,.7.26.7.77v53.29c0,.52-.23.77-.7.77h-1.86c-.47,0-.7-.26-.7-.77v-53.29c0-.52.23-.77.7-.77"/>
      <path class="cls-3" d="M256.36,442.25h19.21c.46,0,.7.26.7.77v23.47c0,.72-.28,1.29-.85,1.7-4.54,2.84-10.3,4.26-17.27,4.26-8.42,0-14.76-2.45-19.02-7.36-4.26-4.91-6.39-11.88-6.39-20.91s2.12-16.01,6.35-20.91c4.23-4.91,10.56-7.36,18.98-7.36,6.09,0,11.21,1.14,15.34,3.41.46.31.59.67.39,1.09l-.7,1.47c-.26.47-.65.57-1.17.31-3.82-2.01-8.44-3.02-13.86-3.02-7.38,0-12.88,2.16-16.5,6.47-3.61,4.31-5.42,10.5-5.42,18.55s1.82,14.24,5.46,18.55c3.64,4.31,9.15,6.47,16.54,6.47,6.14,0,11.1-1.11,14.87-3.33v-20.45h-16.65c-.52,0-.77-.26-.77-.77v-1.62c0-.52.26-.77.77-.77"/>
      <path class="cls-3" d="M309.1,416.77h2.48c.36,0,.7.18,1.01.54l31.83,49.1h.23v-48.87c0-.52.24-.77.7-.77h1.86c.47,0,.7.26.7.77v53.29c0,.52-.23.77-.7.77h-2.48c-.47,0-.8-.18-1.01-.55l-31.91-49.1h-.15v48.87c0,.52-.26.77-.77.77h-1.78c-.52,0-.77-.26-.77-.77v-53.29c0-.52.26-.77.77-.77"/>
      <path class="cls-3" d="M107.76,502.66c1.37,1.55,3.38,2.33,6.03,2.33s4.66-.77,6.03-2.33c1.37-1.55,2.06-3.82,2.06-6.8s-.69-5.25-2.06-6.8c-1.37-1.55-3.38-2.33-6.03-2.33s-4.66.77-6.03,2.33c-1.37,1.55-2.05,3.82-2.05,6.8s.68,5.25,2.05,6.8M122.47,475.22h1.67c.42,0,.63.21.63.63v30.72c0,.42-.21.63-.63.63h-1.67c-.39,0-.58-.21-.58-.63v-2.94c-1.69,2.71-4.52,4.07-8.49,4.07-3.4,0-6.03-1.02-7.88-3.07-1.85-2.05-2.78-4.97-2.78-8.76s.93-6.72,2.78-8.76c1.85-2.05,4.48-3.07,7.88-3.07,4.01,0,6.84,1.36,8.49,4.07v-12.25c0-.42.19-.63.58-.63"/>
      <path class="cls-3" d="M141.45,486.69c-4.94,0-7.56,2.65-7.86,7.95h15.18c0-2.56-.63-4.52-1.9-5.89-1.27-1.37-3.07-2.05-5.42-2.05M141.45,484.03c3.16,0,5.65.98,7.48,2.94,1.83,1.96,2.74,4.59,2.74,7.91v1.71c0,.39-.2.59-.59.59h-17.48c.18,2.74.97,4.75,2.37,6.03,1.4,1.28,3.44,1.92,6.12,1.92s5-.57,6.96-1.72c.39-.18.66-.09.81.27l.59,1.26c.18.33.09.61-.27.81-.78.51-1.92.96-3.41,1.36-1.49.39-3.07.59-4.72.59-3.7,0-6.54-1-8.52-3-1.98-2-2.96-4.95-2.96-8.83s.96-6.76,2.87-8.79c1.91-2.03,4.58-3.05,8.02-3.05"/>
      <path class="cls-3" d="M162.21,502.66c1.37,1.55,3.38,2.33,6.03,2.33s4.66-.77,6.03-2.33c1.37-1.55,2.06-3.82,2.06-6.8s-.69-5.25-2.06-6.8c-1.37-1.55-3.38-2.33-6.03-2.33s-4.66.77-6.03,2.33c-1.37,1.55-2.05,3.82-2.05,6.8s.68,5.25,2.05,6.8M168.65,484.03c3.4,0,6.03,1.02,7.88,3.07,1.85,2.05,2.78,4.97,2.78,8.76s-.93,6.72-2.78,8.76c-1.85,2.05-4.48,3.07-7.88,3.07-3.98,0-6.81-1.36-8.49-4.07v8.81c0,.42-.21.63-.63.63h-1.62c-.42,0-.63-.21-.63-.63v-27.29c0-.42.21-.63.63-.63h1.53c.42,0,.63.21.63.63l.05,3.03c1.63-2.77,4.47-4.16,8.54-4.16"/>
      <path class="cls-3" d="M192.37,505.13c2.5,0,4.42-.66,5.76-1.96,1.34-1.31,2.01-3.02,2.01-5.13v-1.67h-4.47c-2.17,0-3.86.09-5.06.27-1.2.18-2.19.6-2.96,1.24-.77.65-1.15,1.59-1.15,2.82,0,2.95,1.96,4.43,5.87,4.43M193.9,484.03c2.92,0,5.17.66,6.76,1.96,1.58,1.31,2.37,3.27,2.37,5.89v14.68c0,.42-.21.63-.63.63h-1.49c-.42,0-.63-.18-.63-.54l-.09-2.84h-.14c-.57,1.08-1.55,2-2.92,2.75-1.37.75-3.09,1.13-5.17,1.13-2.68,0-4.75-.6-6.19-1.78-1.45-1.19-2.17-2.94-2.17-5.26,0-2.56.96-4.34,2.89-5.33,1.93-1,4.88-1.49,8.85-1.49h4.79v-1.72c0-1.9-.55-3.27-1.65-4.13-1.1-.86-2.72-1.29-4.86-1.29-2.65,0-5.09.53-7.32,1.58-.42.18-.71.09-.86-.27l-.59-1.4c-.18-.3-.08-.57.32-.81.87-.48,2.15-.9,3.84-1.24,1.69-.35,3.32-.52,4.88-.52"/>
      <path class="cls-3" d="M220.33,484.39c.48,0,.72.19.72.58v1.72c0,.36-.19.55-.58.55-.06,0-.18-.01-.36-.03-.18-.01-.35-.02-.5-.02-2.17,0-3.89.66-5.17,1.99-1.28,1.33-1.92,3.06-1.92,5.2v12.2c0,.42-.21.63-.63.63h-1.63c-.42,0-.63-.21-.63-.63v-21.42c0-.42.21-.63.63-.63h1.49c.42,0,.65.19.68.58l.05,3.21h.13c.63-1.17,1.62-2.12,2.96-2.85,1.34-.72,2.93-1.08,4.77-1.08"/>
      <path class="cls-3" d="M237.09,504.63c.42-.09.63.08.63.49v1.49c0,.36-.15.56-.45.59-.81.3-1.9.45-3.25.45-2.23,0-3.83-.51-4.81-1.53-.98-1.03-1.47-2.7-1.47-5.02v-13.82h-3.66c-.39,0-.59-.2-.59-.59v-1.54c0-.42.2-.63.59-.63h3.66v-6.24c0-.42.21-.63.63-.63h1.67c.39,0,.59.21.59.63v6.24h6.41c.39,0,.59.21.59.63v1.54c0,.39-.2.59-.59.59h-6.41v13.55c0,1.57.29,2.65.88,3.23.58.59,1.57.88,2.96.88.9,0,1.77-.1,2.62-.32"/>
      <path class="cls-3" d="M269.44,484.07c5.9,0,8.85,3.04,8.85,9.13v13.37c0,.42-.19.63-.59.63h-1.67c-.42,0-.63-.21-.63-.63v-12.97c0-2.35-.48-4.07-1.44-5.15-.96-1.08-2.55-1.62-4.74-1.62s-3.97.63-5.22,1.9c-1.25,1.27-1.88,2.97-1.88,5.11v12.74c0,.42-.21.63-.63.63h-1.67c-.39,0-.59-.21-.59-.63v-13.1c0-2.29-.49-3.97-1.47-5.04-.98-1.07-2.57-1.6-4.77-1.6s-3.97.64-5.22,1.92c-1.25,1.28-1.88,3.02-1.88,5.22v12.61c0,.42-.21.63-.63.63h-1.63c-.42,0-.63-.21-.63-.63v-21.42c0-.42.21-.63.63-.63h1.49c.42,0,.65.2.68.59l.05,2.75h.14c.63-1.14,1.6-2.06,2.91-2.75,1.31-.69,2.87-1.04,4.68-1.04,3.95,0,6.54,1.38,7.77,4.16.6-1.23,1.6-2.24,2.98-3,1.38-.77,3.09-1.15,5.11-1.15"/>
      <path class="cls-3" d="M294.7,486.69c-4.94,0-7.56,2.65-7.86,7.95h15.18c0-2.56-.63-4.52-1.9-5.89-1.27-1.37-3.07-2.05-5.42-2.05M294.7,484.03c3.16,0,5.65.98,7.48,2.94,1.83,1.96,2.74,4.59,2.74,7.91v1.71c0,.39-.2.59-.59.59h-17.48c.18,2.74.97,4.75,2.37,6.03,1.4,1.28,3.44,1.92,6.12,1.92s5-.57,6.96-1.72c.39-.18.66-.09.81.27l.59,1.26c.18.33.09.61-.27.81-.78.51-1.92.96-3.41,1.36-1.49.39-3.07.59-4.72.59-3.7,0-6.54-1-8.52-3-1.98-2-2.96-4.95-2.96-8.83s.96-6.76,2.87-8.79c1.91-2.03,4.58-3.05,8.02-3.05"/>
      <path class="cls-3" d="M321.22,484.07c2.86,0,5.01.78,6.44,2.35,1.43,1.57,2.15,3.83,2.15,6.78v13.37c0,.42-.2.63-.59.63h-1.67c-.42,0-.63-.21-.63-.63v-12.97c0-2.35-.49-4.07-1.49-5.15-1-1.08-2.61-1.62-4.84-1.62s-3.98.65-5.26,1.94c-1.28,1.3-1.92,3.03-1.92,5.2v12.61c0,.42-.21.63-.63.63h-1.63c-.42,0-.63-.21-.63-.63v-21.42c0-.42.21-.63.63-.63h1.49c.42,0,.65.2.68.59l.05,2.8h.13c.63-1.14,1.62-2.07,2.96-2.78,1.34-.71,2.93-1.06,4.77-1.06"/>
      <path class="cls-3" d="M347.42,504.63c.42-.09.63.08.63.49v1.49c0,.36-.15.56-.45.59-.81.3-1.9.45-3.25.45-2.23,0-3.83-.51-4.81-1.53-.98-1.03-1.47-2.7-1.47-5.02v-13.82h-3.66c-.39,0-.59-.2-.59-.59v-1.54c0-.42.2-.63.59-.63h3.66v-6.24c0-.42.21-.63.63-.63h1.67c.39,0,.59.21.59.63v6.24h6.41c.39,0,.59.21.59.63v1.54c0,.39-.2.59-.59.59h-6.41v13.55c0,1.57.29,2.65.88,3.23.58.59,1.57.88,2.96.88.9,0,1.77-.1,2.62-.32"/>
    </g>
    <g>
      <path class="cls-2" d="M205.47,136.15v-56.37c0-1.52,1.23-2.75,2.75-2.75h93.99c1.52,0,2.75,1.23,2.75,2.75v56.37c0,1.52-1.23,2.75-2.75,2.75h-93.99c-1.52,0-2.75-1.23-2.75-2.75"/>
      <g>
        <path class="cls-2" d="M203.52,68.83h103.4c3.52,0,6.37,2.86,6.37,6.37v70.98c0,3.52-2.86,6.38-6.38,6.38h-103.4c-3.52,0-6.38-2.86-6.38-6.38v-70.97c0-3.52,2.86-6.38,6.38-6.38Z"/>
        <path class="cls-2" d="M277.46,169.95h-14.11v-17.39h-16.26v17.39h-14.1c-.79,0-1.51.22-2.15.59-1.28.72-2.13,2.11-2.13,3.68v5.53h53.04v-5.53c0-2.36-1.92-4.27-4.28-4.27Z"/>
      </g>
      <path class="cls-1" d="M251.49,126.79c-.1.03-.21.03-.33,0-.34-.09-.54-.44-.45-.77l9.4-36.43c.09-.34.44-.54.77-.45.34.09.54.43.46.77l-9.4,36.43c-.06.23-.23.4-.45.45"/>
      <path class="cls-1" d="M271.29,120.58c-.17,0-.34-.07-.47-.2-.24-.26-.23-.66.03-.9l13.01-12.1-12.03-10.93c-.26-.24-.28-.64-.04-.9.24-.26.64-.28.9-.04l12.54,11.4c.13.12.21.29.21.47,0,.18-.07.35-.2.47l-13.51,12.57c-.12.11-.28.17-.43.17"/>
      <path class="cls-1" d="M239.36,120.66c-.15,0-.3-.05-.42-.16l-13.73-12.06c-.14-.12-.21-.29-.21-.48s.08-.36.21-.48l13.73-12.06c.26-.23.66-.21.9.06.23.26.21.67-.06.9l-13.19,11.58,13.19,11.58c.26.23.29.63.06.9-.12.14-.3.22-.48.22"/>
    </g>
  </g>
</svg>