<svg width="60" height="60" viewBox="0 0 60 60" fill="none" xmlns="http://www.w3.org/2000/svg">
	<path
		d="M22.6002 37.85H22.6L11.4 37.85L11.3998 37.85C10.9883 37.8505 10.5941 38.0165 10.3037 38.3109C10.0134 38.6052 9.85047 39.0038 9.85 39.4192V39.4194L9.85 47.5806L9.85 47.5808C9.85047 47.9962 10.0134 48.3948 10.3037 48.6891C10.5941 48.9835 10.9883 49.1495 11.3998 49.15H11.4L22.6 49.15L22.6002 49.15C23.0117 49.1495 23.4059 48.9835 23.6963 48.6891C23.9866 48.3948 24.1495 47.9962 24.15 47.5808V47.5806L24.15 39.4194L24.15 39.4192C24.1495 39.0038 23.9866 38.6052 23.6963 38.3109C23.4059 38.0165 23.0117 37.8505 22.6002 37.85ZM11.55 47.4306V39.5694H22.45L22.4507 47.4306H11.55Z"
		fill="#6C3BFF" stroke="#6C3BFF" stroke-width="0.3" />
	<path
		d="M47.6002 37.85H47.6L36.4 37.85L36.3998 37.85C35.9883 37.8505 35.5941 38.0165 35.3037 38.3109C35.0134 38.6052 34.8505 39.0038 34.85 39.4192V39.4194L34.85 47.5806L34.85 47.5808C34.8505 47.9962 35.0134 48.3948 35.3037 48.6891C35.5941 48.9835 35.9883 49.1495 36.3998 49.15H36.4L47.6 49.15L47.6002 49.15C48.0117 49.1495 48.4059 48.9835 48.6963 48.6891C48.9866 48.3948 49.1495 47.9962 49.15 47.5808V47.5806L49.15 39.4194L49.15 39.4192C49.1495 39.0038 48.9866 38.6052 48.6963 38.3109C48.4059 38.0165 48.0117 37.8505 47.6002 37.85ZM36.55 47.4306V39.5694H47.45L47.4507 47.4306H36.55Z"
		fill="#6C3BFF" stroke="#6C3BFF" stroke-width="0.3" />
	<path
		d="M30.4111 20.7553L38.4612 20.7553L38.4614 20.7553C38.8773 20.7548 39.2772 20.5961 39.573 20.3122C39.8691 20.0281 40.0369 19.6416 40.0373 19.237V19.2368V11.3684V11.3682C40.0369 10.9637 39.8691 10.5771 39.573 10.293L39.4692 10.4013L39.573 10.293C39.2772 10.0091 38.8773 9.85046 38.4614 9.85H38.4612L20.6349 9.85L20.6347 9.85C20.2188 9.85046 19.8189 10.0091 19.5231 10.293C19.227 10.5771 19.0592 10.9637 19.0587 11.3682V11.3684V19.2368L19.0587 19.237C19.0592 19.6416 19.227 20.0281 19.5231 20.3122C19.8189 20.5961 20.2188 20.7548 20.6347 20.7553H20.6349H28.685V22.2301C28.6831 23.8436 28.0143 25.3918 26.8232 26.5347C25.6319 27.6778 24.0155 28.3218 22.3282 28.3237H19.1196H19.1195C18.2546 28.3246 17.4243 28.6547 16.8109 29.2432C16.1973 29.832 15.851 30.6315 15.85 31.4669V31.4671V35.3158C15.85 35.5391 15.9425 35.7519 16.105 35.9078C16.2673 36.0636 16.4861 36.15 16.7131 36.15C16.94 36.15 17.1588 36.0636 17.3211 35.9078C17.4836 35.7519 17.5761 35.5391 17.5761 35.3158L17.5761 31.4673C17.5761 31.4673 17.5761 31.4672 17.5761 31.4672C17.5766 31.0782 17.7378 30.7039 18.0265 30.4268C18.3155 30.1496 18.7086 29.9926 19.1198 29.9921H22.3284H22.3286C23.8803 29.99 25.3989 29.5592 26.7032 28.7507C27.9191 27.997 28.901 26.9444 29.5481 25.704C30.1951 26.9444 31.177 27.997 32.3929 28.7507C33.6972 29.5592 35.2158 29.99 36.7675 29.9921H36.7677H39.8802C40.2914 29.9926 40.6845 30.1496 40.9735 30.4268C41.2622 30.7039 41.4234 31.0782 41.4239 31.4673L41.4239 35.3158L41.4239 35.3183C41.4276 35.5392 41.5217 35.7486 41.6838 35.9016C41.8457 36.0544 42.0624 36.139 42.287 36.139C42.5116 36.139 42.7283 36.0544 42.8901 35.9015C43.0522 35.7485 43.1463 35.5392 43.15 35.3183H43.15V35.3157V31.4671V31.4669C43.149 30.6315 42.8027 29.832 42.1891 29.2432C41.5757 28.6547 40.7454 28.3246 39.8805 28.3237H39.8804H36.7679C35.0806 28.3218 33.4642 27.6778 32.2729 26.5347C31.0818 25.3918 30.413 23.8436 30.4111 22.2301V20.7553ZM20.7849 19.0868V11.5184H38.3113L38.3119 19.0868H20.7849Z"
		fill="#6C3BFF" stroke="#6C3BFF" stroke-width="0.3" />
</svg>
	