<svg width="370" height="222" viewBox="0 0 370 222" fill="none" xmlns="http://www.w3.org/2000/svg">
	<rect width="370" height="222" fill="white" />
	<rect x="105.005" y="15.142" width="30.8068" height="11.5341" rx="5.53977" stroke="#B9C6DD"
		stroke-width="0.284091" />
	<path
		d="M108.727 20.95C108.727 20.8197 108.758 20.7045 108.818 20.6045C108.876 20.5015 108.956 20.4212 109.059 20.3636C109.159 20.303 109.274 20.2727 109.405 20.2727H111.968C112.099 20.2727 112.214 20.303 112.314 20.3636C112.417 20.4212 112.497 20.5015 112.555 20.6045C112.615 20.7045 112.646 20.8197 112.646 20.95V20.9591C112.646 21.0894 112.615 21.2061 112.555 21.3091C112.497 21.4091 112.417 21.4894 112.314 21.55C112.214 21.6076 112.099 21.6364 111.968 21.6364H109.405C109.274 21.6364 109.159 21.6076 109.059 21.55C108.956 21.4894 108.876 21.4091 108.818 21.3091C108.758 21.2061 108.727 21.0894 108.727 20.9591V20.95ZM111.28 20.95C111.28 20.8197 111.31 20.7045 111.371 20.6045C111.428 20.5015 111.509 20.4212 111.612 20.3636C111.712 20.303 111.827 20.2727 111.957 20.2727H113.266C113.396 20.2727 113.512 20.303 113.612 20.3636C113.715 20.4212 113.795 20.5015 113.852 20.6045C113.913 20.7045 113.943 20.8197 113.943 20.95V20.9591C113.943 21.0894 113.913 21.2061 113.852 21.3091C113.795 21.4091 113.715 21.4894 113.612 21.55C113.512 21.6076 113.396 21.6364 113.266 21.6364H111.957C111.827 21.6364 111.712 21.6076 111.612 21.55C111.509 21.4894 111.428 21.4091 111.371 21.3091C111.31 21.2061 111.28 21.0894 111.28 20.9591V20.95ZM112.58 20.95C112.58 20.8197 112.611 20.7045 112.671 20.6045C112.729 20.5015 112.809 20.4212 112.912 20.3636C113.012 20.303 113.127 20.2727 113.258 20.2727H114.567C114.697 20.2727 114.812 20.303 114.912 20.3636C115.015 20.4212 115.095 20.5015 115.153 20.6045C115.214 20.7045 115.244 20.8197 115.244 20.95V20.9591C115.244 21.0894 115.214 21.2061 115.153 21.3091C115.095 21.4091 115.015 21.4894 114.912 21.55C114.812 21.6076 114.697 21.6364 114.567 21.6364H113.258C113.127 21.6364 113.012 21.6076 112.912 21.55C112.809 21.4894 112.729 21.4091 112.671 21.3091C112.611 21.2061 112.58 21.0894 112.58 20.9591V20.95ZM116.606 20.95C116.606 20.8197 116.637 20.7045 116.697 20.6045C116.755 20.5015 116.835 20.4212 116.938 20.3636C117.038 20.303 117.153 20.2727 117.284 20.2727H118.593C118.723 20.2727 118.838 20.303 118.938 20.3636C119.041 20.4212 119.122 20.5015 119.179 20.6045C119.24 20.7045 119.27 20.8197 119.27 20.95V20.9591C119.27 21.0894 119.24 21.2061 119.179 21.3091C119.122 21.4091 119.041 21.4894 118.938 21.55C118.838 21.6076 118.723 21.6364 118.593 21.6364H117.284C117.153 21.6364 117.038 21.6076 116.938 21.55C116.835 21.4894 116.755 21.4091 116.697 21.3091C116.637 21.2061 116.606 21.0894 116.606 20.9591V20.95ZM117.907 20.95C117.907 20.8197 117.937 20.7045 117.998 20.6045C118.056 20.5015 118.136 20.4212 118.239 20.3636C118.339 20.303 118.454 20.2727 118.584 20.2727H121.148C121.278 20.2727 121.393 20.303 121.493 20.3636C121.596 20.4212 121.677 20.5015 121.734 20.6045C121.795 20.7045 121.825 20.8197 121.825 20.95V20.9591C121.825 21.0894 121.795 21.2061 121.734 21.3091C121.677 21.4091 121.596 21.4894 121.493 21.55C121.393 21.6076 121.278 21.6364 121.148 21.6364H118.584C118.454 21.6364 118.339 21.6076 118.239 21.55C118.136 21.4894 118.056 21.4091 117.998 21.3091C117.937 21.2061 117.907 21.0894 117.907 20.9591V20.95ZM120.459 20.95C120.459 20.8197 120.49 20.7045 120.55 20.6045C120.608 20.5015 120.688 20.4212 120.791 20.3636C120.891 20.303 121.006 20.2727 121.137 20.2727H123.7C123.831 20.2727 123.946 20.303 124.046 20.3636C124.149 20.4212 124.229 20.5015 124.287 20.6045C124.347 20.7045 124.378 20.8197 124.378 20.95V20.9591C124.378 21.0894 124.347 21.2061 124.287 21.3091C124.229 21.4091 124.149 21.4894 124.046 21.55C123.946 21.6076 123.831 21.6364 123.7 21.6364H121.137C121.006 21.6364 120.891 21.6076 120.791 21.55C120.688 21.4894 120.608 21.4091 120.55 21.3091C120.49 21.2061 120.459 21.0894 120.459 20.9591V20.95ZM123.012 20.95C123.012 20.8197 123.042 20.7045 123.103 20.6045C123.16 20.5015 123.241 20.4212 123.344 20.3636C123.444 20.303 123.559 20.2727 123.689 20.2727H126.253C126.383 20.2727 126.498 20.303 126.598 20.3636C126.701 20.4212 126.782 20.5015 126.839 20.6045C126.9 20.7045 126.93 20.8197 126.93 20.95V20.9591C126.93 21.0894 126.9 21.2061 126.839 21.3091C126.782 21.4091 126.701 21.4894 126.598 21.55C126.498 21.6076 126.383 21.6364 126.253 21.6364H123.689C123.559 21.6364 123.444 21.6076 123.344 21.55C123.241 21.4894 123.16 21.4091 123.103 21.3091C123.042 21.2061 123.012 21.0894 123.012 20.9591V20.95ZM125.564 20.95C125.564 20.8197 125.594 20.7045 125.655 20.6045C125.713 20.5015 125.793 20.4212 125.896 20.3636C125.996 20.303 126.111 20.2727 126.241 20.2727H128.805C128.935 20.2727 129.051 20.303 129.151 20.3636C129.254 20.4212 129.334 20.5015 129.391 20.6045C129.452 20.7045 129.482 20.8197 129.482 20.95V20.9591C129.482 21.0894 129.452 21.2061 129.391 21.3091C129.334 21.4091 129.254 21.4894 129.151 21.55C129.051 21.6076 128.935 21.6364 128.805 21.6364H126.241C126.111 21.6364 125.996 21.6076 125.896 21.55C125.793 21.4894 125.713 21.4091 125.655 21.3091C125.594 21.2061 125.564 21.0894 125.564 20.9591V20.95ZM128.117 20.95C128.117 20.8197 128.147 20.7045 128.207 20.6045C128.265 20.5015 128.345 20.4212 128.448 20.3636C128.548 20.303 128.664 20.2727 128.794 20.2727H131.357C131.488 20.2727 131.603 20.303 131.703 20.3636C131.806 20.4212 131.886 20.5015 131.944 20.6045C132.004 20.7045 132.035 20.8197 132.035 20.95V20.9591C132.035 21.0894 132.004 21.2061 131.944 21.3091C131.886 21.4091 131.806 21.4894 131.703 21.55C131.603 21.6076 131.488 21.6364 131.357 21.6364H128.794C128.664 21.6364 128.548 21.6076 128.448 21.55C128.345 21.4894 128.265 21.4091 128.207 21.3091C128.147 21.2061 128.117 21.0894 128.117 20.9591V20.95Z"
		fill="#B9C6DD" />
	<rect x="140.5" y="15" width="45.3636" height="11.8182" rx="5.68182" fill="#606977" />
	<path
		d="M145.5 20.95C145.5 20.8197 145.53 20.7046 145.591 20.6046C145.648 20.5015 145.729 20.4212 145.832 20.3636C145.932 20.303 146.047 20.2727 146.177 20.2727H147.486C147.616 20.2727 147.732 20.303 147.832 20.3636C147.935 20.4212 148.015 20.5015 148.073 20.6046C148.133 20.7046 148.163 20.8197 148.163 20.95V20.9591C148.163 21.0894 148.133 21.2061 148.073 21.3091C148.015 21.4091 147.935 21.4894 147.832 21.55C147.732 21.6076 147.616 21.6364 147.486 21.6364H146.177C146.047 21.6364 145.932 21.6076 145.832 21.55C145.729 21.4894 145.648 21.4091 145.591 21.3091C145.53 21.2061 145.5 21.0894 145.5 20.9591V20.95ZM146.8 20.95C146.8 20.8197 146.831 20.7046 146.891 20.6046C146.949 20.5015 147.029 20.4212 147.132 20.3636C147.232 20.303 147.347 20.2727 147.478 20.2727H150.041C150.172 20.2727 150.287 20.303 150.387 20.3636C150.49 20.4212 150.57 20.5015 150.628 20.6046C150.688 20.7046 150.719 20.8197 150.719 20.95V20.9591C150.719 21.0894 150.688 21.2061 150.628 21.3091C150.57 21.4091 150.49 21.4894 150.387 21.55C150.287 21.6076 150.172 21.6364 150.041 21.6364H147.478C147.347 21.6364 147.232 21.6076 147.132 21.55C147.029 21.4894 146.949 21.4091 146.891 21.3091C146.831 21.2061 146.8 21.0894 146.8 20.9591V20.95ZM149.353 20.95C149.353 20.8197 149.383 20.7046 149.444 20.6046C149.501 20.5015 149.582 20.4212 149.685 20.3636C149.785 20.303 149.9 20.2727 150.03 20.2727H152.594C152.724 20.2727 152.839 20.303 152.939 20.3636C153.042 20.4212 153.123 20.5015 153.18 20.6046C153.241 20.7046 153.271 20.8197 153.271 20.95V20.9591C153.271 21.0894 153.241 21.2061 153.18 21.3091C153.123 21.4091 153.042 21.4894 152.939 21.55C152.839 21.6076 152.724 21.6364 152.594 21.6364H150.03C149.9 21.6364 149.785 21.6076 149.685 21.55C149.582 21.4894 149.501 21.4091 149.444 21.3091C149.383 21.2061 149.353 21.0894 149.353 20.9591V20.95ZM151.905 20.95C151.905 20.8197 151.935 20.7046 151.996 20.6046C152.054 20.5015 152.134 20.4212 152.237 20.3636C152.337 20.303 152.452 20.2727 152.582 20.2727H153.892C154.022 20.2727 154.137 20.303 154.237 20.3636C154.34 20.4212 154.42 20.5015 154.478 20.6046C154.539 20.7046 154.569 20.8197 154.569 20.95V20.9591C154.569 21.0894 154.539 21.2061 154.478 21.3091C154.42 21.4091 154.34 21.4894 154.237 21.55C154.137 21.6076 154.022 21.6364 153.892 21.6364H152.582C152.452 21.6364 152.337 21.6076 152.237 21.55C152.134 21.4894 152.054 21.4091 151.996 21.3091C151.935 21.2061 151.905 21.0894 151.905 20.9591V20.95ZM153.206 20.95C153.206 20.8197 153.236 20.7046 153.297 20.6046C153.354 20.5015 153.435 20.4212 153.538 20.3636C153.638 20.303 153.753 20.2727 153.883 20.2727H156.447C156.577 20.2727 156.692 20.303 156.792 20.3636C156.895 20.4212 156.975 20.5015 157.033 20.6046C157.094 20.7046 157.124 20.8197 157.124 20.95V20.9591C157.124 21.0894 157.094 21.2061 157.033 21.3091C156.975 21.4091 156.895 21.4894 156.792 21.55C156.692 21.6076 156.577 21.6364 156.447 21.6364H153.883C153.753 21.6364 153.638 21.6076 153.538 21.55C153.435 21.4894 153.354 21.4091 153.297 21.3091C153.236 21.2061 153.206 21.0894 153.206 20.9591V20.95ZM155.758 20.95C155.758 20.8197 155.788 20.7046 155.849 20.6046C155.907 20.5015 155.987 20.4212 156.09 20.3636C156.19 20.303 156.305 20.2727 156.435 20.2727H157.745C157.875 20.2727 157.99 20.303 158.09 20.3636C158.193 20.4212 158.273 20.5015 158.331 20.6046C158.392 20.7046 158.422 20.8197 158.422 20.95V20.9591C158.422 21.0894 158.392 21.2061 158.331 21.3091C158.273 21.4091 158.193 21.4894 158.09 21.55C157.99 21.6076 157.875 21.6364 157.745 21.6364H156.435C156.305 21.6364 156.19 21.6076 156.09 21.55C155.987 21.4894 155.907 21.4091 155.849 21.3091C155.788 21.2061 155.758 21.0894 155.758 20.9591V20.95ZM157.059 20.95C157.059 20.8197 157.089 20.7046 157.15 20.6046C157.207 20.5015 157.288 20.4212 157.391 20.3636C157.491 20.303 157.606 20.2727 157.736 20.2727H160.3C160.43 20.2727 160.545 20.303 160.645 20.3636C160.748 20.4212 160.828 20.5015 160.886 20.6046C160.947 20.7046 160.977 20.8197 160.977 20.95V20.9591C160.977 21.0894 160.947 21.2061 160.886 21.3091C160.828 21.4091 160.748 21.4894 160.645 21.55C160.545 21.6076 160.43 21.6364 160.3 21.6364H157.736C157.606 21.6364 157.491 21.6076 157.391 21.55C157.288 21.4894 157.207 21.4091 157.15 21.3091C157.089 21.2061 157.059 21.0894 157.059 20.9591V20.95ZM159.611 20.95C159.611 20.8197 159.641 20.7046 159.702 20.6046C159.76 20.5015 159.84 20.4212 159.943 20.3636C160.043 20.303 160.158 20.2727 160.288 20.2727H162.852C162.982 20.2727 163.098 20.303 163.198 20.3636C163.301 20.4212 163.381 20.5015 163.438 20.6046C163.499 20.7046 163.529 20.8197 163.529 20.95V20.9591C163.529 21.0894 163.499 21.2061 163.438 21.3091C163.381 21.4091 163.301 21.4894 163.198 21.55C163.098 21.6076 162.982 21.6364 162.852 21.6364H160.288C160.158 21.6364 160.043 21.6076 159.943 21.55C159.84 21.4894 159.76 21.4091 159.702 21.3091C159.641 21.2061 159.611 21.0894 159.611 20.9591V20.95ZM164.889 20.95C164.889 20.8197 164.919 20.7046 164.98 20.6046C165.038 20.5015 165.118 20.4212 165.221 20.3636C165.321 20.303 165.436 20.2727 165.566 20.2727H166.875C167.006 20.2727 167.121 20.303 167.221 20.3636C167.324 20.4212 167.404 20.5015 167.462 20.6046C167.522 20.7046 167.553 20.8197 167.553 20.95V20.9591C167.553 21.0894 167.522 21.2061 167.462 21.3091C167.404 21.4091 167.324 21.4894 167.221 21.55C167.121 21.6076 167.006 21.6364 166.875 21.6364H165.566C165.436 21.6364 165.321 21.6076 165.221 21.55C165.118 21.4894 165.038 21.4091 164.98 21.3091C164.919 21.2061 164.889 21.0894 164.889 20.9591V20.95ZM166.19 20.95C166.19 20.8197 166.22 20.7046 166.281 20.6046C166.338 20.5015 166.418 20.4212 166.521 20.3636C166.621 20.303 166.737 20.2727 166.867 20.2727H169.431C169.561 20.2727 169.676 20.303 169.776 20.3636C169.879 20.4212 169.959 20.5015 170.017 20.6046C170.078 20.7046 170.108 20.8197 170.108 20.95V20.9591C170.108 21.0894 170.078 21.2061 170.017 21.3091C169.959 21.4091 169.879 21.4894 169.776 21.55C169.676 21.6076 169.561 21.6364 169.431 21.6364H166.867C166.737 21.6364 166.621 21.6076 166.521 21.55C166.418 21.4894 166.338 21.4091 166.281 21.3091C166.22 21.2061 166.19 21.0894 166.19 20.9591V20.95ZM168.742 20.95C168.742 20.8197 168.772 20.7046 168.833 20.6046C168.89 20.5015 168.971 20.4212 169.074 20.3636C169.174 20.303 169.289 20.2727 169.419 20.2727H171.983C172.113 20.2727 172.228 20.303 172.328 20.3636C172.431 20.4212 172.512 20.5015 172.569 20.6046C172.63 20.7046 172.66 20.8197 172.66 20.95V20.9591C172.66 21.0894 172.63 21.2061 172.569 21.3091C172.512 21.4091 172.431 21.4894 172.328 21.55C172.228 21.6076 172.113 21.6364 171.983 21.6364H169.419C169.289 21.6364 169.174 21.6076 169.074 21.55C168.971 21.4894 168.89 21.4091 168.833 21.3091C168.772 21.2061 168.742 21.0894 168.742 20.9591V20.95ZM171.294 20.95C171.294 20.8197 171.325 20.7046 171.385 20.6046C171.443 20.5015 171.523 20.4212 171.626 20.3636C171.726 20.303 171.841 20.2727 171.972 20.2727H174.535C174.666 20.2727 174.781 20.303 174.881 20.3636C174.984 20.4212 175.064 20.5015 175.122 20.6046C175.182 20.7046 175.213 20.8197 175.213 20.95V20.9591C175.213 21.0894 175.182 21.2061 175.122 21.3091C175.064 21.4091 174.984 21.4894 174.881 21.55C174.781 21.6076 174.666 21.6364 174.535 21.6364H171.972C171.841 21.6364 171.726 21.6076 171.626 21.55C171.523 21.4894 171.443 21.4091 171.385 21.3091C171.325 21.2061 171.294 21.0894 171.294 20.9591V20.95ZM173.847 20.95C173.847 20.8197 173.877 20.7046 173.938 20.6046C173.995 20.5015 174.076 20.4212 174.179 20.3636C174.279 20.303 174.394 20.2727 174.524 20.2727H177.088C177.218 20.2727 177.333 20.303 177.433 20.3636C177.536 20.4212 177.616 20.5015 177.674 20.6046C177.735 20.7046 177.765 20.8197 177.765 20.95V20.9591C177.765 21.0894 177.735 21.2061 177.674 21.3091C177.616 21.4091 177.536 21.4894 177.433 21.55C177.333 21.6076 177.218 21.6364 177.088 21.6364H174.524C174.394 21.6364 174.279 21.6076 174.179 21.55C174.076 21.4894 173.995 21.4091 173.938 21.3091C173.877 21.2061 173.847 21.0894 173.847 20.9591V20.95ZM176.399 20.95C176.399 20.8197 176.429 20.7046 176.49 20.6046C176.548 20.5015 176.628 20.4212 176.731 20.3636C176.831 20.303 176.946 20.2727 177.076 20.2727H179.64C179.77 20.2727 179.886 20.303 179.986 20.3636C180.089 20.4212 180.169 20.5015 180.226 20.6046C180.287 20.7046 180.317 20.8197 180.317 20.95V20.9591C180.317 21.0894 180.287 21.2061 180.226 21.3091C180.169 21.4091 180.089 21.4894 179.986 21.55C179.886 21.6076 179.77 21.6364 179.64 21.6364H177.076C176.946 21.6364 176.831 21.6076 176.731 21.55C176.628 21.4894 176.548 21.4091 176.49 21.3091C176.429 21.2061 176.399 21.0894 176.399 20.9591V20.95Z"
		fill="white" />
	<rect x="190.551" y="15.142" width="39.8068" height="11.5341" rx="5.53977" stroke="#B9C6DD"
		stroke-width="0.284091" />
	<path
		d="M194.273 20.95C194.273 20.8197 194.304 20.7046 194.364 20.6046C194.422 20.5015 194.502 20.4212 194.605 20.3636C194.705 20.303 194.82 20.2727 194.951 20.2727H197.514C197.644 20.2727 197.76 20.303 197.86 20.3636C197.963 20.4212 198.043 20.5015 198.101 20.6046C198.161 20.7046 198.191 20.8197 198.191 20.95V20.9591C198.191 21.0894 198.161 21.2061 198.101 21.3091C198.043 21.4091 197.963 21.4894 197.86 21.55C197.76 21.6076 197.644 21.6364 197.514 21.6364H194.951C194.82 21.6364 194.705 21.6076 194.605 21.55C194.502 21.4894 194.422 21.4091 194.364 21.3091C194.304 21.2061 194.273 21.0894 194.273 20.9591V20.95ZM196.826 20.95C196.826 20.8197 196.856 20.7046 196.917 20.6046C196.974 20.5015 197.054 20.4212 197.157 20.3636C197.257 20.303 197.373 20.2727 197.503 20.2727H198.812C198.942 20.2727 199.057 20.303 199.157 20.3636C199.26 20.4212 199.341 20.5015 199.398 20.6046C199.459 20.7046 199.489 20.8197 199.489 20.95V20.9591C199.489 21.0894 199.459 21.2061 199.398 21.3091C199.341 21.4091 199.26 21.4894 199.157 21.55C199.057 21.6076 198.942 21.6364 198.812 21.6364H197.503C197.373 21.6364 197.257 21.6076 197.157 21.55C197.054 21.4894 196.974 21.4091 196.917 21.3091C196.856 21.2061 196.826 21.0894 196.826 20.9591V20.95ZM198.126 20.95C198.126 20.8197 198.157 20.7046 198.217 20.6046C198.275 20.5015 198.355 20.4212 198.458 20.3636C198.558 20.303 198.673 20.2727 198.804 20.2727H201.367C201.497 20.2727 201.613 20.303 201.713 20.3636C201.816 20.4212 201.896 20.5015 201.954 20.6046C202.014 20.7046 202.044 20.8197 202.044 20.95V20.9591C202.044 21.0894 202.014 21.2061 201.954 21.3091C201.896 21.4091 201.816 21.4894 201.713 21.55C201.613 21.6076 201.497 21.6364 201.367 21.6364H198.804C198.673 21.6364 198.558 21.6076 198.458 21.55C198.355 21.4894 198.275 21.4091 198.217 21.3091C198.157 21.2061 198.126 21.0894 198.126 20.9591V20.95ZM200.679 20.95C200.679 20.8197 200.709 20.7046 200.77 20.6046C200.827 20.5015 200.907 20.4212 201.01 20.3636C201.11 20.303 201.226 20.2727 201.356 20.2727H203.92C204.05 20.2727 204.165 20.303 204.265 20.3636C204.368 20.4212 204.448 20.5015 204.506 20.6046C204.567 20.7046 204.597 20.8197 204.597 20.95V20.9591C204.597 21.0894 204.567 21.2061 204.506 21.3091C204.448 21.4091 204.368 21.4894 204.265 21.55C204.165 21.6076 204.05 21.6364 203.92 21.6364H201.356C201.226 21.6364 201.11 21.6076 201.01 21.55C200.907 21.4894 200.827 21.4091 200.77 21.3091C200.709 21.2061 200.679 21.0894 200.679 20.9591V20.95ZM203.231 20.95C203.231 20.8197 203.261 20.7046 203.322 20.6046C203.379 20.5015 203.46 20.4212 203.563 20.3636C203.663 20.303 203.778 20.2727 203.908 20.2727H205.217C205.348 20.2727 205.463 20.303 205.563 20.3636C205.666 20.4212 205.746 20.5015 205.804 20.6046C205.864 20.7046 205.895 20.8197 205.895 20.95V20.9591C205.895 21.0894 205.864 21.2061 205.804 21.3091C205.746 21.4091 205.666 21.4894 205.563 21.55C205.463 21.6076 205.348 21.6364 205.217 21.6364H203.908C203.778 21.6364 203.663 21.6076 203.563 21.55C203.46 21.4894 203.379 21.4091 203.322 21.3091C203.261 21.2061 203.231 21.0894 203.231 20.9591V20.95ZM204.532 20.95C204.532 20.8197 204.562 20.7046 204.623 20.6046C204.68 20.5015 204.76 20.4212 204.863 20.3636C204.963 20.303 205.079 20.2727 205.209 20.2727H206.518C206.648 20.2727 206.763 20.303 206.863 20.3636C206.966 20.4212 207.047 20.5015 207.104 20.6046C207.165 20.7046 207.195 20.8197 207.195 20.95V20.9591C207.195 21.0894 207.165 21.2061 207.104 21.3091C207.047 21.4091 206.966 21.4894 206.863 21.55C206.763 21.6076 206.648 21.6364 206.518 21.6364H205.209C205.079 21.6364 204.963 21.6076 204.863 21.55C204.76 21.4894 204.68 21.4091 204.623 21.3091C204.562 21.2061 204.532 21.0894 204.532 20.9591V20.95ZM205.832 20.95C205.832 20.8197 205.863 20.7046 205.923 20.6046C205.981 20.5015 206.061 20.4212 206.164 20.3636C206.264 20.303 206.379 20.2727 206.509 20.2727H209.073C209.203 20.2727 209.319 20.303 209.419 20.3636C209.522 20.4212 209.602 20.5015 209.659 20.6046C209.72 20.7046 209.75 20.8197 209.75 20.95V20.9591C209.75 21.0894 209.72 21.2061 209.659 21.3091C209.602 21.4091 209.522 21.4894 209.419 21.55C209.319 21.6076 209.203 21.6364 209.073 21.6364H206.509C206.379 21.6364 206.264 21.6076 206.164 21.55C206.061 21.4894 205.981 21.4091 205.923 21.3091C205.863 21.2061 205.832 21.0894 205.832 20.9591V20.95ZM208.385 20.95C208.385 20.8197 208.415 20.7046 208.475 20.6046C208.533 20.5015 208.613 20.4212 208.716 20.3636C208.816 20.303 208.932 20.2727 209.062 20.2727H211.625C211.756 20.2727 211.871 20.303 211.971 20.3636C212.074 20.4212 212.154 20.5015 212.212 20.6046C212.272 20.7046 212.303 20.8197 212.303 20.95V20.9591C212.303 21.0894 212.272 21.2061 212.212 21.3091C212.154 21.4091 212.074 21.4894 211.971 21.55C211.871 21.6076 211.756 21.6364 211.625 21.6364H209.062C208.932 21.6364 208.816 21.6076 208.716 21.55C208.613 21.4894 208.533 21.4091 208.475 21.3091C208.415 21.2061 208.385 21.0894 208.385 20.9591V20.95ZM213.662 20.95C213.662 20.8197 213.693 20.7046 213.753 20.6046C213.811 20.5015 213.891 20.4212 213.994 20.3636C214.094 20.303 214.209 20.2727 214.34 20.2727H215.649C215.779 20.2727 215.894 20.303 215.994 20.3636C216.097 20.4212 216.178 20.5015 216.235 20.6046C216.296 20.7046 216.326 20.8197 216.326 20.95V20.9591C216.326 21.0894 216.296 21.2061 216.235 21.3091C216.178 21.4091 216.097 21.4894 215.994 21.55C215.894 21.6076 215.779 21.6364 215.649 21.6364H214.34C214.209 21.6364 214.094 21.6076 213.994 21.55C213.891 21.4894 213.811 21.4091 213.753 21.3091C213.693 21.2061 213.662 21.0894 213.662 20.9591V20.95ZM214.963 20.95C214.963 20.8197 214.993 20.7046 215.054 20.6046C215.112 20.5015 215.192 20.4212 215.295 20.3636C215.395 20.303 215.51 20.2727 215.64 20.2727H218.204C218.334 20.2727 218.449 20.303 218.549 20.3636C218.652 20.4212 218.733 20.5015 218.79 20.6046C218.851 20.7046 218.881 20.8197 218.881 20.95V20.9591C218.881 21.0894 218.851 21.2061 218.79 21.3091C218.733 21.4091 218.652 21.4894 218.549 21.55C218.449 21.6076 218.334 21.6364 218.204 21.6364H215.64C215.51 21.6364 215.395 21.6076 215.295 21.55C215.192 21.4894 215.112 21.4091 215.054 21.3091C214.993 21.2061 214.963 21.0894 214.963 20.9591V20.95ZM217.515 20.95C217.515 20.8197 217.546 20.7046 217.606 20.6046C217.664 20.5015 217.744 20.4212 217.847 20.3636C217.947 20.303 218.062 20.2727 218.193 20.2727H220.756C220.887 20.2727 221.002 20.303 221.102 20.3636C221.205 20.4212 221.285 20.5015 221.343 20.6046C221.403 20.7046 221.434 20.8197 221.434 20.95V20.9591C221.434 21.0894 221.403 21.2061 221.343 21.3091C221.285 21.4091 221.205 21.4894 221.102 21.55C221.002 21.6076 220.887 21.6364 220.756 21.6364H218.193C218.062 21.6364 217.947 21.6076 217.847 21.55C217.744 21.4894 217.664 21.4091 217.606 21.3091C217.546 21.2061 217.515 21.0894 217.515 20.9591V20.95ZM220.068 20.95C220.068 20.8197 220.098 20.7046 220.159 20.6046C220.216 20.5015 220.297 20.4212 220.4 20.3636C220.5 20.303 220.615 20.2727 220.745 20.2727H223.309C223.439 20.2727 223.554 20.303 223.654 20.3636C223.757 20.4212 223.838 20.5015 223.895 20.6046C223.956 20.7046 223.986 20.8197 223.986 20.95V20.9591C223.986 21.0894 223.956 21.2061 223.895 21.3091C223.838 21.4091 223.757 21.4894 223.654 21.55C223.554 21.6076 223.439 21.6364 223.309 21.6364H220.745C220.615 21.6364 220.5 21.6076 220.4 21.55C220.297 21.4894 220.216 21.4091 220.159 21.3091C220.098 21.2061 220.068 21.0894 220.068 20.9591V20.95ZM222.62 20.95C222.62 20.8197 222.651 20.7046 222.711 20.6046C222.769 20.5015 222.849 20.4212 222.952 20.3636C223.052 20.303 223.167 20.2727 223.297 20.2727H225.861C225.991 20.2727 226.107 20.303 226.207 20.3636C226.31 20.4212 226.39 20.5015 226.447 20.6046C226.508 20.7046 226.538 20.8197 226.538 20.95V20.9591C226.538 21.0894 226.508 21.2061 226.447 21.3091C226.39 21.4091 226.31 21.4894 226.207 21.55C226.107 21.6076 225.991 21.6364 225.861 21.6364H223.297C223.167 21.6364 223.052 21.6076 222.952 21.55C222.849 21.4894 222.769 21.4091 222.711 21.3091C222.651 21.2061 222.62 21.0894 222.62 20.9591V20.95Z"
		fill="#B9C6DD" />
	<rect x="235.187" y="15.142" width="29.8068" height="11.5341" rx="5.53977" stroke="#B9C6DD"
		stroke-width="0.284091" />
	<path
		d="M238.909 20.95C238.909 20.8197 238.939 20.7045 239 20.6045C239.057 20.5015 239.138 20.4212 239.241 20.3636C239.341 20.303 239.456 20.2727 239.586 20.2727H242.15C242.28 20.2727 242.395 20.303 242.495 20.3636C242.598 20.4212 242.679 20.5015 242.736 20.6045C242.797 20.7045 242.827 20.8197 242.827 20.95V20.9591C242.827 21.0894 242.797 21.2061 242.736 21.3091C242.679 21.4091 242.598 21.4894 242.495 21.55C242.395 21.6076 242.28 21.6364 242.15 21.6364H239.586C239.456 21.6364 239.341 21.6076 239.241 21.55C239.138 21.4894 239.057 21.4091 239 21.3091C238.939 21.2061 238.909 21.0894 238.909 20.9591V20.95ZM241.461 20.95C241.461 20.8197 241.492 20.7045 241.552 20.6045C241.61 20.5015 241.69 20.4212 241.793 20.3636C241.893 20.303 242.008 20.2727 242.139 20.2727H243.448C243.578 20.2727 243.693 20.303 243.793 20.3636C243.896 20.4212 243.977 20.5015 244.034 20.6045C244.095 20.7045 244.125 20.8197 244.125 20.95V20.9591C244.125 21.0894 244.095 21.2061 244.034 21.3091C243.977 21.4091 243.896 21.4894 243.793 21.55C243.693 21.6076 243.578 21.6364 243.448 21.6364H242.139C242.008 21.6364 241.893 21.6076 241.793 21.55C241.69 21.4894 241.61 21.4091 241.552 21.3091C241.492 21.2061 241.461 21.0894 241.461 20.9591V20.95ZM245.487 20.95C245.487 20.8197 245.518 20.7045 245.578 20.6045C245.636 20.5015 245.716 20.4212 245.819 20.3636C245.919 20.303 246.034 20.2727 246.165 20.2727H247.474C247.604 20.2727 247.719 20.303 247.819 20.3636C247.922 20.4212 248.003 20.5015 248.06 20.6045C248.121 20.7045 248.151 20.8197 248.151 20.95V20.9591C248.151 21.0894 248.121 21.2061 248.06 21.3091C248.003 21.4091 247.922 21.4894 247.819 21.55C247.719 21.6076 247.604 21.6364 247.474 21.6364H246.165C246.034 21.6364 245.919 21.6076 245.819 21.55C245.716 21.4894 245.636 21.4091 245.578 21.3091C245.518 21.2061 245.487 21.0894 245.487 20.9591V20.95ZM246.788 20.95C246.788 20.8197 246.818 20.7045 246.879 20.6045C246.937 20.5015 247.017 20.4212 247.12 20.3636C247.22 20.303 247.335 20.2727 247.465 20.2727H250.029C250.159 20.2727 250.274 20.303 250.374 20.3636C250.477 20.4212 250.558 20.5015 250.615 20.6045C250.676 20.7045 250.706 20.8197 250.706 20.95V20.9591C250.706 21.0894 250.676 21.2061 250.615 21.3091C250.558 21.4091 250.477 21.4894 250.374 21.55C250.274 21.6076 250.159 21.6364 250.029 21.6364H247.465C247.335 21.6364 247.22 21.6076 247.12 21.55C247.017 21.4894 246.937 21.4091 246.879 21.3091C246.818 21.2061 246.788 21.0894 246.788 20.9591V20.95ZM249.34 20.95C249.34 20.8197 249.371 20.7045 249.431 20.6045C249.489 20.5015 249.569 20.4212 249.672 20.3636C249.772 20.303 249.887 20.2727 250.018 20.2727H252.581C252.712 20.2727 252.827 20.303 252.927 20.3636C253.03 20.4212 253.11 20.5015 253.168 20.6045C253.228 20.7045 253.259 20.8197 253.259 20.95V20.9591C253.259 21.0894 253.228 21.2061 253.168 21.3091C253.11 21.4091 253.03 21.4894 252.927 21.55C252.827 21.6076 252.712 21.6364 252.581 21.6364H250.018C249.887 21.6364 249.772 21.6076 249.672 21.55C249.569 21.4894 249.489 21.4091 249.431 21.3091C249.371 21.2061 249.34 21.0894 249.34 20.9591V20.95ZM251.893 20.95C251.893 20.8197 251.923 20.7045 251.984 20.6045C252.041 20.5015 252.122 20.4212 252.225 20.3636C252.325 20.303 252.44 20.2727 252.57 20.2727H255.134C255.264 20.2727 255.379 20.303 255.479 20.3636C255.582 20.4212 255.663 20.5015 255.72 20.6045C255.781 20.7045 255.811 20.8197 255.811 20.95V20.9591C255.811 21.0894 255.781 21.2061 255.72 21.3091C255.663 21.4091 255.582 21.4894 255.479 21.55C255.379 21.6076 255.264 21.6364 255.134 21.6364H252.57C252.44 21.6364 252.325 21.6076 252.225 21.55C252.122 21.4894 252.041 21.4091 251.984 21.3091C251.923 21.2061 251.893 21.0894 251.893 20.9591V20.95ZM254.445 20.95C254.445 20.8197 254.476 20.7045 254.536 20.6045C254.594 20.5015 254.674 20.4212 254.777 20.3636C254.877 20.303 254.992 20.2727 255.122 20.2727H257.686C257.816 20.2727 257.932 20.303 258.032 20.3636C258.135 20.4212 258.215 20.5015 258.272 20.6045C258.333 20.7045 258.363 20.8197 258.363 20.95V20.9591C258.363 21.0894 258.333 21.2061 258.272 21.3091C258.215 21.4091 258.135 21.4894 258.032 21.55C257.932 21.6076 257.816 21.6364 257.686 21.6364H255.122C254.992 21.6364 254.877 21.6076 254.777 21.55C254.674 21.4894 254.594 21.4091 254.536 21.3091C254.476 21.2061 254.445 21.0894 254.445 20.9591V20.95ZM256.998 20.95C256.998 20.8197 257.028 20.7045 257.089 20.6045C257.146 20.5015 257.226 20.4212 257.329 20.3636C257.429 20.303 257.545 20.2727 257.675 20.2727H260.239C260.369 20.2727 260.484 20.303 260.584 20.3636C260.687 20.4212 260.767 20.5015 260.825 20.6045C260.885 20.7045 260.916 20.8197 260.916 20.95V20.9591C260.916 21.0894 260.885 21.2061 260.825 21.3091C260.767 21.4091 260.687 21.4894 260.584 21.55C260.484 21.6076 260.369 21.6364 260.239 21.6364H257.675C257.545 21.6364 257.429 21.6076 257.329 21.55C257.226 21.4894 257.146 21.4091 257.089 21.3091C257.028 21.2061 256.998 21.0894 256.998 20.9591V20.95Z"
		fill="#B9C6DD" />
	<rect y="38.1818" width="120.455" height="85.2273" rx="4.54545" fill="#EAEEF6" />
	<path
		d="M68.7504 99.9716L58.6044 81.3703L66.6198 68.0114L83.6652 99.9716H68.7504ZM51.705 76.5341L64.4891 99.9716H38.9209L51.705 76.5341ZM46.3783 72.2727C43.4364 72.2727 41.0516 69.8879 41.0516 66.946C41.0516 64.0042 43.4364 61.6193 46.3783 61.6193C49.3201 61.6193 51.705 64.0042 51.705 66.946C51.705 69.8879 49.3201 72.2727 46.3783 72.2727Z"
		fill="#CAD2DF" />
	<rect y="130.227" width="120.455" height="85.2273" rx="4.54545" fill="#EAEEF6" />
	<path
		d="M68.7504 192.017L58.6044 173.416L66.6198 160.057L83.6652 192.017H68.7504ZM51.705 168.58L64.4891 192.017H38.9209L51.705 168.58ZM46.3783 164.318C43.4364 164.318 41.0516 161.933 41.0516 158.991C41.0516 156.05 43.4364 153.665 46.3783 153.665C49.3201 153.665 51.705 156.05 51.705 158.991C51.705 161.933 49.3201 164.318 46.3783 164.318Z"
		fill="#CAD2DF" />
	<rect width="120.455" height="85.2273" transform="translate(127.272 38.1818)" fill="white" />
	<rect x="215.341" y="108.636" width="14.7727" height="14.7727" rx="2.27273" fill="#CAD2DF" />
	<path
		d="M218.289 119.505L218.279 119.515C218.144 119.22 218.059 118.885 218.024 118.515C218.059 118.88 218.154 119.21 218.289 119.505Z"
		fill="#EAEEF6" />
	<path
		d="M221.5 115.19C222.157 115.19 222.69 114.657 222.69 114C222.69 113.343 222.157 112.81 221.5 112.81C220.842 112.81 220.31 113.343 220.31 114C220.31 114.657 220.842 115.19 221.5 115.19Z"
		fill="#EAEEF6" />
	<path
		d="M225.095 111H220.905C219.085 111 218 112.085 218 113.905V118.095C218 118.64 218.095 119.115 218.28 119.515C218.71 120.465 219.63 121 220.905 121H225.095C226.915 121 228 119.915 228 118.095V116.95V113.905C228 112.085 226.915 111 225.095 111ZM227.185 116.25C226.795 115.915 226.165 115.915 225.775 116.25L223.695 118.035C223.305 118.37 222.675 118.37 222.285 118.035L222.115 117.895C221.76 117.585 221.195 117.555 220.795 117.825L218.925 119.08C218.815 118.8 218.75 118.475 218.75 118.095V113.905C218.75 112.495 219.495 111.75 220.905 111.75H225.095C226.505 111.75 227.25 112.495 227.25 113.905V116.305L227.185 116.25Z"
		fill="#EAEEF6" />
	<rect x="232.954" y="108.636" width="14.7727" height="14.7727" rx="2.27273" fill="#CAD2DF" />
	<path
		d="M236.289 119.505L236.279 119.515C236.144 119.22 236.059 118.885 236.024 118.515C236.059 118.88 236.154 119.21 236.289 119.505Z"
		fill="#EAEEF6" />
	<path
		d="M239.5 115.19C240.157 115.19 240.69 114.657 240.69 114C240.69 113.343 240.157 112.81 239.5 112.81C238.842 112.81 238.31 113.343 238.31 114C238.31 114.657 238.842 115.19 239.5 115.19Z"
		fill="#EAEEF6" />
	<path
		d="M243.095 111H238.905C237.085 111 236 112.085 236 113.905V118.095C236 118.64 236.095 119.115 236.28 119.515C236.71 120.465 237.63 121 238.905 121H243.095C244.915 121 246 119.915 246 118.095V116.95V113.905C246 112.085 244.915 111 243.095 111ZM245.185 116.25C244.795 115.915 244.165 115.915 243.775 116.25L241.695 118.035C241.305 118.37 240.675 118.37 240.285 118.035L240.115 117.895C239.76 117.585 239.195 117.555 238.795 117.825L236.925 119.08C236.815 118.8 236.75 118.475 236.75 118.095V113.905C236.75 112.495 237.495 111.75 238.905 111.75H243.095C244.505 111.75 245.25 112.495 245.25 113.905V116.305L245.185 116.25Z"
		fill="#EAEEF6" />
	<path fill-rule="evenodd" clip-rule="evenodd"
		d="M247.728 41.5909C247.728 39.7081 246.202 38.1818 244.319 38.1818H130.683C128.8 38.1818 127.273 39.7081 127.273 41.5909V120C127.273 121.883 128.8 123.409 130.683 123.409H209.376C211.258 123.409 212.785 121.883 212.785 120V108.352C212.785 106.469 214.311 104.943 216.194 104.943H244.319C246.202 104.943 247.728 103.417 247.728 101.534V41.5909Z"
		fill="#EAEEF6" />
	<rect x="129.546" y="40.4545" width="80.9659" height="80.6818" rx="2.27273" fill="#CAD2DF" />
	<rect x="137" y="50" width="53" height="4" rx="2" fill="white" />
	<rect x="137" y="58" width="65" height="3" rx="1.5" fill="white" fill-opacity="0.5" />
	<rect x="137" y="65" width="57" height="3" rx="1.5" fill="white" fill-opacity="0.5" />
	<rect x="127.272" y="130.227" width="120.455" height="85.2273" rx="4.54545" fill="#EAEEF6" />
	<path
		d="M196.023 192.017L185.877 173.416L193.892 160.057L210.938 192.017H196.023ZM178.977 168.58L191.762 192.017H166.193L178.977 168.58ZM173.651 164.318C170.709 164.318 168.324 161.933 168.324 158.991C168.324 156.05 170.709 153.665 173.651 153.665C176.593 153.665 178.977 156.05 178.977 158.991C178.977 161.933 176.593 164.318 173.651 164.318Z"
		fill="#CAD2DF" />
	<rect x="255" y="38" width="115" height="85" rx="4.54545" fill="#EAEEF6" />
	<path
		d="M321.749 99.7898L311.603 81.1885L319.619 67.8295L336.664 99.7898H321.749ZM304.704 76.3523L317.488 99.7898H291.92L304.704 76.3523ZM299.377 72.0909C296.435 72.0909 294.051 69.7061 294.051 66.7642C294.051 63.8224 296.435 61.4375 299.377 61.4375C302.319 61.4375 304.704 63.8224 304.704 66.7642C304.704 69.7061 302.319 72.0909 299.377 72.0909Z"
		fill="#CAD2DF" />
	<rect x="255" y="130" width="115" height="85" rx="4.54545" fill="#EAEEF6" />
	<path
		d="M321.749 191.79L311.603 173.188L319.619 159.829L336.664 191.79H321.749ZM304.704 168.352L317.488 191.79H291.92L304.704 168.352ZM299.377 164.091C296.435 164.091 294.051 161.706 294.051 158.764C294.051 155.822 296.435 153.437 299.377 153.437C302.319 153.437 304.704 155.822 304.704 158.764C304.704 161.706 302.319 164.091 299.377 164.091Z"
		fill="#CAD2DF" />
</svg>
