<svg width="370" height="222" viewBox="0 0 370 222" fill="none" xmlns="http://www.w3.org/2000/svg">
	<g clip-path="url(#clip0_3015_2317)">
		<rect width="370" height="222" fill="white" />
		<rect x="125.031" y="35" width="119.28" height="138.41" rx="2.25056" fill="#EAEEF6" />
		<rect x="212.944" y="41.8924" width="10.9715" height="10.9715" rx="2.1099" fill="white" />
		<rect x="212.944" y="41.8924" width="10.9715" height="10.9715" rx="2.1099" stroke="#DAE0EE"
			stroke-width="0.28132" />
		<path
			d="M215.174 50.103L215.168 50.109C215.087 49.932 215.036 49.731 215.015 49.509C215.036 49.728 215.093 49.926 215.174 50.103Z"
			fill="#CAD2DF" />
		<path
			d="M217.1 47.514C217.494 47.514 217.814 47.1943 217.814 46.8C217.814 46.4057 217.494 46.086 217.1 46.086C216.705 46.086 216.386 46.4057 216.386 46.8C216.386 47.1943 216.705 47.514 217.1 47.514Z"
			fill="#CAD2DF" />
		<path
			d="M219.257 45H216.743C215.651 45 215 45.651 215 46.743V49.257C215 49.584 215.057 49.869 215.168 50.109C215.426 50.679 215.978 51 216.743 51H219.257C220.349 51 221 50.349 221 49.257V48.57V46.743C221 45.651 220.349 45 219.257 45ZM220.511 48.15C220.277 47.949 219.899 47.949 219.665 48.15L218.417 49.221C218.183 49.422 217.805 49.422 217.571 49.221L217.469 49.137C217.256 48.951 216.917 48.933 216.677 49.095L215.555 49.848C215.489 49.68 215.45 49.485 215.45 49.257V46.743C215.45 45.897 215.897 45.45 216.743 45.45H219.257C220.103 45.45 220.55 45.897 220.55 46.743V48.183L220.511 48.15Z"
			fill="#CAD2DF" />
		<rect x="226.447" y="41.8924" width="10.9715" height="10.9715" rx="2.1099" fill="white" />
		<rect x="226.447" y="41.8924" width="10.9715" height="10.9715" rx="2.1099" stroke="#DAE0EE"
			stroke-width="0.28132" />
		<path
			d="M229.174 49.103L229.168 49.109C229.087 48.932 229.036 48.731 229.015 48.509C229.036 48.728 229.093 48.926 229.174 49.103Z"
			fill="#CAD2DF" />
		<path
			d="M231.1 46.514C231.494 46.514 231.814 46.1943 231.814 45.8C231.814 45.4057 231.494 45.086 231.1 45.086C230.705 45.086 230.386 45.4057 230.386 45.8C230.386 46.1943 230.705 46.514 231.1 46.514Z"
			fill="#CAD2DF" />
		<path
			d="M233.257 44H230.743C229.651 44 229 44.651 229 45.743V48.257C229 48.584 229.057 48.869 229.168 49.109C229.426 49.679 229.978 50 230.743 50H233.257C234.349 50 235 49.349 235 48.257V47.57V45.743C235 44.651 234.349 44 233.257 44ZM234.511 47.15C234.277 46.949 233.899 46.949 233.665 47.15L232.417 48.221C232.183 48.422 231.805 48.422 231.571 48.221L231.469 48.137C231.256 47.951 230.917 47.933 230.677 48.095L229.555 48.848C229.489 48.68 229.45 48.485 229.45 48.257V45.743C229.45 44.897 229.897 44.45 230.743 44.45H233.257C234.103 44.45 234.55 44.897 234.55 45.743V47.183L234.511 47.15Z"
			fill="#CAD2DF" />
		<path
			d="M193.111 114.192L183.064 95.7718L191.001 82.5432L207.88 114.192H193.111ZM176.232 90.9828L188.891 114.192H163.572L176.232 90.9828ZM170.957 86.763C168.044 86.763 165.682 84.4014 165.682 81.4882C165.682 78.575 168.044 76.2135 170.957 76.2135C173.87 76.2135 176.232 78.575 176.232 81.4882C176.232 84.4014 173.87 86.763 170.957 86.763Z"
			fill="#CAD2DF" />
		<rect x="134.002" y="148.935" width="98.1808" height="4.2198" rx="2.1099" fill="#D3DBEA" />
		<rect x="134.002" y="157.937" width="86.6467" height="4.2198" rx="2.1099" fill="#D3DBEA" />
		<rect x="-1" y="35" width="119.28" height="138.41" rx="2.25056" fill="#EAEEF6" />
		<path
			d="M67.0797 121.506L57.0325 103.086L64.9697 89.8575L81.849 121.506H67.0797ZM50.2004 98.2971L62.8598 121.506H37.541L50.2004 98.2971ZM44.9257 94.0773C42.0125 94.0773 39.6509 91.7157 39.6509 88.8025C39.6509 85.8894 42.0125 83.5278 44.9257 83.5278C47.8388 83.5278 50.2004 85.8894 50.2004 88.8025C50.2004 91.7157 47.8388 94.0773 44.9257 94.0773Z"
			fill="#CAD2DF" />
		<rect x="8.00195" y="148.935" width="98.1808" height="4.2198" rx="2.1099" fill="#D3DBEA" />
		<rect x="8.00195" y="157.937" width="86.6467" height="4.2198" rx="2.1099" fill="#D3DBEA" />
		<rect x="8.00195" y="148.935" width="98.1808" height="4.2198" rx="2.1099" fill="#D3DBEA" />
		<rect x="8.00195" y="157.937" width="86.6467" height="4.2198" rx="2.1099" fill="#D3DBEA" />
		<rect x="8.00195" y="148.935" width="98.1808" height="4.2198" rx="2.1099" fill="#D3DBEA" />
		<rect x="8.00195" y="157.937" width="86.6467" height="4.2198" rx="2.1099" fill="#D3DBEA" />
		<rect x="-1" y="180.161" width="119.28" height="138.41" rx="2.25056" fill="#EAEEF6" />
		<rect x="251.063" y="35" width="119.28" height="138.41" rx="2.25056" fill="#EAEEF6" />
		<path
			d="M319.142 123.194L309.095 104.774L317.032 91.5454L333.911 123.194H319.142ZM302.263 99.985L314.922 123.194H289.604L302.263 99.985ZM296.988 95.7652C294.075 95.7652 291.713 93.4036 291.713 90.4905C291.713 87.5773 294.075 85.2157 296.988 85.2157C299.901 85.2157 302.263 87.5773 302.263 90.4905C302.263 93.4036 299.901 95.7652 296.988 95.7652Z"
			fill="#CAD2DF" />
		<rect x="260.002" y="148.935" width="98.1808" height="4.2198" rx="2.1099" fill="#D3DBEA" />
		<rect x="260.002" y="157.937" width="86.6467" height="4.2198" rx="2.1099" fill="#D3DBEA" />
		<rect x="251.063" y="180.161" width="119.28" height="138.41" rx="2.25056" fill="#EAEEF6" />
		<rect x="125.031" y="180.161" width="119.28" height="138.41" rx="2.25056" fill="#EAEEF6" />
		<rect x="107.142" y="13.1418" width="30.7935" height="11.5242" rx="0.992814"
			stroke="#B9C6DD" stroke-width="0.283661" stroke-dasharray="1.13 1.13" />
		<path
			d="M110.858 18.9471C110.858 18.8169 110.889 18.702 110.949 18.6021C111.007 18.4992 111.087 18.4191 111.19 18.3616C111.289 18.3011 111.404 18.2708 111.535 18.2708H114.094C114.224 18.2708 114.339 18.3011 114.439 18.3616C114.542 18.4191 114.622 18.4992 114.68 18.6021C114.74 18.702 114.771 18.8169 114.771 18.9471V18.9561C114.771 19.0862 114.74 19.2027 114.68 19.3056C114.622 19.4055 114.542 19.4856 114.439 19.5461C114.339 19.6036 114.224 19.6324 114.094 19.6324H111.535C111.404 19.6324 111.289 19.6036 111.19 19.5461C111.087 19.4856 111.007 19.4055 110.949 19.3056C110.889 19.2027 110.858 19.0862 110.858 18.9561V18.9471ZM113.407 18.9471C113.407 18.8169 113.437 18.702 113.498 18.6021C113.555 18.4992 113.635 18.4191 113.738 18.3616C113.838 18.3011 113.953 18.2708 114.083 18.2708H115.39C115.52 18.2708 115.635 18.3011 115.735 18.3616C115.838 18.4191 115.918 18.4992 115.976 18.6021C116.036 18.702 116.066 18.8169 116.066 18.9471V18.9561C116.066 19.0862 116.036 19.2027 115.976 19.3056C115.918 19.4055 115.838 19.4856 115.735 19.5461C115.635 19.6036 115.52 19.6324 115.39 19.6324H114.083C113.953 19.6324 113.838 19.6036 113.738 19.5461C113.635 19.4856 113.555 19.4055 113.498 19.3056C113.437 19.2027 113.407 19.0862 113.407 18.9561V18.9471ZM114.705 18.9471C114.705 18.8169 114.736 18.702 114.796 18.6021C114.854 18.4992 114.934 18.4191 115.037 18.3616C115.137 18.3011 115.252 18.2708 115.382 18.2708H116.689C116.819 18.2708 116.934 18.3011 117.034 18.3616C117.137 18.4191 117.217 18.4992 117.274 18.6021C117.335 18.702 117.365 18.8169 117.365 18.9471V18.9561C117.365 19.0862 117.335 19.2027 117.274 19.3056C117.217 19.4055 117.137 19.4856 117.034 19.5461C116.934 19.6036 116.819 19.6324 116.689 19.6324H115.382C115.252 19.6324 115.137 19.6036 115.037 19.5461C114.934 19.4856 114.854 19.4055 114.796 19.3056C114.736 19.2027 114.705 19.0862 114.705 18.9561V18.9471ZM118.725 18.9471C118.725 18.8169 118.756 18.702 118.816 18.6021C118.874 18.4992 118.954 18.4191 119.057 18.3616C119.157 18.3011 119.272 18.2708 119.402 18.2708H120.709C120.839 18.2708 120.954 18.3011 121.054 18.3616C121.157 18.4191 121.237 18.4992 121.294 18.6021C121.355 18.702 121.385 18.8169 121.385 18.9471V18.9561C121.385 19.0862 121.355 19.2027 121.294 19.3056C121.237 19.4055 121.157 19.4856 121.054 19.5461C120.954 19.6036 120.839 19.6324 120.709 19.6324H119.402C119.272 19.6324 119.157 19.6036 119.057 19.5461C118.954 19.4856 118.874 19.4055 118.816 19.3056C118.756 19.2027 118.725 19.0862 118.725 18.9561V18.9471ZM120.024 18.9471C120.024 18.8169 120.054 18.702 120.115 18.6021C120.172 18.4992 120.253 18.4191 120.355 18.3616C120.455 18.3011 120.57 18.2708 120.7 18.2708H123.26C123.39 18.2708 123.505 18.3011 123.605 18.3616C123.708 18.4191 123.788 18.4992 123.846 18.6021C123.906 18.702 123.936 18.8169 123.936 18.9471V18.9561C123.936 19.0862 123.906 19.2027 123.846 19.3056C123.788 19.4055 123.708 19.4856 123.605 19.5461C123.505 19.6036 123.39 19.6324 123.26 19.6324H120.7C120.57 19.6324 120.455 19.6036 120.355 19.5461C120.253 19.4856 120.172 19.4055 120.115 19.3056C120.054 19.2027 120.024 19.0862 120.024 18.9561V18.9471ZM122.573 18.9471C122.573 18.8169 122.603 18.702 122.663 18.6021C122.721 18.4992 122.801 18.4191 122.904 18.3616C123.004 18.3011 123.119 18.2708 123.249 18.2708H125.809C125.939 18.2708 126.054 18.3011 126.154 18.3616C126.256 18.4191 126.337 18.4992 126.394 18.6021C126.455 18.702 126.485 18.8169 126.485 18.9471V18.9561C126.485 19.0862 126.455 19.2027 126.394 19.3056C126.337 19.4055 126.256 19.4856 126.154 19.5461C126.054 19.6036 125.939 19.6324 125.809 19.6324H123.249C123.119 19.6324 123.004 19.6036 122.904 19.5461C122.801 19.4856 122.721 19.4055 122.663 19.3056C122.603 19.2027 122.573 19.0862 122.573 18.9561V18.9471ZM125.121 18.9471C125.121 18.8169 125.151 18.702 125.212 18.6021C125.269 18.4992 125.35 18.4191 125.452 18.3616C125.552 18.3011 125.667 18.2708 125.797 18.2708H128.357C128.487 18.2708 128.602 18.3011 128.702 18.3616C128.805 18.4191 128.885 18.4992 128.943 18.6021C129.003 18.702 129.033 18.8169 129.033 18.9471V18.9561C129.033 19.0862 129.003 19.2027 128.943 19.3056C128.885 19.4055 128.805 19.4856 128.702 19.5461C128.602 19.6036 128.487 19.6324 128.357 19.6324H125.797C125.667 19.6324 125.552 19.6036 125.452 19.5461C125.35 19.4856 125.269 19.4055 125.212 19.3056C125.151 19.2027 125.121 19.0862 125.121 18.9561V18.9471ZM127.67 18.9471C127.67 18.8169 127.7 18.702 127.76 18.6021C127.818 18.4992 127.898 18.4191 128.001 18.3616C128.101 18.3011 128.216 18.2708 128.346 18.2708H130.906C131.036 18.2708 131.151 18.3011 131.251 18.3616C131.353 18.4191 131.434 18.4992 131.491 18.6021C131.552 18.702 131.582 18.8169 131.582 18.9471V18.9561C131.582 19.0862 131.552 19.2027 131.491 19.3056C131.434 19.4055 131.353 19.4856 131.251 19.5461C131.151 19.6036 131.036 19.6324 130.906 19.6324H128.346C128.216 19.6324 128.101 19.6036 128.001 19.5461C127.898 19.4856 127.818 19.4055 127.76 19.3056C127.7 19.2027 127.67 19.0862 127.67 18.9561V18.9471ZM130.218 18.9471C130.218 18.8169 130.248 18.702 130.309 18.6021C130.366 18.4992 130.447 18.4191 130.549 18.3616C130.649 18.3011 130.764 18.2708 130.894 18.2708H133.454C133.584 18.2708 133.699 18.3011 133.799 18.3616C133.902 18.4191 133.982 18.4992 134.04 18.6021C134.1 18.702 134.13 18.8169 134.13 18.9471V18.9561C134.13 19.0862 134.1 19.2027 134.04 19.3056C133.982 19.4055 133.902 19.4856 133.799 19.5461C133.699 19.6036 133.584 19.6324 133.454 19.6324H130.894C130.764 19.6324 130.649 19.6036 130.549 19.5461C130.447 19.4856 130.366 19.4055 130.309 19.3056C130.248 19.2027 130.218 19.0862 130.218 18.9561V18.9471Z"
			fill="#B9C6DD" />
		<rect x="142.616" y="13" width="45.3464" height="11.8079" rx="1.13464" fill="black" />
		<path
			d="M147.608 18.947C147.608 18.8169 147.639 18.702 147.699 18.6021C147.757 18.4992 147.837 18.4191 147.94 18.3616C148.039 18.3011 148.154 18.2708 148.285 18.2708H149.592C149.722 18.2708 149.837 18.3011 149.937 18.3616C150.039 18.4191 150.12 18.4992 150.177 18.6021C150.238 18.702 150.268 18.8169 150.268 18.947V18.9561C150.268 19.0862 150.238 19.2027 150.177 19.3056C150.12 19.4054 150.039 19.4856 149.937 19.5461C149.837 19.6036 149.722 19.6324 149.592 19.6324H148.285C148.154 19.6324 148.039 19.6036 147.94 19.5461C147.837 19.4856 147.757 19.4054 147.699 19.3056C147.639 19.2027 147.608 19.0862 147.608 18.9561V18.947ZM148.907 18.947C148.907 18.8169 148.937 18.702 148.998 18.6021C149.055 18.4992 149.135 18.4191 149.238 18.3616C149.338 18.3011 149.453 18.2708 149.583 18.2708H152.143C152.273 18.2708 152.388 18.3011 152.488 18.3616C152.591 18.4191 152.671 18.4992 152.728 18.6021C152.789 18.702 152.819 18.8169 152.819 18.947V18.9561C152.819 19.0862 152.789 19.2027 152.728 19.3056C152.671 19.4054 152.591 19.4856 152.488 19.5461C152.388 19.6036 152.273 19.6324 152.143 19.6324H149.583C149.453 19.6324 149.338 19.6036 149.238 19.5461C149.135 19.4856 149.055 19.4054 148.998 19.3056C148.937 19.2027 148.907 19.0862 148.907 18.9561V18.947ZM151.455 18.947C151.455 18.8169 151.486 18.702 151.546 18.6021C151.604 18.4992 151.684 18.4191 151.787 18.3616C151.887 18.3011 152.002 18.2708 152.132 18.2708H154.691C154.822 18.2708 154.937 18.3011 155.036 18.3616C155.139 18.4191 155.219 18.4992 155.277 18.6021C155.337 18.702 155.368 18.8169 155.368 18.947V18.9561C155.368 19.0862 155.337 19.2027 155.277 19.3056C155.219 19.4054 155.139 19.4856 155.036 19.5461C154.937 19.6036 154.822 19.6324 154.691 19.6324H152.132C152.002 19.6324 151.887 19.6036 151.787 19.5461C151.684 19.4856 151.604 19.4054 151.546 19.3056C151.486 19.2027 151.455 19.0862 151.455 18.9561V18.947ZM154.004 18.947C154.004 18.8169 154.034 18.702 154.095 18.6021C154.152 18.4992 154.232 18.4191 154.335 18.3616C154.435 18.3011 154.55 18.2708 154.68 18.2708H155.987C156.117 18.2708 156.232 18.3011 156.332 18.3616C156.435 18.4191 156.515 18.4992 156.573 18.6021C156.633 18.702 156.664 18.8169 156.664 18.947V18.9561C156.664 19.0862 156.633 19.2027 156.573 19.3056C156.515 19.4054 156.435 19.4856 156.332 19.5461C156.232 19.6036 156.117 19.6324 155.987 19.6324H154.68C154.55 19.6324 154.435 19.6036 154.335 19.5461C154.232 19.4856 154.152 19.4054 154.095 19.3056C154.034 19.2027 154.004 19.0862 154.004 18.9561V18.947ZM155.303 18.947C155.303 18.8169 155.333 18.702 155.393 18.6021C155.451 18.4992 155.531 18.4191 155.634 18.3616C155.734 18.3011 155.849 18.2708 155.979 18.2708H158.539C158.669 18.2708 158.784 18.3011 158.884 18.3616C158.986 18.4191 159.067 18.4992 159.124 18.6021C159.185 18.702 159.215 18.8169 159.215 18.947V18.9561C159.215 19.0862 159.185 19.2027 159.124 19.3056C159.067 19.4054 158.986 19.4856 158.884 19.5461C158.784 19.6036 158.669 19.6324 158.539 19.6324H155.979C155.849 19.6324 155.734 19.6036 155.634 19.5461C155.531 19.4856 155.451 19.4054 155.393 19.3056C155.333 19.2027 155.303 19.0862 155.303 18.9561V18.947ZM157.851 18.947C157.851 18.8169 157.881 18.702 157.942 18.6021C157.999 18.4992 158.08 18.4191 158.182 18.3616C158.282 18.3011 158.397 18.2708 158.527 18.2708H159.834C159.965 18.2708 160.08 18.3011 160.179 18.3616C160.282 18.4191 160.362 18.4992 160.42 18.6021C160.48 18.702 160.511 18.8169 160.511 18.947V18.9561C160.511 19.0862 160.48 19.2027 160.42 19.3056C160.362 19.4054 160.282 19.4856 160.179 19.5461C160.08 19.6036 159.965 19.6324 159.834 19.6324H158.527C158.397 19.6324 158.282 19.6036 158.182 19.5461C158.08 19.4856 157.999 19.4054 157.942 19.3056C157.881 19.2027 157.851 19.0862 157.851 18.9561V18.947ZM159.15 18.947C159.15 18.8169 159.18 18.702 159.241 18.6021C159.298 18.4992 159.378 18.4191 159.481 18.3616C159.581 18.3011 159.696 18.2708 159.826 18.2708H162.386C162.516 18.2708 162.631 18.3011 162.731 18.3616C162.834 18.4191 162.914 18.4992 162.971 18.6021C163.032 18.702 163.062 18.8169 163.062 18.947V18.9561C163.062 19.0862 163.032 19.2027 162.971 19.3056C162.914 19.4054 162.834 19.4856 162.731 19.5461C162.631 19.6036 162.516 19.6324 162.386 19.6324H159.826C159.696 19.6324 159.581 19.6036 159.481 19.5461C159.378 19.4856 159.298 19.4054 159.241 19.3056C159.18 19.2027 159.15 19.0862 159.15 18.9561V18.947ZM161.698 18.947C161.698 18.8169 161.729 18.702 161.789 18.6021C161.847 18.4992 161.927 18.4191 162.03 18.3616C162.129 18.3011 162.244 18.2708 162.375 18.2708H164.934C165.064 18.2708 165.179 18.3011 165.279 18.3616C165.382 18.4191 165.462 18.4992 165.52 18.6021C165.58 18.702 165.611 18.8169 165.611 18.947V18.9561C165.611 19.0862 165.58 19.2027 165.52 19.3056C165.462 19.4054 165.382 19.4856 165.279 19.5461C165.179 19.6036 165.064 19.6324 164.934 19.6324H162.375C162.244 19.6324 162.129 19.6036 162.03 19.5461C161.927 19.4856 161.847 19.4054 161.789 19.3056C161.729 19.2027 161.698 19.0862 161.698 18.9561V18.947ZM166.968 18.947C166.968 18.8169 166.998 18.702 167.059 18.6021C167.116 18.4992 167.197 18.4191 167.299 18.3616C167.399 18.3011 167.514 18.2708 167.644 18.2708H168.952C169.082 18.2708 169.197 18.3011 169.296 18.3616C169.399 18.4191 169.479 18.4992 169.537 18.6021C169.597 18.702 169.628 18.8169 169.628 18.947V18.9561C169.628 19.0862 169.597 19.2027 169.537 19.3056C169.479 19.4054 169.399 19.4856 169.296 19.5461C169.197 19.6036 169.082 19.6324 168.952 19.6324H167.644C167.514 19.6324 167.399 19.6036 167.299 19.5461C167.197 19.4856 167.116 19.4054 167.059 19.3056C166.998 19.2027 166.968 19.0862 166.968 18.9561V18.947ZM168.267 18.947C168.267 18.8169 168.297 18.702 168.358 18.6021C168.415 18.4992 168.495 18.4191 168.598 18.3616C168.698 18.3011 168.813 18.2708 168.943 18.2708H171.503C171.633 18.2708 171.748 18.3011 171.848 18.3616C171.951 18.4191 172.031 18.4992 172.088 18.6021C172.149 18.702 172.179 18.8169 172.179 18.947V18.9561C172.179 19.0862 172.149 19.2027 172.088 19.3056C172.031 19.4054 171.951 19.4856 171.848 19.5461C171.748 19.6036 171.633 19.6324 171.503 19.6324H168.943C168.813 19.6324 168.698 19.6036 168.598 19.5461C168.495 19.4856 168.415 19.4054 168.358 19.3056C168.297 19.2027 168.267 19.0862 168.267 18.9561V18.947ZM170.815 18.947C170.815 18.8169 170.846 18.702 170.906 18.6021C170.964 18.4992 171.044 18.4191 171.147 18.3616C171.246 18.3011 171.361 18.2708 171.492 18.2708H174.051C174.181 18.2708 174.296 18.3011 174.396 18.3616C174.499 18.4191 174.579 18.4992 174.637 18.6021C174.697 18.702 174.728 18.8169 174.728 18.947V18.9561C174.728 19.0862 174.697 19.2027 174.637 19.3056C174.579 19.4054 174.499 19.4856 174.396 19.5461C174.296 19.6036 174.181 19.6324 174.051 19.6324H171.492C171.361 19.6324 171.246 19.6036 171.147 19.5461C171.044 19.4856 170.964 19.4054 170.906 19.3056C170.846 19.2027 170.815 19.0862 170.815 18.9561V18.947ZM173.364 18.947C173.364 18.8169 173.394 18.702 173.455 18.6021C173.512 18.4992 173.592 18.4191 173.695 18.3616C173.795 18.3011 173.91 18.2708 174.04 18.2708H176.6C176.73 18.2708 176.845 18.3011 176.945 18.3616C177.048 18.4191 177.128 18.4992 177.185 18.6021C177.246 18.702 177.276 18.8169 177.276 18.947V18.9561C177.276 19.0862 177.246 19.2027 177.185 19.3056C177.128 19.4054 177.048 19.4856 176.945 19.5461C176.845 19.6036 176.73 19.6324 176.6 19.6324H174.04C173.91 19.6324 173.795 19.6036 173.695 19.5461C173.592 19.4856 173.512 19.4054 173.455 19.3056C173.394 19.2027 173.364 19.0862 173.364 18.9561V18.947ZM175.912 18.947C175.912 18.8169 175.943 18.702 176.003 18.6021C176.061 18.4992 176.141 18.4191 176.244 18.3616C176.344 18.3011 176.458 18.2708 176.589 18.2708H179.148C179.278 18.2708 179.393 18.3011 179.493 18.3616C179.596 18.4191 179.676 18.4992 179.734 18.6021C179.794 18.702 179.825 18.8169 179.825 18.947V18.9561C179.825 19.0862 179.794 19.2027 179.734 19.3056C179.676 19.4054 179.596 19.4856 179.493 19.5461C179.393 19.6036 179.278 19.6324 179.148 19.6324H176.589C176.458 19.6324 176.344 19.6036 176.244 19.5461C176.141 19.4856 176.061 19.4054 176.003 19.3056C175.943 19.2027 175.912 19.0862 175.912 18.9561V18.947ZM178.461 18.947C178.461 18.8169 178.491 18.702 178.552 18.6021C178.609 18.4992 178.689 18.4191 178.792 18.3616C178.892 18.3011 179.007 18.2708 179.137 18.2708H181.697C181.827 18.2708 181.942 18.3011 182.042 18.3616C182.145 18.4191 182.225 18.4992 182.282 18.6021C182.343 18.702 182.373 18.8169 182.373 18.947V18.9561C182.373 19.0862 182.343 19.2027 182.282 19.3056C182.225 19.4054 182.145 19.4856 182.042 19.5461C181.942 19.6036 181.827 19.6324 181.697 19.6324H179.137C179.007 19.6324 178.892 19.6036 178.792 19.5461C178.689 19.4856 178.609 19.4054 178.552 19.3056C178.491 19.2027 178.461 19.0862 178.461 18.9561V18.947Z"
			fill="white" />
		<rect x="192.643" y="13.1418" width="39.7935" height="11.5242" rx="0.992814"
			stroke="#B9C6DD" stroke-width="0.283661" stroke-dasharray="1.13 1.13" />
		<path
			d="M196.359 18.947C196.359 18.8169 196.39 18.702 196.45 18.6021C196.508 18.4992 196.588 18.4191 196.691 18.3616C196.79 18.3011 196.905 18.2708 197.036 18.2708H199.595C199.725 18.2708 199.84 18.3011 199.94 18.3616C200.043 18.4191 200.123 18.4992 200.181 18.6021C200.241 18.702 200.272 18.8169 200.272 18.947V18.9561C200.272 19.0862 200.241 19.2027 200.181 19.3056C200.123 19.4054 200.043 19.4856 199.94 19.5461C199.84 19.6036 199.725 19.6324 199.595 19.6324H197.036C196.905 19.6324 196.79 19.6036 196.691 19.5461C196.588 19.4856 196.508 19.4054 196.45 19.3056C196.39 19.2027 196.359 19.0862 196.359 18.9561V18.947ZM198.908 18.947C198.908 18.8169 198.938 18.702 198.999 18.6021C199.056 18.4992 199.136 18.4191 199.239 18.3616C199.339 18.3011 199.454 18.2708 199.584 18.2708H200.891C201.021 18.2708 201.136 18.3011 201.236 18.3616C201.339 18.4191 201.419 18.4992 201.477 18.6021C201.537 18.702 201.567 18.8169 201.567 18.947V18.9561C201.567 19.0862 201.537 19.2027 201.477 19.3056C201.419 19.4054 201.339 19.4856 201.236 19.5461C201.136 19.6036 201.021 19.6324 200.891 19.6324H199.584C199.454 19.6324 199.339 19.6036 199.239 19.5461C199.136 19.4856 199.056 19.4054 198.999 19.3056C198.938 19.2027 198.908 19.0862 198.908 18.9561V18.947ZM200.206 18.947C200.206 18.8169 200.237 18.702 200.297 18.6021C200.355 18.4992 200.435 18.4191 200.538 18.3616C200.638 18.3011 200.753 18.2708 200.883 18.2708H203.442C203.573 18.2708 203.687 18.3011 203.787 18.3616C203.89 18.4191 203.97 18.4992 204.028 18.6021C204.088 18.702 204.119 18.8169 204.119 18.947V18.9561C204.119 19.0862 204.088 19.2027 204.028 19.3056C203.97 19.4054 203.89 19.4856 203.787 19.5461C203.687 19.6036 203.573 19.6324 203.442 19.6324H200.883C200.753 19.6324 200.638 19.6036 200.538 19.5461C200.435 19.4856 200.355 19.4054 200.297 19.3056C200.237 19.2027 200.206 19.0862 200.206 18.9561V18.947ZM202.755 18.947C202.755 18.8169 202.785 18.702 202.846 18.6021C202.903 18.4992 202.983 18.4191 203.086 18.3616C203.186 18.3011 203.301 18.2708 203.431 18.2708H205.991C206.121 18.2708 206.236 18.3011 206.336 18.3616C206.439 18.4191 206.519 18.4992 206.576 18.6021C206.637 18.702 206.667 18.8169 206.667 18.947V18.9561C206.667 19.0862 206.637 19.2027 206.576 19.3056C206.519 19.4054 206.439 19.4856 206.336 19.5461C206.236 19.6036 206.121 19.6324 205.991 19.6324H203.431C203.301 19.6324 203.186 19.6036 203.086 19.5461C202.983 19.4856 202.903 19.4054 202.846 19.3056C202.785 19.2027 202.755 19.0862 202.755 18.9561V18.947ZM205.303 18.947C205.303 18.8169 205.334 18.702 205.394 18.6021C205.452 18.4992 205.532 18.4191 205.635 18.3616C205.735 18.3011 205.85 18.2708 205.98 18.2708H207.287C207.417 18.2708 207.532 18.3011 207.632 18.3616C207.735 18.4191 207.815 18.4992 207.872 18.6021C207.933 18.702 207.963 18.8169 207.963 18.947V18.9561C207.963 19.0862 207.933 19.2027 207.872 19.3056C207.815 19.4054 207.735 19.4856 207.632 19.5461C207.532 19.6036 207.417 19.6324 207.287 19.6324H205.98C205.85 19.6324 205.735 19.6036 205.635 19.5461C205.532 19.4856 205.452 19.4054 205.394 19.3056C205.334 19.2027 205.303 19.0862 205.303 18.9561V18.947ZM206.602 18.947C206.602 18.8169 206.632 18.702 206.693 18.6021C206.75 18.4992 206.831 18.4191 206.933 18.3616C207.033 18.3011 207.148 18.2708 207.278 18.2708H208.585C208.716 18.2708 208.831 18.3011 208.93 18.3616C209.033 18.4191 209.113 18.4992 209.171 18.6021C209.231 18.702 209.262 18.8169 209.262 18.947V18.9561C209.262 19.0862 209.231 19.2027 209.171 19.3056C209.113 19.4054 209.033 19.4856 208.93 19.5461C208.831 19.6036 208.716 19.6324 208.585 19.6324H207.278C207.148 19.6324 207.033 19.6036 206.933 19.5461C206.831 19.4856 206.75 19.4054 206.693 19.3056C206.632 19.2027 206.602 19.0862 206.602 18.9561V18.947ZM207.901 18.947C207.901 18.8169 207.931 18.702 207.991 18.6021C208.049 18.4992 208.129 18.4191 208.232 18.3616C208.332 18.3011 208.447 18.2708 208.577 18.2708H211.137C211.267 18.2708 211.382 18.3011 211.482 18.3616C211.585 18.4191 211.665 18.4992 211.722 18.6021C211.783 18.702 211.813 18.8169 211.813 18.947V18.9561C211.813 19.0862 211.783 19.2027 211.722 19.3056C211.665 19.4054 211.585 19.4856 211.482 19.5461C211.382 19.6036 211.267 19.6324 211.137 19.6324H208.577C208.447 19.6324 208.332 19.6036 208.232 19.5461C208.129 19.4856 208.049 19.4054 207.991 19.3056C207.931 19.2027 207.901 19.0862 207.901 18.9561V18.947ZM210.449 18.947C210.449 18.8169 210.479 18.702 210.54 18.6021C210.597 18.4992 210.678 18.4191 210.781 18.3616C210.88 18.3011 210.995 18.2708 211.125 18.2708H213.685C213.815 18.2708 213.93 18.3011 214.03 18.3616C214.133 18.4191 214.213 18.4992 214.271 18.6021C214.331 18.702 214.361 18.8169 214.361 18.947V18.9561C214.361 19.0862 214.331 19.2027 214.271 19.3056C214.213 19.4054 214.133 19.4856 214.03 19.5461C213.93 19.6036 213.815 19.6324 213.685 19.6324H211.125C210.995 19.6324 210.88 19.6036 210.781 19.5461C210.678 19.4856 210.597 19.4054 210.54 19.3056C210.479 19.2027 210.449 19.0862 210.449 18.9561V18.947ZM215.719 18.947C215.719 18.8169 215.749 18.702 215.81 18.6021C215.867 18.4992 215.948 18.4191 216.05 18.3616C216.15 18.3011 216.265 18.2708 216.395 18.2708H217.702C217.833 18.2708 217.948 18.3011 218.047 18.3616C218.15 18.4191 218.23 18.4992 218.288 18.6021C218.348 18.702 218.379 18.8169 218.379 18.947V18.9561C218.379 19.0862 218.348 19.2027 218.288 19.3056C218.23 19.4054 218.15 19.4856 218.047 19.5461C217.948 19.6036 217.833 19.6324 217.702 19.6324H216.395C216.265 19.6324 216.15 19.6036 216.05 19.5461C215.948 19.4856 215.867 19.4054 215.81 19.3056C215.749 19.2027 215.719 19.0862 215.719 18.9561V18.947ZM217.018 18.947C217.018 18.8169 217.048 18.702 217.109 18.6021C217.166 18.4992 217.246 18.4191 217.349 18.3616C217.449 18.3011 217.564 18.2708 217.694 18.2708H220.254C220.384 18.2708 220.499 18.3011 220.599 18.3616C220.702 18.4191 220.782 18.4992 220.839 18.6021C220.9 18.702 220.93 18.8169 220.93 18.947V18.9561C220.93 19.0862 220.9 19.2027 220.839 19.3056C220.782 19.4054 220.702 19.4856 220.599 19.5461C220.499 19.6036 220.384 19.6324 220.254 19.6324H217.694C217.564 19.6324 217.449 19.6036 217.349 19.5461C217.246 19.4856 217.166 19.4054 217.109 19.3056C217.048 19.2027 217.018 19.0862 217.018 18.9561V18.947ZM219.566 18.947C219.566 18.8169 219.597 18.702 219.657 18.6021C219.715 18.4992 219.795 18.4191 219.898 18.3616C219.997 18.3011 220.112 18.2708 220.243 18.2708H222.802C222.932 18.2708 223.047 18.3011 223.147 18.3616C223.25 18.4191 223.33 18.4992 223.388 18.6021C223.448 18.702 223.479 18.8169 223.479 18.947V18.9561C223.479 19.0862 223.448 19.2027 223.388 19.3056C223.33 19.4054 223.25 19.4856 223.147 19.5461C223.047 19.6036 222.932 19.6324 222.802 19.6324H220.243C220.112 19.6324 219.997 19.6036 219.898 19.5461C219.795 19.4856 219.715 19.4054 219.657 19.3056C219.597 19.2027 219.566 19.0862 219.566 18.9561V18.947ZM222.115 18.947C222.115 18.8169 222.145 18.702 222.206 18.6021C222.263 18.4992 222.343 18.4191 222.446 18.3616C222.546 18.3011 222.661 18.2708 222.791 18.2708H225.351C225.481 18.2708 225.596 18.3011 225.696 18.3616C225.799 18.4191 225.879 18.4992 225.936 18.6021C225.997 18.702 226.027 18.8169 226.027 18.947V18.9561C226.027 19.0862 225.997 19.2027 225.936 19.3056C225.879 19.4054 225.799 19.4856 225.696 19.5461C225.596 19.6036 225.481 19.6324 225.351 19.6324H222.791C222.661 19.6324 222.546 19.6036 222.446 19.5461C222.343 19.4856 222.263 19.4054 222.206 19.3056C222.145 19.2027 222.115 19.0862 222.115 18.9561V18.947ZM224.663 18.947C224.663 18.8169 224.694 18.702 224.754 18.6021C224.812 18.4992 224.892 18.4191 224.995 18.3616C225.094 18.3011 225.209 18.2708 225.34 18.2708H227.899C228.029 18.2708 228.144 18.3011 228.244 18.3616C228.347 18.4191 228.427 18.4992 228.485 18.6021C228.545 18.702 228.576 18.8169 228.576 18.947V18.9561C228.576 19.0862 228.545 19.2027 228.485 19.3056C228.427 19.4054 228.347 19.4856 228.244 19.5461C228.144 19.6036 228.029 19.6324 227.899 19.6324H225.34C225.209 19.6324 225.094 19.6036 224.995 19.5461C224.892 19.4856 224.812 19.4054 224.754 19.3056C224.694 19.2027 224.663 19.0862 224.663 18.9561V18.947Z"
			fill="#B9C6DD" />
		<rect x="237.258" y="13.1418" width="29.7935" height="11.5242" rx="0.992814"
			stroke="#B9C6DD" stroke-width="0.283661" stroke-dasharray="1.13 1.13" />
		<path
			d="M240.974 18.9471C240.974 18.8169 241.005 18.702 241.065 18.6021C241.123 18.4992 241.203 18.4191 241.306 18.3616C241.406 18.3011 241.521 18.2708 241.651 18.2708H244.21C244.341 18.2708 244.456 18.3011 244.555 18.3616C244.658 18.4191 244.738 18.4992 244.796 18.6021C244.856 18.702 244.887 18.8169 244.887 18.9471V18.9561C244.887 19.0862 244.856 19.2027 244.796 19.3056C244.738 19.4055 244.658 19.4856 244.555 19.5461C244.456 19.6036 244.341 19.6324 244.21 19.6324H241.651C241.521 19.6324 241.406 19.6036 241.306 19.5461C241.203 19.4856 241.123 19.4055 241.065 19.3056C241.005 19.2027 240.974 19.0862 240.974 18.9561V18.9471ZM243.523 18.9471C243.523 18.8169 243.553 18.702 243.614 18.6021C243.671 18.4992 243.751 18.4191 243.854 18.3616C243.954 18.3011 244.069 18.2708 244.199 18.2708H245.506C245.636 18.2708 245.751 18.3011 245.851 18.3616C245.954 18.4191 246.034 18.4992 246.092 18.6021C246.152 18.702 246.183 18.8169 246.183 18.9471V18.9561C246.183 19.0862 246.152 19.2027 246.092 19.3056C246.034 19.4055 245.954 19.4856 245.851 19.5461C245.751 19.6036 245.636 19.6324 245.506 19.6324H244.199C244.069 19.6324 243.954 19.6036 243.854 19.5461C243.751 19.4856 243.671 19.4055 243.614 19.3056C243.553 19.2027 243.523 19.0862 243.523 18.9561V18.9471ZM247.543 18.9471C247.543 18.8169 247.573 18.702 247.634 18.6021C247.691 18.4992 247.771 18.4191 247.874 18.3616C247.974 18.3011 248.089 18.2708 248.219 18.2708H249.526C249.656 18.2708 249.771 18.3011 249.871 18.3616C249.974 18.4191 250.054 18.4992 250.112 18.6021C250.172 18.702 250.203 18.8169 250.203 18.9471V18.9561C250.203 19.0862 250.172 19.2027 250.112 19.3056C250.054 19.4055 249.974 19.4856 249.871 19.5461C249.771 19.6036 249.656 19.6324 249.526 19.6324H248.219C248.089 19.6324 247.974 19.6036 247.874 19.5461C247.771 19.4856 247.691 19.4055 247.634 19.3056C247.573 19.2027 247.543 19.0862 247.543 18.9561V18.9471ZM248.842 18.9471C248.842 18.8169 248.872 18.702 248.932 18.6021C248.99 18.4992 249.07 18.4191 249.173 18.3616C249.273 18.3011 249.388 18.2708 249.518 18.2708H252.078C252.208 18.2708 252.323 18.3011 252.423 18.3616C252.525 18.4191 252.606 18.4992 252.663 18.6021C252.724 18.702 252.754 18.8169 252.754 18.9471V18.9561C252.754 19.0862 252.724 19.2027 252.663 19.3056C252.606 19.4055 252.525 19.4856 252.423 19.5461C252.323 19.6036 252.208 19.6324 252.078 19.6324H249.518C249.388 19.6324 249.273 19.6036 249.173 19.5461C249.07 19.4856 248.99 19.4055 248.932 19.3056C248.872 19.2027 248.842 19.0862 248.842 18.9561V18.9471ZM251.39 18.9471C251.39 18.8169 251.42 18.702 251.481 18.6021C251.538 18.4992 251.619 18.4191 251.721 18.3616C251.821 18.3011 251.936 18.2708 252.066 18.2708H254.626C254.756 18.2708 254.871 18.3011 254.971 18.3616C255.074 18.4191 255.154 18.4992 255.212 18.6021C255.272 18.702 255.302 18.8169 255.302 18.9471V18.9561C255.302 19.0862 255.272 19.2027 255.212 19.3056C255.154 19.4055 255.074 19.4856 254.971 19.5461C254.871 19.6036 254.756 19.6324 254.626 19.6324H252.066C251.936 19.6324 251.821 19.6036 251.721 19.5461C251.619 19.4856 251.538 19.4055 251.481 19.3056C251.42 19.2027 251.39 19.0862 251.39 18.9561V18.9471ZM253.939 18.9471C253.939 18.8169 253.969 18.702 254.029 18.6021C254.087 18.4992 254.167 18.4191 254.27 18.3616C254.37 18.3011 254.485 18.2708 254.615 18.2708H257.175C257.305 18.2708 257.42 18.3011 257.52 18.3616C257.622 18.4191 257.703 18.4992 257.76 18.6021C257.821 18.702 257.851 18.8169 257.851 18.9471V18.9561C257.851 19.0862 257.821 19.2027 257.76 19.3056C257.703 19.4055 257.622 19.4856 257.52 19.5461C257.42 19.6036 257.305 19.6324 257.175 19.6324H254.615C254.485 19.6324 254.37 19.6036 254.27 19.5461C254.167 19.4856 254.087 19.4055 254.029 19.3056C253.969 19.2027 253.939 19.0862 253.939 18.9561V18.9471ZM256.487 18.9471C256.487 18.8169 256.517 18.702 256.578 18.6021C256.635 18.4992 256.716 18.4191 256.819 18.3616C256.918 18.3011 257.033 18.2708 257.163 18.2708H259.723C259.853 18.2708 259.968 18.3011 260.068 18.3616C260.171 18.4191 260.251 18.4992 260.309 18.6021C260.369 18.702 260.399 18.8169 260.399 18.9471V18.9561C260.399 19.0862 260.369 19.2027 260.309 19.3056C260.251 19.4055 260.171 19.4856 260.068 19.5461C259.968 19.6036 259.853 19.6324 259.723 19.6324H257.163C257.033 19.6324 256.918 19.6036 256.819 19.5461C256.716 19.4856 256.635 19.4055 256.578 19.3056C256.517 19.2027 256.487 19.0862 256.487 18.9561V18.9471ZM259.036 18.9471C259.036 18.8169 259.066 18.702 259.126 18.6021C259.184 18.4992 259.264 18.4191 259.367 18.3616C259.467 18.3011 259.582 18.2708 259.712 18.2708H262.272C262.402 18.2708 262.517 18.3011 262.617 18.3616C262.72 18.4191 262.8 18.4992 262.857 18.6021C262.918 18.702 262.948 18.8169 262.948 18.9471V18.9561C262.948 19.0862 262.918 19.2027 262.857 19.3056C262.8 19.4055 262.72 19.4856 262.617 19.5461C262.517 19.6036 262.402 19.6324 262.272 19.6324H259.712C259.582 19.6324 259.467 19.6036 259.367 19.5461C259.264 19.4856 259.184 19.4055 259.126 19.3056C259.066 19.2027 259.036 19.0862 259.036 18.9561V18.9471Z"
			fill="#B9C6DD" />
	</g>
	<defs>
		<clipPath id="clip0_3015_2317">
			<rect width="370" height="222" fill="white" />
		</clipPath>
	</defs>
</svg>
