<svg width="370" height="222" viewBox="0 0 370 222" fill="none" xmlns="http://www.w3.org/2000/svg">
	<g clip-path="url(#clip0_3015_2393)">
		<rect width="370" height="222" fill="white" />
		<rect x="136.711" width="17.3464" height="11.8079" rx="1.13464" fill="#CAD2DF" />
		<path
			d="M141.703 5.94705C141.703 5.81694 141.733 5.70196 141.794 5.60212C141.851 5.49924 141.931 5.41906 142.034 5.36157C142.134 5.30106 142.249 5.2708 142.379 5.2708H144.939C145.069 5.2708 145.184 5.30106 145.284 5.36157C145.387 5.41906 145.467 5.49924 145.524 5.60212C145.585 5.70196 145.615 5.81694 145.615 5.94705V5.95612C145.615 6.08623 145.585 6.20272 145.524 6.30559C145.467 6.40544 145.387 6.48563 145.284 6.54614C145.184 6.60363 145.069 6.63237 144.939 6.63237H142.379C142.249 6.63237 142.134 6.60363 142.034 6.54614C141.931 6.48563 141.851 6.40544 141.794 6.30559C141.733 6.20272 141.703 6.08623 141.703 5.95612V5.94705ZM144.252 5.94705C144.252 5.81694 144.282 5.70196 144.342 5.60212C144.4 5.49924 144.48 5.41906 144.583 5.36157C144.683 5.30106 144.798 5.2708 144.928 5.2708H146.235C146.365 5.2708 146.48 5.30106 146.58 5.36157C146.683 5.41906 146.763 5.49924 146.82 5.60212C146.881 5.70196 146.911 5.81694 146.911 5.94705V5.95612C146.911 6.08623 146.881 6.20272 146.82 6.30559C146.763 6.40544 146.683 6.48563 146.58 6.54614C146.48 6.60363 146.365 6.63237 146.235 6.63237H144.928C144.798 6.63237 144.683 6.60363 144.583 6.54614C144.48 6.48563 144.4 6.40544 144.342 6.30559C144.282 6.20272 144.252 6.08623 144.252 5.95612V5.94705ZM145.55 5.94705C145.55 5.81694 145.58 5.70196 145.641 5.60212C145.698 5.49924 145.779 5.41906 145.881 5.36157C145.981 5.30106 146.096 5.2708 146.226 5.2708H147.534C147.664 5.2708 147.779 5.30106 147.878 5.36157C147.981 5.41906 148.062 5.49924 148.119 5.60212C148.18 5.70196 148.21 5.81694 148.21 5.94705V5.95612C148.21 6.08623 148.18 6.20272 148.119 6.30559C148.062 6.40544 147.981 6.48563 147.878 6.54614C147.779 6.60363 147.664 6.63237 147.534 6.63237H146.226C146.096 6.63237 145.981 6.60363 145.881 6.54614C145.779 6.48563 145.698 6.40544 145.641 6.30559C145.58 6.20272 145.55 6.08623 145.55 5.95612V5.94705Z"
			fill="white" />
		<rect x="158.738" y="0.141831" width="39.7935" height="11.5242" rx="0.992814"
			stroke="#B9C6DD" stroke-width="0.283661" stroke-dasharray="1.13 1.13" />
		<path
			d="M162.454 5.94705C162.454 5.81694 162.484 5.70196 162.545 5.60212C162.602 5.49924 162.682 5.41906 162.785 5.36157C162.885 5.30106 163 5.2708 163.13 5.2708H165.69C165.82 5.2708 165.935 5.30106 166.035 5.36157C166.138 5.41906 166.218 5.49924 166.275 5.60212C166.336 5.70196 166.366 5.81694 166.366 5.94705V5.95612C166.366 6.08623 166.336 6.20272 166.275 6.30559C166.218 6.40544 166.138 6.48563 166.035 6.54614C165.935 6.60363 165.82 6.63237 165.69 6.63237H163.13C163 6.63237 162.885 6.60363 162.785 6.54614C162.682 6.48563 162.602 6.40544 162.545 6.30559C162.484 6.20272 162.454 6.08623 162.454 5.95612V5.94705ZM165.002 5.94705C165.002 5.81694 165.033 5.70196 165.093 5.60212C165.151 5.49924 165.231 5.41906 165.334 5.36157C165.434 5.30106 165.549 5.2708 165.679 5.2708H166.986C167.116 5.2708 167.231 5.30106 167.331 5.36157C167.434 5.41906 167.514 5.49924 167.571 5.60212C167.632 5.70196 167.662 5.81694 167.662 5.94705V5.95612C167.662 6.08623 167.632 6.20272 167.571 6.30559C167.514 6.40544 167.434 6.48563 167.331 6.54614C167.231 6.60363 167.116 6.63237 166.986 6.63237H165.679C165.549 6.63237 165.434 6.60363 165.334 6.54614C165.231 6.48563 165.151 6.40544 165.093 6.30559C165.033 6.20272 165.002 6.08623 165.002 5.95612V5.94705ZM166.301 5.94705C166.301 5.81694 166.331 5.70196 166.392 5.60212C166.449 5.49924 166.53 5.41906 166.632 5.36157C166.732 5.30106 166.847 5.2708 166.977 5.2708H169.537C169.667 5.2708 169.782 5.30106 169.882 5.36157C169.985 5.41906 170.065 5.49924 170.123 5.60212C170.183 5.70196 170.213 5.81694 170.213 5.94705V5.95612C170.213 6.08623 170.183 6.20272 170.123 6.30559C170.065 6.40544 169.985 6.48563 169.882 6.54614C169.782 6.60363 169.667 6.63237 169.537 6.63237H166.977C166.847 6.63237 166.732 6.60363 166.632 6.54614C166.53 6.48563 166.449 6.40544 166.392 6.30559C166.331 6.20272 166.301 6.08623 166.301 5.95612V5.94705ZM168.85 5.94705C168.85 5.81694 168.88 5.70196 168.94 5.60212C168.998 5.49924 169.078 5.41906 169.181 5.36157C169.281 5.30106 169.396 5.2708 169.526 5.2708H172.086C172.216 5.2708 172.331 5.30106 172.431 5.36157C172.533 5.41906 172.614 5.49924 172.671 5.60212C172.732 5.70196 172.762 5.81694 172.762 5.94705V5.95612C172.762 6.08623 172.732 6.20272 172.671 6.30559C172.614 6.40544 172.533 6.48563 172.431 6.54614C172.331 6.60363 172.216 6.63237 172.086 6.63237H169.526C169.396 6.63237 169.281 6.60363 169.181 6.54614C169.078 6.48563 168.998 6.40544 168.94 6.30559C168.88 6.20272 168.85 6.08623 168.85 5.95612V5.94705ZM171.398 5.94705C171.398 5.81694 171.428 5.70196 171.489 5.60212C171.546 5.49924 171.627 5.41906 171.729 5.36157C171.829 5.30106 171.944 5.2708 172.074 5.2708H173.382C173.512 5.2708 173.627 5.30106 173.726 5.36157C173.829 5.41906 173.91 5.49924 173.967 5.60212C174.028 5.70196 174.058 5.81694 174.058 5.94705V5.95612C174.058 6.08623 174.028 6.20272 173.967 6.30559C173.91 6.40544 173.829 6.48563 173.726 6.54614C173.627 6.60363 173.512 6.63237 173.382 6.63237H172.074C171.944 6.63237 171.829 6.60363 171.729 6.54614C171.627 6.48563 171.546 6.40544 171.489 6.30559C171.428 6.20272 171.398 6.08623 171.398 5.95612V5.94705ZM172.697 5.94705C172.697 5.81694 172.727 5.70196 172.788 5.60212C172.845 5.49924 172.925 5.41906 173.028 5.36157C173.128 5.30106 173.243 5.2708 173.373 5.2708H174.68C174.81 5.2708 174.925 5.30106 175.025 5.36157C175.128 5.41906 175.208 5.49924 175.266 5.60212C175.326 5.70196 175.356 5.81694 175.356 5.94705V5.95612C175.356 6.08623 175.326 6.20272 175.266 6.30559C175.208 6.40544 175.128 6.48563 175.025 6.54614C174.925 6.60363 174.81 6.63237 174.68 6.63237H173.373C173.243 6.63237 173.128 6.60363 173.028 6.54614C172.925 6.48563 172.845 6.40544 172.788 6.30559C172.727 6.20272 172.697 6.08623 172.697 5.95612V5.94705ZM173.995 5.94705C173.995 5.81694 174.026 5.70196 174.086 5.60212C174.144 5.49924 174.224 5.41906 174.327 5.36157C174.427 5.30106 174.542 5.2708 174.672 5.2708H177.231C177.362 5.2708 177.477 5.30106 177.576 5.36157C177.679 5.41906 177.759 5.49924 177.817 5.60212C177.877 5.70196 177.908 5.81694 177.908 5.94705V5.95612C177.908 6.08623 177.877 6.20272 177.817 6.30559C177.759 6.40544 177.679 6.48563 177.576 6.54614C177.477 6.60363 177.362 6.63237 177.231 6.63237H174.672C174.542 6.63237 174.427 6.60363 174.327 6.54614C174.224 6.48563 174.144 6.40544 174.086 6.30559C174.026 6.20272 173.995 6.08623 173.995 5.95612V5.94705ZM176.544 5.94705C176.544 5.81694 176.574 5.70196 176.635 5.60212C176.692 5.49924 176.772 5.41906 176.875 5.36157C176.975 5.30106 177.09 5.2708 177.22 5.2708H179.78C179.91 5.2708 180.025 5.30106 180.125 5.36157C180.228 5.41906 180.308 5.49924 180.365 5.60212C180.426 5.70196 180.456 5.81694 180.456 5.94705V5.95612C180.456 6.08623 180.426 6.20272 180.365 6.30559C180.308 6.40544 180.228 6.48563 180.125 6.54614C180.025 6.60363 179.91 6.63237 179.78 6.63237H177.22C177.09 6.63237 176.975 6.60363 176.875 6.54614C176.772 6.48563 176.692 6.40544 176.635 6.30559C176.574 6.20272 176.544 6.08623 176.544 5.95612V5.94705ZM181.814 5.94705C181.814 5.81694 181.844 5.70196 181.905 5.60212C181.962 5.49924 182.042 5.41906 182.145 5.36157C182.245 5.30106 182.36 5.2708 182.49 5.2708H183.797C183.927 5.2708 184.042 5.30106 184.142 5.36157C184.245 5.41906 184.325 5.49924 184.383 5.60212C184.443 5.70196 184.473 5.81694 184.473 5.94705V5.95612C184.473 6.08623 184.443 6.20272 184.383 6.30559C184.325 6.40544 184.245 6.48563 184.142 6.54614C184.042 6.60363 183.927 6.63237 183.797 6.63237H182.49C182.36 6.63237 182.245 6.60363 182.145 6.54614C182.042 6.48563 181.962 6.40544 181.905 6.30559C181.844 6.20272 181.814 6.08623 181.814 5.95612V5.94705ZM183.112 5.94705C183.112 5.81694 183.143 5.70196 183.203 5.60212C183.261 5.49924 183.341 5.41906 183.444 5.36157C183.544 5.30106 183.659 5.2708 183.789 5.2708H186.348C186.479 5.2708 186.594 5.30106 186.693 5.36157C186.796 5.41906 186.876 5.49924 186.934 5.60212C186.994 5.70196 187.025 5.81694 187.025 5.94705V5.95612C187.025 6.08623 186.994 6.20272 186.934 6.30559C186.876 6.40544 186.796 6.48563 186.693 6.54614C186.594 6.60363 186.479 6.63237 186.348 6.63237H183.789C183.659 6.63237 183.544 6.60363 183.444 6.54614C183.341 6.48563 183.261 6.40544 183.203 6.30559C183.143 6.20272 183.112 6.08623 183.112 5.95612V5.94705ZM185.661 5.94705C185.661 5.81694 185.691 5.70196 185.752 5.60212C185.809 5.49924 185.889 5.41906 185.992 5.36157C186.092 5.30106 186.207 5.2708 186.337 5.2708H188.897C189.027 5.2708 189.142 5.30106 189.242 5.36157C189.345 5.41906 189.425 5.49924 189.482 5.60212C189.543 5.70196 189.573 5.81694 189.573 5.94705V5.95612C189.573 6.08623 189.543 6.20272 189.482 6.30559C189.425 6.40544 189.345 6.48563 189.242 6.54614C189.142 6.60363 189.027 6.63237 188.897 6.63237H186.337C186.207 6.63237 186.092 6.60363 185.992 6.54614C185.889 6.48563 185.809 6.40544 185.752 6.30559C185.691 6.20272 185.661 6.08623 185.661 5.95612V5.94705ZM188.21 5.94705C188.21 5.81694 188.24 5.70196 188.3 5.60212C188.358 5.49924 188.438 5.41906 188.541 5.36157C188.641 5.30106 188.756 5.2708 188.886 5.2708H191.446C191.576 5.2708 191.691 5.30106 191.79 5.36157C191.893 5.41906 191.974 5.49924 192.031 5.60212C192.092 5.70196 192.122 5.81694 192.122 5.94705V5.95612C192.122 6.08623 192.092 6.20272 192.031 6.30559C191.974 6.40544 191.893 6.48563 191.79 6.54614C191.691 6.60363 191.576 6.63237 191.446 6.63237H188.886C188.756 6.63237 188.641 6.60363 188.541 6.54614C188.438 6.48563 188.358 6.40544 188.3 6.30559C188.24 6.20272 188.21 6.08623 188.21 5.95612V5.94705ZM190.758 5.94705C190.758 5.81694 190.788 5.70196 190.849 5.60212C190.906 5.49924 190.986 5.41906 191.089 5.36157C191.189 5.30106 191.304 5.2708 191.434 5.2708H193.994C194.124 5.2708 194.239 5.30106 194.339 5.36157C194.442 5.41906 194.522 5.49924 194.58 5.60212C194.64 5.70196 194.67 5.81694 194.67 5.94705V5.95612C194.67 6.08623 194.64 6.20272 194.58 6.30559C194.522 6.40544 194.442 6.48563 194.339 6.54614C194.239 6.60363 194.124 6.63237 193.994 6.63237H191.434C191.304 6.63237 191.189 6.60363 191.089 6.54614C190.986 6.48563 190.906 6.40544 190.849 6.30559C190.788 6.20272 190.758 6.08623 190.758 5.95612V5.94705Z"
			fill="#CAD2DF" />
		<rect x="203.354" y="0.141831" width="29.7935" height="11.5242" rx="0.992814"
			stroke="#B9C6DD" stroke-width="0.283661" stroke-dasharray="1.13 1.13" />
		<path
			d="M207.07 5.94705C207.07 5.81695 207.1 5.70197 207.161 5.60212C207.218 5.49925 207.299 5.41907 207.402 5.36158C207.501 5.30106 207.616 5.27081 207.746 5.27081H210.306C210.436 5.27081 210.551 5.30106 210.651 5.36158C210.754 5.41907 210.834 5.49925 210.892 5.60212C210.952 5.70197 210.982 5.81695 210.982 5.94705V5.95613C210.982 6.08624 210.952 6.20273 210.892 6.3056C210.834 6.40545 210.754 6.48563 210.651 6.54615C210.551 6.60364 210.436 6.63238 210.306 6.63238H207.746C207.616 6.63238 207.501 6.60364 207.402 6.54615C207.299 6.48563 207.218 6.40545 207.161 6.3056C207.1 6.20273 207.07 6.08624 207.07 5.95613V5.94705ZM209.619 5.94705C209.619 5.81695 209.649 5.70197 209.709 5.60212C209.767 5.49925 209.847 5.41907 209.95 5.36158C210.05 5.30106 210.165 5.27081 210.295 5.27081H211.602C211.732 5.27081 211.847 5.30106 211.947 5.36158C212.05 5.41907 212.13 5.49925 212.188 5.60212C212.248 5.70197 212.278 5.81695 212.278 5.94705V5.95613C212.278 6.08624 212.248 6.20273 212.188 6.3056C212.13 6.40545 212.05 6.48563 211.947 6.54615C211.847 6.60364 211.732 6.63238 211.602 6.63238H210.295C210.165 6.63238 210.05 6.60364 209.95 6.54615C209.847 6.48563 209.767 6.40545 209.709 6.3056C209.649 6.20273 209.619 6.08624 209.619 5.95613V5.94705ZM213.639 5.94705C213.639 5.81695 213.669 5.70197 213.729 5.60212C213.787 5.49925 213.867 5.41907 213.97 5.36158C214.07 5.30106 214.185 5.27081 214.315 5.27081H215.622C215.752 5.27081 215.867 5.30106 215.967 5.36158C216.07 5.41907 216.15 5.49925 216.208 5.60212C216.268 5.70197 216.298 5.81695 216.298 5.94705V5.95613C216.298 6.08624 216.268 6.20273 216.208 6.3056C216.15 6.40545 216.07 6.48563 215.967 6.54615C215.867 6.60364 215.752 6.63238 215.622 6.63238H214.315C214.185 6.63238 214.07 6.60364 213.97 6.54615C213.867 6.48563 213.787 6.40545 213.729 6.3056C213.669 6.20273 213.639 6.08624 213.639 5.95613V5.94705ZM214.937 5.94705C214.937 5.81695 214.968 5.70197 215.028 5.60212C215.086 5.49925 215.166 5.41907 215.269 5.36158C215.369 5.30106 215.483 5.27081 215.614 5.27081H218.173C218.303 5.27081 218.418 5.30106 218.518 5.36158C218.621 5.41907 218.701 5.49925 218.759 5.60212C218.819 5.70197 218.85 5.81695 218.85 5.94705V5.95613C218.85 6.08624 218.819 6.20273 218.759 6.3056C218.701 6.40545 218.621 6.48563 218.518 6.54615C218.418 6.60364 218.303 6.63238 218.173 6.63238H215.614C215.483 6.63238 215.369 6.60364 215.269 6.54615C215.166 6.48563 215.086 6.40545 215.028 6.3056C214.968 6.20273 214.937 6.08624 214.937 5.95613V5.94705ZM217.486 5.94705C217.486 5.81695 217.516 5.70197 217.577 5.60212C217.634 5.49925 217.714 5.41907 217.817 5.36158C217.917 5.30106 218.032 5.27081 218.162 5.27081H220.722C220.852 5.27081 220.967 5.30106 221.067 5.36158C221.17 5.41907 221.25 5.49925 221.307 5.60212C221.368 5.70197 221.398 5.81695 221.398 5.94705V5.95613C221.398 6.08624 221.368 6.20273 221.307 6.3056C221.25 6.40545 221.17 6.48563 221.067 6.54615C220.967 6.60364 220.852 6.63238 220.722 6.63238H218.162C218.032 6.63238 217.917 6.60364 217.817 6.54615C217.714 6.48563 217.634 6.40545 217.577 6.3056C217.516 6.20273 217.486 6.08624 217.486 5.95613V5.94705ZM220.034 5.94705C220.034 5.81695 220.065 5.70197 220.125 5.60212C220.183 5.49925 220.263 5.41907 220.366 5.36158C220.466 5.30106 220.581 5.27081 220.711 5.27081H223.27C223.401 5.27081 223.515 5.30106 223.615 5.36158C223.718 5.41907 223.798 5.49925 223.856 5.60212C223.916 5.70197 223.947 5.81695 223.947 5.94705V5.95613C223.947 6.08624 223.916 6.20273 223.856 6.3056C223.798 6.40545 223.718 6.48563 223.615 6.54615C223.515 6.60364 223.401 6.63238 223.27 6.63238H220.711C220.581 6.63238 220.466 6.60364 220.366 6.54615C220.263 6.48563 220.183 6.40545 220.125 6.3056C220.065 6.20273 220.034 6.08624 220.034 5.95613V5.94705ZM222.583 5.94705C222.583 5.81695 222.613 5.70197 222.674 5.60212C222.731 5.49925 222.811 5.41907 222.914 5.36158C223.014 5.30106 223.129 5.27081 223.259 5.27081H225.819C225.949 5.27081 226.064 5.30106 226.164 5.36158C226.267 5.41907 226.347 5.49925 226.404 5.60212C226.465 5.70197 226.495 5.81695 226.495 5.94705V5.95613C226.495 6.08624 226.465 6.20273 226.404 6.3056C226.347 6.40545 226.267 6.48563 226.164 6.54615C226.064 6.60364 225.949 6.63238 225.819 6.63238H223.259C223.129 6.63238 223.014 6.60364 222.914 6.54615C222.811 6.48563 222.731 6.40545 222.674 6.3056C222.613 6.20273 222.583 6.08624 222.583 5.95613V5.94705ZM225.131 5.94705C225.131 5.81695 225.162 5.70197 225.222 5.60212C225.28 5.49925 225.36 5.41907 225.463 5.36158C225.563 5.30106 225.678 5.27081 225.808 5.27081H228.367C228.498 5.27081 228.613 5.30106 228.712 5.36158C228.815 5.41907 228.895 5.49925 228.953 5.60212C229.013 5.70197 229.044 5.81695 229.044 5.94705V5.95613C229.044 6.08624 229.013 6.20273 228.953 6.3056C228.895 6.40545 228.815 6.48563 228.712 6.54615C228.613 6.60364 228.498 6.63238 228.367 6.63238H225.808C225.678 6.63238 225.563 6.60364 225.463 6.54615C225.36 6.48563 225.28 6.40545 225.222 6.3056C225.162 6.20273 225.131 6.08624 225.131 5.95613V5.94705Z"
			fill="#CAD2DF" />
		<rect x="127" y="25" width="121" height="95" rx="2.27273" fill="#EAEEF6" />
		<rect x="215.193" y="31.9126" width="10.9474" height="10.9474" rx="1.68421" fill="white" />
		<path
			d="M217.203 39.9535L217.196 39.9605C217.102 39.754 217.042 39.5195 217.018 39.2605C217.042 39.516 217.109 39.747 217.203 39.9535Z"
			fill="#CAD2DF" />
		<path
			d="M219.45 36.933C219.91 36.933 220.283 36.56 220.283 36.1C220.283 35.6399 219.91 35.267 219.45 35.267C218.99 35.267 218.617 35.6399 218.617 36.1C218.617 36.56 218.99 36.933 219.45 36.933Z"
			fill="#CAD2DF" />
		<path
			d="M221.967 34H219.033C217.759 34 217 34.7595 217 36.0335V38.9665C217 39.348 217.066 39.6805 217.196 39.9605C217.497 40.6255 218.141 41 219.033 41H221.967C223.241 41 224 40.2405 224 38.9665V38.165V36.0335C224 34.7595 223.241 34 221.967 34ZM223.43 37.675C223.157 37.4405 222.715 37.4405 222.442 37.675L220.987 38.9245C220.714 39.159 220.272 39.159 219.999 38.9245L219.88 38.8265C219.632 38.6095 219.237 38.5885 218.957 38.7775L217.647 39.656C217.57 39.46 217.525 39.2325 217.525 38.9665V36.0335C217.525 35.0465 218.046 34.525 219.033 34.525H221.967C222.954 34.525 223.475 35.0465 223.475 36.0335V37.7135L223.43 37.675Z"
			fill="#CAD2DF" />
		<rect x="228.246" y="31.9127" width="10.9474" height="10.9474" rx="1.68421" fill="white" />
		<path
			d="M230.203 39.9535L230.196 39.9605C230.102 39.754 230.042 39.5195 230.018 39.2605C230.042 39.516 230.109 39.747 230.203 39.9535Z"
			fill="#CAD2DF" />
		<path
			d="M232.45 36.933C232.91 36.933 233.283 36.56 233.283 36.1C233.283 35.6399 232.91 35.267 232.45 35.267C231.99 35.267 231.617 35.6399 231.617 36.1C231.617 36.56 231.99 36.933 232.45 36.933Z"
			fill="#CAD2DF" />
		<path
			d="M234.967 34H232.033C230.759 34 230 34.7595 230 36.0335V38.9665C230 39.348 230.066 39.6805 230.196 39.9605C230.497 40.6255 231.141 41 232.033 41H234.967C236.241 41 237 40.2405 237 38.9665V38.165V36.0335C237 34.7595 236.241 34 234.967 34ZM236.43 37.675C236.157 37.4405 235.715 37.4405 235.442 37.675L233.987 38.9245C233.714 39.159 233.272 39.159 232.999 38.9245L232.88 38.8265C232.632 38.6095 232.237 38.5885 231.957 38.7775L230.647 39.656C230.57 39.46 230.525 39.2325 230.525 38.9665V36.0335C230.525 35.0465 231.046 34.525 232.033 34.525H234.967C235.954 34.525 236.475 35.0465 236.475 36.0335V37.7135L236.43 37.675Z"
			fill="#CAD2DF" />
		<path
			d="M196.75 82.9715L186.604 64.3703L194.62 51.0113L211.665 82.9715H196.75ZM179.705 59.5341L192.489 82.9715H166.921L179.705 59.5341ZM174.378 55.2727C171.436 55.2727 169.052 52.8878 169.052 49.946C169.052 47.0041 171.436 44.6193 174.378 44.6193C177.32 44.6193 179.705 47.0041 179.705 49.946C179.705 52.8878 177.32 55.2727 174.378 55.2727Z"
			fill="#CAD2DF" />
		<g filter="url(#filter0_b_3015_2393)">
			<rect x="133.818" y="79" width="106.818" height="35.2273" rx="2.27273" fill="white" />
			<rect width="101" height="18" transform="translate(138.364 83.5454)" fill="white" />
			<rect x="138.364" y="83.5454" width="74" height="4" rx="2" fill="#EAEEF6" />
			<rect x="138.364" y="91.5454" width="95" height="3" rx="1.5" fill="#EAEEF6" />
			<rect x="138.364" y="98.5454" width="84" height="3" rx="1.5" fill="#EAEEF6" />
		</g>
		<rect y="25.4442" width="120.455" height="95" rx="2.27273" fill="#EAEEF6" />
		<path
			d="M68.7504 90.8022L58.6044 72.2009L66.6198 58.842L83.6652 90.8022H68.7504ZM51.705 67.3647L64.4891 90.8022H38.9209L51.705 67.3647ZM46.3783 63.1033C43.4364 63.1033 41.0516 60.7185 41.0516 57.7766C41.0516 54.8348 43.4364 52.4499 46.3783 52.4499C49.3201 52.4499 51.705 54.8348 51.705 57.7766C51.705 60.7185 49.3201 63.1033 46.3783 63.1033Z"
			fill="#CAD2DF" />
		<rect y="127.262" width="120.455" height="95" rx="2.27273" fill="#EAEEF6" />
		<path
			d="M68.7504 192.62L58.6044 174.019L66.6198 160.66L83.6652 192.62H68.7504ZM51.705 169.183L64.4891 192.62H38.9209L51.705 169.183ZM46.3783 164.922C43.4364 164.922 41.0516 162.537 41.0516 159.595C41.0516 156.653 43.4364 154.268 46.3783 154.268C49.3201 154.268 51.705 156.653 51.705 159.595C51.705 162.537 49.3201 164.922 46.3783 164.922Z"
			fill="#CAD2DF" />
		<rect x="254.546" y="25.4442" width="115" height="95" rx="2.27273" fill="#EAEEF6" />
		<path
			d="M322.841 92.9509L312.695 74.3497L320.711 60.9907L337.756 92.9509H322.841ZM305.796 69.5134L318.58 92.9509H293.012L305.796 69.5134ZM300.469 65.2521C297.527 65.2521 295.142 62.8672 295.142 59.9254C295.142 56.9835 297.527 54.5987 300.469 54.5987C303.411 54.5987 305.796 56.9835 305.796 59.9254C305.796 62.8672 303.411 65.2521 300.469 65.2521Z"
			fill="#CAD2DF" />
		<rect x="254.546" y="127.262" width="115" height="95" rx="2.27273" fill="#EAEEF6" />
		<path
			d="M322.841 194.587L312.695 175.986L320.711 162.627L337.756 194.587H322.841ZM305.796 171.15L318.58 194.587H293.012L305.796 171.15ZM300.469 166.889C297.527 166.889 295.142 164.504 295.142 161.562C295.142 158.62 297.527 156.235 300.469 156.235C303.411 156.235 305.796 158.62 305.796 161.562C305.796 164.504 303.411 166.889 300.469 166.889Z"
			fill="#CAD2DF" />
		<rect x="127" y="129" width="121" height="93" rx="2.27273" fill="#EAEEF6" />
		<path
			d="M196.75 196.062L186.604 177.461L194.62 164.102L211.665 196.062H196.75ZM179.705 172.625L192.489 196.062H166.921L179.705 172.625ZM174.378 168.364C171.436 168.364 169.052 165.979 169.052 163.037C169.052 160.095 171.436 157.71 174.378 157.71C177.32 157.71 179.705 160.095 179.705 163.037C179.705 165.979 177.32 168.364 174.378 168.364Z"
			fill="#CAD2DF" />
	</g>
	<defs>
		<filter id="filter0_b_3015_2393" x="131.546" y="76.7273" width="111.364" height="39.7727"
			filterUnits="userSpaceOnUse" color-interpolation-filters="sRGB">
			<feFlood flood-opacity="0" result="BackgroundImageFix" />
			<feGaussianBlur in="BackgroundImageFix" stdDeviation="1.13636" />
			<feComposite in2="SourceAlpha" operator="in" result="effect1_backgroundBlur_3015_2393" />
			<feBlend mode="normal" in="SourceGraphic" in2="effect1_backgroundBlur_3015_2393"
				result="shape" />
		</filter>
		<clipPath id="clip0_3015_2393">
			<rect width="370" height="222" fill="white" />
		</clipPath>
	</defs>
</svg>
