<svg width="370" height="222" viewBox="0 0 370 222" fill="none" xmlns="http://www.w3.org/2000/svg">
	<g clip-path="url(#clip0_3212_175)">
		<rect width="370" height="222" fill="white" />
		<rect y="0.865479" width="86.5323" height="57.6882" rx="1.98925" fill="#EAEEF6" />
		<path
			d="M49 43.5L41.8572 30.4047L47.5 21L59.5 43.5H49ZM37 27L46 43.5H28L37 27ZM33.25 24C31.1789 24 29.5 22.3211 29.5 20.25C29.5 18.1789 31.1789 16.5 33.25 16.5C35.3211 16.5 37 18.1789 37 20.25C37 22.3211 35.3211 24 33.25 24Z"
			fill="#CAD2DF" />
		<rect x="94.4893" y="66.5106" width="86.5323" height="57.6882" rx="1.98925" fill="#EAEEF6" />
		<path
			d="M144 108.5L136.857 95.4047L142.5 86L154.5 108.5H144ZM132 92L141 108.5H123L132 92ZM128.25 89C126.179 89 124.5 87.3211 124.5 85.25C124.5 83.1789 126.179 81.5 128.25 81.5C130.321 81.5 132 83.1789 132 85.25C132 87.3211 130.321 89 128.25 89Z"
			fill="#CAD2DF" />
		<rect x="283.468" y="132.156" width="86.5323" height="57.6882" rx="1.98925" fill="#EAEEF6" />
		<path
			d="M333 174.5L325.857 161.405L331.5 152L343.5 174.5H333ZM321 158L330 174.5H312L321 158ZM317.25 155C315.179 155 313.5 153.321 313.5 151.25C313.5 149.179 315.179 147.5 317.25 147.5C319.321 147.5 321 149.179 321 151.25C321 153.321 319.321 155 317.25 155Z"
			fill="#CAD2DF" />
		<rect x="188.979" y="0.865479" width="86.5323" height="57.6882" rx="1.98925" fill="#EAEEF6" />
		<path
			d="M238 43.5L230.857 30.4047L236.5 21L248.5 43.5H238ZM226 27L235 43.5H217L226 27ZM222.25 24C220.179 24 218.5 22.3211 218.5 20.25C218.5 18.1789 220.179 16.5 222.25 16.5C224.321 16.5 226 18.1789 226 20.25C226 22.3211 224.321 24 222.25 24Z"
			fill="#CAD2DF" />
		<rect y="66.5106" width="86.5323" height="57.6882" rx="1.98925" fill="#EAEEF6" />
		<path
			d="M49 108.5L41.8572 95.4047L47.5 86L59.5 108.5H49ZM37 92L46 108.5H28L37 92ZM33.25 89C31.1789 89 29.5 87.3211 29.5 85.25C29.5 83.1789 31.1789 81.5 33.25 81.5C35.3211 81.5 37 83.1789 37 85.25C37 87.3211 35.3211 89 33.25 89Z"
			fill="#CAD2DF" />
		<rect x="188.979" y="66.5106" width="86.5323" height="57.6882" rx="1.98925" fill="#EAEEF6" />
		<path
			d="M238 108.5L230.857 95.4047L236.5 86L248.5 108.5H238ZM226 92L235 108.5H217L226 92ZM222.25 89C220.179 89 218.5 87.3211 218.5 85.25C218.5 83.1789 220.179 81.5 222.25 81.5C224.321 81.5 226 83.1789 226 85.25C226 87.3211 224.321 89 222.25 89Z"
			fill="#CAD2DF" />
		<rect x="188.979" y="197.801" width="86.5323" height="57.6882" rx="1.98925" fill="#EAEEF6" />
		<path
			d="M238 240.5L230.857 227.405L236.5 218L248.5 240.5H238ZM226 224L235 240.5H217L226 224ZM222.25 221C220.179 221 218.5 219.321 218.5 217.25C218.5 215.179 220.179 213.5 222.25 213.5C224.321 213.5 226 215.179 226 217.25C226 219.321 224.321 221 222.25 221Z"
			fill="#CAD2DF" />
		<rect x="94.4893" y="132.156" width="86.5323" height="57.6882" rx="1.98925" fill="#EAEEF6" />
		<path
			d="M144 174.5L136.857 161.405L142.5 152L154.5 174.5H144ZM132 158L141 174.5H123L132 158ZM128.25 155C126.179 155 124.5 153.321 124.5 151.25C124.5 149.179 126.179 147.5 128.25 147.5C130.321 147.5 132 149.179 132 151.25C132 153.321 130.321 155 128.25 155Z"
			fill="#CAD2DF" />
		<rect x="283.468" y="66.5106" width="86.5323" height="57.6882" rx="1.98925" fill="#EAEEF6" />
		<path
			d="M333 108.5L325.857 95.4047L331.5 86L343.5 108.5H333ZM321 92L330 108.5H312L321 92ZM317.25 89C315.179 89 313.5 87.3211 313.5 85.25C313.5 83.1789 315.179 81.5 317.25 81.5C319.321 81.5 321 83.1789 321 85.25C321 87.3211 319.321 89 317.25 89Z"
			fill="#CAD2DF" />
		<g clip-path="url(#clip1_3212_175)">
			<rect y="197.801" width="86.5323" height="57.6882" rx="1.98925" fill="#606977" />
			<rect x="-0.49707" y="197.304" width="105.679" height="61.1694" rx="1.98925"
				fill="#EAEEF6" />
			<path
				d="M49 241.5L41.8572 228.405L47.5 219L59.5 241.5H49ZM37 225L46 241.5H28L37 225ZM33.25 222C31.1789 222 29.5 220.321 29.5 218.25C29.5 216.179 31.1789 214.5 33.25 214.5C35.3211 214.5 37 216.179 37 218.25C37 220.321 35.3211 222 33.25 222Z"
				fill="#CAD2DF" />
		</g>
	</g>
	<defs>
		<clipPath id="clip0_3212_175">
			<rect width="370" height="222" fill="white" />
		</clipPath>
		<clipPath id="clip1_3212_175">
			<rect y="197.801" width="86.5323" height="57.6882" rx="1.98925" fill="white" />
		</clipPath>
	</defs>
</svg>
