<svg width="110" height="24" viewBox="0 0 110 24" fill="none" xmlns="http://www.w3.org/2000/svg">
<path d="M0 13.7186L5.89751 17.1184L5.91242 17.1259L11.8397 13.7037L5.92733 10.2964L5.89751 10.3113L0 13.7186Z" fill="#A8BC17"/>
<path d="M5.89746 17.1333V23.9776L5.92728 24L11.8621 20.5704V13.7185L11.8397 13.7036L5.91237 17.1258L5.89746 17.1333Z" fill="#175FFF"/>
<path d="M6.31494 16.7607V16.7757L6.32985 16.7682L6.31494 16.7607Z" fill="white"/>
<path d="M6.31494 16.7607V16.7757L6.32985 16.7682L6.31494 16.7607Z" fill="black"/>
<path d="M5.92041 3.42219L11.8179 6.82947L11.8328 6.83693L17.7601 3.41474L11.8477 0L11.8179 0.0149115L5.92041 3.42219Z" fill="#A8BC17"/>
<path d="M11.8174 6.84469V13.6891L11.8472 13.704L17.782 10.2744V3.42995L17.7596 3.41504L11.8323 6.83723L11.8174 6.84469Z" fill="#175FFF"/>
<path d="M12.2422 6.46387V6.47878L12.2496 6.47132L12.2422 6.46387Z" fill="white"/>
<path d="M12.2422 6.46387V6.47878L12.2496 6.47132L12.2422 6.46387Z" fill="black"/>
<path d="M14.3667 15.1357V21.9801L14.3965 21.995L20.3313 18.5654V11.7135L20.3089 11.7061L14.3816 15.1282L14.3667 15.1357Z" fill="#175FFF"/>
<path d="M18.7061 16.6714V16.6863L18.721 16.6788L18.7061 16.6714Z" fill="white"/>
<path d="M18.7061 16.6714V16.6863L18.721 16.6788L18.7061 16.6714Z" fill="black"/>
<path d="M105.741 16.1349C105.011 16.1349 104.361 16.0099 103.791 15.7599C103.221 15.5099 102.771 15.1699 102.441 14.7399C102.111 14.2999 101.926 13.8099 101.886 13.2699H104.421C104.451 13.5599 104.586 13.7949 104.826 13.9749C105.066 14.1549 105.361 14.2449 105.711 14.2449C106.031 14.2449 106.276 14.1849 106.446 14.0649C106.626 13.9349 106.716 13.7699 106.716 13.5699C106.716 13.3299 106.591 13.1549 106.341 13.0449C106.091 12.9249 105.686 12.7949 105.126 12.6549C104.526 12.5149 104.026 12.3699 103.626 12.2199C103.226 12.0599 102.881 11.8149 102.591 11.4849C102.301 11.1449 102.156 10.6899 102.156 10.1199C102.156 9.6399 102.286 9.2049 102.546 8.8149C102.816 8.4149 103.206 8.0999 103.716 7.8699C104.236 7.6399 104.851 7.5249 105.561 7.5249C106.611 7.5249 107.436 7.7849 108.036 8.3049C108.646 8.8249 108.996 9.5149 109.086 10.3749H106.716C106.676 10.0849 106.546 9.8549 106.326 9.6849C106.116 9.5149 105.836 9.4299 105.486 9.4299C105.186 9.4299 104.956 9.4899 104.796 9.6099C104.636 9.7199 104.556 9.8749 104.556 10.0749C104.556 10.3149 104.681 10.4949 104.931 10.6149C105.191 10.7349 105.591 10.8549 106.131 10.9749C106.751 11.1349 107.256 11.2949 107.646 11.4549C108.036 11.6049 108.376 11.8549 108.666 12.2049C108.966 12.5449 109.121 13.0049 109.131 13.5849C109.131 14.0749 108.991 14.5149 108.711 14.9049C108.441 15.2849 108.046 15.5849 107.526 15.8049C107.016 16.0249 106.421 16.1349 105.741 16.1349Z" fill="white"/>
<path d="M97.377 16.1349C96.647 16.1349 95.997 16.0099 95.427 15.7599C94.857 15.5099 94.407 15.1699 94.077 14.7399C93.747 14.2999 93.562 13.8099 93.522 13.2699H96.057C96.087 13.5599 96.222 13.7949 96.462 13.9749C96.702 14.1549 96.997 14.2449 97.347 14.2449C97.667 14.2449 97.912 14.1849 98.082 14.0649C98.262 13.9349 98.352 13.7699 98.352 13.5699C98.352 13.3299 98.227 13.1549 97.977 13.0449C97.727 12.9249 97.322 12.7949 96.762 12.6549C96.162 12.5149 95.662 12.3699 95.262 12.2199C94.862 12.0599 94.517 11.8149 94.227 11.4849C93.937 11.1449 93.792 10.6899 93.792 10.1199C93.792 9.6399 93.922 9.2049 94.182 8.8149C94.452 8.4149 94.842 8.0999 95.352 7.8699C95.872 7.6399 96.487 7.5249 97.197 7.5249C98.247 7.5249 99.072 7.7849 99.672 8.3049C100.282 8.8249 100.632 9.5149 100.722 10.3749H98.352C98.312 10.0849 98.182 9.8549 97.962 9.6849C97.752 9.5149 97.472 9.4299 97.122 9.4299C96.822 9.4299 96.592 9.4899 96.432 9.6099C96.272 9.7199 96.192 9.8749 96.192 10.0749C96.192 10.3149 96.317 10.4949 96.567 10.6149C96.827 10.7349 97.227 10.8549 97.767 10.9749C98.387 11.1349 98.892 11.2949 99.282 11.4549C99.672 11.6049 100.012 11.8549 100.302 12.2049C100.602 12.5449 100.757 13.0049 100.767 13.5849C100.767 14.0749 100.627 14.5149 100.347 14.9049C100.077 15.2849 99.682 15.5849 99.162 15.8049C98.652 16.0249 98.057 16.1349 97.377 16.1349Z" fill="white"/>
<path d="M92.6189 11.6949C92.6189 11.9349 92.6038 12.1849 92.5738 12.4449H86.7687C86.8087 12.9649 86.9737 13.3649 87.2637 13.6449C87.5637 13.9149 87.9287 14.0499 88.3587 14.0499C88.9987 14.0499 89.4437 13.7799 89.6937 13.2399H92.4239C92.2839 13.7899 92.0288 14.2849 91.6588 14.7249C91.2988 15.1649 90.8437 15.5099 90.2937 15.7599C89.7437 16.0099 89.1287 16.1349 88.4487 16.1349C87.6287 16.1349 86.8988 15.9599 86.2588 15.6099C85.6188 15.2599 85.1188 14.7599 84.7588 14.1099C84.3988 13.4599 84.2188 12.6999 84.2188 11.8299C84.2188 10.9599 84.3937 10.1999 84.7437 9.5499C85.1037 8.8999 85.6037 8.3999 86.2437 8.0499C86.8837 7.6999 87.6187 7.5249 88.4487 7.5249C89.2587 7.5249 89.9787 7.6949 90.6087 8.0349C91.2388 8.3749 91.7288 8.8599 92.0788 9.4899C92.4388 10.1199 92.6189 10.8549 92.6189 11.6949ZM89.9937 11.0199C89.9937 10.5799 89.8437 10.2299 89.5437 9.9699C89.2437 9.7099 88.8687 9.5799 88.4187 9.5799C87.9887 9.5799 87.6237 9.7049 87.3237 9.9549C87.0337 10.2049 86.8537 10.5599 86.7837 11.0199H89.9937Z" fill="white"/>
<path d="M80.878 9.04018C81.178 8.58018 81.553 8.22018 82.003 7.96018C82.453 7.69018 82.953 7.55518 83.503 7.55518V10.2702H82.798C82.158 10.2702 81.678 10.4102 81.358 10.6902C81.038 10.9602 80.878 11.4402 80.878 12.1302V16.0152H78.313V7.64518H80.878V9.04018Z" fill="white"/>
<path d="M70.6973 8.8299C70.9473 8.4399 71.2923 8.1249 71.7323 7.8849C72.1723 7.6449 72.6873 7.5249 73.2773 7.5249C73.9673 7.5249 74.5923 7.6999 75.1523 8.0499C75.7123 8.3999 76.1523 8.8999 76.4723 9.5499C76.8023 10.1999 76.9673 10.9549 76.9673 11.8149C76.9673 12.6749 76.8023 13.4349 76.4723 14.0949C76.1523 14.7449 75.7123 15.2499 75.1523 15.6099C74.5923 15.9599 73.9673 16.1349 73.2773 16.1349C72.6973 16.1349 72.1823 16.0149 71.7323 15.7749C71.2923 15.5349 70.9473 15.2249 70.6973 14.8449V20.0049H68.1323V7.6449H70.6973V8.8299ZM74.3573 11.8149C74.3573 11.1749 74.1773 10.6749 73.8173 10.3149C73.4673 9.9449 73.0323 9.7599 72.5123 9.7599C72.0023 9.7599 71.5673 9.9449 71.2073 10.3149C70.8573 10.6849 70.6823 11.1899 70.6823 11.8299C70.6823 12.4699 70.8573 12.9749 71.2073 13.3449C71.5673 13.7149 72.0023 13.8999 72.5123 13.8999C73.0223 13.8999 73.4573 13.7149 73.8173 13.3449C74.1773 12.9649 74.3573 12.4549 74.3573 11.8149Z" fill="white"/>
<path d="M64.9983 6.77504C64.5483 6.77504 64.1783 6.64504 63.8883 6.38504C63.6083 6.11504 63.4683 5.78504 63.4683 5.39504C63.4683 4.99504 63.6083 4.66504 63.8883 4.40504C64.1783 4.13504 64.5483 4 64.9983 4C65.4383 4 65.7983 4.13504 66.0783 4.40504C66.3683 4.66504 66.5133 4.99504 66.5133 5.39504C66.5133 5.78504 66.3683 6.11504 66.0783 6.38504C65.7983 6.64504 65.4383 6.77504 64.9983 6.77504ZM66.2733 7.64504V16.015H63.7083V7.64504H66.2733Z" fill="white"/>
<path d="M58.7011 7.55518C59.6811 7.55518 60.4611 7.87518 61.0411 8.51518C61.6311 9.14518 61.9261 10.0152 61.9261 11.1252V16.0152H59.3761V11.4702C59.3761 10.9102 59.2311 10.4752 58.9411 10.1652C58.6511 9.85518 58.2611 9.70018 57.7711 9.70018C57.2811 9.70018 56.8911 9.85518 56.6011 10.1652C56.3111 10.4752 56.1661 10.9102 56.1661 11.4702V16.0152H53.6011V7.64518H56.1661V8.75518C56.4261 8.38518 56.7761 8.09518 57.2161 7.88518C57.6561 7.66518 58.1511 7.55518 58.7011 7.55518Z" fill="white"/>
<path d="M48.4022 7.55518C49.4422 7.55518 50.2672 7.87018 50.8772 8.50018C51.4972 9.13018 51.8072 10.0052 51.8072 11.1252V16.0152H49.2572V11.4702C49.2572 10.9302 49.1122 10.5152 48.8222 10.2252C48.5422 9.92518 48.1522 9.77518 47.6522 9.77518C47.1522 9.77518 46.7572 9.92518 46.4672 10.2252C46.1872 10.5152 46.0472 10.9302 46.0472 11.4702V16.0152H43.4972V11.4702C43.4972 10.9302 43.3522 10.5152 43.0622 10.2252C42.7822 9.92518 42.3922 9.77518 41.8922 9.77518C41.3922 9.77518 40.9972 9.92518 40.7072 10.2252C40.4272 10.5152 40.2872 10.9302 40.2872 11.4702V16.0152H37.7222V7.64518H40.2872V8.69518C40.5472 8.34518 40.8872 8.07018 41.3072 7.87018C41.7272 7.66018 42.2022 7.55518 42.7322 7.55518C43.3622 7.55518 43.9222 7.69018 44.4122 7.96018C44.9122 8.23018 45.3022 8.61518 45.5822 9.11518C45.8722 8.65518 46.2672 8.28018 46.7672 7.99018C47.2672 7.70018 47.8122 7.55518 48.4022 7.55518Z" fill="white"/>
<path d="M30.9101 16.12C29.9201 16.12 29.0101 15.89 28.1801 15.43C27.3601 14.97 26.7051 14.33 26.2151 13.51C25.7351 12.68 25.4951 11.75 25.4951 10.72C25.4951 9.68996 25.7351 8.76496 26.2151 7.94496C26.7051 7.12496 27.3601 6.48496 28.1801 6.02496C29.0101 5.56496 29.9201 5.33496 30.9101 5.33496C31.9001 5.33496 32.8051 5.56496 33.6251 6.02496C34.4551 6.48496 35.1051 7.12496 35.5751 7.94496C36.0551 8.76496 36.2951 9.68996 36.2951 10.72C36.2951 11.75 36.0551 12.68 35.5751 13.51C35.0951 14.33 34.4451 14.97 33.6251 15.43C32.8051 15.89 31.9001 16.12 30.9101 16.12ZM30.9101 13.78C31.7501 13.78 32.4201 13.5 32.9201 12.94C33.4301 12.38 33.6851 11.64 33.6851 10.72C33.6851 9.78996 33.4301 9.04996 32.9201 8.49996C32.4201 7.93996 31.7501 7.65996 30.9101 7.65996C30.0601 7.65996 29.3801 7.93496 28.8701 8.48496C28.3701 9.03496 28.1201 9.77996 28.1201 10.72C28.1201 11.65 28.3701 12.395 28.8701 12.955C29.3801 13.505 30.0601 13.78 30.9101 13.78Z" fill="white"/>
</svg>
