<svg width="28" height="33" viewBox="0 0 28 33" fill="none" xmlns="http://www.w3.org/2000/svg">
<path d="M0 18.4001L7.91 22.9601L7.93 22.9701L15.88 18.3801L7.95 13.8101L7.91 13.8301L0 18.4001Z" fill="#A8BC17"/>
<path d="M7.91016 22.9799V32.1599L7.95016 32.1899L15.9102 27.5899V18.3999L15.8802 18.3799L7.93016 22.9699L7.91016 22.9799Z" fill="#175FFF"/>
<path d="M8.46973 22.48V22.5L8.48973 22.49L8.46973 22.48Z" fill="white"/>
<path d="M8.46973 22.48V22.5L8.48973 22.49L8.46973 22.48Z" fill="black"/>
<path d="M7.94043 4.59L15.8504 9.16L15.8704 9.17L23.8204 4.58L15.8904 0L15.8504 0.02L7.94043 4.59Z" fill="#A8BC17"/>
<path d="M15.8496 9.18008V18.3601L15.8896 18.3801L23.8496 13.7801V4.60008L23.8196 4.58008L15.8696 9.17008L15.8496 9.18008Z" fill="#175FFF"/>
<path d="M16.4199 8.66992V8.68992L16.4299 8.67992L16.4199 8.66992Z" fill="white"/>
<path d="M16.4199 8.66992V8.68992L16.4299 8.67992L16.4199 8.66992Z" fill="black"/>
<path d="M19.2695 20.3002V29.4802L19.3095 29.5002L27.2695 24.9002V15.7102L27.2395 15.7002L19.2895 20.2902L19.2695 20.3002Z" fill="#175FFF"/>
<path d="M25.0898 22.3604V22.3804L25.1098 22.3704L25.0898 22.3604Z" fill="white"/>
<path d="M25.0898 22.3604V22.3804L25.1098 22.3704L25.0898 22.3604Z" fill="black"/>
</svg>
