<svg width="32" height="32" viewBox="0 0 32 32" fill="none" xmlns="http://www.w3.org/2000/svg">
	<path d="M1.06665 27.0451C1.06665 28.3369 2.07591 29.3333 3.38421 29.3333H28.6158C29.9241 29.3333 30.9333 28.3369 30.9333 27.0451V4.42153C30.9333 3.1298 29.9241 2.13333 28.6158 2.13333H3.38421C2.07591 2.13333 1.06665 3.1298 1.06665 4.42153V27.0451ZM2.30019 4.42153C2.30019 3.83102 2.82351 3.20362 3.53373 3.20362H28.7279C29.326 3.20362 29.9614 3.72031 29.9614 4.42153V27.0451C29.9614 27.6356 29.4381 28.263 28.7279 28.263H3.38421C2.78613 28.263 2.15067 27.7464 2.15067 27.0451L2.30019 4.42153Z" fill="#6C3BFF"/>
	<path fill-rule="evenodd" clip-rule="evenodd" d="M8.81399 5.47727C8.93916 5.56748 9.01333 5.71237 9.01333 5.86666C9.01333 6.1637 9.13133 6.44858 9.34137 6.65862C9.55141 6.86866 9.83629 6.98666 10.1333 6.98666C10.4304 6.98666 10.7153 6.86866 10.9253 6.65862C11.1353 6.44858 11.2533 6.1637 11.2533 5.86666C11.2533 5.71237 11.3275 5.56748 11.4527 5.47727C11.5778 5.38705 11.7387 5.3625 11.8851 5.41129L15.0851 6.47796C15.2811 6.54329 15.4133 6.72672 15.4133 6.93333V9.59999C15.4133 9.86509 15.1984 10.08 14.9333 10.08H13.8133V14.4C13.8133 14.6687 13.7066 14.9265 13.5165 15.1165C13.3265 15.3066 13.0688 15.4133 12.8 15.4133H7.46667C7.19791 15.4133 6.94017 15.3066 6.75013 15.1165C6.56009 14.9265 6.45333 14.6687 6.45333 14.4V10.08H5.33333C5.06824 10.08 4.85333 9.86509 4.85333 9.59999V6.93333C4.85333 6.72672 4.98554 6.54329 5.18154 6.47796L8.38154 5.41129C8.52792 5.3625 8.68882 5.38705 8.81399 5.47727ZM5.81333 7.27929V9.11999H6.93333C7.19843 9.11999 7.41333 9.3349 7.41333 9.59999V14.4C7.41333 14.4141 7.41895 14.4277 7.42895 14.4377C7.43896 14.4477 7.45252 14.4533 7.46667 14.4533H12.8C12.8141 14.4533 12.8277 14.4477 12.8377 14.4377C12.8477 14.4277 12.8533 14.4141 12.8533 14.4V9.59999C12.8533 9.3349 13.0682 9.11999 13.3333 9.11999H14.4533V7.27929L12.1147 6.49973C12.0146 6.81281 11.8408 7.10072 11.6041 7.33744C11.214 7.72752 10.685 7.94666 10.1333 7.94666C9.58168 7.94666 9.05263 7.72752 8.66255 7.33744C8.42583 7.10072 8.25206 6.81281 8.15201 6.49973L5.81333 7.27929Z" fill="#6C3BFF"/>
	<path fill-rule="evenodd" clip-rule="evenodd" d="M1.65332 17.8667C1.65332 17.6016 1.86822 17.3867 2.13332 17.3867H30.1333C30.3984 17.3867 30.6133 17.6016 30.6133 17.8667C30.6133 18.1318 30.3984 18.3467 30.1333 18.3467H2.13332C1.86822 18.3467 1.65332 18.1318 1.65332 17.8667Z" fill="#6C3BFF"/>
	<path d="M27.4612 21.3333H5.36831C5.05438 21.3333 4.79999 21.5721 4.79999 21.8667C4.79999 22.1613 5.05438 22.4 5.36831 22.4H27.4667C27.7806 22.4 28.035 22.1613 28.035 21.8667C28.035 21.5721 27.7806 21.3333 27.4667 21.3333H27.4612Z" fill="#6C3BFF"/>
	<path d="M20.5279 24.5333H5.36831C5.05438 24.5333 4.79999 24.7721 4.79999 25.0667C4.79999 25.3613 5.05438 25.6 5.36831 25.6H20.5333C20.8473 25.6 21.1016 25.3613 21.1016 25.0667C21.1016 24.7721 20.8473 24.5333 20.5333 24.5333H20.5279Z" fill="#6C3BFF"/>
	<path d="M25.5487 7.46666H18.718C18.3979 7.46666 18.1334 7.22539 18.1334 6.93333C18.1334 6.64126 18.3979 6.39999 18.718 6.39999H25.5487C25.8689 6.39999 26.1334 6.64126 26.1334 6.93333C26.1334 7.22539 25.8689 7.46666 25.5487 7.46666Z" fill="#6C3BFF"/>
	<path d="M25.5495 10.6667H18.7172C18.3975 10.6667 18.1334 10.4254 18.1334 10.1333C18.1334 9.84128 18.3975 9.60001 18.7172 9.60001H25.5495C25.8692 9.60001 26.1334 9.84128 26.1334 10.1333C26.1334 10.4254 25.8692 10.6667 25.5495 10.6667Z" fill="#6C3BFF"/>
	<path d="M23.4232 13.8667H18.7102C18.3943 13.8667 18.1334 13.6254 18.1334 13.3333C18.1334 13.0413 18.3943 12.8 18.7102 12.8H23.4232C23.7391 12.8 24 13.0413 24 13.3333C24 13.6254 23.7391 13.8667 23.4232 13.8667Z" fill="#6C3BFF"/>
	</svg>
