<svg width="370" height="222" viewBox="0 0 370 222" fill="none" xmlns="http://www.w3.org/2000/svg">
	<g clip-path="url(#clip0_3015_2166)">
		<rect width="370" height="222" fill="white" />
		<rect x="-0.5" y="42" width="120.455" height="88.6364" rx="2.27273" fill="#EAEEF6" />
		<path
			d="M68.2504 105.494L58.1044 86.8931L66.1198 73.5341L83.1652 105.494H68.2504ZM51.205 82.0568L63.9891 105.494H38.4209L51.205 82.0568ZM45.8783 77.7955C42.9364 77.7955 40.5516 75.4106 40.5516 72.4688C40.5516 69.5269 42.9364 67.1421 45.8783 67.1421C48.8201 67.1421 51.205 69.5269 51.205 72.4688C51.205 75.4106 48.8201 77.7955 45.8783 77.7955Z"
			fill="#CAD2DF" />
		<rect x="-0.5" y="137.455" width="120.455" height="88.6364" rx="2.27273" fill="#EAEEF6" />
		<path
			d="M68.2504 200.949L58.1044 182.348L66.1198 168.989L83.1652 200.949H68.2504ZM51.205 177.511L63.9891 200.949H38.4209L51.205 177.511ZM45.8783 173.25C42.9364 173.25 40.5516 170.865 40.5516 167.923C40.5516 164.981 42.9364 162.597 45.8783 162.597C48.8201 162.597 51.205 164.981 51.205 167.923C51.205 170.865 48.8201 173.25 45.8783 173.25Z"
			fill="#CAD2DF" />
		<g opacity="0.5">
			<rect x="-0.5" y="42" width="120.455" height="88.6364" rx="2.27273"
				fill="url(#paint0_linear_3015_2166)" />
			<rect x="90.1934" y="46.9581" width="10.9474" height="10.9474" rx="1.68421" fill="white" />
			<path
				d="M92.2031 54.9989L92.1961 55.0059C92.1016 54.7994 92.0421 54.5649 92.0176 54.3059C92.0421 54.5614 92.1086 54.7924 92.2031 54.9989Z"
				fill="#CAD2DF" />
			<path
				d="M94.4502 51.9784C94.9103 51.9784 95.2832 51.6055 95.2832 51.1454C95.2832 50.6854 94.9103 50.3124 94.4502 50.3124C93.9901 50.3124 93.6172 50.6854 93.6172 51.1454C93.6172 51.6055 93.9901 51.9784 94.4502 51.9784Z"
				fill="#CAD2DF" />
			<path
				d="M96.9665 49.0454H94.0335C92.7595 49.0454 92 49.8049 92 51.0789V54.0119C92 54.3934 92.0665 54.7259 92.196 55.0059C92.497 55.6709 93.141 56.0454 94.0335 56.0454H96.9665C98.2405 56.0454 99 55.2859 99 54.0119V53.2104V51.0789C99 49.8049 98.2405 49.0454 96.9665 49.0454ZM98.4295 52.7204C98.1565 52.4859 97.7155 52.4859 97.4425 52.7204L95.9865 53.9699C95.7135 54.2044 95.2725 54.2044 94.9995 53.9699L94.8805 53.8719C94.632 53.6549 94.2365 53.6339 93.9565 53.8229L92.6475 54.7014C92.5705 54.5054 92.525 54.2779 92.525 54.0119V51.0789C92.525 50.0919 93.0465 49.5704 94.0335 49.5704H96.9665C97.9535 49.5704 98.475 50.0919 98.475 51.0789V52.7589L98.4295 52.7204Z"
				fill="#CAD2DF" />
			<rect x="103.246" y="46.9581" width="10.9474" height="10.9474" rx="1.68421" fill="white" />
			<path
				d="M105.203 54.9989L105.196 55.0059C105.102 54.7994 105.042 54.5649 105.018 54.3059C105.042 54.5614 105.109 54.7924 105.203 54.9989Z"
				fill="#CAD2DF" />
			<path
				d="M107.45 51.9784C107.91 51.9784 108.283 51.6055 108.283 51.1454C108.283 50.6854 107.91 50.3124 107.45 50.3124C106.99 50.3124 106.617 50.6854 106.617 51.1454C106.617 51.6055 106.99 51.9784 107.45 51.9784Z"
				fill="#CAD2DF" />
			<path
				d="M109.967 49.0454H107.033C105.759 49.0454 105 49.8049 105 51.0789V54.0119C105 54.3934 105.066 54.7259 105.196 55.0059C105.497 55.6709 106.141 56.0454 107.033 56.0454H109.967C111.241 56.0454 112 55.2859 112 54.0119V53.2104V51.0789C112 49.8049 111.241 49.0454 109.967 49.0454ZM111.43 52.7204C111.157 52.4859 110.715 52.4859 110.442 52.7204L108.987 53.9699C108.714 54.2044 108.272 54.2044 107.999 53.9699L107.88 53.8719C107.632 53.6549 107.237 53.6339 106.957 53.8229L105.647 54.7014C105.57 54.5054 105.525 54.2779 105.525 54.0119V51.0789C105.525 50.0919 106.046 49.5704 107.033 49.5704H109.967C110.954 49.5704 111.475 50.0919 111.475 51.0789V52.7589L111.43 52.7204Z"
				fill="#CAD2DF" />
			<rect x="8" y="104.045" width="85" height="4" rx="2" fill="white" />
			<rect x="8" y="112.045" width="101" height="3" rx="1.5" fill="white" fill-opacity="0.5" />
			<rect x="8" y="119.045" width="84" height="3" rx="1.5" fill="white" fill-opacity="0.5" />
		</g>
		<rect x="126.772" y="42" width="120.455" height="88.6364" rx="2.27273" fill="#EAEEF6" />
		<path
			d="M195.523 105.494L185.377 86.893L193.392 73.534L210.438 105.494H195.523ZM178.477 82.0568L191.262 105.494H165.693L178.477 82.0568ZM173.151 77.7954C170.209 77.7954 167.824 75.4106 167.824 72.4687C167.824 69.5268 170.209 67.142 173.151 67.142C176.093 67.142 178.477 69.5268 178.477 72.4687C178.477 75.4106 176.093 77.7954 173.151 77.7954Z"
			fill="#CAD2DF" />
		<rect x="126.772" y="137.455" width="120.455" height="88.6364" rx="2.27273" fill="#EAEEF6" />
		<path
			d="M195.523 200.949L185.377 182.348L193.392 168.989L210.438 200.949H195.523ZM178.477 177.511L191.262 200.949H165.693L178.477 177.511ZM173.151 173.25C170.209 173.25 167.824 170.865 167.824 167.923C167.824 164.981 170.209 162.597 173.151 162.597C176.093 162.597 178.477 164.981 178.477 167.923C178.477 170.865 176.093 173.25 173.151 173.25Z"
			fill="#CAD2DF" />
		<rect x="254.046" y="42" width="120.455" height="88.6364" rx="2.27273" fill="#EAEEF6" />
		<path
			d="M322.795 102.937L312.649 84.3362L320.665 70.9772L337.71 102.937H322.795ZM305.75 79.5L318.534 102.937H292.966L305.75 79.5ZM300.423 75.2386C297.481 75.2386 295.097 72.8537 295.097 69.9119C295.097 66.97 297.481 64.5852 300.423 64.5852C303.365 64.5852 305.75 66.97 305.75 69.9119C305.75 72.8537 303.365 75.2386 300.423 75.2386Z"
			fill="#CAD2DF" />
		<rect x="254.046" y="137.455" width="120.455" height="88.6364" rx="2.27273" fill="#EAEEF6" />
		<path
			d="M322.795 196.403L312.649 177.802L320.665 164.443L337.71 196.403H322.795ZM305.75 172.966L318.534 196.403H292.966L305.75 172.966ZM300.423 168.705C297.481 168.705 295.097 166.32 295.097 163.378C295.097 160.436 297.481 158.051 300.423 158.051C303.365 158.051 305.75 160.436 305.75 163.378C305.75 166.32 303.365 168.705 300.423 168.705Z"
			fill="#CAD2DF" />
		<rect x="9.4" y="8.4" width="236.2" height="24.2" rx="1.65248" fill="white" />
		<rect x="9.4" y="8.4" width="236.2" height="24.2" rx="1.65248" stroke="#D4DBE5"
			stroke-width="0.8" />
		<path
			d="M18.674 24.4181L18.6617 24.4304C18.4954 24.0671 18.3908 23.6546 18.3477 23.1989C18.3908 23.6484 18.5077 24.0548 18.674 24.4181Z"
			fill="#CAD2DF" />
		<path
			d="M22.6217 19.1048C23.4311 19.1048 24.0872 18.4487 24.0872 17.6393C24.0872 16.83 23.4311 16.1738 22.6217 16.1738C21.8124 16.1738 21.1562 16.83 21.1562 17.6393C21.1562 18.4487 21.8124 19.1048 22.6217 19.1048Z"
			fill="#CAD2DF" />
		<path
			d="M27.0489 13.9446H21.889C19.6477 13.9446 18.3115 15.2808 18.3115 17.5221V22.682C18.3115 23.3531 18.4285 23.9381 18.6563 24.4307C19.1859 25.6006 20.3188 26.2595 21.889 26.2595H27.0489C29.2902 26.2595 30.6264 24.9233 30.6264 22.682V21.2719V17.5221C30.6264 15.2808 29.2902 13.9446 27.0489 13.9446ZM29.6227 20.4099C29.1424 19.9973 28.3666 19.9973 27.8863 20.4099L25.3248 22.6081C24.8446 23.0206 24.0687 23.0206 23.5884 22.6081L23.3791 22.4357C22.9419 22.0539 22.2461 22.017 21.7535 22.3495L19.4506 23.895C19.3152 23.5502 19.2351 23.15 19.2351 22.682V17.5221C19.2351 15.7857 20.1526 14.8682 21.889 14.8682H27.0489C28.7853 14.8682 29.7028 15.7857 29.7028 17.5221V20.4776L29.6227 20.4099Z"
			fill="#CAD2DF" />
		<path
			d="M41.7099 20.4666C41.7099 20.2313 41.7647 20.0233 41.8741 19.8427C41.9781 19.6566 42.1232 19.5116 42.3092 19.4076C42.4899 19.2981 42.6978 19.2434 42.9332 19.2434H47.5636C47.7989 19.2434 48.0069 19.2981 48.1875 19.4076C48.3736 19.5116 48.5187 19.6566 48.6227 19.8427C48.7321 20.0233 48.7869 20.2313 48.7869 20.4666V20.4831C48.7869 20.7184 48.7321 20.9291 48.6227 21.1152C48.5187 21.2958 48.3736 21.4409 48.1875 21.5503C48.0069 21.6543 47.7989 21.7063 47.5636 21.7063H42.9332C42.6978 21.7063 42.4899 21.6543 42.3092 21.5503C42.1232 21.4409 41.9781 21.2958 41.8741 21.1152C41.7647 20.9291 41.7099 20.7184 41.7099 20.4831V20.4666ZM46.32 20.4666C46.32 20.2313 46.3747 20.0233 46.4842 19.8427C46.5882 19.6566 46.7332 19.5116 46.9193 19.4076C47.0999 19.2981 47.3079 19.2434 47.5433 19.2434H52.1736C52.409 19.2434 52.617 19.2981 52.7976 19.4076C52.9837 19.5116 53.1287 19.6566 53.2327 19.8427C53.3422 20.0233 53.3969 20.2313 53.3969 20.4666V20.4831C53.3969 20.7184 53.3422 20.9291 53.2327 21.1152C53.1287 21.2958 52.9837 21.4409 52.7976 21.5503C52.617 21.6543 52.409 21.7063 52.1736 21.7063H47.5433C47.3079 21.7063 47.0999 21.6543 46.9193 21.5503C46.7332 21.4409 46.5882 21.2958 46.4842 21.1152C46.3747 20.9291 46.32 20.7184 46.32 20.4831V20.4666ZM50.93 20.4666C50.93 20.2313 50.9848 20.0233 51.0942 19.8427C51.1982 19.6566 51.3433 19.5116 51.5294 19.4076C51.71 19.2981 51.918 19.2434 52.1533 19.2434H56.7837C57.0191 19.2434 57.227 19.2981 57.4077 19.4076C57.5937 19.5116 57.7388 19.6566 57.8428 19.8427C57.9522 20.0233 58.007 20.2313 58.007 20.4666V20.4831C58.007 20.7184 57.9522 20.9291 57.8428 21.1152C57.7388 21.2958 57.5937 21.4409 57.4077 21.5503C57.227 21.6543 57.0191 21.7063 56.7837 21.7063H52.1533C51.918 21.7063 51.71 21.6543 51.5294 21.5503C51.3433 21.4409 51.1982 21.2958 51.0942 21.1152C50.9848 20.9291 50.93 20.7184 50.93 20.4831V20.4666ZM55.5401 20.4666C55.5401 20.2313 55.5948 20.0233 55.7043 19.8427C55.8083 19.6566 55.9533 19.5116 56.1394 19.4076C56.32 19.2981 56.528 19.2434 56.7634 19.2434H59.1278C59.3632 19.2434 59.5712 19.2981 59.7518 19.4076C59.9379 19.5116 60.0829 19.6566 60.1869 19.8427C60.2964 20.0233 60.3511 20.2313 60.3511 20.4666V20.4831C60.3511 20.7184 60.2964 20.9291 60.1869 21.1152C60.0829 21.2958 59.9379 21.4409 59.7518 21.5503C59.5712 21.6543 59.3632 21.7063 59.1278 21.7063H56.7634C56.528 21.7063 56.32 21.6543 56.1394 21.5503C55.9533 21.4409 55.8083 21.2958 55.7043 21.1152C55.5948 20.9291 55.5401 20.7184 55.5401 20.4831V20.4666ZM57.8892 20.4666C57.8892 20.2313 57.944 20.0233 58.0534 19.8427C58.1574 19.6566 58.3025 19.5116 58.4885 19.4076C58.6692 19.2981 58.8771 19.2434 59.1125 19.2434H63.7429C63.9782 19.2434 64.1862 19.2981 64.3668 19.4076C64.5529 19.5116 64.698 19.6566 64.802 19.8427C64.9114 20.0233 64.9662 20.2313 64.9662 20.4666V20.4831C64.9662 20.7184 64.9114 20.9291 64.802 21.1152C64.698 21.2958 64.5529 21.4409 64.3668 21.5503C64.1862 21.6543 63.9782 21.7063 63.7429 21.7063H59.1125C58.8771 21.7063 58.6692 21.6543 58.4885 21.5503C58.3025 21.4409 58.1574 21.2958 58.0534 21.1152C57.944 20.9291 57.8892 20.7184 57.8892 20.4831V20.4666ZM62.4993 20.4666C62.4993 20.2313 62.554 20.0233 62.6635 19.8427C62.7675 19.6566 62.9125 19.5116 63.0986 19.4076C63.2792 19.2981 63.4872 19.2434 63.7226 19.2434H68.3529C68.5883 19.2434 68.7963 19.2981 68.9769 19.4076C69.163 19.5116 69.308 19.6566 69.412 19.8427C69.5215 20.0233 69.5762 20.2313 69.5762 20.4666V20.4831C69.5762 20.7184 69.5215 20.9291 69.412 21.1152C69.308 21.2958 69.163 21.4409 68.9769 21.5503C68.7963 21.6543 68.5883 21.7063 68.3529 21.7063H63.7226C63.4872 21.7063 63.2792 21.6543 63.0986 21.5503C62.9125 21.4409 62.7675 21.2958 62.6635 21.1152C62.554 20.9291 62.4993 20.7184 62.4993 20.4831V20.4666ZM72.0321 20.4666C72.0321 20.2313 72.0868 20.0233 72.1963 19.8427C72.3003 19.6566 72.4453 19.5116 72.6314 19.4076C72.812 19.2981 73.02 19.2434 73.2554 19.2434H77.8857C78.1211 19.2434 78.3291 19.2981 78.5097 19.4076C78.6958 19.5116 78.8408 19.6566 78.9448 19.8427C79.0543 20.0233 79.109 20.2313 79.109 20.4666V20.4831C79.109 20.7184 79.0543 20.9291 78.9448 21.1152C78.8408 21.2958 78.6958 21.4409 78.5097 21.5503C78.3291 21.6543 78.1211 21.7063 77.8857 21.7063H73.2554C73.02 21.7063 72.812 21.6543 72.6314 21.5503C72.4453 21.4409 72.3003 21.2958 72.1963 21.1152C72.0868 20.9291 72.0321 20.7184 72.0321 20.4831V20.4666ZM76.6421 20.4666C76.6421 20.2313 76.6969 20.0233 76.8063 19.8427C76.9103 19.6566 77.0554 19.5116 77.2415 19.4076C77.4221 19.2981 77.6301 19.2434 77.8654 19.2434H82.4958C82.7312 19.2434 82.9391 19.2981 83.1198 19.4076C83.3058 19.5116 83.4509 19.6566 83.5549 19.8427C83.6643 20.0233 83.7191 20.2313 83.7191 20.4666V20.4831C83.7191 20.7184 83.6643 20.9291 83.5549 21.1152C83.4509 21.2958 83.3058 21.4409 83.1198 21.5503C82.9391 21.6543 82.7312 21.7063 82.4958 21.7063H77.8654C77.6301 21.7063 77.4221 21.6543 77.2415 21.5503C77.0554 21.4409 76.9103 21.2958 76.8063 21.1152C76.6969 20.9291 76.6421 20.7184 76.6421 20.4831V20.4666ZM81.2522 20.4666C81.2522 20.2313 81.3069 20.0233 81.4164 19.8427C81.5204 19.6566 81.6654 19.5116 81.8515 19.4076C82.0321 19.2981 82.2401 19.2434 82.4755 19.2434H84.8399C85.0753 19.2434 85.2833 19.2981 85.4639 19.4076C85.65 19.5116 85.795 19.6566 85.899 19.8427C86.0085 20.0233 86.0632 20.2313 86.0632 20.4666V20.4831C86.0632 20.7184 86.0085 20.9291 85.899 21.1152C85.795 21.2958 85.65 21.4409 85.4639 21.5503C85.2833 21.6543 85.0753 21.7063 84.8399 21.7063H82.4755C82.2401 21.7063 82.0321 21.6543 81.8515 21.5503C81.6654 21.4409 81.5204 21.2958 81.4164 21.1152C81.3069 20.9291 81.2522 20.7184 81.2522 20.4831V20.4666ZM83.6013 20.4666C83.6013 20.2313 83.6561 20.0233 83.7655 19.8427C83.8695 19.6566 84.0146 19.5116 84.2006 19.4076C84.3813 19.2981 84.5892 19.2434 84.8246 19.2434H89.455C89.6903 19.2434 89.8983 19.2981 90.0789 19.4076C90.265 19.5116 90.4101 19.6566 90.5141 19.8427C90.6235 20.0233 90.6783 20.2313 90.6783 20.4666V20.4831C90.6783 20.7184 90.6235 20.9291 90.5141 21.1152C90.4101 21.2958 90.265 21.4409 90.0789 21.5503C89.8983 21.6543 89.6903 21.7063 89.455 21.7063H84.8246C84.5892 21.7063 84.3813 21.6543 84.2006 21.5503C84.0146 21.4409 83.8695 21.2958 83.7655 21.1152C83.6561 20.9291 83.6013 20.7184 83.6013 20.4831V20.4666ZM88.2114 20.4666C88.2114 20.2313 88.2661 20.0233 88.3756 19.8427C88.4796 19.6566 88.6246 19.5116 88.8107 19.4076C88.9913 19.2981 89.1993 19.2434 89.4347 19.2434H91.7991C92.0345 19.2434 92.2424 19.2981 92.4231 19.4076C92.6092 19.5116 92.7542 19.6566 92.8582 19.8427C92.9677 20.0233 93.0224 20.2313 93.0224 20.4666V20.4831C93.0224 20.7184 92.9677 20.9291 92.8582 21.1152C92.7542 21.2958 92.6092 21.4409 92.4231 21.5503C92.2424 21.6543 92.0345 21.7063 91.7991 21.7063H89.4347C89.1993 21.7063 88.9913 21.6543 88.8107 21.5503C88.6246 21.4409 88.4796 21.2958 88.3756 21.1152C88.2661 20.9291 88.2114 20.7184 88.2114 20.4831V20.4666ZM90.5605 20.4666C90.5605 20.2313 90.6152 20.0233 90.7247 19.8427C90.8287 19.6566 90.9737 19.5116 91.1598 19.4076C91.3404 19.2981 91.5484 19.2434 91.7838 19.2434H94.1482C94.3836 19.2434 94.5916 19.2981 94.7722 19.4076C94.9583 19.5116 95.1033 19.6566 95.2073 19.8427C95.3168 20.0233 95.3715 20.2313 95.3715 20.4666V20.4831C95.3715 20.7184 95.3168 20.9291 95.2073 21.1152C95.1033 21.2958 94.9583 21.4409 94.7722 21.5503C94.5916 21.6543 94.3836 21.7063 94.1482 21.7063H91.7838C91.5484 21.7063 91.3404 21.6543 91.1598 21.5503C90.9737 21.4409 90.8287 21.2958 90.7247 21.1152C90.6152 20.9291 90.5605 20.7184 90.5605 20.4831V20.4666Z"
			fill="#CAD2DF" />
		<rect x="-0.4" y="0.4" width="102.2" height="24.2" rx="1.65248"
			transform="matrix(-1 0 0 1 360.2 8)" fill="white" />
		<rect x="-0.4" y="0.4" width="102.2" height="24.2" rx="1.65248"
			transform="matrix(-1 0 0 1 360.2 8)" stroke="#D4DBE5" stroke-width="0.8" />
		<path
			d="M270.937 22.6267L270.929 22.6349C270.818 22.3927 270.748 22.1177 270.72 21.8139C270.748 22.1136 270.826 22.3845 270.937 22.6267Z"
			fill="#CAD2DF" />
		<path
			d="M273.568 19.0844C274.107 19.0844 274.545 18.647 274.545 18.1074C274.545 17.5678 274.107 17.1304 273.568 17.1304C273.028 17.1304 272.591 17.5678 272.591 18.1074C272.591 18.647 273.028 19.0844 273.568 19.0844Z"
			fill="#CAD2DF" />
		<path
			d="M276.521 15.6443H273.081C271.587 15.6443 270.696 16.5351 270.696 18.0293V21.4692C270.696 21.9167 270.774 22.3066 270.926 22.635C271.279 23.415 272.035 23.8542 273.081 23.8542H276.521C278.015 23.8542 278.906 22.9634 278.906 21.4692V20.5292V18.0293C278.906 16.5351 278.015 15.6443 276.521 15.6443ZM278.237 19.9545C277.917 19.6795 277.4 19.6795 277.079 19.9545L275.372 21.42C275.052 21.695 274.534 21.695 274.214 21.42L274.075 21.305C273.783 21.0505 273.319 21.0259 272.991 21.2476L271.456 22.2779C271.365 22.048 271.312 21.7812 271.312 21.4692V18.0293C271.312 16.8717 271.924 16.2601 273.081 16.2601H276.521C277.679 16.2601 278.29 16.8717 278.29 18.0293V19.9997L278.237 19.9545Z"
			fill="#CAD2DF" />
		<path
			d="M285.675 20.1139C285.675 19.8785 285.729 19.6705 285.839 19.4899C285.943 19.3038 286.088 19.1588 286.274 19.0548C286.455 18.9453 286.663 18.8906 286.898 18.8906H289.262C289.498 18.8906 289.706 18.9453 289.886 19.0548C290.073 19.1588 290.218 19.3038 290.322 19.4899C290.431 19.6705 290.486 19.8785 290.486 20.1139V20.1303C290.486 20.3656 290.431 20.5764 290.322 20.7625C290.218 20.9431 290.073 21.0881 289.886 21.1976C289.706 21.3016 289.498 21.3536 289.262 21.3536H286.898C286.663 21.3536 286.455 21.3016 286.274 21.1976C286.088 21.0881 285.943 20.9431 285.839 20.7625C285.729 20.5764 285.675 20.3656 285.675 20.1303V20.1139ZM288.024 20.1139C288.024 19.8785 288.079 19.6705 288.188 19.4899C288.292 19.3038 288.437 19.1588 288.623 19.0548C288.804 18.9453 289.012 18.8906 289.247 18.8906H291.612C291.847 18.8906 292.055 18.9453 292.236 19.0548C292.422 19.1588 292.567 19.3038 292.671 19.4899C292.78 19.6705 292.835 19.8785 292.835 20.1139V20.1303C292.835 20.3656 292.78 20.5764 292.671 20.7625C292.567 20.9431 292.422 21.0881 292.236 21.1976C292.055 21.3016 291.847 21.3536 291.612 21.3536H289.247C289.012 21.3536 288.804 21.3016 288.623 21.1976C288.437 21.0881 288.292 20.9431 288.188 20.7625C288.079 20.5764 288.024 20.3656 288.024 20.1303V20.1139ZM290.373 20.1139C290.373 19.8785 290.428 19.6705 290.537 19.4899C290.641 19.3038 290.786 19.1588 290.972 19.0548C291.153 18.9453 291.361 18.8906 291.596 18.8906H293.961C294.196 18.8906 294.404 18.9453 294.585 19.0548C294.771 19.1588 294.916 19.3038 295.02 19.4899C295.129 19.6705 295.184 19.8785 295.184 20.1139V20.1303C295.184 20.3656 295.129 20.5764 295.02 20.7625C294.916 20.9431 294.771 21.0881 294.585 21.1976C294.404 21.3016 294.196 21.3536 293.961 21.3536H291.596C291.361 21.3536 291.153 21.3016 290.972 21.1976C290.786 21.0881 290.641 20.9431 290.537 20.7625C290.428 20.5764 290.373 20.3656 290.373 20.1303V20.1139ZM292.722 20.1139C292.722 19.8785 292.777 19.6705 292.886 19.4899C292.99 19.3038 293.135 19.1588 293.321 19.0548C293.502 18.9453 293.71 18.8906 293.945 18.8906H296.31C296.545 18.8906 296.753 18.9453 296.934 19.0548C297.12 19.1588 297.265 19.3038 297.369 19.4899C297.478 19.6705 297.533 19.8785 297.533 20.1139V20.1303C297.533 20.3656 297.478 20.5764 297.369 20.7625C297.265 20.9431 297.12 21.0881 296.934 21.1976C296.753 21.3016 296.545 21.3536 296.31 21.3536H293.945C293.71 21.3536 293.502 21.3016 293.321 21.1976C293.135 21.0881 292.99 20.9431 292.886 20.7625C292.777 20.5764 292.722 20.3656 292.722 20.1303V20.1139ZM295.071 20.1139C295.071 19.8785 295.126 19.6705 295.235 19.4899C295.339 19.3038 295.484 19.1588 295.671 19.0548C295.851 18.9453 296.059 18.8906 296.295 18.8906H300.925C301.16 18.8906 301.368 18.9453 301.549 19.0548C301.735 19.1588 301.88 19.3038 301.984 19.4899C302.093 19.6705 302.148 19.8785 302.148 20.1139V20.1303C302.148 20.3656 302.093 20.5764 301.984 20.7625C301.88 20.9431 301.735 21.0881 301.549 21.1976C301.368 21.3016 301.16 21.3536 300.925 21.3536H296.295C296.059 21.3536 295.851 21.3016 295.671 21.1976C295.484 21.0881 295.339 20.9431 295.235 20.7625C295.126 20.5764 295.071 20.3656 295.071 20.1303V20.1139ZM299.681 20.1139C299.681 19.8785 299.736 19.6705 299.846 19.4899C299.95 19.3038 300.095 19.1588 300.281 19.0548C300.461 18.9453 300.669 18.8906 300.905 18.8906H303.269C303.504 18.8906 303.712 18.9453 303.893 19.0548C304.079 19.1588 304.224 19.3038 304.328 19.4899C304.438 19.6705 304.492 19.8785 304.492 20.1139V20.1303C304.492 20.3656 304.438 20.5764 304.328 20.7625C304.224 20.9431 304.079 21.0881 303.893 21.1976C303.712 21.3016 303.504 21.3536 303.269 21.3536H300.905C300.669 21.3536 300.461 21.3016 300.281 21.1976C300.095 21.0881 299.95 20.9431 299.846 20.7625C299.736 20.5764 299.681 20.3656 299.681 20.1303V20.1139ZM306.953 20.1139C306.953 19.8785 307.008 19.6705 307.117 19.4899C307.221 19.3038 307.366 19.1588 307.553 19.0548C307.733 18.9453 307.941 18.8906 308.176 18.8906H312.807C313.042 18.8906 313.25 18.9453 313.431 19.0548C313.617 19.1588 313.762 19.3038 313.866 19.4899C313.975 19.6705 314.03 19.8785 314.03 20.1139V20.1303C314.03 20.3656 313.975 20.5764 313.866 20.7625C313.762 20.9431 313.617 21.0881 313.431 21.1976C313.25 21.3016 313.042 21.3536 312.807 21.3536H308.176C307.941 21.3536 307.733 21.3016 307.553 21.1976C307.366 21.0881 307.221 20.9431 307.117 20.7625C307.008 20.5764 306.953 20.3656 306.953 20.1303V20.1139ZM311.563 20.1139C311.563 19.8785 311.618 19.6705 311.727 19.4899C311.831 19.3038 311.976 19.1588 312.163 19.0548C312.343 18.9453 312.551 18.8906 312.787 18.8906H317.417C317.652 18.8906 317.86 18.9453 318.041 19.0548C318.227 19.1588 318.372 19.3038 318.476 19.4899C318.585 19.6705 318.64 19.8785 318.64 20.1139V20.1303C318.64 20.3656 318.585 20.5764 318.476 20.7625C318.372 20.9431 318.227 21.0881 318.041 21.1976C317.86 21.3016 317.652 21.3536 317.417 21.3536H312.787C312.551 21.3536 312.343 21.3016 312.163 21.1976C311.976 21.0881 311.831 20.9431 311.727 20.7625C311.618 20.5764 311.563 20.3656 311.563 20.1303V20.1139Z"
			fill="#CAD2DF" />
		<g clip-path="url(#clip1_3015_2166)">
			<path d="M342.531 18.723L344.584 20.7755L346.636 18.723" stroke="#BDBFC4"
				stroke-width="0.820991" stroke-linecap="round" stroke-linejoin="round" />
		</g>
	</g>
	<defs>
		<linearGradient id="paint0_linear_3015_2166" x1="59.7273" y1="42" x2="59.7273" y2="130.636"
			gradientUnits="userSpaceOnUse">
			<stop stop-color="#EAEEF6" />
			<stop offset="1" />
		</linearGradient>
		<clipPath id="clip0_3015_2166">
			<rect width="370" height="222" fill="white" />
		</clipPath>
		<clipPath id="clip1_3015_2166">
			<rect width="8.20991" height="8.20991" fill="white"
				transform="translate(340.48 15.6443)" />
		</clipPath>
	</defs>
</svg>
