<svg width="370" height="222" viewBox="0 0 370 222" fill="none" xmlns="http://www.w3.org/2000/svg">
	<g clip-path="url(#clip0_3212_117)">
		<rect width="370" height="222" fill="white" />
		<rect width="55.3723" height="62.6856" transform="translate(3.99609 36.0813)" fill="#EAEEF6" />
		<rect x="10.3806" y="42.4804" width="55.1111" height="62.4244" fill="#CAD2DF" />
		<rect x="10.3806" y="42.4804" width="55.1111" height="62.4244" stroke="#97A4B9"
			stroke-width="0.26119" />
		<g opacity="0.5">
			<path
				d="M43.3337 86.625L36.3892 73.8935L41.8753 64.75L53.542 86.625H43.3337ZM31.667 70.5833L40.417 86.625H22.917L31.667 70.5833ZM28.0212 67.6667C26.0076 67.6667 24.3753 66.0344 24.3753 64.0208C24.3753 62.0073 26.0076 60.375 28.0212 60.375C30.0347 60.375 31.667 62.0073 31.667 64.0208C31.667 66.0344 30.0347 67.6667 28.0212 67.6667Z"
				fill="white" />
		</g>
		<rect x="10.25" y="109.214" width="40.905" height="1.75809" rx="0.879047" fill="#D3DBEA" />
		<rect x="10.25" y="112.965" width="36.0995" height="1.75809" rx="0.879047" fill="#D3DBEA" />
		<path
			d="M8.98967 30.4159C8.98967 30.1752 9.04565 29.9625 9.15759 29.7778C9.26393 29.5875 9.41226 29.4392 9.60256 29.3329C9.78726 29.2209 9.99995 29.1649 10.2406 29.1649H14.9758C15.2165 29.1649 15.4291 29.2209 15.6138 29.3329C15.8042 29.4392 15.9525 29.5875 16.0588 29.7778C16.1708 29.9625 16.2267 30.1752 16.2267 30.4159V30.4327C16.2267 30.6734 16.1708 30.8889 16.0588 31.0792C15.9525 31.2639 15.8042 31.4122 15.6138 31.5241C15.4291 31.6305 15.2165 31.6836 14.9758 31.6836H10.2406C9.99995 31.6836 9.78726 31.6305 9.60256 31.5241C9.41226 31.4122 9.26393 31.2639 9.15759 31.0792C9.04565 30.8889 8.98967 30.6734 8.98967 30.4327V30.4159ZM13.704 30.4159C13.704 30.1752 13.76 29.9625 13.8719 29.7778C13.9783 29.5875 14.1266 29.4392 14.3169 29.3329C14.5016 29.2209 14.7143 29.1649 14.955 29.1649H19.6901C19.9308 29.1649 20.1435 29.2209 20.3282 29.3329C20.5185 29.4392 20.6668 29.5875 20.7732 29.7778C20.8851 29.9625 20.9411 30.1752 20.9411 30.4159V30.4327C20.9411 30.6734 20.8851 30.8889 20.7732 31.0792C20.6668 31.2639 20.5185 31.4122 20.3282 31.5241C20.1435 31.6305 19.9308 31.6836 19.6901 31.6836H14.955C14.7143 31.6836 14.5016 31.6305 14.3169 31.5241C14.1266 31.4122 13.9783 31.2639 13.8719 31.0792C13.76 30.8889 13.704 30.6734 13.704 30.4327V30.4159ZM18.4184 30.4159C18.4184 30.1752 18.4744 29.9625 18.5863 29.7778C18.6926 29.5875 18.841 29.4392 19.0313 29.3329C19.216 29.2209 19.4287 29.1649 19.6693 29.1649H24.4045C24.6452 29.1649 24.8579 29.2209 25.0426 29.3329C25.2329 29.4392 25.3812 29.5875 25.4875 29.7778C25.5995 29.9625 25.6554 30.1752 25.6554 30.4159V30.4327C25.6554 30.6734 25.5995 30.8889 25.4875 31.0792C25.3812 31.2639 25.2329 31.4122 25.0426 31.5241C24.8579 31.6305 24.6452 31.6836 24.4045 31.6836H19.6693C19.4287 31.6836 19.216 31.6305 19.0313 31.5241C18.841 31.4122 18.6926 31.2639 18.5863 31.0792C18.4744 30.8889 18.4184 30.6734 18.4184 30.4327V30.4159ZM23.1327 30.4159C23.1327 30.1752 23.1887 29.9625 23.3007 29.7778C23.407 29.5875 23.5553 29.4392 23.7456 29.3329C23.9303 29.2209 24.143 29.1649 24.3837 29.1649H26.8017C27.0423 29.1649 27.255 29.2209 27.4397 29.3329C27.63 29.4392 27.7783 29.5875 27.8847 29.7778C27.9966 29.9625 28.0526 30.1752 28.0526 30.4159V30.4327C28.0526 30.6734 27.9966 30.8889 27.8847 31.0792C27.7783 31.2639 27.63 31.4122 27.4397 31.5241C27.255 31.6305 27.0423 31.6836 26.8017 31.6836H24.3837C24.143 31.6836 23.9303 31.6305 23.7456 31.5241C23.5553 31.4122 23.407 31.2639 23.3007 31.0792C23.1887 30.8889 23.1327 30.6734 23.1327 30.4327V30.4159ZM25.535 30.4159C25.535 30.1752 25.591 29.9625 25.7029 29.7778C25.8093 29.5875 25.9576 29.4392 26.1479 29.3329C26.3326 29.2209 26.5453 29.1649 26.786 29.1649H31.5211C31.7618 29.1649 31.9745 29.2209 32.1592 29.3329C32.3495 29.4392 32.4978 29.5875 32.6042 29.7778C32.7161 29.9625 32.7721 30.1752 32.7721 30.4159V30.4327C32.7721 30.6734 32.7161 30.8889 32.6042 31.0792C32.4978 31.2639 32.3495 31.4122 32.1592 31.5241C31.9745 31.6305 31.7618 31.6836 31.5211 31.6836H26.786C26.5453 31.6836 26.3326 31.6305 26.1479 31.5241C25.9576 31.4122 25.8093 31.2639 25.7029 31.0792C25.591 30.8889 25.535 30.6734 25.535 30.4327V30.4159ZM30.2494 30.4159C30.2494 30.1752 30.3054 29.9625 30.4173 29.7778C30.5236 29.5875 30.672 29.4392 30.8623 29.3329C31.047 29.2209 31.2597 29.1649 31.5003 29.1649H36.2355C36.4762 29.1649 36.6889 29.2209 36.8736 29.3329C37.0639 29.4392 37.2122 29.5875 37.3185 29.7778C37.4305 29.9625 37.4864 30.1752 37.4864 30.4159V30.4327C37.4864 30.6734 37.4305 30.8889 37.3185 31.0792C37.2122 31.2639 37.0639 31.4122 36.8736 31.5241C36.6889 31.6305 36.4762 31.6836 36.2355 31.6836H31.5003C31.2597 31.6836 31.047 31.6305 30.8623 31.5241C30.672 31.4122 30.5236 31.2639 30.4173 31.0792C30.3054 30.8889 30.2494 30.6734 30.2494 30.4327V30.4159ZM39.9979 30.4159C39.9979 30.1752 40.0538 29.9625 40.1658 29.7778C40.2721 29.5875 40.4204 29.4392 40.6107 29.3329C40.7954 29.2209 41.0081 29.1649 41.2488 29.1649H45.984C46.2246 29.1649 46.4373 29.2209 46.622 29.3329C46.8123 29.4392 46.9607 29.5875 47.067 29.7778C47.1789 29.9625 47.2349 30.1752 47.2349 30.4159V30.4327C47.2349 30.6734 47.1789 30.8889 47.067 31.0792C46.9607 31.2639 46.8123 31.4122 46.622 31.5241C46.4373 31.6305 46.2246 31.6836 45.984 31.6836H41.2488C41.0081 31.6836 40.7954 31.6305 40.6107 31.5241C40.4204 31.4122 40.2721 31.2639 40.1658 31.0792C40.0538 30.8889 39.9979 30.6734 39.9979 30.4327V30.4159ZM44.7122 30.4159C44.7122 30.1752 44.7682 29.9625 44.8801 29.7778C44.9865 29.5875 45.1348 29.4392 45.3251 29.3329C45.5098 29.2209 45.7225 29.1649 45.9632 29.1649H50.6983C50.939 29.1649 51.1517 29.2209 51.3364 29.3329C51.5267 29.4392 51.675 29.5875 51.7814 29.7778C51.8933 29.9625 51.9493 30.1752 51.9493 30.4159V30.4327C51.9493 30.6734 51.8933 30.8889 51.7814 31.0792C51.675 31.2639 51.5267 31.4122 51.3364 31.5241C51.1517 31.6305 50.939 31.6836 50.6983 31.6836H45.9632C45.7225 31.6836 45.5098 31.6305 45.3251 31.5241C45.1348 31.4122 44.9865 31.2639 44.8801 31.0792C44.7682 30.8889 44.7122 30.6734 44.7122 30.4327V30.4159ZM49.4266 30.4159C49.4266 30.1752 49.4825 29.9625 49.5945 29.7778C49.7008 29.5875 49.8492 29.4392 50.0395 29.3329C50.2242 29.2209 50.4368 29.1649 50.6775 29.1649H53.0955C53.3362 29.1649 53.5488 29.2209 53.7335 29.3329C53.9238 29.4392 54.0722 29.5875 54.1785 29.7778C54.2905 29.9625 54.3464 30.1752 54.3464 30.4159V30.4327C54.3464 30.6734 54.2905 30.8889 54.1785 31.0792C54.0722 31.2639 53.9238 31.4122 53.7335 31.5241C53.5488 31.6305 53.3362 31.6836 53.0955 31.6836H50.6775C50.4368 31.6836 50.2242 31.6305 50.0395 31.5241C49.8492 31.4122 49.7008 31.2639 49.5945 31.0792C49.4825 30.8889 49.4266 30.6734 49.4266 30.4327V30.4159ZM51.8288 30.4159C51.8288 30.1752 51.8848 29.9625 51.9968 29.7778C52.1031 29.5875 52.2514 29.4392 52.4417 29.3329C52.6264 29.2209 52.8391 29.1649 53.0798 29.1649H57.8149C58.0556 29.1649 58.2683 29.2209 58.453 29.3329C58.6433 29.4392 58.7916 29.5875 58.898 29.7778C59.0099 29.9625 59.0659 30.1752 59.0659 30.4159V30.4327C59.0659 30.6734 59.0099 30.8889 58.898 31.0792C58.7916 31.2639 58.6433 31.4122 58.453 31.5241C58.2683 31.6305 58.0556 31.6836 57.8149 31.6836H53.0798C52.8391 31.6836 52.6264 31.6305 52.4417 31.5241C52.2514 31.4122 52.1031 31.2639 51.9968 31.0792C51.8848 30.8889 51.8288 30.6734 51.8288 30.4327V30.4159ZM56.5432 30.4159C56.5432 30.1752 56.5992 29.9625 56.7111 29.7778C56.8175 29.5875 56.9658 29.4392 57.1561 29.3329C57.3408 29.2209 57.5535 29.1649 57.7942 29.1649H60.2121C60.4528 29.1649 60.6655 29.2209 60.8502 29.3329C61.0405 29.4392 61.1888 29.5875 61.2951 29.7778C61.4071 29.9625 61.4631 30.1752 61.4631 30.4159V30.4327C61.4631 30.6734 61.4071 30.8889 61.2951 31.0792C61.1888 31.2639 61.0405 31.4122 60.8502 31.5241C60.6655 31.6305 60.4528 31.6836 60.2121 31.6836H57.7942C57.5535 31.6836 57.3408 31.6305 57.1561 31.5241C56.9658 31.4122 56.8175 31.2639 56.7111 31.0792C56.5992 30.8889 56.5432 30.6734 56.5432 30.4327V30.4159ZM58.9455 30.4159C58.9455 30.1752 59.0014 29.9625 59.1134 29.7778C59.2197 29.5875 59.3681 29.4392 59.5584 29.3329C59.7431 29.2209 59.9558 29.1649 60.1964 29.1649H62.6144C62.8551 29.1649 63.0677 29.2209 63.2525 29.3329C63.4428 29.4392 63.5911 29.5875 63.6974 29.7778C63.8094 29.9625 63.8653 30.1752 63.8653 30.4159V30.4327C63.8653 30.6734 63.8094 30.8889 63.6974 31.0792C63.5911 31.2639 63.4428 31.4122 63.2525 31.5241C63.0677 31.6305 62.8551 31.6836 62.6144 31.6836H60.1964C59.9558 31.6836 59.7431 31.6305 59.5584 31.5241C59.3681 31.4122 59.2197 31.2639 59.1134 31.0792C59.0014 30.8889 58.9455 30.6734 58.9455 30.4327V30.4159Z"
			fill="#CAD2DF" />
		<rect width="55.3723" height="74.1779" transform="translate(100.375 22.7582)" fill="#EAEEF6" />
		<rect x="106.757" y="29.1575" width="55.1111" height="73.9167" fill="#CAD2DF" />
		<rect x="106.757" y="29.1575" width="55.1111" height="73.9167" stroke="#97A4B9"
			stroke-width="0.26119" />
		<g opacity="0.5">
			<path
				d="M139.334 73.625L132.389 60.8935L137.875 51.75L149.542 73.625H139.334ZM127.667 57.5833L136.417 73.625H118.917L127.667 57.5833ZM124.021 54.6667C122.008 54.6667 120.375 53.0344 120.375 51.0208C120.375 49.0073 122.008 47.375 124.021 47.375C126.035 47.375 127.667 49.0073 127.667 51.0208C127.667 53.0344 126.035 54.6667 124.021 54.6667Z"
				fill="white" />
		</g>
		<rect x="106.377" y="107.649" width="40.905" height="1.75809" rx="0.879047" fill="#D3DBEA" />
		<rect x="106.377" y="111.4" width="36.0995" height="1.75809" rx="0.879047" fill="#D3DBEA" />
		<path
			d="M105.117 17.1217C105.117 16.8811 105.173 16.6684 105.285 16.4837C105.391 16.2934 105.539 16.145 105.73 16.0387C105.914 15.9268 106.127 15.8708 106.368 15.8708H111.103C111.343 15.8708 111.556 15.9268 111.741 16.0387C111.931 16.145 112.079 16.2934 112.186 16.4837C112.298 16.6684 112.354 16.8811 112.354 17.1217V17.1385C112.354 17.3792 112.298 17.5947 112.186 17.785C112.079 17.9697 111.931 18.118 111.741 18.23C111.556 18.3363 111.343 18.3895 111.103 18.3895H106.368C106.127 18.3895 105.914 18.3363 105.73 18.23C105.539 18.118 105.391 17.9697 105.285 17.785C105.173 17.5947 105.117 17.3792 105.117 17.1385V17.1217ZM109.831 17.1217C109.831 16.8811 109.887 16.6684 109.999 16.4837C110.105 16.2934 110.254 16.145 110.444 16.0387C110.629 15.9268 110.841 15.8708 111.082 15.8708H115.817C116.058 15.8708 116.27 15.9268 116.455 16.0387C116.645 16.145 116.794 16.2934 116.9 16.4837C117.012 16.6684 117.068 16.8811 117.068 17.1217V17.1385C117.068 17.3792 117.012 17.5947 116.9 17.785C116.794 17.9697 116.645 18.118 116.455 18.23C116.27 18.3363 116.058 18.3895 115.817 18.3895H111.082C110.841 18.3895 110.629 18.3363 110.444 18.23C110.254 18.118 110.105 17.9697 109.999 17.785C109.887 17.5947 109.831 17.3792 109.831 17.1385V17.1217ZM114.545 17.1217C114.545 16.8811 114.601 16.6684 114.713 16.4837C114.82 16.2934 114.968 16.145 115.158 16.0387C115.343 15.9268 115.556 15.8708 115.796 15.8708H120.531C120.772 15.8708 120.985 15.9268 121.17 16.0387C121.36 16.145 121.508 16.2934 121.614 16.4837C121.726 16.6684 121.782 16.8811 121.782 17.1217V17.1385C121.782 17.3792 121.726 17.5947 121.614 17.785C121.508 17.9697 121.36 18.118 121.17 18.23C120.985 18.3363 120.772 18.3895 120.531 18.3895H115.796C115.556 18.3895 115.343 18.3363 115.158 18.23C114.968 18.118 114.82 17.9697 114.713 17.785C114.601 17.5947 114.545 17.3792 114.545 17.1385V17.1217ZM119.26 17.1217C119.26 16.8811 119.316 16.6684 119.428 16.4837C119.534 16.2934 119.682 16.145 119.873 16.0387C120.057 15.9268 120.27 15.8708 120.511 15.8708H125.246C125.486 15.8708 125.699 15.9268 125.884 16.0387C126.074 16.145 126.223 16.2934 126.329 16.4837C126.441 16.6684 126.497 16.8811 126.497 17.1217V17.1385C126.497 17.3792 126.441 17.5947 126.329 17.785C126.223 17.9697 126.074 18.118 125.884 18.23C125.699 18.3363 125.486 18.3895 125.246 18.3895H120.511C120.27 18.3895 120.057 18.3363 119.873 18.23C119.682 18.118 119.534 17.9697 119.428 17.785C119.316 17.5947 119.26 17.3792 119.26 17.1385V17.1217ZM123.974 17.1217C123.974 16.8811 124.03 16.6684 124.142 16.4837C124.248 16.2934 124.397 16.145 124.587 16.0387C124.772 15.9268 124.984 15.8708 125.225 15.8708H129.96C130.201 15.8708 130.414 15.9268 130.598 16.0387C130.789 16.145 130.937 16.2934 131.043 16.4837C131.155 16.6684 131.211 16.8811 131.211 17.1217V17.1385C131.211 17.3792 131.155 17.5947 131.043 17.785C130.937 17.9697 130.789 18.118 130.598 18.23C130.414 18.3363 130.201 18.3895 129.96 18.3895H125.225C124.984 18.3895 124.772 18.3363 124.587 18.23C124.397 18.118 124.248 17.9697 124.142 17.785C124.03 17.5947 123.974 17.3792 123.974 17.1385V17.1217ZM128.688 17.1217C128.688 16.8811 128.744 16.6684 128.856 16.4837C128.963 16.2934 129.111 16.145 129.301 16.0387C129.486 15.9268 129.699 15.8708 129.939 15.8708H132.357C132.598 15.8708 132.811 15.9268 132.995 16.0387C133.186 16.145 133.334 16.2934 133.44 16.4837C133.552 16.6684 133.608 16.8811 133.608 17.1217V17.1385C133.608 17.3792 133.552 17.5947 133.44 17.785C133.334 17.9697 133.186 18.118 132.995 18.23C132.811 18.3363 132.598 18.3895 132.357 18.3895H129.939C129.699 18.3895 129.486 18.3363 129.301 18.23C129.111 18.118 128.963 17.9697 128.856 17.785C128.744 17.5947 128.688 17.3792 128.688 17.1385V17.1217ZM131.091 17.1217C131.091 16.8811 131.147 16.6684 131.259 16.4837C131.365 16.2934 131.513 16.145 131.704 16.0387C131.888 15.9268 132.101 15.8708 132.342 15.8708H137.077C137.317 15.8708 137.53 15.9268 137.715 16.0387C137.905 16.145 138.053 16.2934 138.16 16.4837C138.272 16.6684 138.328 16.8811 138.328 17.1217V17.1385C138.328 17.3792 138.272 17.5947 138.16 17.785C138.053 17.9697 137.905 18.118 137.715 18.23C137.53 18.3363 137.317 18.3895 137.077 18.3895H132.342C132.101 18.3895 131.888 18.3363 131.704 18.23C131.513 18.118 131.365 17.9697 131.259 17.785C131.147 17.5947 131.091 17.3792 131.091 17.1385V17.1217ZM135.805 17.1217C135.805 16.8811 135.861 16.6684 135.973 16.4837C136.079 16.2934 136.228 16.145 136.418 16.0387C136.603 15.9268 136.815 15.8708 137.056 15.8708H139.474C139.715 15.8708 139.927 15.9268 140.112 16.0387C140.302 16.145 140.451 16.2934 140.557 16.4837C140.669 16.6684 140.725 16.8811 140.725 17.1217V17.1385C140.725 17.3792 140.669 17.5947 140.557 17.785C140.451 17.9697 140.302 18.118 140.112 18.23C139.927 18.3363 139.715 18.3895 139.474 18.3895H137.056C136.815 18.3895 136.603 18.3363 136.418 18.23C136.228 18.118 136.079 17.9697 135.973 17.785C135.861 17.5947 135.805 17.3792 135.805 17.1385V17.1217ZM138.207 17.1217C138.207 16.8811 138.263 16.6684 138.375 16.4837C138.482 16.2934 138.63 16.145 138.82 16.0387C139.005 15.9268 139.218 15.8708 139.458 15.8708H141.876C142.117 15.8708 142.33 15.9268 142.514 16.0387C142.705 16.145 142.853 16.2934 142.959 16.4837C143.071 16.6684 143.127 16.8811 143.127 17.1217V17.1385C143.127 17.3792 143.071 17.5947 142.959 17.785C142.853 17.9697 142.705 18.118 142.514 18.23C142.33 18.3363 142.117 18.3895 141.876 18.3895H139.458C139.218 18.3895 139.005 18.3363 138.82 18.23C138.63 18.118 138.482 17.9697 138.375 17.785C138.263 17.5947 138.207 17.3792 138.207 17.1385V17.1217Z"
			fill="#CAD2DF" />
		<rect width="55.3723" height="62.6856" transform="translate(196.752 9.28253)" fill="#EAEEF6" />
		<rect x="203.137" y="15.6817" width="55.1111" height="62.4244" fill="#CAD2DF" />
		<rect x="203.137" y="15.6817" width="55.1111" height="62.4244" stroke="#97A4B9"
			stroke-width="0.26119" />
		<g opacity="0.5">
			<path
				d="M236.334 59.625L229.389 46.8935L234.875 37.75L246.542 59.625H236.334ZM224.667 43.5833L233.417 59.625H215.917L224.667 43.5833ZM221.021 40.6667C219.008 40.6667 217.375 39.0344 217.375 37.0208C217.375 35.0073 219.008 33.375 221.021 33.375C223.035 33.375 224.667 35.0073 224.667 37.0208C224.667 39.0344 223.035 40.6667 221.021 40.6667Z"
				fill="white" />
		</g>
		<rect x="202.502" y="82.0838" width="40.905" height="1.75809" rx="0.879047" fill="#D3DBEA" />
		<rect x="202.502" y="85.8345" width="36.0995" height="1.75809" rx="0.879047" fill="#D3DBEA" />
		<path
			d="M202.741 4.30499C202.741 4.06432 202.797 3.85163 202.909 3.66692C203.015 3.47662 203.163 3.3283 203.354 3.22195C203.538 3.11001 203.751 3.05404 203.992 3.05404H208.727C208.967 3.05404 209.18 3.11001 209.365 3.22195C209.555 3.3283 209.703 3.47662 209.81 3.66692C209.922 3.85163 209.978 4.06432 209.978 4.30499V4.32179C209.978 4.56246 209.922 4.77795 209.81 4.96825C209.703 5.15296 209.555 5.30128 209.365 5.41322C209.18 5.51957 208.967 5.57274 208.727 5.57274H203.992C203.751 5.57274 203.538 5.51957 203.354 5.41322C203.163 5.30128 203.015 5.15296 202.909 4.96825C202.797 4.77795 202.741 4.56246 202.741 4.32179V4.30499ZM207.455 4.30499C207.455 4.06432 207.511 3.85163 207.623 3.66692C207.729 3.47662 207.878 3.3283 208.068 3.22195C208.253 3.11001 208.465 3.05404 208.706 3.05404H213.441C213.682 3.05404 213.894 3.11001 214.079 3.22195C214.269 3.3283 214.418 3.47662 214.524 3.66692C214.636 3.85163 214.692 4.06432 214.692 4.30499V4.32179C214.692 4.56246 214.636 4.77795 214.524 4.96825C214.418 5.15296 214.269 5.30128 214.079 5.41322C213.894 5.51957 213.682 5.57274 213.441 5.57274H208.706C208.465 5.57274 208.253 5.51957 208.068 5.41322C207.878 5.30128 207.729 5.15296 207.623 4.96825C207.511 4.77795 207.455 4.56246 207.455 4.32179V4.30499ZM212.169 4.30499C212.169 4.06432 212.225 3.85163 212.337 3.66692C212.444 3.47662 212.592 3.3283 212.782 3.22195C212.967 3.11001 213.18 3.05404 213.42 3.05404H218.155C218.396 3.05404 218.609 3.11001 218.794 3.22195C218.984 3.3283 219.132 3.47662 219.239 3.66692C219.35 3.85163 219.406 4.06432 219.406 4.30499V4.32179C219.406 4.56246 219.35 4.77795 219.239 4.96825C219.132 5.15296 218.984 5.30128 218.794 5.41322C218.609 5.51957 218.396 5.57274 218.155 5.57274H213.42C213.18 5.57274 212.967 5.51957 212.782 5.41322C212.592 5.30128 212.444 5.15296 212.337 4.96825C212.225 4.77795 212.169 4.56246 212.169 4.32179V4.30499ZM216.884 4.30499C216.884 4.06432 216.94 3.85163 217.052 3.66692C217.158 3.47662 217.306 3.3283 217.497 3.22195C217.681 3.11001 217.894 3.05404 218.135 3.05404H220.553C220.793 3.05404 221.006 3.11001 221.191 3.22195C221.381 3.3283 221.529 3.47662 221.636 3.66692C221.748 3.85163 221.804 4.06432 221.804 4.30499V4.32179C221.804 4.56246 221.748 4.77795 221.636 4.96825C221.529 5.15296 221.381 5.30128 221.191 5.41322C221.006 5.51957 220.793 5.57274 220.553 5.57274H218.135C217.894 5.57274 217.681 5.51957 217.497 5.41322C217.306 5.30128 217.158 5.15296 217.052 4.96825C216.94 4.77795 216.884 4.56246 216.884 4.32179V4.30499ZM219.286 4.30499C219.286 4.06432 219.342 3.85163 219.454 3.66692C219.56 3.47662 219.709 3.3283 219.899 3.22195C220.084 3.11001 220.296 3.05404 220.537 3.05404H225.272C225.513 3.05404 225.725 3.11001 225.91 3.22195C226.1 3.3283 226.249 3.47662 226.355 3.66692C226.467 3.85163 226.523 4.06432 226.523 4.30499V4.32179C226.523 4.56246 226.467 4.77795 226.355 4.96825C226.249 5.15296 226.1 5.30128 225.91 5.41322C225.725 5.51957 225.513 5.57274 225.272 5.57274H220.537C220.296 5.57274 220.084 5.51957 219.899 5.41322C219.709 5.30128 219.56 5.15296 219.454 4.96825C219.342 4.77795 219.286 4.56246 219.286 4.32179V4.30499ZM224 4.30499C224 4.06432 224.056 3.85163 224.168 3.66692C224.275 3.47662 224.423 3.3283 224.613 3.22195C224.798 3.11001 225.011 3.05404 225.251 3.05404H229.986C230.227 3.05404 230.44 3.11001 230.625 3.22195C230.815 3.3283 230.963 3.47662 231.07 3.66692C231.181 3.85163 231.237 4.06432 231.237 4.30499V4.32179C231.237 4.56246 231.181 4.77795 231.07 4.96825C230.963 5.15296 230.815 5.30128 230.625 5.41322C230.44 5.51957 230.227 5.57274 229.986 5.57274H225.251C225.011 5.57274 224.798 5.51957 224.613 5.41322C224.423 5.30128 224.275 5.15296 224.168 4.96825C224.056 4.77795 224 4.56246 224 4.32179V4.30499ZM228.715 4.30499C228.715 4.06432 228.771 3.85163 228.883 3.66692C228.989 3.47662 229.137 3.3283 229.328 3.22195C229.512 3.11001 229.725 3.05404 229.966 3.05404H232.384C232.624 3.05404 232.837 3.11001 233.022 3.22195C233.212 3.3283 233.36 3.47662 233.467 3.66692C233.579 3.85163 233.635 4.06432 233.635 4.30499V4.32179C233.635 4.56246 233.579 4.77795 233.467 4.96825C233.36 5.15296 233.212 5.30128 233.022 5.41322C232.837 5.51957 232.624 5.57274 232.384 5.57274H229.966C229.725 5.57274 229.512 5.51957 229.328 5.41322C229.137 5.30128 228.989 5.15296 228.883 4.96825C228.771 4.77795 228.715 4.56246 228.715 4.32179V4.30499ZM231.117 4.30499C231.117 4.06432 231.173 3.85163 231.285 3.66692C231.391 3.47662 231.54 3.3283 231.73 3.22195C231.915 3.11001 232.127 3.05404 232.368 3.05404H237.103C237.344 3.05404 237.556 3.11001 237.741 3.22195C237.931 3.3283 238.08 3.47662 238.186 3.66692C238.298 3.85163 238.354 4.06432 238.354 4.30499V4.32179C238.354 4.56246 238.298 4.77795 238.186 4.96825C238.08 5.15296 237.931 5.30128 237.741 5.41322C237.556 5.51957 237.344 5.57274 237.103 5.57274H232.368C232.127 5.57274 231.915 5.51957 231.73 5.41322C231.54 5.30128 231.391 5.15296 231.285 4.96825C231.173 4.77795 231.117 4.56246 231.117 4.32179V4.30499ZM235.831 4.30499C235.831 4.06432 235.887 3.85163 235.999 3.66692C236.106 3.47662 236.254 3.3283 236.444 3.22195C236.629 3.11001 236.842 3.05404 237.082 3.05404H239.5C239.741 3.05404 239.954 3.11001 240.138 3.22195C240.329 3.3283 240.477 3.47662 240.583 3.66692C240.695 3.85163 240.751 4.06432 240.751 4.30499V4.32179C240.751 4.56246 240.695 4.77795 240.583 4.96825C240.477 5.15296 240.329 5.30128 240.138 5.41322C239.954 5.51957 239.741 5.57274 239.5 5.57274H237.082C236.842 5.57274 236.629 5.51957 236.444 5.41322C236.254 5.30128 236.106 5.15296 235.999 4.96825C235.887 4.77795 235.831 4.56246 235.831 4.32179V4.30499ZM238.234 4.30499C238.234 4.06432 238.29 3.85163 238.402 3.66692C238.508 3.47662 238.656 3.3283 238.847 3.22195C239.031 3.11001 239.244 3.05404 239.485 3.05404H241.903C242.143 3.05404 242.356 3.11001 242.541 3.22195C242.731 3.3283 242.879 3.47662 242.986 3.66692C243.098 3.85163 243.153 4.06432 243.153 4.30499V4.32179C243.153 4.56246 243.098 4.77795 242.986 4.96825C242.879 5.15296 242.731 5.30128 242.541 5.41322C242.356 5.51957 242.143 5.57274 241.903 5.57274H239.485C239.244 5.57274 239.031 5.51957 238.847 5.41322C238.656 5.30128 238.508 5.15296 238.402 4.96825C238.29 4.77795 238.234 4.56246 238.234 4.32179V4.30499Z"
			fill="#CAD2DF" />
		<rect width="55.3723" height="70.2601" transform="translate(293.128 30.5941)" fill="#EAEEF6" />
		<rect x="299.516" y="36.9931" width="55.1111" height="69.9989" fill="#CAD2DF" />
		<rect x="299.516" y="36.9931" width="55.1111" height="69.9989" stroke="#97A4B9"
			stroke-width="0.26119" />
		<g opacity="0.5">
			<path
				d="M332.334 84.625L325.389 71.8935L330.875 62.75L342.542 84.625H332.334ZM320.667 68.5833L329.417 84.625H311.917L320.667 68.5833ZM317.021 65.6667C315.008 65.6667 313.375 64.0344 313.375 62.0208C313.375 60.0073 315.008 58.375 317.021 58.375C319.035 58.375 320.667 60.0073 320.667 62.0208C320.667 64.0344 319.035 65.6667 317.021 65.6667Z"
				fill="white" />
		</g>
		<rect x="299.652" y="111.74" width="40.905" height="1.75809" rx="0.879047" fill="#D3DBEA" />
		<rect x="299.652" y="115.491" width="36.0995" height="1.75809" rx="0.879047" fill="#D3DBEA" />
		<path
			d="M298.129 23.0611C298.129 22.8204 298.185 22.6077 298.297 22.423C298.404 22.2327 298.552 22.0844 298.742 21.978C298.927 21.8661 299.14 21.8101 299.38 21.8101H304.115C304.356 21.8101 304.569 21.8661 304.753 21.978C304.944 22.0844 305.092 22.2327 305.198 22.423C305.31 22.6077 305.366 22.8204 305.366 23.0611V23.0779C305.366 23.3185 305.31 23.534 305.198 23.7243C305.092 23.909 304.944 24.0574 304.753 24.1693C304.569 24.2756 304.356 24.3288 304.115 24.3288H299.38C299.14 24.3288 298.927 24.2756 298.742 24.1693C298.552 24.0574 298.404 23.909 298.297 23.7243C298.185 23.534 298.129 23.3185 298.129 23.0779V23.0611ZM302.844 23.0611C302.844 22.8204 302.9 22.6077 303.012 22.423C303.118 22.2327 303.266 22.0844 303.457 21.978C303.641 21.8661 303.854 21.8101 304.095 21.8101H308.83C309.07 21.8101 309.283 21.8661 309.468 21.978C309.658 22.0844 309.806 22.2327 309.913 22.423C310.025 22.6077 310.081 22.8204 310.081 23.0611V23.0779C310.081 23.3185 310.025 23.534 309.913 23.7243C309.806 23.909 309.658 24.0574 309.468 24.1693C309.283 24.2756 309.07 24.3288 308.83 24.3288H304.095C303.854 24.3288 303.641 24.2756 303.457 24.1693C303.266 24.0574 303.118 23.909 303.012 23.7243C302.9 23.534 302.844 23.3185 302.844 23.0779V23.0611ZM307.558 23.0611C307.558 22.8204 307.614 22.6077 307.726 22.423C307.832 22.2327 307.981 22.0844 308.171 21.978C308.356 21.8661 308.568 21.8101 308.809 21.8101H313.544C313.785 21.8101 313.998 21.8661 314.182 21.978C314.373 22.0844 314.521 22.2327 314.627 22.423C314.739 22.6077 314.795 22.8204 314.795 23.0611V23.0779C314.795 23.3185 314.739 23.534 314.627 23.7243C314.521 23.909 314.373 24.0574 314.182 24.1693C313.998 24.2756 313.785 24.3288 313.544 24.3288H308.809C308.568 24.3288 308.356 24.2756 308.171 24.1693C307.981 24.0574 307.832 23.909 307.726 23.7243C307.614 23.534 307.558 23.3185 307.558 23.0779V23.0611ZM312.272 23.0611C312.272 22.8204 312.328 22.6077 312.44 22.423C312.547 22.2327 312.695 22.0844 312.885 21.978C313.07 21.8661 313.283 21.8101 313.523 21.8101H315.941C316.182 21.8101 316.395 21.8661 316.579 21.978C316.77 22.0844 316.918 22.2327 317.024 22.423C317.136 22.6077 317.192 22.8204 317.192 23.0611V23.0779C317.192 23.3185 317.136 23.534 317.024 23.7243C316.918 23.909 316.77 24.0574 316.579 24.1693C316.395 24.2756 316.182 24.3288 315.941 24.3288H313.523C313.283 24.3288 313.07 24.2756 312.885 24.1693C312.695 24.0574 312.547 23.909 312.44 23.7243C312.328 23.534 312.272 23.3185 312.272 23.0779V23.0611ZM314.675 23.0611C314.675 22.8204 314.731 22.6077 314.843 22.423C314.949 22.2327 315.097 22.0844 315.288 21.978C315.472 21.8661 315.685 21.8101 315.926 21.8101H320.661C320.901 21.8101 321.114 21.8661 321.299 21.978C321.489 22.0844 321.637 22.2327 321.744 22.423C321.856 22.6077 321.912 22.8204 321.912 23.0611V23.0779C321.912 23.3185 321.856 23.534 321.744 23.7243C321.637 23.909 321.489 24.0574 321.299 24.1693C321.114 24.2756 320.901 24.3288 320.661 24.3288H315.926C315.685 24.3288 315.472 24.2756 315.288 24.1693C315.097 24.0574 314.949 23.909 314.843 23.7243C314.731 23.534 314.675 23.3185 314.675 23.0779V23.0611ZM319.389 23.0611C319.389 22.8204 319.445 22.6077 319.557 22.423C319.663 22.2327 319.812 22.0844 320.002 21.978C320.187 21.8661 320.399 21.8101 320.64 21.8101H325.375C325.616 21.8101 325.828 21.8661 326.013 21.978C326.204 22.0844 326.352 22.2327 326.458 22.423C326.57 22.6077 326.626 22.8204 326.626 23.0611V23.0779C326.626 23.3185 326.57 23.534 326.458 23.7243C326.352 23.909 326.204 24.0574 326.013 24.1693C325.828 24.2756 325.616 24.3288 325.375 24.3288H320.64C320.399 24.3288 320.187 24.2756 320.002 24.1693C319.812 24.0574 319.663 23.909 319.557 23.7243C319.445 23.534 319.389 23.3185 319.389 23.0779V23.0611ZM329.138 23.0611C329.138 22.8204 329.193 22.6077 329.305 22.423C329.412 22.2327 329.56 22.0844 329.75 21.978C329.935 21.8661 330.148 21.8101 330.388 21.8101H335.124C335.364 21.8101 335.577 21.8661 335.762 21.978C335.952 22.0844 336.1 22.2327 336.207 22.423C336.319 22.6077 336.375 22.8204 336.375 23.0611V23.0779C336.375 23.3185 336.319 23.534 336.207 23.7243C336.1 23.909 335.952 24.0574 335.762 24.1693C335.577 24.2756 335.364 24.3288 335.124 24.3288H330.388C330.148 24.3288 329.935 24.2756 329.75 24.1693C329.56 24.0574 329.412 23.909 329.305 23.7243C329.193 23.534 329.138 23.3185 329.138 23.0779V23.0611ZM333.852 23.0611C333.852 22.8204 333.908 22.6077 334.02 22.423C334.126 22.2327 334.274 22.0844 334.465 21.978C334.649 21.8661 334.862 21.8101 335.103 21.8101H339.838C340.079 21.8101 340.291 21.8661 340.476 21.978C340.666 22.0844 340.815 22.2327 340.921 22.423C341.033 22.6077 341.089 22.8204 341.089 23.0611V23.0779C341.089 23.3185 341.033 23.534 340.921 23.7243C340.815 23.909 340.666 24.0574 340.476 24.1693C340.291 24.2756 340.079 24.3288 339.838 24.3288H335.103C334.862 24.3288 334.649 24.2756 334.465 24.1693C334.274 24.0574 334.126 23.909 334.02 23.7243C333.908 23.534 333.852 23.3185 333.852 23.0779V23.0611ZM338.566 23.0611C338.566 22.8204 338.622 22.6077 338.734 22.423C338.84 22.2327 338.989 22.0844 339.179 21.978C339.364 21.8661 339.576 21.8101 339.817 21.8101H342.235C342.476 21.8101 342.688 21.8661 342.873 21.978C343.063 22.0844 343.212 22.2327 343.318 22.423C343.43 22.6077 343.486 22.8204 343.486 23.0611V23.0779C343.486 23.3185 343.43 23.534 343.318 23.7243C343.212 23.909 343.063 24.0574 342.873 24.1693C342.688 24.2756 342.476 24.3288 342.235 24.3288H339.817C339.576 24.3288 339.364 24.2756 339.179 24.1693C338.989 24.0574 338.84 23.909 338.734 23.7243C338.622 23.534 338.566 23.3185 338.566 23.0779V23.0611ZM340.968 23.0611C340.968 22.8204 341.024 22.6077 341.136 22.423C341.243 22.2327 341.391 22.0844 341.581 21.978C341.766 21.8661 341.979 21.8101 342.219 21.8101H346.955C347.195 21.8101 347.408 21.8661 347.593 21.978C347.783 22.0844 347.931 22.2327 348.038 22.423C348.15 22.6077 348.206 22.8204 348.206 23.0611V23.0779C348.206 23.3185 348.15 23.534 348.038 23.7243C347.931 23.909 347.783 24.0574 347.593 24.1693C347.408 24.2756 347.195 24.3288 346.955 24.3288H342.219C341.979 24.3288 341.766 24.2756 341.581 24.1693C341.391 24.0574 341.243 23.909 341.136 23.7243C341.024 23.534 340.968 23.3185 340.968 23.0779V23.0611ZM345.683 23.0611C345.683 22.8204 345.739 22.6077 345.851 22.423C345.957 22.2327 346.105 22.0844 346.296 21.978C346.48 21.8661 346.693 21.8101 346.934 21.8101H349.352C349.592 21.8101 349.805 21.8661 349.99 21.978C350.18 22.0844 350.328 22.2327 350.435 22.423C350.547 22.6077 350.603 22.8204 350.603 23.0611V23.0779C350.603 23.3185 350.547 23.534 350.435 23.7243C350.328 23.909 350.18 24.0574 349.99 24.1693C349.805 24.2756 349.592 24.3288 349.352 24.3288H346.934C346.693 24.3288 346.48 24.2756 346.296 24.1693C346.105 24.0574 345.957 23.909 345.851 23.7243C345.739 23.534 345.683 23.3185 345.683 23.0779V23.0611ZM348.085 23.0611C348.085 22.8204 348.141 22.6077 348.253 22.423C348.359 22.2327 348.508 22.0844 348.698 21.978C348.883 21.8661 349.095 21.8101 349.336 21.8101H351.754C351.995 21.8101 352.207 21.8661 352.392 21.978C352.582 22.0844 352.731 22.2327 352.837 22.423C352.949 22.6077 353.005 22.8204 353.005 23.0611V23.0779C353.005 23.3185 352.949 23.534 352.837 23.7243C352.731 23.909 352.582 24.0574 352.392 24.1693C352.207 24.2756 351.995 24.3288 351.754 24.3288H349.336C349.095 24.3288 348.883 24.2756 348.698 24.1693C348.508 24.0574 348.359 23.909 348.253 23.7243C348.141 23.534 348.085 23.3185 348.085 23.0779V23.0611Z"
			fill="#CAD2DF" />
		<rect width="55.3723" height="70.2601" transform="translate(196.751 122.701)" fill="#EAEEF6" />
		<rect x="203.137" y="129.1" width="55.1111" height="69.9989" fill="#CAD2DF" />
		<rect x="203.137" y="129.1" width="55.1111" height="69.9989" stroke="#97A4B9"
			stroke-width="0.26119" />
		<g opacity="0.5">
			<path
				d="M236.334 176.625L229.389 163.893L234.875 154.75L246.542 176.625H236.334ZM224.667 160.583L233.417 176.625H215.917L224.667 160.583ZM221.021 157.667C219.008 157.667 217.375 156.034 217.375 154.021C217.375 152.007 219.008 150.375 221.021 150.375C223.035 150.375 224.667 152.007 224.667 154.021C224.667 156.034 223.035 157.667 221.021 157.667Z"
				fill="white" />
		</g>
		<path
			d="M201.243 115.294C201.243 115.053 201.299 114.84 201.411 114.656C201.517 114.465 201.665 114.317 201.855 114.211C202.04 114.099 202.253 114.043 202.494 114.043H207.229C207.469 114.043 207.682 114.099 207.867 114.211C208.057 114.317 208.205 114.465 208.312 114.656C208.424 114.84 208.48 115.053 208.48 115.294V115.31C208.48 115.551 208.424 115.767 208.312 115.957C208.205 116.142 208.057 116.29 207.867 116.402C207.682 116.508 207.469 116.561 207.229 116.561H202.494C202.253 116.561 202.04 116.508 201.855 116.402C201.665 116.29 201.517 116.142 201.411 115.957C201.299 115.767 201.243 115.551 201.243 115.31V115.294ZM205.957 115.294C205.957 115.053 206.013 114.84 206.125 114.656C206.231 114.465 206.38 114.317 206.57 114.211C206.755 114.099 206.967 114.043 207.208 114.043H211.943C212.184 114.043 212.396 114.099 212.581 114.211C212.771 114.317 212.92 114.465 213.026 114.656C213.138 114.84 213.194 115.053 213.194 115.294V115.31C213.194 115.551 213.138 115.767 213.026 115.957C212.92 116.142 212.771 116.29 212.581 116.402C212.396 116.508 212.184 116.561 211.943 116.561H207.208C206.967 116.561 206.755 116.508 206.57 116.402C206.38 116.29 206.231 116.142 206.125 115.957C206.013 115.767 205.957 115.551 205.957 115.31V115.294ZM210.671 115.294C210.671 115.053 210.727 114.84 210.839 114.656C210.946 114.465 211.094 114.317 211.284 114.211C211.469 114.099 211.682 114.043 211.922 114.043H216.657C216.898 114.043 217.111 114.099 217.295 114.211C217.486 114.317 217.634 114.465 217.74 114.656C217.852 114.84 217.908 115.053 217.908 115.294V115.31C217.908 115.551 217.852 115.767 217.74 115.957C217.634 116.142 217.486 116.29 217.295 116.402C217.111 116.508 216.898 116.561 216.657 116.561H211.922C211.682 116.561 211.469 116.508 211.284 116.402C211.094 116.29 210.946 116.142 210.839 115.957C210.727 115.767 210.671 115.551 210.671 115.31V115.294ZM215.386 115.294C215.386 115.053 215.442 114.84 215.554 114.656C215.66 114.465 215.808 114.317 215.999 114.211C216.183 114.099 216.396 114.043 216.637 114.043H219.055C219.295 114.043 219.508 114.099 219.693 114.211C219.883 114.317 220.031 114.465 220.138 114.656C220.25 114.84 220.306 115.053 220.306 115.294V115.31C220.306 115.551 220.25 115.767 220.138 115.957C220.031 116.142 219.883 116.29 219.693 116.402C219.508 116.508 219.295 116.561 219.055 116.561H216.637C216.396 116.561 216.183 116.508 215.999 116.402C215.808 116.29 215.66 116.142 215.554 115.957C215.442 115.767 215.386 115.551 215.386 115.31V115.294ZM217.788 115.294C217.788 115.053 217.844 114.84 217.956 114.656C218.062 114.465 218.211 114.317 218.401 114.211C218.586 114.099 218.798 114.043 219.039 114.043H223.774C224.015 114.043 224.227 114.099 224.412 114.211C224.602 114.317 224.751 114.465 224.857 114.656C224.969 114.84 225.025 115.053 225.025 115.294V115.31C225.025 115.551 224.969 115.767 224.857 115.957C224.751 116.142 224.602 116.29 224.412 116.402C224.227 116.508 224.015 116.561 223.774 116.561H219.039C218.798 116.561 218.586 116.508 218.401 116.402C218.211 116.29 218.062 116.142 217.956 115.957C217.844 115.767 217.788 115.551 217.788 115.31V115.294ZM222.502 115.294C222.502 115.053 222.558 114.84 222.67 114.656C222.777 114.465 222.925 114.317 223.115 114.211C223.3 114.099 223.513 114.043 223.753 114.043H228.488C228.729 114.043 228.942 114.099 229.126 114.211C229.317 114.317 229.465 114.465 229.571 114.656C229.683 114.84 229.739 115.053 229.739 115.294V115.31C229.739 115.551 229.683 115.767 229.571 115.957C229.465 116.142 229.317 116.29 229.126 116.402C228.942 116.508 228.729 116.561 228.488 116.561H223.753C223.513 116.561 223.3 116.508 223.115 116.402C222.925 116.29 222.777 116.142 222.67 115.957C222.558 115.767 222.502 115.551 222.502 115.31V115.294ZM232.251 115.294C232.251 115.053 232.307 114.84 232.419 114.656C232.525 114.465 232.673 114.317 232.864 114.211C233.048 114.099 233.261 114.043 233.502 114.043H238.237C238.478 114.043 238.69 114.099 238.875 114.211C239.065 114.317 239.214 114.465 239.32 114.656C239.432 114.84 239.488 115.053 239.488 115.294V115.31C239.488 115.551 239.432 115.767 239.32 115.957C239.214 116.142 239.065 116.29 238.875 116.402C238.69 116.508 238.478 116.561 238.237 116.561H233.502C233.261 116.561 233.048 116.508 232.864 116.402C232.673 116.29 232.525 116.142 232.419 115.957C232.307 115.767 232.251 115.551 232.251 115.31V115.294ZM236.965 115.294C236.965 115.053 237.021 114.84 237.133 114.656C237.239 114.465 237.388 114.317 237.578 114.211C237.763 114.099 237.975 114.043 238.216 114.043H242.951C243.192 114.043 243.405 114.099 243.589 114.211C243.78 114.317 243.928 114.465 244.034 114.656C244.146 114.84 244.202 115.053 244.202 115.294V115.31C244.202 115.551 244.146 115.767 244.034 115.957C243.928 116.142 243.78 116.29 243.589 116.402C243.405 116.508 243.192 116.561 242.951 116.561H238.216C237.975 116.561 237.763 116.508 237.578 116.402C237.388 116.29 237.239 116.142 237.133 115.957C237.021 115.767 236.965 115.551 236.965 115.31V115.294ZM241.68 115.294C241.68 115.053 241.735 114.84 241.847 114.656C241.954 114.465 242.102 114.317 242.292 114.211C242.477 114.099 242.69 114.043 242.93 114.043H245.348C245.589 114.043 245.802 114.099 245.986 114.211C246.177 114.317 246.325 114.465 246.431 114.656C246.543 114.84 246.599 115.053 246.599 115.294V115.31C246.599 115.551 246.543 115.767 246.431 115.957C246.325 116.142 246.177 116.29 245.986 116.402C245.802 116.508 245.589 116.561 245.348 116.561H242.93C242.69 116.561 242.477 116.508 242.292 116.402C242.102 116.29 241.954 116.142 241.847 115.957C241.735 115.767 241.68 115.551 241.68 115.31V115.294ZM244.082 115.294C244.082 115.053 244.138 114.84 244.25 114.656C244.356 114.465 244.504 114.317 244.695 114.211C244.879 114.099 245.092 114.043 245.333 114.043H250.068C250.309 114.043 250.521 114.099 250.706 114.211C250.896 114.317 251.045 114.465 251.151 114.656C251.263 114.84 251.319 115.053 251.319 115.294V115.31C251.319 115.551 251.263 115.767 251.151 115.957C251.045 116.142 250.896 116.29 250.706 116.402C250.521 116.508 250.309 116.561 250.068 116.561H245.333C245.092 116.561 244.879 116.508 244.695 116.402C244.504 116.29 244.356 116.142 244.25 115.957C244.138 115.767 244.082 115.551 244.082 115.31V115.294ZM248.796 115.294C248.796 115.053 248.852 114.84 248.964 114.656C249.07 114.465 249.219 114.317 249.409 114.211C249.594 114.099 249.806 114.043 250.047 114.043H252.465C252.706 114.043 252.918 114.099 253.103 114.211C253.293 114.317 253.442 114.465 253.548 114.656C253.66 114.84 253.716 115.053 253.716 115.294V115.31C253.716 115.551 253.66 115.767 253.548 115.957C253.442 116.142 253.293 116.29 253.103 116.402C252.918 116.508 252.706 116.561 252.465 116.561H250.047C249.806 116.561 249.594 116.508 249.409 116.402C249.219 116.29 249.07 116.142 248.964 115.957C248.852 115.767 248.796 115.551 248.796 115.31V115.294ZM251.198 115.294C251.198 115.053 251.254 114.84 251.366 114.656C251.473 114.465 251.621 114.317 251.811 114.211C251.996 114.099 252.209 114.043 252.449 114.043H254.867C255.108 114.043 255.321 114.099 255.505 114.211C255.696 114.317 255.844 114.465 255.95 114.656C256.062 114.84 256.118 115.053 256.118 115.294V115.31C256.118 115.551 256.062 115.767 255.95 115.957C255.844 116.142 255.696 116.29 255.505 116.402C255.321 116.508 255.108 116.561 254.867 116.561H252.449C252.209 116.561 251.996 116.508 251.811 116.402C251.621 116.29 251.473 116.142 251.366 115.957C251.254 115.767 251.198 115.551 251.198 115.31V115.294Z"
			fill="#CAD2DF" />
		<rect x="202.502" y="203.776" width="40.905" height="1.75809" rx="0.879047" fill="#D3DBEA" />
		<rect x="202.502" y="207.527" width="36.0995" height="1.75809" rx="0.879047" fill="#D3DBEA" />
		<rect width="55.3723" height="54.0663" transform="translate(99.6025 137.421)" fill="#EAEEF6" />
		<rect x="106.389" y="143.866" width="54.9605" height="59.051" fill="#CAD2DF" />
		<rect x="106.389" y="143.866" width="54.9605" height="59.051" stroke="#97A4B9"
			stroke-width="0.26119" />
		<g opacity="0.5">
			<path
				d="M139.334 185.625L132.389 172.893L137.875 163.75L149.542 185.625H139.334ZM127.667 169.583L136.417 185.625H118.917L127.667 169.583ZM124.021 166.667C122.008 166.667 120.375 165.034 120.375 163.021C120.375 161.007 122.008 159.375 124.021 159.375C126.035 159.375 127.667 161.007 127.667 163.021C127.667 165.034 126.035 166.667 124.021 166.667Z"
				fill="white" />
		</g>
		<path
			d="M105.117 129.61C105.117 129.37 105.173 129.157 105.285 128.972C105.391 128.782 105.539 128.634 105.73 128.527C105.914 128.415 106.127 128.359 106.368 128.359H111.103C111.343 128.359 111.556 128.415 111.741 128.527C111.931 128.634 112.079 128.782 112.186 128.972C112.298 129.157 112.354 129.37 112.354 129.61V129.627C112.354 129.868 112.298 130.083 112.186 130.274C112.079 130.458 111.931 130.607 111.741 130.719C111.556 130.825 111.343 130.878 111.103 130.878H106.368C106.127 130.878 105.914 130.825 105.73 130.719C105.539 130.607 105.391 130.458 105.285 130.274C105.173 130.083 105.117 129.868 105.117 129.627V129.61ZM109.831 129.61C109.831 129.37 109.887 129.157 109.999 128.972C110.105 128.782 110.254 128.634 110.444 128.527C110.629 128.415 110.841 128.359 111.082 128.359H115.817C116.058 128.359 116.27 128.415 116.455 128.527C116.645 128.634 116.794 128.782 116.9 128.972C117.012 129.157 117.068 129.37 117.068 129.61V129.627C117.068 129.868 117.012 130.083 116.9 130.274C116.794 130.458 116.645 130.607 116.455 130.719C116.27 130.825 116.058 130.878 115.817 130.878H111.082C110.841 130.878 110.629 130.825 110.444 130.719C110.254 130.607 110.105 130.458 109.999 130.274C109.887 130.083 109.831 129.868 109.831 129.627V129.61ZM114.545 129.61C114.545 129.37 114.601 129.157 114.713 128.972C114.82 128.782 114.968 128.634 115.158 128.527C115.343 128.415 115.556 128.359 115.796 128.359H120.531C120.772 128.359 120.985 128.415 121.17 128.527C121.36 128.634 121.508 128.782 121.614 128.972C121.726 129.157 121.782 129.37 121.782 129.61V129.627C121.782 129.868 121.726 130.083 121.614 130.274C121.508 130.458 121.36 130.607 121.17 130.719C120.985 130.825 120.772 130.878 120.531 130.878H115.796C115.556 130.878 115.343 130.825 115.158 130.719C114.968 130.607 114.82 130.458 114.713 130.274C114.601 130.083 114.545 129.868 114.545 129.627V129.61ZM119.26 129.61C119.26 129.37 119.316 129.157 119.428 128.972C119.534 128.782 119.682 128.634 119.873 128.527C120.057 128.415 120.27 128.359 120.511 128.359H125.246C125.486 128.359 125.699 128.415 125.884 128.527C126.074 128.634 126.223 128.782 126.329 128.972C126.441 129.157 126.497 129.37 126.497 129.61V129.627C126.497 129.868 126.441 130.083 126.329 130.274C126.223 130.458 126.074 130.607 125.884 130.719C125.699 130.825 125.486 130.878 125.246 130.878H120.511C120.27 130.878 120.057 130.825 119.873 130.719C119.682 130.607 119.534 130.458 119.428 130.274C119.316 130.083 119.26 129.868 119.26 129.627V129.61ZM123.974 129.61C123.974 129.37 124.03 129.157 124.142 128.972C124.248 128.782 124.397 128.634 124.587 128.527C124.772 128.415 124.984 128.359 125.225 128.359H129.96C130.201 128.359 130.414 128.415 130.598 128.527C130.789 128.634 130.937 128.782 131.043 128.972C131.155 129.157 131.211 129.37 131.211 129.61V129.627C131.211 129.868 131.155 130.083 131.043 130.274C130.937 130.458 130.789 130.607 130.598 130.719C130.414 130.825 130.201 130.878 129.96 130.878H125.225C124.984 130.878 124.772 130.825 124.587 130.719C124.397 130.607 124.248 130.458 124.142 130.274C124.03 130.083 123.974 129.868 123.974 129.627V129.61ZM128.688 129.61C128.688 129.37 128.744 129.157 128.856 128.972C128.963 128.782 129.111 128.634 129.301 128.527C129.486 128.415 129.699 128.359 129.939 128.359H132.357C132.598 128.359 132.811 128.415 132.995 128.527C133.186 128.634 133.334 128.782 133.44 128.972C133.552 129.157 133.608 129.37 133.608 129.61V129.627C133.608 129.868 133.552 130.083 133.44 130.274C133.334 130.458 133.186 130.607 132.995 130.719C132.811 130.825 132.598 130.878 132.357 130.878H129.939C129.699 130.878 129.486 130.825 129.301 130.719C129.111 130.607 128.963 130.458 128.856 130.274C128.744 130.083 128.688 129.868 128.688 129.627V129.61ZM131.091 129.61C131.091 129.37 131.147 129.157 131.259 128.972C131.365 128.782 131.513 128.634 131.704 128.527C131.888 128.415 132.101 128.359 132.342 128.359H137.077C137.317 128.359 137.53 128.415 137.715 128.527C137.905 128.634 138.053 128.782 138.16 128.972C138.272 129.157 138.328 129.37 138.328 129.61V129.627C138.328 129.868 138.272 130.083 138.16 130.274C138.053 130.458 137.905 130.607 137.715 130.719C137.53 130.825 137.317 130.878 137.077 130.878H132.342C132.101 130.878 131.888 130.825 131.704 130.719C131.513 130.607 131.365 130.458 131.259 130.274C131.147 130.083 131.091 129.868 131.091 129.627V129.61ZM135.805 129.61C135.805 129.37 135.861 129.157 135.973 128.972C136.079 128.782 136.228 128.634 136.418 128.527C136.603 128.415 136.815 128.359 137.056 128.359H139.474C139.715 128.359 139.927 128.415 140.112 128.527C140.302 128.634 140.451 128.782 140.557 128.972C140.669 129.157 140.725 129.37 140.725 129.61V129.627C140.725 129.868 140.669 130.083 140.557 130.274C140.451 130.458 140.302 130.607 140.112 130.719C139.927 130.825 139.715 130.878 139.474 130.878H137.056C136.815 130.878 136.603 130.825 136.418 130.719C136.228 130.607 136.079 130.458 135.973 130.274C135.861 130.083 135.805 129.868 135.805 129.627V129.61ZM138.207 129.61C138.207 129.37 138.263 129.157 138.375 128.972C138.482 128.782 138.63 128.634 138.82 128.527C139.005 128.415 139.218 128.359 139.458 128.359H141.876C142.117 128.359 142.33 128.415 142.514 128.527C142.705 128.634 142.853 128.782 142.959 128.972C143.071 129.157 143.127 129.37 143.127 129.61V129.627C143.127 129.868 143.071 130.083 142.959 130.274C142.853 130.458 142.705 130.607 142.514 130.719C142.33 130.825 142.117 130.878 141.876 130.878H139.458C139.218 130.878 139.005 130.825 138.82 130.719C138.63 130.607 138.482 130.458 138.375 130.274C138.263 130.083 138.207 129.868 138.207 129.627V129.61Z"
			fill="#CAD2DF" />
		<rect x="106.376" y="206.844" width="40.905" height="1.75809" rx="0.879047" fill="#D3DBEA" />
		<rect x="106.376" y="210.595" width="36.0995" height="1.75809" rx="0.879047" fill="#D3DBEA" />
		<rect width="55.2217" height="63.4027" transform="translate(3.99609 138.363)" fill="#EAEEF6" />
		<rect x="10.2624" y="143.607" width="54.9605" height="63.1415" fill="#CAD2DF" />
		<rect x="10.2624" y="143.607" width="54.9605" height="63.1415" stroke="#97A4B9"
			stroke-width="0.26119" />
		<g opacity="0.5">
			<path
				d="M43.3337 187.625L36.3892 174.893L41.8753 165.75L53.542 187.625H43.3337ZM31.667 171.583L40.417 187.625H22.917L31.667 171.583ZM28.0212 168.667C26.0076 168.667 24.3753 167.034 24.3753 165.021C24.3753 163.007 26.0076 161.375 28.0212 161.375C30.0347 161.375 31.667 163.007 31.667 165.021C31.667 167.034 30.0347 168.667 28.0212 168.667Z"
				fill="white" />
		</g>
		<rect x="10.25" y="210.969" width="40.905" height="1.75809" rx="0.879047" fill="#D3DBEA" />
		<rect x="10.25" y="214.72" width="36.0995" height="1.75809" rx="0.879047" fill="#D3DBEA" />
		<path
			d="M8.98967 131.656C8.98967 131.415 9.04565 131.202 9.15759 131.018C9.26393 130.827 9.41226 130.679 9.60256 130.573C9.78726 130.461 9.99995 130.405 10.2406 130.405H14.9758C15.2165 130.405 15.4291 130.461 15.6138 130.573C15.8042 130.679 15.9525 130.827 16.0588 131.018C16.1708 131.202 16.2267 131.415 16.2267 131.656V131.672C16.2267 131.913 16.1708 132.129 16.0588 132.319C15.9525 132.504 15.8042 132.652 15.6138 132.764C15.4291 132.87 15.2165 132.923 14.9758 132.923H10.2406C9.99995 132.923 9.78726 132.87 9.60256 132.764C9.41226 132.652 9.26393 132.504 9.15759 132.319C9.04565 132.129 8.98967 131.913 8.98967 131.672V131.656ZM13.704 131.656C13.704 131.415 13.76 131.202 13.8719 131.018C13.9783 130.827 14.1266 130.679 14.3169 130.573C14.5016 130.461 14.7143 130.405 14.955 130.405H19.6901C19.9308 130.405 20.1435 130.461 20.3282 130.573C20.5185 130.679 20.6668 130.827 20.7732 131.018C20.8851 131.202 20.9411 131.415 20.9411 131.656V131.672C20.9411 131.913 20.8851 132.129 20.7732 132.319C20.6668 132.504 20.5185 132.652 20.3282 132.764C20.1435 132.87 19.9308 132.923 19.6901 132.923H14.955C14.7143 132.923 14.5016 132.87 14.3169 132.764C14.1266 132.652 13.9783 132.504 13.8719 132.319C13.76 132.129 13.704 131.913 13.704 131.672V131.656ZM18.4184 131.656C18.4184 131.415 18.4744 131.202 18.5863 131.018C18.6926 130.827 18.841 130.679 19.0313 130.573C19.216 130.461 19.4287 130.405 19.6693 130.405H24.4045C24.6452 130.405 24.8579 130.461 25.0426 130.573C25.2329 130.679 25.3812 130.827 25.4875 131.018C25.5995 131.202 25.6554 131.415 25.6554 131.656V131.672C25.6554 131.913 25.5995 132.129 25.4875 132.319C25.3812 132.504 25.2329 132.652 25.0426 132.764C24.8579 132.87 24.6452 132.923 24.4045 132.923H19.6693C19.4287 132.923 19.216 132.87 19.0313 132.764C18.841 132.652 18.6926 132.504 18.5863 132.319C18.4744 132.129 18.4184 131.913 18.4184 131.672V131.656ZM23.1327 131.656C23.1327 131.415 23.1887 131.202 23.3007 131.018C23.407 130.827 23.5553 130.679 23.7456 130.573C23.9303 130.461 24.143 130.405 24.3837 130.405H29.1189C29.3595 130.405 29.5722 130.461 29.7569 130.573C29.9472 130.679 30.0955 130.827 30.2019 131.018C30.3138 131.202 30.3698 131.415 30.3698 131.656V131.672C30.3698 131.913 30.3138 132.129 30.2019 132.319C30.0955 132.504 29.9472 132.652 29.7569 132.764C29.5722 132.87 29.3595 132.923 29.1189 132.923H24.3837C24.143 132.923 23.9303 132.87 23.7456 132.764C23.5553 132.652 23.407 132.504 23.3007 132.319C23.1887 132.129 23.1327 131.913 23.1327 131.672V131.656ZM27.8471 131.656C27.8471 131.415 27.9031 131.202 28.015 131.018C28.1214 130.827 28.2697 130.679 28.46 130.573C28.6447 130.461 28.8574 130.405 29.0981 130.405H33.8332C34.0739 130.405 34.2866 130.461 34.4713 130.573C34.6616 130.679 34.8099 130.827 34.9163 131.018C35.0282 131.202 35.0842 131.415 35.0842 131.656V131.672C35.0842 131.913 35.0282 132.129 34.9163 132.319C34.8099 132.504 34.6616 132.652 34.4713 132.764C34.2866 132.87 34.0739 132.923 33.8332 132.923H29.0981C28.8574 132.923 28.6447 132.87 28.46 132.764C28.2697 132.652 28.1214 132.504 28.015 132.319C27.9031 132.129 27.8471 131.913 27.8471 131.672V131.656ZM32.5615 131.656C32.5615 131.415 32.6174 131.202 32.7294 131.018C32.8357 130.827 32.984 130.679 33.1744 130.573C33.3591 130.461 33.5717 130.405 33.8124 130.405H36.2304C36.471 130.405 36.6837 130.461 36.8684 130.573C37.0587 130.679 37.2071 130.827 37.3134 131.018C37.4254 131.202 37.4813 131.415 37.4813 131.656V131.672C37.4813 131.913 37.4254 132.129 37.3134 132.319C37.2071 132.504 37.0587 132.652 36.8684 132.764C36.6837 132.87 36.471 132.923 36.2304 132.923H33.8124C33.5717 132.923 33.3591 132.87 33.1744 132.764C32.984 132.652 32.8357 132.504 32.7294 132.319C32.6174 132.129 32.5615 131.913 32.5615 131.672V131.656ZM34.9637 131.656C34.9637 131.415 35.0197 131.202 35.1317 131.018C35.238 130.827 35.3863 130.679 35.5766 130.573C35.7613 130.461 35.974 130.405 36.2147 130.405H40.9498C41.1905 130.405 41.4032 130.461 41.5879 130.573C41.7782 130.679 41.9265 130.827 42.0329 131.018C42.1448 131.202 42.2008 131.415 42.2008 131.656V131.672C42.2008 131.913 42.1448 132.129 42.0329 132.319C41.9265 132.504 41.7782 132.652 41.5879 132.764C41.4032 132.87 41.1905 132.923 40.9498 132.923H36.2147C35.974 132.923 35.7613 132.87 35.5766 132.764C35.3863 132.652 35.238 132.504 35.1317 132.319C35.0197 132.129 34.9637 131.913 34.9637 131.672V131.656ZM39.6781 131.656C39.6781 131.415 39.7341 131.202 39.846 131.018C39.9524 130.827 40.1007 130.679 40.291 130.573C40.4757 130.461 40.6884 130.405 40.9291 130.405H43.347C43.5877 130.405 43.8004 130.461 43.9851 130.573C44.1754 130.679 44.3237 130.827 44.43 131.018C44.542 131.202 44.598 131.415 44.598 131.656V131.672C44.598 131.913 44.542 132.129 44.43 132.319C44.3237 132.504 44.1754 132.652 43.9851 132.764C43.8004 132.87 43.5877 132.923 43.347 132.923H40.9291C40.6884 132.923 40.4757 132.87 40.291 132.764C40.1007 132.652 39.9524 132.504 39.846 132.319C39.7341 132.129 39.6781 131.913 39.6781 131.672V131.656ZM42.0804 131.656C42.0804 131.415 42.1363 131.202 42.2483 131.018C42.3546 130.827 42.503 130.679 42.6933 130.573C42.878 130.461 43.0907 130.405 43.3313 130.405H45.7493C45.99 130.405 46.2026 130.461 46.3873 130.573C46.5776 130.679 46.726 130.827 46.8323 131.018C46.9443 131.202 47.0002 131.415 47.0002 131.656V131.672C47.0002 131.913 46.9443 132.129 46.8323 132.319C46.726 132.504 46.5776 132.652 46.3873 132.764C46.2026 132.87 45.99 132.923 45.7493 132.923H43.3313C43.0907 132.923 42.878 132.87 42.6933 132.764C42.503 132.652 42.3546 132.504 42.2483 132.319C42.1363 132.129 42.0804 131.913 42.0804 131.672V131.656Z"
			fill="#CAD2DF" />
		<rect width="55.3723" height="54.0663" transform="translate(293.128 137.42)" fill="#EAEEF6" />
		<rect x="299.515" y="143.82" width="55.1111" height="53.8051" fill="#CAD2DF" />
		<rect x="299.515" y="143.82" width="55.1111" height="53.8051" stroke="#97A4B9"
			stroke-width="0.26119" />
		<g opacity="0.5">
			<path
				d="M332.334 183.625L325.389 170.893L330.875 161.75L342.542 183.625H332.334ZM320.667 167.583L329.417 183.625H311.917L320.667 167.583ZM317.021 164.667C315.008 164.667 313.375 163.034 313.375 161.021C313.375 159.007 315.008 157.375 317.021 157.375C319.035 157.375 320.667 159.007 320.667 161.021C320.667 163.034 319.035 164.667 317.021 164.667Z"
				fill="white" />
		</g>
		<path
			d="M298.392 130.633C298.392 130.392 298.448 130.18 298.56 129.995C298.666 129.805 298.815 129.656 299.005 129.55C299.19 129.438 299.402 129.382 299.643 129.382H304.378C304.619 129.382 304.831 129.438 305.016 129.55C305.206 129.656 305.355 129.805 305.461 129.995C305.573 130.18 305.629 130.392 305.629 130.633V130.65C305.629 130.891 305.573 131.106 305.461 131.296C305.355 131.481 305.206 131.629 305.016 131.741C304.831 131.848 304.619 131.901 304.378 131.901H299.643C299.402 131.901 299.19 131.848 299.005 131.741C298.815 131.629 298.666 131.481 298.56 131.296C298.448 131.106 298.392 130.891 298.392 130.65V130.633ZM303.106 130.633C303.106 130.392 303.162 130.18 303.274 129.995C303.381 129.805 303.529 129.656 303.719 129.55C303.904 129.438 304.117 129.382 304.357 129.382H309.092C309.333 129.382 309.546 129.438 309.731 129.55C309.921 129.656 310.069 129.805 310.176 129.995C310.287 130.18 310.343 130.392 310.343 130.633V130.65C310.343 130.891 310.287 131.106 310.176 131.296C310.069 131.481 309.921 131.629 309.731 131.741C309.546 131.848 309.333 131.901 309.092 131.901H304.357C304.117 131.901 303.904 131.848 303.719 131.741C303.529 131.629 303.381 131.481 303.274 131.296C303.162 131.106 303.106 130.891 303.106 130.65V130.633ZM307.821 130.633C307.821 130.392 307.877 130.18 307.989 129.995C308.095 129.805 308.243 129.656 308.434 129.55C308.618 129.438 308.831 129.382 309.072 129.382H313.807C314.048 129.382 314.26 129.438 314.445 129.55C314.635 129.656 314.784 129.805 314.89 129.995C315.002 130.18 315.058 130.392 315.058 130.633V130.65C315.058 130.891 315.002 131.106 314.89 131.296C314.784 131.481 314.635 131.629 314.445 131.741C314.26 131.848 314.048 131.901 313.807 131.901H309.072C308.831 131.901 308.618 131.848 308.434 131.741C308.243 131.629 308.095 131.481 307.989 131.296C307.877 131.106 307.821 130.891 307.821 130.65V130.633ZM312.535 130.633C312.535 130.392 312.591 130.18 312.703 129.995C312.809 129.805 312.958 129.656 313.148 129.55C313.333 129.438 313.545 129.382 313.786 129.382H316.204C316.445 129.382 316.657 129.438 316.842 129.55C317.032 129.656 317.181 129.805 317.287 129.995C317.399 130.18 317.455 130.392 317.455 130.633V130.65C317.455 130.891 317.399 131.106 317.287 131.296C317.181 131.481 317.032 131.629 316.842 131.741C316.657 131.848 316.445 131.901 316.204 131.901H313.786C313.545 131.901 313.333 131.848 313.148 131.741C312.958 131.629 312.809 131.481 312.703 131.296C312.591 131.106 312.535 130.891 312.535 130.65V130.633ZM314.937 130.633C314.937 130.392 314.993 130.18 315.105 129.995C315.212 129.805 315.36 129.656 315.55 129.55C315.735 129.438 315.948 129.382 316.188 129.382H320.923C321.164 129.382 321.377 129.438 321.562 129.55C321.752 129.656 321.9 129.805 322.007 129.995C322.118 130.18 322.174 130.392 322.174 130.633V130.65C322.174 130.891 322.118 131.106 322.007 131.296C321.9 131.481 321.752 131.629 321.562 131.741C321.377 131.848 321.164 131.901 320.923 131.901H316.188C315.948 131.901 315.735 131.848 315.55 131.741C315.36 131.629 315.212 131.481 315.105 131.296C314.993 131.106 314.937 130.891 314.937 130.65V130.633ZM319.652 130.633C319.652 130.392 319.708 130.18 319.82 129.995C319.926 129.805 320.074 129.656 320.265 129.55C320.449 129.438 320.662 129.382 320.903 129.382H325.638C325.879 129.382 326.091 129.438 326.276 129.55C326.466 129.656 326.615 129.805 326.721 129.995C326.833 130.18 326.889 130.392 326.889 130.633V130.65C326.889 130.891 326.833 131.106 326.721 131.296C326.615 131.481 326.466 131.629 326.276 131.741C326.091 131.848 325.879 131.901 325.638 131.901H320.903C320.662 131.901 320.449 131.848 320.265 131.741C320.074 131.629 319.926 131.481 319.82 131.296C319.708 131.106 319.652 130.891 319.652 130.65V130.633ZM324.366 130.633C324.366 130.392 324.422 130.18 324.534 129.995C324.64 129.805 324.789 129.656 324.979 129.55C325.164 129.438 325.376 129.382 325.617 129.382H328.035C328.276 129.382 328.488 129.438 328.673 129.55C328.863 129.656 329.012 129.805 329.118 129.995C329.23 130.18 329.286 130.392 329.286 130.633V130.65C329.286 130.891 329.23 131.106 329.118 131.296C329.012 131.481 328.863 131.629 328.673 131.741C328.488 131.848 328.276 131.901 328.035 131.901H325.617C325.376 131.901 325.164 131.848 324.979 131.741C324.789 131.629 324.64 131.481 324.534 131.296C324.422 131.106 324.366 130.891 324.366 130.65V130.633ZM326.768 130.633C326.768 130.392 326.824 130.18 326.936 129.995C327.043 129.805 327.191 129.656 327.381 129.55C327.566 129.438 327.779 129.382 328.019 129.382H332.754C332.995 129.382 333.208 129.438 333.393 129.55C333.583 129.656 333.731 129.805 333.838 129.995C333.949 130.18 334.005 130.392 334.005 130.633V130.65C334.005 130.891 333.949 131.106 333.838 131.296C333.731 131.481 333.583 131.629 333.393 131.741C333.208 131.848 332.995 131.901 332.754 131.901H328.019C327.779 131.901 327.566 131.848 327.381 131.741C327.191 131.629 327.043 131.481 326.936 131.296C326.824 131.106 326.768 130.891 326.768 130.65V130.633ZM331.483 130.633C331.483 130.392 331.539 130.18 331.651 129.995C331.757 129.805 331.905 129.656 332.096 129.55C332.28 129.438 332.493 129.382 332.734 129.382H335.152C335.392 129.382 335.605 129.438 335.79 129.55C335.98 129.656 336.128 129.805 336.235 129.995C336.347 130.18 336.403 130.392 336.403 130.633V130.65C336.403 130.891 336.347 131.106 336.235 131.296C336.128 131.481 335.98 131.629 335.79 131.741C335.605 131.848 335.392 131.901 335.152 131.901H332.734C332.493 131.901 332.28 131.848 332.096 131.741C331.905 131.629 331.757 131.481 331.651 131.296C331.539 131.106 331.483 130.891 331.483 130.65V130.633ZM333.885 130.633C333.885 130.392 333.941 130.18 334.053 129.995C334.159 129.805 334.308 129.656 334.498 129.55C334.683 129.438 334.895 129.382 335.136 129.382H337.554C337.795 129.382 338.007 129.438 338.192 129.55C338.382 129.656 338.531 129.805 338.637 129.995C338.749 130.18 338.805 130.392 338.805 130.633V130.65C338.805 130.891 338.749 131.106 338.637 131.296C338.531 131.481 338.382 131.629 338.192 131.741C338.007 131.848 337.795 131.901 337.554 131.901H335.136C334.895 131.901 334.683 131.848 334.498 131.741C334.308 131.629 334.159 131.481 334.053 131.296C333.941 131.106 333.885 130.891 333.885 130.65V130.633Z"
			fill="#CAD2DF" />
		<rect x="299.651" y="201.731" width="40.905" height="1.75809" rx="0.879047" fill="#D3DBEA" />
		<rect x="299.651" y="205.482" width="36.0995" height="1.75809" rx="0.879047" fill="#D3DBEA" />
	</g>
	<defs>
		<clipPath id="clip0_3212_117">
			<rect width="370" height="222" fill="white" />
		</clipPath>
	</defs>
</svg>
