<svg width="32" height="32" viewBox="0 0 32 32" fill="none" xmlns="http://www.w3.org/2000/svg">
	<path d="M1.06665 26.5118C1.06665 27.8035 2.07591 28.8 3.38421 28.8H28.6158C29.9241 28.8 30.9333 27.8035 30.9333 26.5118V6.02153C30.9333 4.72981 29.9241 3.73334 28.6158 3.73334H3.38421C2.07591 3.73334 1.06665 4.72981 1.06665 6.02153V26.5118ZM2.30019 6.02153C2.30019 5.43103 2.82351 4.80362 3.53373 4.80362H28.7279C29.326 4.80362 29.9614 5.32031 29.9614 6.02153V26.5118C29.9614 27.1023 29.4381 27.7297 28.7279 27.7297H3.38421C2.78613 27.7297 2.15067 27.213 2.15067 26.5118L2.30019 6.02153Z" fill="#6C3BFF"/>
	<path fill-rule="evenodd" clip-rule="evenodd" d="M14.6806 7.07727C14.8058 7.16749 14.88 7.31237 14.88 7.46667C14.88 7.76371 14.998 8.04859 15.208 8.25863C15.4181 8.46867 15.7029 8.58667 16 8.58667C16.297 8.58667 16.5819 8.46867 16.7919 8.25863C17.002 8.04859 17.12 7.76371 17.12 7.46667C17.12 7.31237 17.1941 7.16749 17.3193 7.07727C17.4445 6.98705 17.6054 6.96251 17.7518 7.0113L20.9518 8.07797C21.1478 8.1433 21.28 8.32673 21.28 8.53333V11.2C21.28 11.4651 21.0651 11.68 20.8 11.68H19.68V16C19.68 16.2688 19.5732 16.5265 19.3832 16.7165C19.1931 16.9066 18.9354 17.0133 18.6666 17.0133H13.3333C13.0646 17.0133 12.8068 16.9066 12.6168 16.7165C12.4267 16.5265 12.32 16.2688 12.32 16V11.68H11.2C10.9349 11.68 10.72 11.4651 10.72 11.2V8.53333C10.72 8.32673 10.8522 8.1433 11.0482 8.07797L14.2482 7.0113C14.3946 6.96251 14.5555 6.98705 14.6806 7.07727ZM11.68 8.8793V10.72H12.8C13.0651 10.72 13.28 10.9349 13.28 11.2V16C13.28 16.0141 13.2856 16.0277 13.2956 16.0377C13.3056 16.0477 13.3192 16.0533 13.3333 16.0533H18.6666C18.6808 16.0533 18.6943 16.0477 18.7044 16.0377C18.7144 16.0277 18.72 16.0141 18.72 16V11.2C18.72 10.9349 18.9349 10.72 19.2 10.72H20.32V8.8793L17.9813 8.09974C17.8812 8.41282 17.7075 8.70073 17.4708 8.93745C17.0807 9.32753 16.5516 9.54667 16 9.54667C15.4483 9.54667 14.9193 9.32753 14.5292 8.93745C14.2925 8.70073 14.1187 8.41282 14.0187 8.09974L11.68 8.8793Z" fill="#6C3BFF"/>
	<path fill-rule="evenodd" clip-rule="evenodd" d="M1.65332 19.4667C1.65332 19.2016 1.86822 18.9867 2.13332 18.9867H30.1333C30.3984 18.9867 30.6133 19.2016 30.6133 19.4667C30.6133 19.7318 30.3984 19.9467 30.1333 19.9467H2.13332C1.86822 19.9467 1.65332 19.7318 1.65332 19.4667Z" fill="#6C3BFF"/>
	<path fill-rule="evenodd" clip-rule="evenodd" d="M5.60003 22.8333C5.57289 22.8798 5.54043 22.9376 5.49995 23.0103L5.45626 23.0886C5.45314 23.0942 5.44982 23.1003 5.44628 23.1068C5.41118 23.1709 5.35477 23.2739 5.26084 23.3453C5.16498 23.418 5.04964 23.4431 4.98012 23.4583C4.97319 23.4598 4.96672 23.4612 4.96076 23.4625L4.87592 23.4817C4.79262 23.5006 4.72562 23.5157 4.66871 23.5303C4.66574 23.5311 4.66282 23.5318 4.65996 23.5325C4.69706 23.579 4.7469 23.6377 4.81391 23.716L4.87175 23.7837C4.87589 23.7885 4.88037 23.7937 4.8851 23.7991C4.93326 23.8546 5.00878 23.9417 5.04371 24.054C5.07823 24.165 5.06636 24.2794 5.05865 24.3537C5.05789 24.361 5.05717 24.368 5.05653 24.3745L5.04779 24.4648C5.03857 24.5599 5.03165 24.6335 5.02752 24.6919C5.07881 24.6697 5.13778 24.6426 5.20962 24.6095L5.28906 24.5729C5.29461 24.5704 5.30064 24.5675 5.30712 24.5645C5.37123 24.5343 5.4794 24.4833 5.60003 24.4833C5.72066 24.4833 5.82882 24.5343 5.89293 24.5645C5.89941 24.5675 5.90545 24.5704 5.911 24.5729L5.78306 24.8508L5.911 24.5729L5.99044 24.6095C6.06228 24.6426 6.12125 24.6697 6.17254 24.6919C6.16841 24.6335 6.16148 24.5599 6.15227 24.4648L6.14352 24.3745C6.14289 24.368 6.14217 24.361 6.1414 24.3537C6.1337 24.2794 6.12183 24.165 6.15635 24.054C6.19127 23.9417 6.26679 23.8546 6.31495 23.7991C6.31969 23.7937 6.32416 23.7885 6.3283 23.7837L6.38615 23.716C6.45315 23.6377 6.503 23.579 6.5401 23.5325C6.53723 23.5318 6.53431 23.5311 6.53134 23.5303C6.47443 23.5157 6.40743 23.5006 6.32414 23.4817L6.23929 23.4625C6.23334 23.4612 6.22686 23.4598 6.21994 23.4583C6.15042 23.4431 6.03507 23.418 5.93921 23.3453C5.84528 23.2739 5.78887 23.1709 5.75377 23.1068C5.75024 23.1003 5.74691 23.0942 5.74379 23.0886L5.7001 23.0103C5.65962 22.9376 5.62717 22.8798 5.60003 22.8333ZM5.17217 22.3191C5.24794 22.2201 5.38344 22.08 5.60003 22.08C5.81661 22.08 5.95211 22.2201 6.02789 22.3191C6.10031 22.4136 6.17342 22.5449 6.24908 22.6806C6.25242 22.6866 6.25576 22.6926 6.25911 22.6986L6.3028 22.777C6.31434 22.7977 6.32313 22.8135 6.33084 22.8269C6.34433 22.8301 6.36011 22.8337 6.38053 22.8383L6.46537 22.8575C6.47215 22.859 6.47893 22.8606 6.48571 22.8621C6.63189 22.8951 6.77575 22.9276 6.88591 22.9711C7.00721 23.0189 7.16894 23.1109 7.23127 23.3113C7.29252 23.5083 7.21549 23.6756 7.14681 23.7847C7.0831 23.8859 6.98605 23.9993 6.88577 24.1165C6.88137 24.1217 6.87696 24.1268 6.87255 24.132L6.65823 23.9487L6.87255 24.132L6.8147 24.1996C6.79836 24.2187 6.78622 24.2329 6.776 24.2453C6.77549 24.2459 6.77499 24.2465 6.7745 24.2471C6.77462 24.2486 6.77475 24.2502 6.77489 24.2518C6.77623 24.2683 6.77807 24.2873 6.78054 24.3128L6.78928 24.4031C6.78993 24.4098 6.79058 24.4165 6.79123 24.4231C6.80647 24.5801 6.82106 24.7303 6.81572 24.8503C6.81012 24.9759 6.78006 25.1626 6.61283 25.2896C6.44037 25.4205 6.24961 25.3924 6.12668 25.3571C6.01314 25.3246 5.87865 25.2626 5.74187 25.1996C5.73551 25.1967 5.72914 25.1938 5.72277 25.1908L5.85616 24.9011L5.72277 25.1908L5.64333 25.1542C5.62588 25.1462 5.61201 25.1398 5.60003 25.1344C5.58804 25.1398 5.57417 25.1462 5.55673 25.1542L5.47728 25.1908C5.47091 25.1938 5.46455 25.1967 5.45819 25.1996C5.3214 25.2626 5.18691 25.3246 5.07338 25.3571C4.95045 25.3924 4.75968 25.4205 4.58723 25.2896C4.41999 25.1626 4.38993 24.9759 4.38434 24.8503C4.37899 24.7303 4.39359 24.5801 4.40882 24.4232C4.40947 24.4165 4.41012 24.4098 4.41077 24.4031L4.41952 24.3128C4.42198 24.2873 4.42383 24.2683 4.42517 24.2518C4.4253 24.2502 4.42543 24.2486 4.42555 24.2471C4.42506 24.2465 4.42456 24.2459 4.42405 24.2453C4.41383 24.2329 4.4017 24.2187 4.38535 24.1996L4.32751 24.132C4.3231 24.1268 4.31869 24.1217 4.31429 24.1165C4.21401 23.9993 4.11695 23.8859 4.05325 23.7847C3.98457 23.6756 3.90754 23.5083 3.96878 23.3113C4.03111 23.1109 4.19285 23.0189 4.31414 22.9711C4.4243 22.9276 4.56817 22.8951 4.71435 22.8621C4.72112 22.8606 4.7279 22.859 4.73468 22.8575L4.81953 22.8383C4.83994 22.8337 4.85573 22.8301 4.86921 22.8269C4.87692 22.8135 4.88572 22.7977 4.89725 22.777L4.94094 22.6986C4.94429 22.6926 4.94764 22.6866 4.95098 22.6806C5.02663 22.5449 5.09974 22.4136 5.17217 22.3191Z" fill="#6C3BFF"/>
	<path fill-rule="evenodd" clip-rule="evenodd" d="M9.86669 22.8333C9.83955 22.8798 9.80709 22.9376 9.76662 23.0103L9.72292 23.0886C9.7198 23.0942 9.71648 23.1003 9.71294 23.1068C9.67784 23.1709 9.62143 23.2739 9.5275 23.3453C9.43164 23.418 9.3163 23.4431 9.24678 23.4583C9.23985 23.4598 9.23338 23.4612 9.22743 23.4625L9.14258 23.4817C9.05929 23.5006 8.99228 23.5157 8.93537 23.5303C8.9324 23.5311 8.92949 23.5318 8.92662 23.5325C8.96372 23.579 9.01356 23.6377 9.08057 23.716L9.13841 23.7837C9.14256 23.7885 9.14703 23.7937 9.15177 23.7991C9.19992 23.8546 9.27545 23.9417 9.31037 24.054C9.34489 24.165 9.33302 24.2794 9.32531 24.3537C9.32455 24.361 9.32383 24.368 9.3232 24.3745L9.31445 24.4648C9.30523 24.5599 9.29831 24.6335 9.29418 24.6919C9.34547 24.6697 9.40444 24.6426 9.47628 24.6095L9.55572 24.5729C9.56127 24.5704 9.5673 24.5675 9.57379 24.5645C9.63789 24.5343 9.74606 24.4833 9.86669 24.4833C9.98732 24.4833 10.0955 24.5343 10.1596 24.5645C10.1661 24.5675 10.1721 24.5704 10.1777 24.5729L10.0497 24.8508L10.1777 24.5729L10.2571 24.6095C10.3289 24.6426 10.3879 24.6697 10.4392 24.6919C10.4351 24.6335 10.4281 24.5599 10.4189 24.4648L10.4102 24.3745C10.4096 24.368 10.4088 24.361 10.4081 24.3537C10.4004 24.2794 10.3885 24.165 10.423 24.054C10.4579 23.9417 10.5335 23.8546 10.5816 23.7991C10.5864 23.7937 10.5908 23.7885 10.595 23.7837L10.6528 23.716C10.7198 23.6377 10.7697 23.579 10.8068 23.5325C10.8039 23.5318 10.801 23.5311 10.798 23.5303C10.7411 23.5157 10.6741 23.5006 10.5908 23.4817L10.506 23.4625C10.5 23.4612 10.4935 23.4598 10.4866 23.4583C10.4171 23.4431 10.3017 23.418 10.2059 23.3453C10.1119 23.2739 10.0555 23.1709 10.0204 23.1068C10.0169 23.1003 10.0136 23.0942 10.0105 23.0886L9.96676 23.0103C9.92628 22.9376 9.89383 22.8798 9.86669 22.8333ZM9.43883 22.3191C9.51461 22.2201 9.65011 22.08 9.86669 22.08C10.0833 22.08 10.2188 22.2201 10.2945 22.3191C10.367 22.4136 10.4401 22.5449 10.5157 22.6806C10.5191 22.6866 10.5224 22.6926 10.5258 22.6986L10.5695 22.777C10.581 22.7977 10.5898 22.8135 10.5975 22.8269C10.611 22.8301 10.6268 22.8337 10.6472 22.8383L10.732 22.8575C10.7388 22.859 10.7456 22.8606 10.7524 22.8621C10.8985 22.8951 11.0424 22.9276 11.1526 22.9711C11.2739 23.0189 11.4356 23.1109 11.4979 23.3113C11.5592 23.5083 11.4821 23.6756 11.4135 23.7847C11.3498 23.8859 11.2527 23.9993 11.1524 24.1165C11.148 24.1217 11.1436 24.1268 11.1392 24.132L10.9249 23.9487L11.1392 24.132L11.0814 24.1996C11.065 24.2187 11.0529 24.2329 11.0427 24.2453C11.0422 24.2459 11.0417 24.2465 11.0412 24.2471C11.0413 24.2486 11.0414 24.2502 11.0415 24.2518C11.0429 24.2683 11.0447 24.2873 11.0472 24.3128L11.0559 24.4031C11.0566 24.4098 11.0572 24.4165 11.0579 24.4231C11.0731 24.5801 11.0877 24.7303 11.0824 24.8503C11.0768 24.9759 11.0467 25.1626 10.8795 25.2896C10.707 25.4205 10.5163 25.3924 10.3933 25.3571C10.2798 25.3246 10.1453 25.2626 10.0085 25.1996C10.0022 25.1967 9.9958 25.1938 9.98943 25.1908L10.1228 24.9011L9.98943 25.1908L9.90999 25.1542C9.89254 25.1462 9.87868 25.1398 9.86669 25.1344C9.8547 25.1398 9.84084 25.1462 9.82339 25.1542L9.74395 25.1908C9.73758 25.1938 9.73121 25.1967 9.72485 25.1996C9.58807 25.2626 9.45358 25.3246 9.34004 25.3571C9.21711 25.3924 9.02635 25.4205 8.85389 25.2896C8.68666 25.1626 8.65659 24.9759 8.651 24.8503C8.64566 24.7303 8.66025 24.5801 8.67548 24.4232C8.67613 24.4165 8.67678 24.4098 8.67743 24.4031L8.68618 24.3128C8.68865 24.2873 8.69049 24.2683 8.69183 24.2518C8.69197 24.2502 8.69209 24.2486 8.69221 24.2471C8.69172 24.2465 8.69122 24.2459 8.69071 24.2453C8.68049 24.2329 8.66836 24.2187 8.65201 24.1996L8.59417 24.132C8.58976 24.1268 8.58535 24.1217 8.58095 24.1165C8.48067 23.9993 8.38362 23.8859 8.31991 23.7847C8.25123 23.6756 8.1742 23.5083 8.23545 23.3113C8.29778 23.1109 8.45951 23.0189 8.58081 22.9711C8.69097 22.9276 8.83483 22.8951 8.98101 22.8621C8.98778 22.8606 8.99456 22.859 9.00134 22.8575L9.08619 22.8383C9.1066 22.8337 9.12239 22.8301 9.13587 22.8269C9.14359 22.8135 9.15238 22.7977 9.16391 22.777L9.20761 22.6986C9.21095 22.6926 9.2143 22.6866 9.21764 22.6806C9.29329 22.5449 9.36641 22.4136 9.43883 22.3191Z" fill="#6C3BFF"/>
	<path fill-rule="evenodd" clip-rule="evenodd" d="M14.1334 22.8333C14.1062 22.8798 14.0738 22.9376 14.0333 23.0103L13.9896 23.0886C13.9865 23.0942 13.9831 23.1003 13.9796 23.1068C13.9445 23.1709 13.8881 23.2739 13.7942 23.3453C13.6983 23.418 13.583 23.4431 13.5134 23.4583C13.5065 23.4598 13.5 23.4612 13.4941 23.4625L13.4092 23.4817C13.3259 23.5006 13.2589 23.5157 13.202 23.5303C13.1991 23.5311 13.1961 23.5318 13.1933 23.5325C13.2304 23.579 13.2802 23.6377 13.3472 23.716L13.4051 23.7837C13.4092 23.7885 13.4137 23.7937 13.4184 23.7991C13.4666 23.8546 13.5421 23.9417 13.577 24.054C13.6116 24.165 13.5997 24.2794 13.592 24.3537C13.5912 24.361 13.5905 24.368 13.5899 24.3745L13.5811 24.4648C13.5719 24.5599 13.565 24.6335 13.5608 24.6919C13.6121 24.6697 13.6711 24.6426 13.7429 24.6095L13.8224 24.5729C13.8279 24.5704 13.834 24.5675 13.8404 24.5645C13.9046 24.5343 14.0127 24.4833 14.1334 24.4833C14.254 24.4833 14.3621 24.5343 14.4263 24.5645C14.4327 24.5675 14.4388 24.5704 14.4443 24.5729L14.3164 24.8508L14.4443 24.5729L14.5238 24.6095C14.5956 24.6426 14.6546 24.6697 14.7059 24.6919C14.7017 24.6335 14.6948 24.5599 14.6856 24.4648L14.6768 24.3745C14.6762 24.368 14.6755 24.361 14.6747 24.3537C14.667 24.2794 14.6552 24.165 14.6897 24.054C14.7246 23.9417 14.8001 23.8546 14.8483 23.7991C14.853 23.7937 14.8575 23.7885 14.8616 23.7837L14.9195 23.716C14.9865 23.6377 15.0363 23.579 15.0734 23.5325C15.0706 23.5318 15.0676 23.5311 15.0647 23.5303C15.0078 23.5157 14.9408 23.5006 14.8575 23.4817L14.7726 23.4625C14.7667 23.4612 14.7602 23.4598 14.7533 23.4583C14.6837 23.4431 14.5684 23.418 14.4725 23.3453C14.3786 23.2739 14.3222 23.1709 14.2871 23.1068C14.2836 23.1003 14.2802 23.0942 14.2771 23.0886L14.2334 23.0103C14.1929 22.9376 14.1605 22.8798 14.1334 22.8333ZM13.7055 22.3191C13.7813 22.2201 13.9168 22.08 14.1334 22.08C14.3499 22.08 14.4854 22.2201 14.5612 22.3191C14.6336 22.4136 14.7067 22.5449 14.7824 22.6806C14.7857 22.6866 14.7891 22.6926 14.7924 22.6986L14.8361 22.777C14.8477 22.7977 14.8565 22.8135 14.8642 22.8269C14.8777 22.8301 14.8934 22.8337 14.9139 22.8383L14.9987 22.8575C15.0055 22.859 15.0123 22.8606 15.019 22.8621C15.1652 22.8951 15.3091 22.9276 15.4192 22.9711C15.5405 23.0189 15.7023 23.1109 15.7646 23.3113C15.8258 23.5083 15.7488 23.6756 15.6801 23.7847C15.6164 23.8859 15.5194 23.9993 15.4191 24.1165C15.4147 24.1217 15.4103 24.1268 15.4059 24.132L15.1916 23.9487L15.4059 24.132L15.348 24.1996C15.3317 24.2187 15.3195 24.2329 15.3093 24.2453C15.3088 24.2459 15.3083 24.2465 15.3078 24.2471C15.3079 24.2486 15.3081 24.2502 15.3082 24.2518C15.3096 24.2683 15.3114 24.2873 15.3139 24.3128L15.3226 24.4031C15.3233 24.4098 15.3239 24.4165 15.3246 24.4231C15.3398 24.5801 15.3544 24.7303 15.349 24.8503C15.3434 24.9759 15.3134 25.1626 15.1462 25.2896C14.9737 25.4205 14.7829 25.3924 14.66 25.3571C14.5465 25.3246 14.412 25.2626 14.2752 25.1996C14.2688 25.1967 14.2625 25.1938 14.2561 25.1908L14.3895 24.9011L14.2561 25.1908L14.1767 25.1542C14.1592 25.1462 14.1453 25.1398 14.1334 25.1344C14.1214 25.1398 14.1075 25.1462 14.0901 25.1542L14.0106 25.1908C14.0042 25.1938 13.9979 25.1967 13.9915 25.1996C13.8547 25.2626 13.7202 25.3246 13.6067 25.3571C13.4838 25.3924 13.293 25.4205 13.1206 25.2896C12.9533 25.1626 12.9233 24.9759 12.9177 24.8503C12.9123 24.7303 12.9269 24.5801 12.9421 24.4232C12.9428 24.4165 12.9434 24.4098 12.9441 24.4031L12.9528 24.3128C12.9553 24.2873 12.9572 24.2683 12.9585 24.2518C12.9586 24.2502 12.9588 24.2486 12.9589 24.2471C12.9584 24.2465 12.9579 24.2459 12.9574 24.2453C12.9472 24.2329 12.935 24.2187 12.9187 24.1996L12.8608 24.132C12.8564 24.1268 12.852 24.1217 12.8476 24.1165C12.7473 23.9993 12.6503 23.8859 12.5866 23.7847C12.5179 23.6756 12.4409 23.5083 12.5021 23.3113C12.5644 23.1109 12.7262 23.0189 12.8475 22.9711C12.9576 22.9276 13.1015 22.8951 13.2477 22.8621C13.2544 22.8606 13.2612 22.859 13.268 22.8575L13.3529 22.8383C13.3733 22.8337 13.3891 22.8301 13.4025 22.8269C13.4102 22.8135 13.419 22.7977 13.4306 22.777L13.4743 22.6986C13.4776 22.6926 13.481 22.6866 13.4843 22.6806C13.56 22.5449 13.6331 22.4136 13.7055 22.3191Z" fill="#6C3BFF"/>
	<path fill-rule="evenodd" clip-rule="evenodd" d="M18.4 22.8333C18.3729 22.8798 18.3404 22.9376 18.2999 23.0103L18.2562 23.0886C18.2531 23.0942 18.2498 23.1003 18.2463 23.1068C18.2112 23.1709 18.1548 23.2739 18.0608 23.3453C17.965 23.418 17.8496 23.4431 17.7801 23.4583C17.7732 23.4598 17.7667 23.4612 17.7608 23.4625L17.6759 23.4817C17.5926 23.5006 17.5256 23.5157 17.4687 23.5303C17.4657 23.5311 17.4628 23.5318 17.4599 23.5325C17.497 23.579 17.5469 23.6377 17.6139 23.716L17.6717 23.7837C17.6759 23.7885 17.6804 23.7937 17.6851 23.7991C17.7332 23.8546 17.8088 23.9417 17.8437 24.054C17.8782 24.165 17.8663 24.2794 17.8586 24.3537C17.8579 24.361 17.8572 24.368 17.8565 24.3745L17.8478 24.4648C17.8386 24.5599 17.8316 24.6335 17.8275 24.6919C17.8788 24.6697 17.9378 24.6426 18.0096 24.6095L18.089 24.5729C18.0946 24.5704 18.1006 24.5675 18.1071 24.5645C18.1712 24.5343 18.2794 24.4833 18.4 24.4833C18.5206 24.4833 18.6288 24.5343 18.6929 24.5645C18.6994 24.5675 18.7054 24.5704 18.711 24.5729L18.5831 24.8508L18.711 24.5729L18.7904 24.6095C18.8623 24.6426 18.9212 24.6697 18.9725 24.6919C18.9684 24.6335 18.9615 24.5599 18.9523 24.4648L18.9435 24.3745C18.9429 24.368 18.9422 24.361 18.9414 24.3537C18.9337 24.2794 18.9218 24.165 18.9563 24.054C18.9913 23.9417 19.0668 23.8546 19.1149 23.7991C19.1197 23.7937 19.1241 23.7885 19.1283 23.7837L19.1861 23.716C19.2531 23.6377 19.303 23.579 19.3401 23.5325C19.3372 23.5318 19.3343 23.5311 19.3313 23.5303C19.2744 23.5157 19.2074 23.5006 19.1241 23.4817L19.0393 23.4625C19.0333 23.4612 19.0269 23.4598 19.0199 23.4583C18.9504 23.4431 18.8351 23.418 18.7392 23.3453C18.6453 23.2739 18.5889 23.1709 18.5538 23.1068C18.5502 23.1003 18.5469 23.0942 18.5438 23.0886L18.5001 23.0103C18.4596 22.9376 18.4272 22.8798 18.4 22.8333ZM17.9722 22.3191C18.0479 22.2201 18.1834 22.08 18.4 22.08C18.6166 22.08 18.7521 22.2201 18.8279 22.3191C18.9003 22.4136 18.9734 22.5449 19.0491 22.6806C19.0524 22.6866 19.0557 22.6926 19.0591 22.6986L19.1028 22.777C19.1143 22.7977 19.1231 22.8135 19.1308 22.8269C19.1443 22.8301 19.1601 22.8337 19.1805 22.8383L19.2654 22.8575C19.2721 22.859 19.2789 22.8606 19.2857 22.8621C19.4319 22.8951 19.5757 22.9276 19.6859 22.9711C19.8072 23.0189 19.9689 23.1109 20.0313 23.3113C20.0925 23.5083 20.0155 23.6756 19.9468 23.7847C19.8831 23.8859 19.786 23.9993 19.6858 24.1165C19.6814 24.1217 19.6769 24.1268 19.6725 24.132L19.4582 23.9487L19.6725 24.132L19.6147 24.1996C19.5983 24.2187 19.5862 24.2329 19.576 24.2453C19.5755 24.2459 19.575 24.2465 19.5745 24.2471C19.5746 24.2486 19.5747 24.2502 19.5749 24.2518C19.5762 24.2683 19.5781 24.2873 19.5805 24.3128L19.5893 24.4031C19.5899 24.4098 19.5906 24.4165 19.5912 24.4231C19.6065 24.5801 19.621 24.7303 19.6157 24.8503C19.6101 24.9759 19.58 25.1626 19.4128 25.2896C19.2404 25.4205 19.0496 25.3924 18.9267 25.3571C18.8131 25.3246 18.6786 25.2626 18.5419 25.1996C18.5355 25.1967 18.5291 25.1938 18.5228 25.1908L18.6561 24.9011L18.5228 25.1908L18.4433 25.1542C18.4259 25.1462 18.412 25.1398 18.4 25.1344C18.388 25.1398 18.3742 25.1462 18.3567 25.1542L18.2773 25.1908C18.2709 25.1938 18.2645 25.1967 18.2582 25.1996C18.1214 25.2626 17.9869 25.3246 17.8734 25.3571C17.7504 25.3924 17.5597 25.4205 17.3872 25.2896C17.22 25.1626 17.1899 24.9759 17.1843 24.8503C17.179 24.7303 17.1936 24.5801 17.2088 24.4232C17.2095 24.4165 17.2101 24.4098 17.2108 24.4031L17.2195 24.3128C17.222 24.2873 17.2238 24.2683 17.2252 24.2518C17.2253 24.2502 17.2254 24.2486 17.2255 24.2471C17.225 24.2465 17.2245 24.2459 17.224 24.2453C17.2138 24.2329 17.2017 24.2187 17.1853 24.1996L17.1275 24.132C17.1231 24.1268 17.1187 24.1217 17.1143 24.1165C17.014 23.9993 16.9169 23.8859 16.8532 23.7847C16.7846 23.6756 16.7075 23.5083 16.7688 23.3113C16.8311 23.1109 16.9928 23.0189 17.1141 22.9711C17.2243 22.9276 17.3682 22.8951 17.5143 22.8621C17.5211 22.8606 17.5279 22.859 17.5347 22.8575L17.6195 22.8383C17.6399 22.8337 17.6557 22.8301 17.6692 22.8269C17.6769 22.8135 17.6857 22.7977 17.6972 22.777L17.7409 22.6986C17.7443 22.6926 17.7476 22.6866 17.751 22.6806C17.8266 22.5449 17.8997 22.4136 17.9722 22.3191Z" fill="#6C3BFF"/>
	<path fill-rule="evenodd" clip-rule="evenodd" d="M22.6667 22.8333C22.6395 22.8798 22.6071 22.9376 22.5666 23.0103L22.5229 23.0886C22.5198 23.0942 22.5165 23.1003 22.5129 23.1068C22.4778 23.1709 22.4214 23.2739 22.3275 23.3453C22.2316 23.418 22.1163 23.4431 22.0468 23.4583C22.0398 23.4598 22.0334 23.4612 22.0274 23.4625L21.9426 23.4817C21.8593 23.5006 21.7923 23.5157 21.7354 23.5303C21.7324 23.5311 21.7295 23.5318 21.7266 23.5325C21.7637 23.579 21.8136 23.6377 21.8806 23.716L21.9384 23.7837C21.9425 23.7885 21.947 23.7937 21.9518 23.7991C21.9999 23.8546 22.0754 23.9417 22.1104 24.054C22.1449 24.165 22.133 24.2794 22.1253 24.3537C22.1245 24.361 22.1238 24.368 22.1232 24.3745L22.1144 24.4648C22.1052 24.5599 22.0983 24.6335 22.0942 24.6919C22.1455 24.6697 22.2044 24.6426 22.2763 24.6095L22.3557 24.5729C22.3613 24.5704 22.3673 24.5675 22.3738 24.5645C22.4379 24.5343 22.546 24.4833 22.6667 24.4833C22.7873 24.4833 22.8955 24.5343 22.9596 24.5645C22.9661 24.5675 22.9721 24.5704 22.9776 24.5729L22.8497 24.8508L22.9776 24.5729L23.0571 24.6095C23.1289 24.6426 23.1879 24.6697 23.2392 24.6919C23.2351 24.6335 23.2281 24.5599 23.2189 24.4648L23.2102 24.3745C23.2095 24.368 23.2088 24.361 23.2081 24.3537C23.2003 24.2794 23.1885 24.165 23.223 24.054C23.2579 23.9417 23.3334 23.8546 23.3816 23.7991C23.3863 23.7937 23.3908 23.7885 23.395 23.7837L23.4528 23.716C23.5198 23.6377 23.5696 23.579 23.6067 23.5325C23.6039 23.5318 23.601 23.5311 23.598 23.5303C23.5411 23.5157 23.4741 23.5006 23.3908 23.4817L23.3059 23.4625C23.3 23.4612 23.2935 23.4598 23.2866 23.4583C23.2171 23.4431 23.1017 23.418 23.0059 23.3453C22.9119 23.2739 22.8555 23.1709 22.8204 23.1068C22.8169 23.1003 22.8136 23.0942 22.8104 23.0886L22.7667 23.0103C22.7263 22.9376 22.6938 22.8798 22.6667 22.8333ZM22.2388 22.3191C22.3146 22.2201 22.4501 22.08 22.6667 22.08C22.8833 22.08 23.0188 22.2201 23.0945 22.3191C23.167 22.4136 23.2401 22.5449 23.3157 22.6806C23.3191 22.6866 23.3224 22.6926 23.3258 22.6986L23.3695 22.777C23.381 22.7977 23.3898 22.8135 23.3975 22.8269C23.411 22.8301 23.4268 22.8337 23.4472 22.8383L23.532 22.8575C23.5388 22.859 23.5456 22.8606 23.5524 22.8621C23.6985 22.8951 23.8424 22.9276 23.9526 22.9711C24.0739 23.0189 24.2356 23.1109 24.2979 23.3113C24.3592 23.5083 24.2821 23.6756 24.2135 23.7847C24.1498 23.8859 24.0527 23.9993 23.9524 24.1165C23.948 24.1217 23.9436 24.1268 23.9392 24.132L23.7249 23.9487L23.9392 24.132L23.8814 24.1996C23.865 24.2187 23.8529 24.2329 23.8427 24.2453C23.8421 24.2459 23.8416 24.2465 23.8412 24.2471C23.8413 24.2486 23.8414 24.2502 23.8415 24.2518C23.8429 24.2683 23.8447 24.2873 23.8472 24.3128L23.8559 24.4031C23.8566 24.4098 23.8572 24.4165 23.8579 24.4231C23.8731 24.5801 23.8877 24.7303 23.8824 24.8503C23.8768 24.9759 23.8467 25.1626 23.6795 25.2896C23.507 25.4205 23.3163 25.3924 23.1933 25.3571C23.0798 25.3246 22.9453 25.2626 22.8085 25.1996C22.8022 25.1967 22.7958 25.1938 22.7894 25.1908L22.9228 24.9011L22.7894 25.1908L22.71 25.1542C22.6925 25.1462 22.6787 25.1398 22.6667 25.1344C22.6547 25.1398 22.6408 25.1462 22.6234 25.1542L22.5439 25.1908C22.5376 25.1938 22.5312 25.1967 22.5248 25.1996C22.3881 25.2626 22.2536 25.3246 22.14 25.3571C22.0171 25.3924 21.8263 25.4205 21.6539 25.2896C21.4866 25.1626 21.4566 24.9759 21.451 24.8503C21.4456 24.7303 21.4602 24.5801 21.4755 24.4232C21.4761 24.4165 21.4768 24.4098 21.4774 24.4031L21.4862 24.3128C21.4886 24.2873 21.4905 24.2683 21.4918 24.2518C21.492 24.2502 21.4921 24.2486 21.4922 24.2471C21.4917 24.2465 21.4912 24.2459 21.4907 24.2453C21.4805 24.2329 21.4683 24.2187 21.452 24.1996L21.3942 24.132C21.3897 24.1268 21.3853 24.1217 21.3809 24.1165C21.2807 23.9993 21.1836 23.8859 21.1199 23.7847C21.0512 23.6756 20.9742 23.5083 21.0354 23.3113C21.0978 23.1109 21.2595 23.0189 21.3808 22.9711C21.491 22.9276 21.6348 22.8951 21.781 22.8621C21.7878 22.8606 21.7945 22.859 21.8013 22.8575L21.8862 22.8383C21.9066 22.8337 21.9224 22.8301 21.9359 22.8269C21.9436 22.8135 21.9524 22.7977 21.9639 22.777L22.0076 22.6986C22.0109 22.6926 22.0143 22.6866 22.0176 22.6806C22.0933 22.5449 22.1664 22.4136 22.2388 22.3191Z" fill="#6C3BFF"/>
	</svg>
