<svg width="24" height="24" viewBox="0 0 24 24" fill="none" xmlns="http://www.w3.org/2000/svg">
	<path fill-rule="evenodd" clip-rule="evenodd"
		d="M15.17 9.25799C14.5931 9.67387 13.9509 10.462 13.235 11.9933C11.9323 14.7796 10.8477 16.2577 9.8061 17.015C8.78093 17.7604 7.85768 17.7544 7.15623 17.7498C7.10285 17.7494 7.05076 17.7491 7 17.7491C6.58579 17.7491 6.25 17.4133 6.25 16.9991C6.25 16.5849 6.58579 16.2491 7 16.2491C7.0454 16.2491 7.08987 16.2492 7.1335 16.2493C7.82391 16.2511 8.30445 16.2523 8.924 15.8018C9.64426 15.2781 10.5968 14.0944 11.8761 11.358C12.6417 9.72067 13.4192 8.67096 14.2929 8.04117C15.1922 7.39296 16.1087 7.25 17 7.25C17.4142 7.25 17.75 7.58579 17.75 8C17.75 8.41421 17.4142 8.75 17 8.75C16.2863 8.75 15.7214 8.86054 15.17 9.25799Z"
		fill="#6C3BFF" />
	<path fill-rule="evenodd" clip-rule="evenodd"
		d="M14 3.2H10C8.08046 3.2 6.76152 3.20255 5.77081 3.33575C4.81462 3.4643 4.34576 3.69444 4.0201 4.0201C3.69444 4.34576 3.4643 4.81462 3.33575 5.77081C3.20255 6.76152 3.2 8.08046 3.2 10V14C3.2 15.9195 3.20255 17.2385 3.33575 18.2292C3.4643 19.1854 3.69444 19.6542 4.0201 19.9799C4.34576 20.3056 4.81462 20.5357 5.77081 20.6643C6.76152 20.7975 8.08046 20.8 10 20.8H14C15.9195 20.8 17.2385 20.7975 18.2292 20.6643C19.1854 20.5357 19.6542 20.3056 19.9799 19.9799C20.3056 19.6542 20.5357 19.1854 20.6643 18.2292C20.7975 17.2385 20.8 15.9195 20.8 14V10C20.8 8.08046 20.7975 6.76152 20.6643 5.77081C20.5357 4.81462 20.3056 4.34576 19.9799 4.0201C19.6542 3.69444 19.1854 3.4643 18.2292 3.33575C17.2385 3.20255 15.9195 3.2 14 3.2ZM3.17157 3.17157C2 4.34315 2 6.22876 2 10V14C2 17.7712 2 19.6569 3.17157 20.8284C4.34315 22 6.22876 22 10 22H14C17.7712 22 19.6569 22 20.8284 20.8284C22 19.6569 22 17.7712 22 14V10C22 6.22876 22 4.34315 20.8284 3.17157C19.6569 2 17.7712 2 14 2H10C6.22876 2 4.34315 2 3.17157 3.17157Z"
		fill="#6C3BFF" />
</svg>
