<svg width="374" height="242" viewBox="0 0 374 242" fill="none" xmlns="http://www.w3.org/2000/svg">
<g clip-path="url(#clip0_1247_1099)">
<g filter="url(#filter0_d_1247_1099)">
<rect x="130.5" y="152.5" width="114" height="114" rx="3.5" fill="#C3C8D7"/>
<rect x="130.5" y="152.5" width="114" height="114" rx="3.5" stroke="#EAECF5"/>
<path d="M197.708 231.124L185.889 209.455L195.226 193.892L215.083 231.124H197.708ZM177.851 203.821L192.744 231.124H162.959L177.851 203.821ZM171.646 198.856C168.219 198.856 165.441 196.078 165.441 192.651C165.441 189.224 168.219 186.446 171.646 186.446C175.073 186.446 177.851 189.224 177.851 192.651C177.851 196.078 175.073 198.856 171.646 198.856Z" fill="url(#paint0_linear_1247_1099)"/>
<path d="M130 165H161C162.105 165 163 165.895 163 167V179C163 180.105 162.105 181 161 181H130V165Z" fill="#AEB6CD"/>
<path d="M140.766 171.638C140.728 171.302 140.571 171.041 140.297 170.857C140.022 170.67 139.677 170.576 139.26 170.576C138.962 170.576 138.704 170.623 138.486 170.718C138.268 170.81 138.099 170.938 137.978 171.102C137.86 171.263 137.8 171.446 137.8 171.652C137.8 171.825 137.841 171.974 137.921 172.099C138.004 172.225 138.112 172.33 138.244 172.415C138.379 172.498 138.524 172.568 138.678 172.625C138.831 172.679 138.979 172.724 139.121 172.76L139.832 172.945C140.064 173.001 140.302 173.078 140.545 173.175C140.789 173.272 141.015 173.4 141.224 173.559C141.432 173.718 141.6 173.914 141.728 174.148C141.858 174.383 141.923 174.663 141.923 174.99C141.923 175.402 141.817 175.768 141.604 176.087C141.393 176.407 141.086 176.659 140.684 176.844C140.284 177.028 139.8 177.121 139.232 177.121C138.687 177.121 138.216 177.034 137.818 176.862C137.42 176.689 137.109 176.444 136.884 176.126C136.659 175.807 136.535 175.428 136.511 174.99H137.612C137.634 175.253 137.719 175.472 137.868 175.647C138.019 175.82 138.212 175.949 138.447 176.034C138.683 176.117 138.943 176.158 139.224 176.158C139.535 176.158 139.81 176.11 140.052 176.013C140.296 175.913 140.487 175.776 140.627 175.601C140.767 175.423 140.837 175.216 140.837 174.979C140.837 174.764 140.775 174.588 140.652 174.45C140.531 174.313 140.367 174.199 140.158 174.109C139.952 174.019 139.719 173.94 139.459 173.871L138.599 173.637C138.017 173.478 137.555 173.245 137.214 172.938C136.876 172.63 136.707 172.223 136.707 171.716C136.707 171.297 136.82 170.931 137.048 170.619C137.275 170.306 137.583 170.063 137.971 169.891C138.359 169.715 138.797 169.628 139.285 169.628C139.777 169.628 140.212 169.714 140.588 169.887C140.967 170.06 141.265 170.298 141.483 170.601C141.701 170.902 141.814 171.247 141.824 171.638H140.766ZM144.737 177.121C144.391 177.121 144.079 177.057 143.799 176.929C143.52 176.799 143.298 176.611 143.135 176.364C142.974 176.118 142.894 175.816 142.894 175.459C142.894 175.151 142.953 174.898 143.071 174.699C143.19 174.5 143.349 174.343 143.551 174.227C143.752 174.111 143.977 174.023 144.225 173.964C144.474 173.905 144.727 173.86 144.985 173.829C145.312 173.791 145.577 173.76 145.781 173.737C145.984 173.71 146.132 173.669 146.225 173.612C146.317 173.555 146.363 173.463 146.363 173.335V173.31C146.363 173 146.276 172.76 146.1 172.589C145.927 172.419 145.669 172.334 145.326 172.334C144.969 172.334 144.687 172.413 144.481 172.572C144.277 172.728 144.137 172.902 144.058 173.094L143.061 172.866C143.179 172.535 143.352 172.268 143.579 172.064C143.809 171.858 144.073 171.709 144.371 171.616C144.669 171.522 144.983 171.474 145.312 171.474C145.53 171.474 145.761 171.5 146.004 171.553C146.251 171.602 146.48 171.695 146.693 171.83C146.909 171.964 147.085 172.157 147.222 172.408C147.36 172.657 147.428 172.98 147.428 173.378V177H146.392V176.254H146.349C146.28 176.392 146.177 176.527 146.04 176.659C145.903 176.792 145.726 176.902 145.511 176.989C145.295 177.077 145.037 177.121 144.737 177.121ZM144.968 176.268C145.261 176.268 145.512 176.21 145.72 176.094C145.931 175.978 146.091 175.827 146.2 175.64C146.311 175.451 146.367 175.248 146.367 175.033V174.33C146.329 174.367 146.255 174.403 146.146 174.436C146.04 174.467 145.918 174.494 145.781 174.518C145.643 174.539 145.51 174.559 145.379 174.578C145.249 174.595 145.14 174.609 145.053 174.621C144.847 174.647 144.659 174.691 144.488 174.752C144.32 174.814 144.185 174.902 144.083 175.018C143.984 175.132 143.934 175.284 143.934 175.473C143.934 175.736 144.031 175.935 144.225 176.07C144.419 176.202 144.667 176.268 144.968 176.268ZM149.904 169.727V177H148.843V169.727H149.904ZM153.684 177.11C153.146 177.11 152.684 176.995 152.295 176.766C151.909 176.534 151.611 176.208 151.4 175.789C151.192 175.368 151.088 174.874 151.088 174.308C151.088 173.75 151.192 173.257 151.4 172.831C151.611 172.405 151.905 172.072 152.281 171.833C152.66 171.594 153.103 171.474 153.609 171.474C153.917 171.474 154.215 171.525 154.504 171.627C154.793 171.729 155.052 171.889 155.282 172.107C155.511 172.324 155.693 172.607 155.825 172.955C155.958 173.301 156.024 173.721 156.024 174.216V174.592H151.688V173.797H154.983C154.983 173.518 154.927 173.27 154.813 173.055C154.699 172.837 154.54 172.665 154.334 172.54C154.13 172.414 153.891 172.352 153.616 172.352C153.318 172.352 153.058 172.425 152.835 172.572C152.615 172.716 152.444 172.906 152.324 173.14C152.205 173.372 152.146 173.624 152.146 173.896V174.518C152.146 174.882 152.21 175.192 152.338 175.448C152.468 175.704 152.649 175.899 152.881 176.034C153.113 176.167 153.384 176.233 153.694 176.233C153.896 176.233 154.079 176.205 154.245 176.148C154.411 176.089 154.554 176.001 154.675 175.885C154.795 175.769 154.888 175.626 154.952 175.455L155.956 175.636C155.876 175.932 155.732 176.192 155.523 176.414C155.317 176.634 155.058 176.806 154.746 176.929C154.435 177.05 154.081 177.11 153.684 177.11Z" fill="white"/>
<rect x="140" y="210" width="95" height="5" rx="2.5" fill="white"/>
<rect x="151" y="221" width="72" height="4" rx="2" fill="white"/>
</g>
<g filter="url(#filter1_d_1247_1099)">
<rect x="260.5" y="152.5" width="114" height="114" rx="3.5" fill="#C3C8D7"/>
<rect x="260.5" y="152.5" width="114" height="114" rx="3.5" stroke="#EAECF5"/>
<path d="M327.708 231.124L315.889 209.455L325.226 193.892L345.083 231.124H327.708ZM307.851 203.821L322.744 231.124H292.959L307.851 203.821ZM301.646 198.856C298.219 198.856 295.441 196.078 295.441 192.651C295.441 189.224 298.219 186.446 301.646 186.446C305.073 186.446 307.851 189.224 307.851 192.651C307.851 196.078 305.073 198.856 301.646 198.856Z" fill="url(#paint1_linear_1247_1099)"/>
<path d="M260 165H291C292.105 165 293 165.895 293 167V179C293 180.105 292.105 181 291 181H260V165Z" fill="#AEB6CD"/>
<path d="M270.766 171.638C270.728 171.302 270.571 171.041 270.297 170.857C270.022 170.67 269.677 170.576 269.26 170.576C268.962 170.576 268.704 170.623 268.486 170.718C268.268 170.81 268.099 170.938 267.978 171.102C267.86 171.263 267.8 171.446 267.8 171.652C267.8 171.825 267.841 171.974 267.921 172.099C268.004 172.225 268.112 172.33 268.244 172.415C268.379 172.498 268.524 172.568 268.678 172.625C268.831 172.679 268.979 172.724 269.121 172.76L269.832 172.945C270.064 173.001 270.302 173.078 270.545 173.175C270.789 173.272 271.015 173.4 271.224 173.559C271.432 173.718 271.6 173.914 271.728 174.148C271.858 174.383 271.923 174.663 271.923 174.99C271.923 175.402 271.817 175.768 271.604 176.087C271.393 176.407 271.086 176.659 270.684 176.844C270.284 177.028 269.8 177.121 269.232 177.121C268.687 177.121 268.216 177.034 267.818 176.862C267.42 176.689 267.109 176.444 266.884 176.126C266.659 175.807 266.535 175.428 266.511 174.99H267.612C267.634 175.253 267.719 175.472 267.868 175.647C268.019 175.82 268.212 175.949 268.447 176.034C268.683 176.117 268.943 176.158 269.224 176.158C269.535 176.158 269.81 176.11 270.052 176.013C270.296 175.913 270.487 175.776 270.627 175.601C270.767 175.423 270.837 175.216 270.837 174.979C270.837 174.764 270.775 174.588 270.652 174.45C270.531 174.313 270.367 174.199 270.158 174.109C269.952 174.019 269.719 173.94 269.459 173.871L268.599 173.637C268.017 173.478 267.555 173.245 267.214 172.938C266.876 172.63 266.707 172.223 266.707 171.716C266.707 171.297 266.82 170.931 267.048 170.619C267.275 170.306 267.583 170.063 267.971 169.891C268.359 169.715 268.797 169.628 269.285 169.628C269.777 169.628 270.212 169.714 270.588 169.887C270.967 170.06 271.265 170.298 271.483 170.601C271.701 170.902 271.814 171.247 271.824 171.638H270.766ZM274.737 177.121C274.391 177.121 274.079 177.057 273.799 176.929C273.52 176.799 273.298 176.611 273.135 176.364C272.974 176.118 272.894 175.816 272.894 175.459C272.894 175.151 272.953 174.898 273.071 174.699C273.19 174.5 273.349 174.343 273.551 174.227C273.752 174.111 273.977 174.023 274.225 173.964C274.474 173.905 274.727 173.86 274.985 173.829C275.312 173.791 275.577 173.76 275.781 173.737C275.984 173.71 276.132 173.669 276.225 173.612C276.317 173.555 276.363 173.463 276.363 173.335V173.31C276.363 173 276.276 172.76 276.1 172.589C275.927 172.419 275.669 172.334 275.326 172.334C274.969 172.334 274.687 172.413 274.481 172.572C274.277 172.728 274.137 172.902 274.058 173.094L273.061 172.866C273.179 172.535 273.352 172.268 273.579 172.064C273.809 171.858 274.073 171.709 274.371 171.616C274.669 171.522 274.983 171.474 275.312 171.474C275.53 171.474 275.761 171.5 276.004 171.553C276.251 171.602 276.48 171.695 276.693 171.83C276.909 171.964 277.085 172.157 277.222 172.408C277.36 172.657 277.428 172.98 277.428 173.378V177H276.392V176.254H276.349C276.28 176.392 276.177 176.527 276.04 176.659C275.903 176.792 275.726 176.902 275.511 176.989C275.295 177.077 275.037 177.121 274.737 177.121ZM274.968 176.268C275.261 176.268 275.512 176.21 275.72 176.094C275.931 175.978 276.091 175.827 276.2 175.64C276.311 175.451 276.367 175.248 276.367 175.033V174.33C276.329 174.367 276.255 174.403 276.146 174.436C276.04 174.467 275.918 174.494 275.781 174.518C275.643 174.539 275.51 174.559 275.379 174.578C275.249 174.595 275.14 174.609 275.053 174.621C274.847 174.647 274.659 174.691 274.488 174.752C274.32 174.814 274.185 174.902 274.083 175.018C273.984 175.132 273.934 175.284 273.934 175.473C273.934 175.736 274.031 175.935 274.225 176.07C274.419 176.202 274.667 176.268 274.968 176.268ZM279.904 169.727V177H278.843V169.727H279.904ZM283.684 177.11C283.146 177.11 282.684 176.995 282.295 176.766C281.909 176.534 281.611 176.208 281.4 175.789C281.192 175.368 281.088 174.874 281.088 174.308C281.088 173.75 281.192 173.257 281.4 172.831C281.611 172.405 281.905 172.072 282.281 171.833C282.66 171.594 283.103 171.474 283.609 171.474C283.917 171.474 284.215 171.525 284.504 171.627C284.793 171.729 285.052 171.889 285.282 172.107C285.511 172.324 285.693 172.607 285.825 172.955C285.958 173.301 286.024 173.721 286.024 174.216V174.592H281.688V173.797H284.983C284.983 173.518 284.927 173.27 284.813 173.055C284.699 172.837 284.54 172.665 284.334 172.54C284.13 172.414 283.891 172.352 283.616 172.352C283.318 172.352 283.058 172.425 282.835 172.572C282.615 172.716 282.444 172.906 282.324 173.14C282.205 173.372 282.146 173.624 282.146 173.896V174.518C282.146 174.882 282.21 175.192 282.338 175.448C282.468 175.704 282.649 175.899 282.881 176.034C283.113 176.167 283.384 176.233 283.694 176.233C283.896 176.233 284.079 176.205 284.245 176.148C284.411 176.089 284.554 176.001 284.675 175.885C284.795 175.769 284.888 175.626 284.952 175.455L285.956 175.636C285.876 175.932 285.732 176.192 285.523 176.414C285.317 176.634 285.058 176.806 284.746 176.929C284.435 177.05 284.081 177.11 283.684 177.11Z" fill="white"/>
<rect x="270" y="210" width="95" height="5" rx="2.5" fill="white"/>
<rect x="281" y="221" width="72" height="4" rx="2" fill="white"/>
</g>
<g filter="url(#filter2_d_1247_1099)">
<rect x="0.5" y="152.5" width="114" height="114" rx="3.5" fill="#C3C8D7"/>
<rect x="0.5" y="152.5" width="114" height="114" rx="3.5" stroke="#EAECF5"/>
<path d="M67.7085 231.124L55.8888 209.455L65.2263 193.892L85.0833 231.124H67.7085ZM47.8515 203.821L62.7442 231.124H32.9587L47.8515 203.821ZM41.6462 198.856C38.2191 198.856 35.4409 196.078 35.4409 192.651C35.4409 189.224 38.2191 186.446 41.6462 186.446C45.0733 186.446 47.8515 189.224 47.8515 192.651C47.8515 196.078 45.0733 198.856 41.6462 198.856Z" fill="url(#paint2_linear_1247_1099)"/>
<rect x="10" y="210" width="95" height="5" rx="2.5" fill="white"/>
<rect x="21" y="221" width="72" height="4" rx="2" fill="white"/>
</g>
<g filter="url(#filter3_d_1247_1099)">
<rect x="130.5" y="0.5" width="114" height="114" rx="3.5" fill="#C3C8D7"/>
<rect x="130.5" y="0.5" width="114" height="114" rx="3.5" stroke="#EAECF5"/>
<path d="M197.708 79.124L185.889 57.4546L195.226 41.8922L215.083 79.124H197.708ZM177.851 51.8207L192.744 79.124H162.959L177.851 51.8207ZM171.646 46.8564C168.219 46.8564 165.441 44.0782 165.441 40.6511C165.441 37.224 168.219 34.4458 171.646 34.4458C175.073 34.4458 177.851 37.224 177.851 40.6511C177.851 44.0782 175.073 46.8564 171.646 46.8564Z" fill="url(#paint3_linear_1247_1099)"/>
<path d="M130 13H161C162.105 13 163 13.8954 163 15V27C163 28.1046 162.105 29 161 29H130V13Z" fill="#AEB6CD"/>
<path d="M140.766 19.6378C140.728 19.3016 140.571 19.0412 140.297 18.8565C140.022 18.6695 139.677 18.576 139.26 18.576C138.962 18.576 138.704 18.6233 138.486 18.718C138.268 18.8104 138.099 18.9382 137.978 19.1016C137.86 19.2625 137.8 19.446 137.8 19.652C137.8 19.8248 137.841 19.974 137.921 20.0994C138.004 20.2249 138.112 20.3303 138.244 20.4155C138.379 20.4983 138.524 20.5682 138.678 20.625C138.831 20.6795 138.979 20.7244 139.121 20.7599L139.832 20.9446C140.064 21.0014 140.302 21.0784 140.545 21.1754C140.789 21.2725 141.015 21.4003 141.224 21.5589C141.432 21.7176 141.6 21.9141 141.728 22.1484C141.858 22.3828 141.923 22.6634 141.923 22.9901C141.923 23.402 141.817 23.7678 141.604 24.0874C141.393 24.407 141.086 24.6591 140.684 24.8438C140.284 25.0284 139.8 25.1207 139.232 25.1207C138.687 25.1207 138.216 25.0343 137.818 24.8615C137.42 24.6887 137.109 24.4437 136.884 24.1264C136.659 23.8068 136.535 23.428 136.511 22.9901H137.612C137.634 23.2528 137.719 23.4718 137.868 23.647C138.019 23.8198 138.212 23.9489 138.447 24.0341C138.683 24.117 138.943 24.1584 139.224 24.1584C139.535 24.1584 139.81 24.1098 140.052 24.0128C140.296 23.9134 140.487 23.776 140.627 23.6009C140.767 23.4233 140.837 23.2161 140.837 22.9794C140.837 22.764 140.775 22.5876 140.652 22.4503C140.531 22.313 140.367 22.1993 140.158 22.1094C139.952 22.0194 139.719 21.9401 139.459 21.8714L138.599 21.6371C138.017 21.4785 137.555 21.2453 137.214 20.9375C136.876 20.6297 136.707 20.2225 136.707 19.7159C136.707 19.2969 136.82 18.9311 137.048 18.6186C137.275 18.3061 137.583 18.0634 137.971 17.8906C138.359 17.7154 138.797 17.6278 139.285 17.6278C139.777 17.6278 140.212 17.7143 140.588 17.8871C140.967 18.0599 141.265 18.2978 141.483 18.6009C141.701 18.9015 141.814 19.2472 141.824 19.6378H140.766ZM144.737 25.1207C144.391 25.1207 144.079 25.0568 143.799 24.929C143.52 24.7988 143.298 24.6106 143.135 24.3643C142.974 24.1181 142.894 23.8163 142.894 23.4588C142.894 23.151 142.953 22.8977 143.071 22.6989C143.19 22.5 143.349 22.3426 143.551 22.2266C143.752 22.1106 143.977 22.023 144.225 21.9638C144.474 21.9046 144.727 21.8596 144.985 21.8288C145.312 21.791 145.577 21.7602 145.781 21.7365C145.984 21.7105 146.132 21.669 146.225 21.6122C146.317 21.5554 146.363 21.4631 146.363 21.3352V21.3104C146.363 21.0002 146.276 20.7599 146.1 20.5895C145.927 20.419 145.669 20.3338 145.326 20.3338C144.969 20.3338 144.687 20.4131 144.481 20.5717C144.277 20.728 144.137 20.902 144.058 21.0938L143.061 20.8665C143.179 20.535 143.352 20.2675 143.579 20.0639C143.809 19.858 144.073 19.7088 144.371 19.6165C144.669 19.5218 144.983 19.4744 145.312 19.4744C145.53 19.4744 145.761 19.5005 146.004 19.5526C146.251 19.6023 146.48 19.6946 146.693 19.8295C146.909 19.9645 147.085 20.1574 147.222 20.4084C147.36 20.657 147.428 20.9801 147.428 21.3778V25H146.392V24.2543H146.349C146.28 24.3916 146.177 24.5265 146.04 24.6591C145.903 24.7917 145.726 24.9018 145.511 24.9893C145.295 25.0769 145.037 25.1207 144.737 25.1207ZM144.968 24.2685C145.261 24.2685 145.512 24.2105 145.72 24.0945C145.931 23.9785 146.091 23.8269 146.2 23.6399C146.311 23.4505 146.367 23.2481 146.367 23.0327V22.3295C146.329 22.3674 146.255 22.4029 146.146 22.4361C146.04 22.4669 145.918 22.4941 145.781 22.5178C145.643 22.5391 145.51 22.5592 145.379 22.5781C145.249 22.5947 145.14 22.6089 145.053 22.6207C144.847 22.6468 144.659 22.6906 144.488 22.7521C144.32 22.8137 144.185 22.9025 144.083 23.0185C143.984 23.1321 143.934 23.2836 143.934 23.473C143.934 23.7358 144.031 23.9347 144.225 24.0696C144.419 24.2022 144.667 24.2685 144.968 24.2685ZM149.904 17.7273V25H148.843V17.7273H149.904ZM153.684 25.1101C153.146 25.1101 152.684 24.9953 152.295 24.7656C151.909 24.5336 151.611 24.2081 151.4 23.7891C151.192 23.3677 151.088 22.8741 151.088 22.3082C151.088 21.7495 151.192 21.2571 151.4 20.831C151.611 20.4048 151.905 20.0722 152.281 19.8331C152.66 19.594 153.103 19.4744 153.609 19.4744C153.917 19.4744 154.215 19.5253 154.504 19.6271C154.793 19.7289 155.052 19.8887 155.282 20.1065C155.511 20.3243 155.693 20.6072 155.825 20.9553C155.958 21.3009 156.024 21.7211 156.024 22.2159V22.5923H151.688V21.7969H154.983C154.983 21.5175 154.927 21.2701 154.813 21.0547C154.699 20.8369 154.54 20.6652 154.334 20.5398C154.13 20.4143 153.891 20.3516 153.616 20.3516C153.318 20.3516 153.058 20.425 152.835 20.5717C152.615 20.7161 152.444 20.9055 152.324 21.1399C152.205 21.3719 152.146 21.6241 152.146 21.8963V22.5178C152.146 22.8823 152.21 23.1925 152.338 23.4482C152.468 23.7038 152.649 23.8991 152.881 24.0341C153.113 24.1667 153.384 24.233 153.694 24.233C153.896 24.233 154.079 24.2045 154.245 24.1477C154.411 24.0885 154.554 24.0009 154.675 23.8849C154.795 23.7689 154.888 23.6257 154.952 23.4553L155.956 23.6364C155.876 23.9323 155.732 24.1915 155.523 24.4141C155.317 24.6342 155.058 24.8059 154.746 24.929C154.435 25.0497 154.081 25.1101 153.684 25.1101Z" fill="white"/>
<rect x="140" y="58" width="95" height="5" rx="2.5" fill="white"/>
<rect x="151" y="69" width="72" height="4" rx="2" fill="white"/>
</g>
<g filter="url(#filter4_d_1247_1099)">
<rect x="259.5" y="0.5" width="114" height="114" rx="3.5" fill="#C3C8D7"/>
<rect x="259.5" y="0.5" width="114" height="114" rx="3.5" stroke="#EAECF5"/>
<path d="M326.708 79.124L314.889 57.4546L324.226 41.8922L344.083 79.124H326.708ZM306.851 51.8207L321.744 79.124H291.959L306.851 51.8207ZM300.646 46.8564C297.219 46.8564 294.441 44.0782 294.441 40.6511C294.441 37.224 297.219 34.4458 300.646 34.4458C304.073 34.4458 306.851 37.224 306.851 40.6511C306.851 44.0782 304.073 46.8564 300.646 46.8564Z" fill="url(#paint4_linear_1247_1099)"/>
<path d="M259 13H290C291.105 13 292 13.8954 292 15V27C292 28.1046 291.105 29 290 29H259V13Z" fill="#AEB6CD"/>
<path d="M269.766 19.6378C269.728 19.3016 269.571 19.0412 269.297 18.8565C269.022 18.6695 268.677 18.576 268.26 18.576C267.962 18.576 267.704 18.6233 267.486 18.718C267.268 18.8104 267.099 18.9382 266.978 19.1016C266.86 19.2625 266.8 19.446 266.8 19.652C266.8 19.8248 266.841 19.974 266.921 20.0994C267.004 20.2249 267.112 20.3303 267.244 20.4155C267.379 20.4983 267.524 20.5682 267.678 20.625C267.831 20.6795 267.979 20.7244 268.121 20.7599L268.832 20.9446C269.064 21.0014 269.302 21.0784 269.545 21.1754C269.789 21.2725 270.015 21.4003 270.224 21.5589C270.432 21.7176 270.6 21.9141 270.728 22.1484C270.858 22.3828 270.923 22.6634 270.923 22.9901C270.923 23.402 270.817 23.7678 270.604 24.0874C270.393 24.407 270.086 24.6591 269.684 24.8438C269.284 25.0284 268.8 25.1207 268.232 25.1207C267.687 25.1207 267.216 25.0343 266.818 24.8615C266.42 24.6887 266.109 24.4437 265.884 24.1264C265.659 23.8068 265.535 23.428 265.511 22.9901H266.612C266.634 23.2528 266.719 23.4718 266.868 23.647C267.019 23.8198 267.212 23.9489 267.447 24.0341C267.683 24.117 267.943 24.1584 268.224 24.1584C268.535 24.1584 268.81 24.1098 269.052 24.0128C269.296 23.9134 269.487 23.776 269.627 23.6009C269.767 23.4233 269.837 23.2161 269.837 22.9794C269.837 22.764 269.775 22.5876 269.652 22.4503C269.531 22.313 269.367 22.1993 269.158 22.1094C268.952 22.0194 268.719 21.9401 268.459 21.8714L267.599 21.6371C267.017 21.4785 266.555 21.2453 266.214 20.9375C265.876 20.6297 265.707 20.2225 265.707 19.7159C265.707 19.2969 265.82 18.9311 266.048 18.6186C266.275 18.3061 266.583 18.0634 266.971 17.8906C267.359 17.7154 267.797 17.6278 268.285 17.6278C268.777 17.6278 269.212 17.7143 269.588 17.8871C269.967 18.0599 270.265 18.2978 270.483 18.6009C270.701 18.9015 270.814 19.2472 270.824 19.6378H269.766ZM273.737 25.1207C273.391 25.1207 273.079 25.0568 272.799 24.929C272.52 24.7988 272.298 24.6106 272.135 24.3643C271.974 24.1181 271.894 23.8163 271.894 23.4588C271.894 23.151 271.953 22.8977 272.071 22.6989C272.19 22.5 272.349 22.3426 272.551 22.2266C272.752 22.1106 272.977 22.023 273.225 21.9638C273.474 21.9046 273.727 21.8596 273.985 21.8288C274.312 21.791 274.577 21.7602 274.781 21.7365C274.984 21.7105 275.132 21.669 275.225 21.6122C275.317 21.5554 275.363 21.4631 275.363 21.3352V21.3104C275.363 21.0002 275.276 20.7599 275.1 20.5895C274.927 20.419 274.669 20.3338 274.326 20.3338C273.969 20.3338 273.687 20.4131 273.481 20.5717C273.277 20.728 273.137 20.902 273.058 21.0938L272.061 20.8665C272.179 20.535 272.352 20.2675 272.579 20.0639C272.809 19.858 273.073 19.7088 273.371 19.6165C273.669 19.5218 273.983 19.4744 274.312 19.4744C274.53 19.4744 274.761 19.5005 275.004 19.5526C275.251 19.6023 275.48 19.6946 275.693 19.8295C275.909 19.9645 276.085 20.1574 276.222 20.4084C276.36 20.657 276.428 20.9801 276.428 21.3778V25H275.392V24.2543H275.349C275.28 24.3916 275.177 24.5265 275.04 24.6591C274.903 24.7917 274.726 24.9018 274.511 24.9893C274.295 25.0769 274.037 25.1207 273.737 25.1207ZM273.968 24.2685C274.261 24.2685 274.512 24.2105 274.72 24.0945C274.931 23.9785 275.091 23.8269 275.2 23.6399C275.311 23.4505 275.367 23.2481 275.367 23.0327V22.3295C275.329 22.3674 275.255 22.4029 275.146 22.4361C275.04 22.4669 274.918 22.4941 274.781 22.5178C274.643 22.5391 274.51 22.5592 274.379 22.5781C274.249 22.5947 274.14 22.6089 274.053 22.6207C273.847 22.6468 273.659 22.6906 273.488 22.7521C273.32 22.8137 273.185 22.9025 273.083 23.0185C272.984 23.1321 272.934 23.2836 272.934 23.473C272.934 23.7358 273.031 23.9347 273.225 24.0696C273.419 24.2022 273.667 24.2685 273.968 24.2685ZM278.904 17.7273V25H277.843V17.7273H278.904ZM282.684 25.1101C282.146 25.1101 281.684 24.9953 281.295 24.7656C280.909 24.5336 280.611 24.2081 280.4 23.7891C280.192 23.3677 280.088 22.8741 280.088 22.3082C280.088 21.7495 280.192 21.2571 280.4 20.831C280.611 20.4048 280.905 20.0722 281.281 19.8331C281.66 19.594 282.103 19.4744 282.609 19.4744C282.917 19.4744 283.215 19.5253 283.504 19.6271C283.793 19.7289 284.052 19.8887 284.282 20.1065C284.511 20.3243 284.693 20.6072 284.825 20.9553C284.958 21.3009 285.024 21.7211 285.024 22.2159V22.5923H280.688V21.7969H283.983C283.983 21.5175 283.927 21.2701 283.813 21.0547C283.699 20.8369 283.54 20.6652 283.334 20.5398C283.13 20.4143 282.891 20.3516 282.616 20.3516C282.318 20.3516 282.058 20.425 281.835 20.5717C281.615 20.7161 281.444 20.9055 281.324 21.1399C281.205 21.3719 281.146 21.6241 281.146 21.8963V22.5178C281.146 22.8823 281.21 23.1925 281.338 23.4482C281.468 23.7038 281.649 23.8991 281.881 24.0341C282.113 24.1667 282.384 24.233 282.694 24.233C282.896 24.233 283.079 24.2045 283.245 24.1477C283.411 24.0885 283.554 24.0009 283.675 23.8849C283.795 23.7689 283.888 23.6257 283.952 23.4553L284.956 23.6364C284.876 23.9323 284.732 24.1915 284.523 24.4141C284.317 24.6342 284.058 24.8059 283.746 24.929C283.435 25.0497 283.081 25.1101 282.684 25.1101Z" fill="white"/>
<rect x="269" y="58" width="95" height="5" rx="2.5" fill="white"/>
<rect x="280" y="69" width="72" height="4" rx="2" fill="white"/>
</g>
<g filter="url(#filter5_d_1247_1099)">
<rect x="0.5" y="0.5" width="114" height="114" rx="3.5" fill="#C3C8D7"/>
<rect x="0.5" y="0.5" width="114" height="114" rx="3.5" stroke="#EAECF5"/>
<path d="M67.7085 79.124L55.8888 57.4546L65.2263 41.8922L85.0833 79.124H67.7085ZM47.8515 51.8207L62.7442 79.124H32.9587L47.8515 51.8207ZM41.6462 46.8564C38.2191 46.8564 35.4409 44.0782 35.4409 40.6511C35.4409 37.224 38.2191 34.4458 41.6462 34.4458C45.0733 34.4458 47.8515 37.224 47.8515 40.6511C47.8515 44.0782 45.0733 46.8564 41.6462 46.8564Z" fill="url(#paint5_linear_1247_1099)"/>
<rect x="10" y="58" width="95" height="5" rx="2.5" fill="white"/>
<rect x="21" y="69" width="72" height="4" rx="2" fill="white"/>
</g>
<g filter="url(#filter6_d_1247_1099)">
<rect x="130.5" y="131.5" width="114" height="114" rx="3.5" fill="#C3C8D7"/>
<rect x="130.5" y="131.5" width="114" height="114" rx="3.5" stroke="#EAECF5"/>
<path d="M197.708 210.124L185.889 188.455L195.226 172.892L215.083 210.124H197.708ZM177.851 182.821L192.744 210.124H162.959L177.851 182.821ZM171.646 177.856C168.219 177.856 165.441 175.078 165.441 171.651C165.441 168.224 168.219 165.446 171.646 165.446C175.073 165.446 177.851 168.224 177.851 171.651C177.851 175.078 175.073 177.856 171.646 177.856Z" fill="url(#paint6_linear_1247_1099)"/>
<rect x="140" y="189" width="95" height="5" rx="2.5" fill="white"/>
<rect x="151" y="200" width="72" height="4" rx="2" fill="white"/>
</g>
<g filter="url(#filter7_d_1247_1099)">
<rect x="259.5" y="131.5" width="114" height="114" rx="3.5" fill="#C3C8D7"/>
<rect x="259.5" y="131.5" width="114" height="114" rx="3.5" stroke="#EAECF5"/>
<path d="M326.708 210.124L314.889 188.455L324.226 172.892L344.083 210.124H326.708ZM306.851 182.821L321.744 210.124H291.959L306.851 182.821ZM300.646 177.856C297.219 177.856 294.441 175.078 294.441 171.651C294.441 168.224 297.219 165.446 300.646 165.446C304.073 165.446 306.851 168.224 306.851 171.651C306.851 175.078 304.073 177.856 300.646 177.856Z" fill="url(#paint7_linear_1247_1099)"/>
<path d="M259 144H290C291.105 144 292 144.895 292 146V158C292 159.105 291.105 160 290 160H259V144Z" fill="#AEB6CD"/>
<path d="M269.766 150.638C269.728 150.302 269.571 150.041 269.297 149.857C269.022 149.67 268.677 149.576 268.26 149.576C267.962 149.576 267.704 149.623 267.486 149.718C267.268 149.81 267.099 149.938 266.978 150.102C266.86 150.263 266.8 150.446 266.8 150.652C266.8 150.825 266.841 150.974 266.921 151.099C267.004 151.225 267.112 151.33 267.244 151.415C267.379 151.498 267.524 151.568 267.678 151.625C267.831 151.679 267.979 151.724 268.121 151.76L268.832 151.945C269.064 152.001 269.302 152.078 269.545 152.175C269.789 152.272 270.015 152.4 270.224 152.559C270.432 152.718 270.6 152.914 270.728 153.148C270.858 153.383 270.923 153.663 270.923 153.99C270.923 154.402 270.817 154.768 270.604 155.087C270.393 155.407 270.086 155.659 269.684 155.844C269.284 156.028 268.8 156.121 268.232 156.121C267.687 156.121 267.216 156.034 266.818 155.862C266.42 155.689 266.109 155.444 265.884 155.126C265.659 154.807 265.535 154.428 265.511 153.99H266.612C266.634 154.253 266.719 154.472 266.868 154.647C267.019 154.82 267.212 154.949 267.447 155.034C267.683 155.117 267.943 155.158 268.224 155.158C268.535 155.158 268.81 155.11 269.052 155.013C269.296 154.913 269.487 154.776 269.627 154.601C269.767 154.423 269.837 154.216 269.837 153.979C269.837 153.764 269.775 153.588 269.652 153.45C269.531 153.313 269.367 153.199 269.158 153.109C268.952 153.019 268.719 152.94 268.459 152.871L267.599 152.637C267.017 152.478 266.555 152.245 266.214 151.938C265.876 151.63 265.707 151.223 265.707 150.716C265.707 150.297 265.82 149.931 266.048 149.619C266.275 149.306 266.583 149.063 266.971 148.891C267.359 148.715 267.797 148.628 268.285 148.628C268.777 148.628 269.212 148.714 269.588 148.887C269.967 149.06 270.265 149.298 270.483 149.601C270.701 149.902 270.814 150.247 270.824 150.638H269.766ZM273.737 156.121C273.391 156.121 273.079 156.057 272.799 155.929C272.52 155.799 272.298 155.611 272.135 155.364C271.974 155.118 271.894 154.816 271.894 154.459C271.894 154.151 271.953 153.898 272.071 153.699C272.19 153.5 272.349 153.343 272.551 153.227C272.752 153.111 272.977 153.023 273.225 152.964C273.474 152.905 273.727 152.86 273.985 152.829C274.312 152.791 274.577 152.76 274.781 152.737C274.984 152.71 275.132 152.669 275.225 152.612C275.317 152.555 275.363 152.463 275.363 152.335V152.31C275.363 152 275.276 151.76 275.1 151.589C274.927 151.419 274.669 151.334 274.326 151.334C273.969 151.334 273.687 151.413 273.481 151.572C273.277 151.728 273.137 151.902 273.058 152.094L272.061 151.866C272.179 151.535 272.352 151.268 272.579 151.064C272.809 150.858 273.073 150.709 273.371 150.616C273.669 150.522 273.983 150.474 274.312 150.474C274.53 150.474 274.761 150.5 275.004 150.553C275.251 150.602 275.48 150.695 275.693 150.83C275.909 150.964 276.085 151.157 276.222 151.408C276.36 151.657 276.428 151.98 276.428 152.378V156H275.392V155.254H275.349C275.28 155.392 275.177 155.527 275.04 155.659C274.903 155.792 274.726 155.902 274.511 155.989C274.295 156.077 274.037 156.121 273.737 156.121ZM273.968 155.268C274.261 155.268 274.512 155.21 274.72 155.094C274.931 154.978 275.091 154.827 275.2 154.64C275.311 154.451 275.367 154.248 275.367 154.033V153.33C275.329 153.367 275.255 153.403 275.146 153.436C275.04 153.467 274.918 153.494 274.781 153.518C274.643 153.539 274.51 153.559 274.379 153.578C274.249 153.595 274.14 153.609 274.053 153.621C273.847 153.647 273.659 153.691 273.488 153.752C273.32 153.814 273.185 153.902 273.083 154.018C272.984 154.132 272.934 154.284 272.934 154.473C272.934 154.736 273.031 154.935 273.225 155.07C273.419 155.202 273.667 155.268 273.968 155.268ZM278.904 148.727V156H277.843V148.727H278.904ZM282.684 156.11C282.146 156.11 281.684 155.995 281.295 155.766C280.909 155.534 280.611 155.208 280.4 154.789C280.192 154.368 280.088 153.874 280.088 153.308C280.088 152.75 280.192 152.257 280.4 151.831C280.611 151.405 280.905 151.072 281.281 150.833C281.66 150.594 282.103 150.474 282.609 150.474C282.917 150.474 283.215 150.525 283.504 150.627C283.793 150.729 284.052 150.889 284.282 151.107C284.511 151.324 284.693 151.607 284.825 151.955C284.958 152.301 285.024 152.721 285.024 153.216V153.592H280.688V152.797H283.983C283.983 152.518 283.927 152.27 283.813 152.055C283.699 151.837 283.54 151.665 283.334 151.54C283.13 151.414 282.891 151.352 282.616 151.352C282.318 151.352 282.058 151.425 281.835 151.572C281.615 151.716 281.444 151.906 281.324 152.14C281.205 152.372 281.146 152.624 281.146 152.896V153.518C281.146 153.882 281.21 154.192 281.338 154.448C281.468 154.704 281.649 154.899 281.881 155.034C282.113 155.167 282.384 155.233 282.694 155.233C282.896 155.233 283.079 155.205 283.245 155.148C283.411 155.089 283.554 155.001 283.675 154.885C283.795 154.769 283.888 154.626 283.952 154.455L284.956 154.636C284.876 154.932 284.732 155.192 284.523 155.414C284.317 155.634 284.058 155.806 283.746 155.929C283.435 156.05 283.081 156.11 282.684 156.11Z" fill="white"/>
<rect x="269" y="189" width="95" height="5" rx="2.5" fill="white"/>
<rect x="280" y="200" width="72" height="4" rx="2" fill="white"/>
</g>
<g filter="url(#filter8_d_1247_1099)">
<rect x="0.5" y="131.5" width="114" height="114" rx="3.5" fill="#C3C8D7"/>
<rect x="0.5" y="131.5" width="114" height="114" rx="3.5" stroke="#EAECF5"/>
<path d="M67.7085 210.124L55.8888 188.455L65.2263 172.892L85.0833 210.124H67.7085ZM47.8515 182.821L62.7442 210.124H32.9587L47.8515 182.821ZM41.6462 177.856C38.2191 177.856 35.4409 175.078 35.4409 171.651C35.4409 168.224 38.2191 165.446 41.6462 165.446C45.0733 165.446 47.8515 168.224 47.8515 171.651C47.8515 175.078 45.0733 177.856 41.6462 177.856Z" fill="url(#paint8_linear_1247_1099)"/>
<path d="M0 144H31C32.1046 144 33 144.895 33 146V158C33 159.105 32.1046 160 31 160H0V144Z" fill="#AEB6CD"/>
<path d="M10.7656 150.638C10.7277 150.302 10.5715 150.041 10.2969 149.857C10.0223 149.67 9.67661 149.576 9.25994 149.576C8.96165 149.576 8.7036 149.623 8.4858 149.718C8.26799 149.81 8.09872 149.938 7.97798 150.102C7.85961 150.263 7.80043 150.446 7.80043 150.652C7.80043 150.825 7.84067 150.974 7.92116 151.099C8.00402 151.225 8.11174 151.33 8.24432 151.415C8.37926 151.498 8.52367 151.568 8.67756 151.625C8.83144 151.679 8.9794 151.724 9.12145 151.76L9.83168 151.945C10.0637 152.001 10.3016 152.078 10.5455 152.175C10.7893 152.272 11.0154 152.4 11.2237 152.559C11.4321 152.718 11.6001 152.914 11.728 153.148C11.8582 153.383 11.9233 153.663 11.9233 153.99C11.9233 154.402 11.8168 154.768 11.6037 155.087C11.393 155.407 11.0864 155.659 10.6839 155.844C10.2839 156.028 9.79972 156.121 9.23153 156.121C8.68703 156.121 8.21591 156.034 7.81818 155.862C7.42045 155.689 7.10914 155.444 6.88423 155.126C6.65933 154.807 6.53504 154.428 6.51136 153.99H7.61222C7.63352 154.253 7.71875 154.472 7.8679 154.647C8.01941 154.82 8.21236 154.949 8.44673 155.034C8.68348 155.117 8.94271 155.158 9.22443 155.158C9.53456 155.158 9.81037 155.11 10.0518 155.013C10.2957 154.913 10.4875 154.776 10.6271 154.601C10.7668 154.423 10.8366 154.216 10.8366 153.979C10.8366 153.764 10.7751 153.588 10.652 153.45C10.5313 153.313 10.3667 153.199 10.1584 153.109C9.95241 153.019 9.71922 152.94 9.45881 152.871L8.59943 152.637C8.01705 152.478 7.5554 152.245 7.21449 151.938C6.87595 151.63 6.70668 151.223 6.70668 150.716C6.70668 150.297 6.82031 149.931 7.04759 149.619C7.27486 149.306 7.58262 149.063 7.97088 148.891C8.35914 148.715 8.79711 148.628 9.2848 148.628C9.77723 148.628 10.2116 148.714 10.5881 148.887C10.9669 149.06 11.2652 149.298 11.483 149.601C11.7008 149.902 11.8144 150.247 11.8239 150.638H10.7656ZM14.7367 156.121C14.391 156.121 14.0785 156.057 13.7992 155.929C13.5198 155.799 13.2985 155.611 13.1351 155.364C12.9741 155.118 12.8936 154.816 12.8936 154.459C12.8936 154.151 12.9528 153.898 13.0712 153.699C13.1896 153.5 13.3494 153.343 13.5506 153.227C13.7518 153.111 13.9767 153.023 14.2253 152.964C14.4739 152.905 14.7272 152.86 14.9853 152.829C15.312 152.791 15.5771 152.76 15.7807 152.737C15.9843 152.71 16.1323 152.669 16.2246 152.612C16.3169 152.555 16.3631 152.463 16.3631 152.335V152.31C16.3631 152 16.2755 151.76 16.1003 151.589C15.9275 151.419 15.6694 151.334 15.3262 151.334C14.9687 151.334 14.687 151.413 14.481 151.572C14.2774 151.728 14.1365 151.902 14.0584 152.094L13.0605 151.866C13.1789 151.535 13.3517 151.268 13.579 151.064C13.8087 150.858 14.0726 150.709 14.3709 150.616C14.6692 150.522 14.9829 150.474 15.312 150.474C15.5298 150.474 15.7606 150.5 16.0044 150.553C16.2507 150.602 16.4803 150.695 16.6934 150.83C16.9088 150.964 17.0852 151.157 17.2225 151.408C17.3598 151.657 17.4284 151.98 17.4284 152.378V156H16.3915V155.254H16.3489C16.2802 155.392 16.1773 155.527 16.04 155.659C15.9026 155.792 15.7263 155.902 15.5108 155.989C15.2954 156.077 15.0373 156.121 14.7367 156.121ZM14.9675 155.268C15.2611 155.268 15.512 155.21 15.7203 155.094C15.931 154.978 16.0909 154.827 16.1998 154.64C16.311 154.451 16.3667 154.248 16.3667 154.033V153.33C16.3288 153.367 16.2554 153.403 16.1465 153.436C16.04 153.467 15.918 153.494 15.7807 153.518C15.6434 153.539 15.5096 153.559 15.3794 153.578C15.2492 153.595 15.1403 153.609 15.0527 153.621C14.8468 153.647 14.6586 153.691 14.4881 153.752C14.32 153.814 14.1851 153.902 14.0833 154.018C13.9838 154.132 13.9341 154.284 13.9341 154.473C13.9341 154.736 14.0312 154.935 14.2253 155.07C14.4194 155.202 14.6668 155.268 14.9675 155.268ZM19.9045 148.727V156H18.8427V148.727H19.9045ZM23.6838 156.11C23.1464 156.11 22.6835 155.995 22.2953 155.766C21.9094 155.534 21.6111 155.208 21.4004 154.789C21.1921 154.368 21.0879 153.874 21.0879 153.308C21.0879 152.75 21.1921 152.257 21.4004 151.831C21.6111 151.405 21.9047 151.072 22.2811 150.833C22.6599 150.594 23.1026 150.474 23.6092 150.474C23.917 150.474 24.2153 150.525 24.5041 150.627C24.7929 150.729 25.0521 150.889 25.2818 151.107C25.5114 151.324 25.6925 151.607 25.8251 151.955C25.9577 152.301 26.024 152.721 26.024 153.216V153.592H21.688V152.797H24.9835C24.9835 152.518 24.9267 152.27 24.813 152.055C24.6994 151.837 24.5396 151.665 24.3336 151.54C24.13 151.414 23.8909 151.352 23.6163 151.352C23.318 151.352 23.0576 151.425 22.835 151.572C22.6149 151.716 22.4444 151.906 22.3237 152.14C22.2053 152.372 22.1461 152.624 22.1461 152.896V153.518C22.1461 153.882 22.21 154.192 22.3379 154.448C22.4681 154.704 22.6492 154.899 22.8812 155.034C23.1132 155.167 23.3843 155.233 23.6944 155.233C23.8957 155.233 24.0791 155.205 24.2449 155.148C24.4106 155.089 24.5538 155.001 24.6745 154.885C24.7953 154.769 24.8876 154.626 24.9515 154.455L25.9565 154.636C25.876 154.932 25.7316 155.192 25.5233 155.414C25.3173 155.634 25.0581 155.806 24.7456 155.929C24.4354 156.05 24.0815 156.11 23.6838 156.11Z" fill="white"/>
<rect x="10" y="189" width="95" height="5" rx="2.5" fill="white"/>
<rect x="21" y="200" width="72" height="4" rx="2" fill="white"/>
</g>
</g>
<defs>
<filter id="filter0_d_1247_1099" x="122" y="147" width="131" height="135.718" filterUnits="userSpaceOnUse" color-interpolation-filters="sRGB">
<feFlood flood-opacity="0" result="BackgroundImageFix"/>
<feColorMatrix in="SourceAlpha" type="matrix" values="0 0 0 0 0 0 0 0 0 0 0 0 0 0 0 0 0 0 127 0" result="hardAlpha"/>
<feOffset dy="3"/>
<feGaussianBlur stdDeviation="4"/>
<feComposite in2="hardAlpha" operator="out"/>
<feColorMatrix type="matrix" values="0 0 0 0 0 0 0 0 0 0 0 0 0 0 0 0 0 0 0.25 0"/>
<feBlend mode="normal" in2="BackgroundImageFix" result="effect1_dropShadow_1247_1099"/>
<feBlend mode="normal" in="SourceGraphic" in2="effect1_dropShadow_1247_1099" result="shape"/>
</filter>
<filter id="filter1_d_1247_1099" x="252" y="147" width="131" height="135.718" filterUnits="userSpaceOnUse" color-interpolation-filters="sRGB">
<feFlood flood-opacity="0" result="BackgroundImageFix"/>
<feColorMatrix in="SourceAlpha" type="matrix" values="0 0 0 0 0 0 0 0 0 0 0 0 0 0 0 0 0 0 127 0" result="hardAlpha"/>
<feOffset dy="3"/>
<feGaussianBlur stdDeviation="4"/>
<feComposite in2="hardAlpha" operator="out"/>
<feColorMatrix type="matrix" values="0 0 0 0 0 0 0 0 0 0 0 0 0 0 0 0 0 0 0.25 0"/>
<feBlend mode="normal" in2="BackgroundImageFix" result="effect1_dropShadow_1247_1099"/>
<feBlend mode="normal" in="SourceGraphic" in2="effect1_dropShadow_1247_1099" result="shape"/>
</filter>
<filter id="filter2_d_1247_1099" x="-8" y="147" width="131" height="135.718" filterUnits="userSpaceOnUse" color-interpolation-filters="sRGB">
<feFlood flood-opacity="0" result="BackgroundImageFix"/>
<feColorMatrix in="SourceAlpha" type="matrix" values="0 0 0 0 0 0 0 0 0 0 0 0 0 0 0 0 0 0 127 0" result="hardAlpha"/>
<feOffset dy="3"/>
<feGaussianBlur stdDeviation="4"/>
<feComposite in2="hardAlpha" operator="out"/>
<feColorMatrix type="matrix" values="0 0 0 0 0 0 0 0 0 0 0 0 0 0 0 0 0 0 0.25 0"/>
<feBlend mode="normal" in2="BackgroundImageFix" result="effect1_dropShadow_1247_1099"/>
<feBlend mode="normal" in="SourceGraphic" in2="effect1_dropShadow_1247_1099" result="shape"/>
</filter>
<filter id="filter3_d_1247_1099" x="122" y="-5" width="131" height="135.718" filterUnits="userSpaceOnUse" color-interpolation-filters="sRGB">
<feFlood flood-opacity="0" result="BackgroundImageFix"/>
<feColorMatrix in="SourceAlpha" type="matrix" values="0 0 0 0 0 0 0 0 0 0 0 0 0 0 0 0 0 0 127 0" result="hardAlpha"/>
<feOffset dy="3"/>
<feGaussianBlur stdDeviation="4"/>
<feComposite in2="hardAlpha" operator="out"/>
<feColorMatrix type="matrix" values="0 0 0 0 0 0 0 0 0 0 0 0 0 0 0 0 0 0 0.25 0"/>
<feBlend mode="normal" in2="BackgroundImageFix" result="effect1_dropShadow_1247_1099"/>
<feBlend mode="normal" in="SourceGraphic" in2="effect1_dropShadow_1247_1099" result="shape"/>
</filter>
<filter id="filter4_d_1247_1099" x="251" y="-5" width="131" height="135.718" filterUnits="userSpaceOnUse" color-interpolation-filters="sRGB">
<feFlood flood-opacity="0" result="BackgroundImageFix"/>
<feColorMatrix in="SourceAlpha" type="matrix" values="0 0 0 0 0 0 0 0 0 0 0 0 0 0 0 0 0 0 127 0" result="hardAlpha"/>
<feOffset dy="3"/>
<feGaussianBlur stdDeviation="4"/>
<feComposite in2="hardAlpha" operator="out"/>
<feColorMatrix type="matrix" values="0 0 0 0 0 0 0 0 0 0 0 0 0 0 0 0 0 0 0.25 0"/>
<feBlend mode="normal" in2="BackgroundImageFix" result="effect1_dropShadow_1247_1099"/>
<feBlend mode="normal" in="SourceGraphic" in2="effect1_dropShadow_1247_1099" result="shape"/>
</filter>
<filter id="filter5_d_1247_1099" x="-8" y="-5" width="131" height="135.718" filterUnits="userSpaceOnUse" color-interpolation-filters="sRGB">
<feFlood flood-opacity="0" result="BackgroundImageFix"/>
<feColorMatrix in="SourceAlpha" type="matrix" values="0 0 0 0 0 0 0 0 0 0 0 0 0 0 0 0 0 0 127 0" result="hardAlpha"/>
<feOffset dy="3"/>
<feGaussianBlur stdDeviation="4"/>
<feComposite in2="hardAlpha" operator="out"/>
<feColorMatrix type="matrix" values="0 0 0 0 0 0 0 0 0 0 0 0 0 0 0 0 0 0 0.25 0"/>
<feBlend mode="normal" in2="BackgroundImageFix" result="effect1_dropShadow_1247_1099"/>
<feBlend mode="normal" in="SourceGraphic" in2="effect1_dropShadow_1247_1099" result="shape"/>
</filter>
<filter id="filter6_d_1247_1099" x="122" y="126" width="131" height="135.718" filterUnits="userSpaceOnUse" color-interpolation-filters="sRGB">
<feFlood flood-opacity="0" result="BackgroundImageFix"/>
<feColorMatrix in="SourceAlpha" type="matrix" values="0 0 0 0 0 0 0 0 0 0 0 0 0 0 0 0 0 0 127 0" result="hardAlpha"/>
<feOffset dy="3"/>
<feGaussianBlur stdDeviation="4"/>
<feComposite in2="hardAlpha" operator="out"/>
<feColorMatrix type="matrix" values="0 0 0 0 0 0 0 0 0 0 0 0 0 0 0 0 0 0 0.25 0"/>
<feBlend mode="normal" in2="BackgroundImageFix" result="effect1_dropShadow_1247_1099"/>
<feBlend mode="normal" in="SourceGraphic" in2="effect1_dropShadow_1247_1099" result="shape"/>
</filter>
<filter id="filter7_d_1247_1099" x="251" y="126" width="131" height="135.718" filterUnits="userSpaceOnUse" color-interpolation-filters="sRGB">
<feFlood flood-opacity="0" result="BackgroundImageFix"/>
<feColorMatrix in="SourceAlpha" type="matrix" values="0 0 0 0 0 0 0 0 0 0 0 0 0 0 0 0 0 0 127 0" result="hardAlpha"/>
<feOffset dy="3"/>
<feGaussianBlur stdDeviation="4"/>
<feComposite in2="hardAlpha" operator="out"/>
<feColorMatrix type="matrix" values="0 0 0 0 0 0 0 0 0 0 0 0 0 0 0 0 0 0 0.25 0"/>
<feBlend mode="normal" in2="BackgroundImageFix" result="effect1_dropShadow_1247_1099"/>
<feBlend mode="normal" in="SourceGraphic" in2="effect1_dropShadow_1247_1099" result="shape"/>
</filter>
<filter id="filter8_d_1247_1099" x="-8" y="126" width="131" height="135.718" filterUnits="userSpaceOnUse" color-interpolation-filters="sRGB">
<feFlood flood-opacity="0" result="BackgroundImageFix"/>
<feColorMatrix in="SourceAlpha" type="matrix" values="0 0 0 0 0 0 0 0 0 0 0 0 0 0 0 0 0 0 127 0" result="hardAlpha"/>
<feOffset dy="3"/>
<feGaussianBlur stdDeviation="4"/>
<feComposite in2="hardAlpha" operator="out"/>
<feColorMatrix type="matrix" values="0 0 0 0 0 0 0 0 0 0 0 0 0 0 0 0 0 0 0.25 0"/>
<feBlend mode="normal" in2="BackgroundImageFix" result="effect1_dropShadow_1247_1099"/>
<feBlend mode="normal" in="SourceGraphic" in2="effect1_dropShadow_1247_1099" result="shape"/>
</filter>
<linearGradient id="paint0_linear_1247_1099" x1="189.021" y1="186.446" x2="189.021" y2="243" gradientUnits="userSpaceOnUse">
<stop stop-color="#D0D5E2"/>
<stop offset="1" stop-color="#C3C8D7"/>
</linearGradient>
<linearGradient id="paint1_linear_1247_1099" x1="319.021" y1="186.446" x2="319.021" y2="243" gradientUnits="userSpaceOnUse">
<stop stop-color="#D0D5E2"/>
<stop offset="1" stop-color="#C3C8D7"/>
</linearGradient>
<linearGradient id="paint2_linear_1247_1099" x1="59.021" y1="186.446" x2="59.021" y2="243" gradientUnits="userSpaceOnUse">
<stop stop-color="#D0D5E2"/>
<stop offset="1" stop-color="#C3C8D7"/>
</linearGradient>
<linearGradient id="paint3_linear_1247_1099" x1="189.021" y1="34.4458" x2="189.021" y2="91" gradientUnits="userSpaceOnUse">
<stop stop-color="#D0D5E2"/>
<stop offset="1" stop-color="#C3C8D7"/>
</linearGradient>
<linearGradient id="paint4_linear_1247_1099" x1="318.021" y1="34.4458" x2="318.021" y2="91" gradientUnits="userSpaceOnUse">
<stop stop-color="#D0D5E2"/>
<stop offset="1" stop-color="#C3C8D7"/>
</linearGradient>
<linearGradient id="paint5_linear_1247_1099" x1="59.021" y1="34.4458" x2="59.021" y2="91" gradientUnits="userSpaceOnUse">
<stop stop-color="#D0D5E2"/>
<stop offset="1" stop-color="#C3C8D7"/>
</linearGradient>
<linearGradient id="paint6_linear_1247_1099" x1="189.021" y1="165.446" x2="189.021" y2="222" gradientUnits="userSpaceOnUse">
<stop stop-color="#D0D5E2"/>
<stop offset="1" stop-color="#C3C8D7"/>
</linearGradient>
<linearGradient id="paint7_linear_1247_1099" x1="318.021" y1="165.446" x2="318.021" y2="222" gradientUnits="userSpaceOnUse">
<stop stop-color="#D0D5E2"/>
<stop offset="1" stop-color="#C3C8D7"/>
</linearGradient>
<linearGradient id="paint8_linear_1247_1099" x1="59.021" y1="165.446" x2="59.021" y2="222" gradientUnits="userSpaceOnUse">
<stop stop-color="#D0D5E2"/>
<stop offset="1" stop-color="#C3C8D7"/>
</linearGradient>
<clipPath id="clip0_1247_1099">
<rect width="374" height="242" fill="white"/>
</clipPath>
</defs>
</svg>
