<svg width="374" height="242" viewBox="0 0 374 242" fill="none" xmlns="http://www.w3.org/2000/svg">
<g clip-path="url(#clip0_1247_857)">
<g filter="url(#filter0_d_1247_857)">
<rect x="129" y="152" width="115" height="136" rx="3.72319" fill="white"/>
<path d="M196.708 210.641L184.889 188.971L194.226 173.409L214.083 210.641H196.708ZM176.851 183.337L191.744 210.641H161.959L176.851 183.337ZM170.646 178.373C167.219 178.373 164.441 175.595 164.441 172.168C164.441 168.741 167.219 165.962 170.646 165.962C174.073 165.962 176.851 168.741 176.851 172.168C176.851 175.595 174.073 178.373 170.646 178.373Z" fill="white"/>
</g>
<path d="M129 155.723C129 153.667 130.667 152 132.723 152H240.277C242.333 152 244 153.667 244 155.723V255H129V155.723Z" fill="#F1F3F9"/>
<path d="M196.708 225.124L184.889 203.455L194.226 187.892L214.083 225.124H196.708ZM176.851 197.821L191.744 225.124H161.959L176.851 197.821ZM170.646 192.856C167.219 192.856 164.441 190.078 164.441 186.651C164.441 183.224 167.219 180.446 170.646 180.446C174.073 180.446 176.851 183.224 176.851 186.651C176.851 190.078 174.073 192.856 170.646 192.856Z" fill="white"/>
<g filter="url(#filter1_d_1247_857)">
<rect x="259" y="152" width="115" height="136" rx="3.72319" fill="white"/>
<path d="M326.708 210.641L314.889 188.971L324.226 173.409L344.083 210.641H326.708ZM306.851 183.337L321.744 210.641H291.959L306.851 183.337ZM300.646 178.373C297.219 178.373 294.441 175.595 294.441 172.168C294.441 168.741 297.219 165.962 300.646 165.962C304.073 165.962 306.851 168.741 306.851 172.168C306.851 175.595 304.073 178.373 300.646 178.373Z" fill="white"/>
</g>
<path d="M259 155.723C259 153.667 260.667 152 262.723 152H370.277C372.333 152 374 153.667 374 155.723V255H259V155.723Z" fill="#F1F3F9"/>
<path d="M326.708 225.124L314.889 203.455L324.226 187.892L344.083 225.124H326.708ZM306.851 197.821L321.744 225.124H291.959L306.851 197.821ZM300.646 192.856C297.219 192.856 294.441 190.078 294.441 186.651C294.441 183.224 297.219 180.446 300.646 180.446C304.073 180.446 306.851 183.224 306.851 186.651C306.851 190.078 304.073 192.856 300.646 192.856Z" fill="white"/>
<rect width="33" height="16" transform="translate(259 165)" fill="#CFD3DC"/>
<path d="M269.766 171.638C269.728 171.302 269.571 171.041 269.297 170.857C269.022 170.67 268.677 170.576 268.26 170.576C267.962 170.576 267.704 170.623 267.486 170.718C267.268 170.81 267.099 170.938 266.978 171.102C266.86 171.263 266.8 171.446 266.8 171.652C266.8 171.825 266.841 171.974 266.921 172.099C267.004 172.225 267.112 172.33 267.244 172.415C267.379 172.498 267.524 172.568 267.678 172.625C267.831 172.679 267.979 172.724 268.121 172.76L268.832 172.945C269.064 173.001 269.302 173.078 269.545 173.175C269.789 173.272 270.015 173.4 270.224 173.559C270.432 173.718 270.6 173.914 270.728 174.148C270.858 174.383 270.923 174.663 270.923 174.99C270.923 175.402 270.817 175.768 270.604 176.087C270.393 176.407 270.086 176.659 269.684 176.844C269.284 177.028 268.8 177.121 268.232 177.121C267.687 177.121 267.216 177.034 266.818 176.862C266.42 176.689 266.109 176.444 265.884 176.126C265.659 175.807 265.535 175.428 265.511 174.99H266.612C266.634 175.253 266.719 175.472 266.868 175.647C267.019 175.82 267.212 175.949 267.447 176.034C267.683 176.117 267.943 176.158 268.224 176.158C268.535 176.158 268.81 176.11 269.052 176.013C269.296 175.913 269.487 175.776 269.627 175.601C269.767 175.423 269.837 175.216 269.837 174.979C269.837 174.764 269.775 174.588 269.652 174.45C269.531 174.313 269.367 174.199 269.158 174.109C268.952 174.019 268.719 173.94 268.459 173.871L267.599 173.637C267.017 173.478 266.555 173.245 266.214 172.938C265.876 172.63 265.707 172.223 265.707 171.716C265.707 171.297 265.82 170.931 266.048 170.619C266.275 170.306 266.583 170.063 266.971 169.891C267.359 169.715 267.797 169.628 268.285 169.628C268.777 169.628 269.212 169.714 269.588 169.887C269.967 170.06 270.265 170.298 270.483 170.601C270.701 170.902 270.814 171.247 270.824 171.638H269.766ZM273.737 177.121C273.391 177.121 273.079 177.057 272.799 176.929C272.52 176.799 272.298 176.611 272.135 176.364C271.974 176.118 271.894 175.816 271.894 175.459C271.894 175.151 271.953 174.898 272.071 174.699C272.19 174.5 272.349 174.343 272.551 174.227C272.752 174.111 272.977 174.023 273.225 173.964C273.474 173.905 273.727 173.86 273.985 173.829C274.312 173.791 274.577 173.76 274.781 173.737C274.984 173.71 275.132 173.669 275.225 173.612C275.317 173.555 275.363 173.463 275.363 173.335V173.31C275.363 173 275.276 172.76 275.1 172.589C274.927 172.419 274.669 172.334 274.326 172.334C273.969 172.334 273.687 172.413 273.481 172.572C273.277 172.728 273.137 172.902 273.058 173.094L272.061 172.866C272.179 172.535 272.352 172.268 272.579 172.064C272.809 171.858 273.073 171.709 273.371 171.616C273.669 171.522 273.983 171.474 274.312 171.474C274.53 171.474 274.761 171.5 275.004 171.553C275.251 171.602 275.48 171.695 275.693 171.83C275.909 171.964 276.085 172.157 276.222 172.408C276.36 172.657 276.428 172.98 276.428 173.378V177H275.392V176.254H275.349C275.28 176.392 275.177 176.527 275.04 176.659C274.903 176.792 274.726 176.902 274.511 176.989C274.295 177.077 274.037 177.121 273.737 177.121ZM273.968 176.268C274.261 176.268 274.512 176.21 274.72 176.094C274.931 175.978 275.091 175.827 275.2 175.64C275.311 175.451 275.367 175.248 275.367 175.033V174.33C275.329 174.367 275.255 174.403 275.146 174.436C275.04 174.467 274.918 174.494 274.781 174.518C274.643 174.539 274.51 174.559 274.379 174.578C274.249 174.595 274.14 174.609 274.053 174.621C273.847 174.647 273.659 174.691 273.488 174.752C273.32 174.814 273.185 174.902 273.083 175.018C272.984 175.132 272.934 175.284 272.934 175.473C272.934 175.736 273.031 175.935 273.225 176.07C273.419 176.202 273.667 176.268 273.968 176.268ZM278.904 169.727V177H277.843V169.727H278.904ZM282.684 177.11C282.146 177.11 281.684 176.995 281.295 176.766C280.909 176.534 280.611 176.208 280.4 175.789C280.192 175.368 280.088 174.874 280.088 174.308C280.088 173.75 280.192 173.257 280.4 172.831C280.611 172.405 280.905 172.072 281.281 171.833C281.66 171.594 282.103 171.474 282.609 171.474C282.917 171.474 283.215 171.525 283.504 171.627C283.793 171.729 284.052 171.889 284.282 172.107C284.511 172.324 284.693 172.607 284.825 172.955C284.958 173.301 285.024 173.721 285.024 174.216V174.592H280.688V173.797H283.983C283.983 173.518 283.927 173.27 283.813 173.055C283.699 172.837 283.54 172.665 283.334 172.54C283.13 172.414 282.891 172.352 282.616 172.352C282.318 172.352 282.058 172.425 281.835 172.572C281.615 172.716 281.444 172.906 281.324 173.14C281.205 173.372 281.146 173.624 281.146 173.896V174.518C281.146 174.882 281.21 175.192 281.338 175.448C281.468 175.704 281.649 175.899 281.881 176.034C282.113 176.167 282.384 176.233 282.694 176.233C282.896 176.233 283.079 176.205 283.245 176.148C283.411 176.089 283.554 176.001 283.675 175.885C283.795 175.769 283.888 175.626 283.952 175.455L284.956 175.636C284.876 175.932 284.732 176.192 284.523 176.414C284.317 176.634 284.058 176.806 283.746 176.929C283.435 177.05 283.081 177.11 282.684 177.11Z" fill="white"/>
<g filter="url(#filter2_d_1247_857)">
<rect y="152" width="115" height="136" rx="3.72319" fill="white"/>
<path d="M67.7085 210.641L55.8888 188.971L65.2263 173.409L85.0833 210.641H67.7085ZM47.8515 183.337L62.7442 210.641H32.9587L47.8515 183.337ZM41.6462 178.373C38.2191 178.373 35.4409 175.595 35.4409 172.168C35.4409 168.741 38.2191 165.962 41.6462 165.962C45.0733 165.962 47.8515 168.741 47.8515 172.168C47.8515 175.595 45.0733 178.373 41.6462 178.373Z" fill="white"/>
</g>
<path d="M0 155.723C0 153.667 1.66693 152 3.72319 152H111.277C113.333 152 115 153.667 115 155.723V255H0V155.723Z" fill="#F1F3F9"/>
<path d="M67.7085 225.124L55.8888 203.455L65.2263 187.892L85.0833 225.124H67.7085ZM47.8515 197.821L62.7442 225.124H32.9587L47.8515 197.821ZM41.6462 192.856C38.2191 192.856 35.4409 190.078 35.4409 186.651C35.4409 183.224 38.2191 180.446 41.6462 180.446C45.0733 180.446 47.8515 183.224 47.8515 186.651C47.8515 190.078 45.0733 192.856 41.6462 192.856Z" fill="white"/>
<g filter="url(#filter3_d_1247_857)">
<rect x="129" width="115" height="136" rx="3.72319" fill="white"/>
<path d="M196.708 58.6405L184.889 36.9711L194.226 21.4087L214.083 58.6405H196.708ZM176.851 31.3372L191.744 58.6405H161.959L176.851 31.3372ZM170.646 26.3729C167.219 26.3729 164.441 23.5947 164.441 20.1676C164.441 16.7405 167.219 13.9623 170.646 13.9623C174.073 13.9623 176.851 16.7405 176.851 20.1676C176.851 23.5947 174.073 26.3729 170.646 26.3729Z" fill="white"/>
</g>
<path d="M129 3.72318C129 1.66693 130.667 0 132.723 0H240.277C242.333 0 244 1.66693 244 3.72319V103H129V3.72318Z" fill="#F1F3F9"/>
<path d="M196.708 73.124L184.889 51.4546L194.226 35.8922L214.083 73.124H196.708ZM176.851 45.8207L191.744 73.124H161.959L176.851 45.8207ZM170.646 40.8564C167.219 40.8564 164.441 38.0782 164.441 34.6511C164.441 31.224 167.219 28.4458 170.646 28.4458C174.073 28.4458 176.851 31.224 176.851 34.6511C176.851 38.0782 174.073 40.8564 170.646 40.8564Z" fill="white"/>
<rect x="136" y="112" width="95" height="5" rx="2.5" fill="#EBEDF4"/>
<rect x="136" y="123" width="72" height="5" rx="2.5" fill="#EBEDF4"/>
<g filter="url(#filter4_d_1247_857)">
<rect x="259" width="115" height="136" rx="3.72319" fill="white"/>
<path d="M326.708 58.6405L314.889 36.9711L324.226 21.4087L344.083 58.6405H326.708ZM306.851 31.3372L321.744 58.6405H291.959L306.851 31.3372ZM300.646 26.3729C297.219 26.3729 294.441 23.5947 294.441 20.1676C294.441 16.7405 297.219 13.9623 300.646 13.9623C304.073 13.9623 306.851 16.7405 306.851 20.1676C306.851 23.5947 304.073 26.3729 300.646 26.3729Z" fill="white"/>
</g>
<path d="M259 3.72318C259 1.66693 260.667 0 262.723 0H370.277C372.333 0 374 1.66693 374 3.72319V103H259V3.72318Z" fill="#F1F3F9"/>
<path d="M326.708 73.124L314.889 51.4546L324.226 35.8922L344.083 73.124H326.708ZM306.851 45.8207L321.744 73.124H291.959L306.851 45.8207ZM300.646 40.8564C297.219 40.8564 294.441 38.0782 294.441 34.6511C294.441 31.224 297.219 28.4458 300.646 28.4458C304.073 28.4458 306.851 31.224 306.851 34.6511C306.851 38.0782 304.073 40.8564 300.646 40.8564Z" fill="white"/>
<rect width="33" height="16" transform="translate(259 13)" fill="#CFD3DC"/>
<path d="M269.766 19.6378C269.728 19.3016 269.571 19.0412 269.297 18.8565C269.022 18.6695 268.677 18.576 268.26 18.576C267.962 18.576 267.704 18.6233 267.486 18.718C267.268 18.8104 267.099 18.9382 266.978 19.1016C266.86 19.2625 266.8 19.446 266.8 19.652C266.8 19.8248 266.841 19.974 266.921 20.0994C267.004 20.2249 267.112 20.3303 267.244 20.4155C267.379 20.4983 267.524 20.5682 267.678 20.625C267.831 20.6795 267.979 20.7244 268.121 20.7599L268.832 20.9446C269.064 21.0014 269.302 21.0784 269.545 21.1754C269.789 21.2725 270.015 21.4003 270.224 21.5589C270.432 21.7176 270.6 21.9141 270.728 22.1484C270.858 22.3828 270.923 22.6634 270.923 22.9901C270.923 23.402 270.817 23.7678 270.604 24.0874C270.393 24.407 270.086 24.6591 269.684 24.8438C269.284 25.0284 268.8 25.1207 268.232 25.1207C267.687 25.1207 267.216 25.0343 266.818 24.8615C266.42 24.6887 266.109 24.4437 265.884 24.1264C265.659 23.8068 265.535 23.428 265.511 22.9901H266.612C266.634 23.2528 266.719 23.4718 266.868 23.647C267.019 23.8198 267.212 23.9489 267.447 24.0341C267.683 24.117 267.943 24.1584 268.224 24.1584C268.535 24.1584 268.81 24.1098 269.052 24.0128C269.296 23.9134 269.487 23.776 269.627 23.6009C269.767 23.4233 269.837 23.2161 269.837 22.9794C269.837 22.764 269.775 22.5876 269.652 22.4503C269.531 22.313 269.367 22.1993 269.158 22.1094C268.952 22.0194 268.719 21.9401 268.459 21.8714L267.599 21.6371C267.017 21.4785 266.555 21.2453 266.214 20.9375C265.876 20.6297 265.707 20.2225 265.707 19.7159C265.707 19.2969 265.82 18.9311 266.048 18.6186C266.275 18.3061 266.583 18.0634 266.971 17.8906C267.359 17.7154 267.797 17.6278 268.285 17.6278C268.777 17.6278 269.212 17.7143 269.588 17.8871C269.967 18.0599 270.265 18.2978 270.483 18.6009C270.701 18.9015 270.814 19.2472 270.824 19.6378H269.766ZM273.737 25.1207C273.391 25.1207 273.079 25.0568 272.799 24.929C272.52 24.7988 272.298 24.6106 272.135 24.3643C271.974 24.1181 271.894 23.8163 271.894 23.4588C271.894 23.151 271.953 22.8977 272.071 22.6989C272.19 22.5 272.349 22.3426 272.551 22.2266C272.752 22.1106 272.977 22.023 273.225 21.9638C273.474 21.9046 273.727 21.8596 273.985 21.8288C274.312 21.791 274.577 21.7602 274.781 21.7365C274.984 21.7105 275.132 21.669 275.225 21.6122C275.317 21.5554 275.363 21.4631 275.363 21.3352V21.3104C275.363 21.0002 275.276 20.7599 275.1 20.5895C274.927 20.419 274.669 20.3338 274.326 20.3338C273.969 20.3338 273.687 20.4131 273.481 20.5717C273.277 20.728 273.137 20.902 273.058 21.0938L272.061 20.8665C272.179 20.535 272.352 20.2675 272.579 20.0639C272.809 19.858 273.073 19.7088 273.371 19.6165C273.669 19.5218 273.983 19.4744 274.312 19.4744C274.53 19.4744 274.761 19.5005 275.004 19.5526C275.251 19.6023 275.48 19.6946 275.693 19.8295C275.909 19.9645 276.085 20.1574 276.222 20.4084C276.36 20.657 276.428 20.9801 276.428 21.3778V25H275.392V24.2543H275.349C275.28 24.3916 275.177 24.5265 275.04 24.6591C274.903 24.7917 274.726 24.9018 274.511 24.9893C274.295 25.0769 274.037 25.1207 273.737 25.1207ZM273.968 24.2685C274.261 24.2685 274.512 24.2105 274.72 24.0945C274.931 23.9785 275.091 23.8269 275.2 23.6399C275.311 23.4505 275.367 23.2481 275.367 23.0327V22.3295C275.329 22.3674 275.255 22.4029 275.146 22.4361C275.04 22.4669 274.918 22.4941 274.781 22.5178C274.643 22.5391 274.51 22.5592 274.379 22.5781C274.249 22.5947 274.14 22.6089 274.053 22.6207C273.847 22.6468 273.659 22.6906 273.488 22.7521C273.32 22.8137 273.185 22.9025 273.083 23.0185C272.984 23.1321 272.934 23.2836 272.934 23.473C272.934 23.7358 273.031 23.9347 273.225 24.0696C273.419 24.2022 273.667 24.2685 273.968 24.2685ZM278.904 17.7273V25H277.843V17.7273H278.904ZM282.684 25.1101C282.146 25.1101 281.684 24.9953 281.295 24.7656C280.909 24.5336 280.611 24.2081 280.4 23.7891C280.192 23.3677 280.088 22.8741 280.088 22.3082C280.088 21.7495 280.192 21.2571 280.4 20.831C280.611 20.4048 280.905 20.0722 281.281 19.8331C281.66 19.594 282.103 19.4744 282.609 19.4744C282.917 19.4744 283.215 19.5253 283.504 19.6271C283.793 19.7289 284.052 19.8887 284.282 20.1065C284.511 20.3243 284.693 20.6072 284.825 20.9553C284.958 21.3009 285.024 21.7211 285.024 22.2159V22.5923H280.688V21.7969H283.983C283.983 21.5175 283.927 21.2701 283.813 21.0547C283.699 20.8369 283.54 20.6652 283.334 20.5398C283.13 20.4143 282.891 20.3516 282.616 20.3516C282.318 20.3516 282.058 20.425 281.835 20.5717C281.615 20.7161 281.444 20.9055 281.324 21.1399C281.205 21.3719 281.146 21.6241 281.146 21.8963V22.5178C281.146 22.8823 281.21 23.1925 281.338 23.4482C281.468 23.7038 281.649 23.8991 281.881 24.0341C282.113 24.1667 282.384 24.233 282.694 24.233C282.896 24.233 283.079 24.2045 283.245 24.1477C283.411 24.0885 283.554 24.0009 283.675 23.8849C283.795 23.7689 283.888 23.6257 283.952 23.4553L284.956 23.6364C284.876 23.9323 284.732 24.1915 284.523 24.4141C284.317 24.6342 284.058 24.8059 283.746 24.929C283.435 25.0497 283.081 25.1101 282.684 25.1101Z" fill="white"/>
<rect x="266" y="112" width="95" height="5" rx="2.5" fill="#EBEDF4"/>
<rect x="266" y="123" width="72" height="5" rx="2.5" fill="#EBEDF4"/>
<g filter="url(#filter5_d_1247_857)">
<rect width="115" height="136" rx="3.72319" fill="white"/>
<path d="M67.7085 58.6405L55.8888 36.9711L65.2263 21.4087L85.0833 58.6405H67.7085ZM47.8515 31.3372L62.7442 58.6405H32.9587L47.8515 31.3372ZM41.6462 26.3729C38.2191 26.3729 35.4409 23.5947 35.4409 20.1676C35.4409 16.7405 38.2191 13.9623 41.6462 13.9623C45.0733 13.9623 47.8515 16.7405 47.8515 20.1676C47.8515 23.5947 45.0733 26.3729 41.6462 26.3729Z" fill="white"/>
</g>
<path d="M0 3.72318C0 1.66693 1.66693 0 3.72319 0H111.277C113.333 0 115 1.66693 115 3.72319V103H0V3.72318Z" fill="#F1F3F9"/>
<path d="M67.7085 73.124L55.8888 51.4546L65.2263 35.8922L85.0833 73.124H67.7085ZM47.8515 45.8207L62.7442 73.124H32.9587L47.8515 45.8207ZM41.6462 40.8564C38.2191 40.8564 35.4409 38.0782 35.4409 34.6511C35.4409 31.224 38.2191 28.4458 41.6462 28.4458C45.0733 28.4458 47.8515 31.224 47.8515 34.6511C47.8515 38.0782 45.0733 40.8564 41.6462 40.8564Z" fill="white"/>
<rect width="33" height="16" transform="translate(0 13)" fill="#CFD3DC"/>
<path d="M10.7656 19.6378C10.7277 19.3016 10.5715 19.0412 10.2969 18.8565C10.0223 18.6695 9.67661 18.576 9.25994 18.576C8.96165 18.576 8.7036 18.6233 8.4858 18.718C8.26799 18.8104 8.09872 18.9382 7.97798 19.1016C7.85961 19.2625 7.80043 19.446 7.80043 19.652C7.80043 19.8248 7.84067 19.974 7.92116 20.0994C8.00402 20.2249 8.11174 20.3303 8.24432 20.4155C8.37926 20.4983 8.52367 20.5682 8.67756 20.625C8.83144 20.6795 8.9794 20.7244 9.12145 20.7599L9.83168 20.9446C10.0637 21.0014 10.3016 21.0784 10.5455 21.1754C10.7893 21.2725 11.0154 21.4003 11.2237 21.5589C11.4321 21.7176 11.6001 21.9141 11.728 22.1484C11.8582 22.3828 11.9233 22.6634 11.9233 22.9901C11.9233 23.402 11.8168 23.7678 11.6037 24.0874C11.393 24.407 11.0864 24.6591 10.6839 24.8438C10.2839 25.0284 9.79972 25.1207 9.23153 25.1207C8.68703 25.1207 8.21591 25.0343 7.81818 24.8615C7.42045 24.6887 7.10914 24.4437 6.88423 24.1264C6.65933 23.8068 6.53504 23.428 6.51136 22.9901H7.61222C7.63352 23.2528 7.71875 23.4718 7.8679 23.647C8.01941 23.8198 8.21236 23.9489 8.44673 24.0341C8.68348 24.117 8.94271 24.1584 9.22443 24.1584C9.53456 24.1584 9.81037 24.1098 10.0518 24.0128C10.2957 23.9134 10.4875 23.776 10.6271 23.6009C10.7668 23.4233 10.8366 23.2161 10.8366 22.9794C10.8366 22.764 10.7751 22.5876 10.652 22.4503C10.5313 22.313 10.3667 22.1993 10.1584 22.1094C9.95241 22.0194 9.71922 21.9401 9.45881 21.8714L8.59943 21.6371C8.01705 21.4785 7.5554 21.2453 7.21449 20.9375C6.87595 20.6297 6.70668 20.2225 6.70668 19.7159C6.70668 19.2969 6.82031 18.9311 7.04759 18.6186C7.27486 18.3061 7.58262 18.0634 7.97088 17.8906C8.35914 17.7154 8.79711 17.6278 9.2848 17.6278C9.77723 17.6278 10.2116 17.7143 10.5881 17.8871C10.9669 18.0599 11.2652 18.2978 11.483 18.6009C11.7008 18.9015 11.8144 19.2472 11.8239 19.6378H10.7656ZM14.7367 25.1207C14.391 25.1207 14.0785 25.0568 13.7992 24.929C13.5198 24.7988 13.2985 24.6106 13.1351 24.3643C12.9741 24.1181 12.8936 23.8163 12.8936 23.4588C12.8936 23.151 12.9528 22.8977 13.0712 22.6989C13.1896 22.5 13.3494 22.3426 13.5506 22.2266C13.7518 22.1106 13.9767 22.023 14.2253 21.9638C14.4739 21.9046 14.7272 21.8596 14.9853 21.8288C15.312 21.791 15.5771 21.7602 15.7807 21.7365C15.9843 21.7105 16.1323 21.669 16.2246 21.6122C16.3169 21.5554 16.3631 21.4631 16.3631 21.3352V21.3104C16.3631 21.0002 16.2755 20.7599 16.1003 20.5895C15.9275 20.419 15.6694 20.3338 15.3262 20.3338C14.9687 20.3338 14.687 20.4131 14.481 20.5717C14.2774 20.728 14.1365 20.902 14.0584 21.0938L13.0605 20.8665C13.1789 20.535 13.3517 20.2675 13.579 20.0639C13.8087 19.858 14.0726 19.7088 14.3709 19.6165C14.6692 19.5218 14.9829 19.4744 15.312 19.4744C15.5298 19.4744 15.7606 19.5005 16.0044 19.5526C16.2507 19.6023 16.4803 19.6946 16.6934 19.8295C16.9088 19.9645 17.0852 20.1574 17.2225 20.4084C17.3598 20.657 17.4284 20.9801 17.4284 21.3778V25H16.3915V24.2543H16.3489C16.2802 24.3916 16.1773 24.5265 16.04 24.6591C15.9026 24.7917 15.7263 24.9018 15.5108 24.9893C15.2954 25.0769 15.0373 25.1207 14.7367 25.1207ZM14.9675 24.2685C15.2611 24.2685 15.512 24.2105 15.7203 24.0945C15.931 23.9785 16.0909 23.8269 16.1998 23.6399C16.311 23.4505 16.3667 23.2481 16.3667 23.0327V22.3295C16.3288 22.3674 16.2554 22.4029 16.1465 22.4361C16.04 22.4669 15.918 22.4941 15.7807 22.5178C15.6434 22.5391 15.5096 22.5592 15.3794 22.5781C15.2492 22.5947 15.1403 22.6089 15.0527 22.6207C14.8468 22.6468 14.6586 22.6906 14.4881 22.7521C14.32 22.8137 14.1851 22.9025 14.0833 23.0185C13.9838 23.1321 13.9341 23.2836 13.9341 23.473C13.9341 23.7358 14.0312 23.9347 14.2253 24.0696C14.4194 24.2022 14.6668 24.2685 14.9675 24.2685ZM19.9045 17.7273V25H18.8427V17.7273H19.9045ZM23.6838 25.1101C23.1464 25.1101 22.6835 24.9953 22.2953 24.7656C21.9094 24.5336 21.6111 24.2081 21.4004 23.7891C21.1921 23.3677 21.0879 22.8741 21.0879 22.3082C21.0879 21.7495 21.1921 21.2571 21.4004 20.831C21.6111 20.4048 21.9047 20.0722 22.2811 19.8331C22.6599 19.594 23.1026 19.4744 23.6092 19.4744C23.917 19.4744 24.2153 19.5253 24.5041 19.6271C24.7929 19.7289 25.0521 19.8887 25.2818 20.1065C25.5114 20.3243 25.6925 20.6072 25.8251 20.9553C25.9577 21.3009 26.024 21.7211 26.024 22.2159V22.5923H21.688V21.7969H24.9835C24.9835 21.5175 24.9267 21.2701 24.813 21.0547C24.6994 20.8369 24.5396 20.6652 24.3336 20.5398C24.13 20.4143 23.8909 20.3516 23.6163 20.3516C23.318 20.3516 23.0576 20.425 22.835 20.5717C22.6149 20.7161 22.4444 20.9055 22.3237 21.1399C22.2053 21.3719 22.1461 21.6241 22.1461 21.8963V22.5178C22.1461 22.8823 22.21 23.1925 22.3379 23.4482C22.4681 23.7038 22.6492 23.8991 22.8812 24.0341C23.1132 24.1667 23.3843 24.233 23.6944 24.233C23.8957 24.233 24.0791 24.2045 24.2449 24.1477C24.4106 24.0885 24.5538 24.0009 24.6745 23.8849C24.7953 23.7689 24.8876 23.6257 24.9515 23.4553L25.9565 23.6364C25.876 23.9323 25.7316 24.1915 25.5233 24.4141C25.3173 24.6342 25.0581 24.8059 24.7456 24.929C24.4354 25.0497 24.0815 25.1101 23.6838 25.1101Z" fill="white"/>
<rect x="7" y="112" width="95" height="5" rx="2.5" fill="#EBEDF4"/>
<rect x="7" y="123" width="72" height="5" rx="2.5" fill="#EBEDF4"/>
</g>
<defs>
<filter id="filter0_d_1247_857" x="124" y="151" width="125" height="146" filterUnits="userSpaceOnUse" color-interpolation-filters="sRGB">
<feFlood flood-opacity="0" result="BackgroundImageFix"/>
<feColorMatrix in="SourceAlpha" type="matrix" values="0 0 0 0 0 0 0 0 0 0 0 0 0 0 0 0 0 0 127 0" result="hardAlpha"/>
<feOffset dy="4"/>
<feGaussianBlur stdDeviation="2.5"/>
<feComposite in2="hardAlpha" operator="out"/>
<feColorMatrix type="matrix" values="0 0 0 0 0.14902 0 0 0 0 0.133333 0 0 0 0 0.203922 0 0 0 0.2 0"/>
<feBlend mode="normal" in2="BackgroundImageFix" result="effect1_dropShadow_1247_857"/>
<feBlend mode="normal" in="SourceGraphic" in2="effect1_dropShadow_1247_857" result="shape"/>
</filter>
<filter id="filter1_d_1247_857" x="254" y="151" width="125" height="146" filterUnits="userSpaceOnUse" color-interpolation-filters="sRGB">
<feFlood flood-opacity="0" result="BackgroundImageFix"/>
<feColorMatrix in="SourceAlpha" type="matrix" values="0 0 0 0 0 0 0 0 0 0 0 0 0 0 0 0 0 0 127 0" result="hardAlpha"/>
<feOffset dy="4"/>
<feGaussianBlur stdDeviation="2.5"/>
<feComposite in2="hardAlpha" operator="out"/>
<feColorMatrix type="matrix" values="0 0 0 0 0.14902 0 0 0 0 0.133333 0 0 0 0 0.203922 0 0 0 0.2 0"/>
<feBlend mode="normal" in2="BackgroundImageFix" result="effect1_dropShadow_1247_857"/>
<feBlend mode="normal" in="SourceGraphic" in2="effect1_dropShadow_1247_857" result="shape"/>
</filter>
<filter id="filter2_d_1247_857" x="-5" y="151" width="125" height="146" filterUnits="userSpaceOnUse" color-interpolation-filters="sRGB">
<feFlood flood-opacity="0" result="BackgroundImageFix"/>
<feColorMatrix in="SourceAlpha" type="matrix" values="0 0 0 0 0 0 0 0 0 0 0 0 0 0 0 0 0 0 127 0" result="hardAlpha"/>
<feOffset dy="4"/>
<feGaussianBlur stdDeviation="2.5"/>
<feComposite in2="hardAlpha" operator="out"/>
<feColorMatrix type="matrix" values="0 0 0 0 0.14902 0 0 0 0 0.133333 0 0 0 0 0.203922 0 0 0 0.2 0"/>
<feBlend mode="normal" in2="BackgroundImageFix" result="effect1_dropShadow_1247_857"/>
<feBlend mode="normal" in="SourceGraphic" in2="effect1_dropShadow_1247_857" result="shape"/>
</filter>
<filter id="filter3_d_1247_857" x="124" y="-1" width="125" height="146" filterUnits="userSpaceOnUse" color-interpolation-filters="sRGB">
<feFlood flood-opacity="0" result="BackgroundImageFix"/>
<feColorMatrix in="SourceAlpha" type="matrix" values="0 0 0 0 0 0 0 0 0 0 0 0 0 0 0 0 0 0 127 0" result="hardAlpha"/>
<feOffset dy="4"/>
<feGaussianBlur stdDeviation="2.5"/>
<feComposite in2="hardAlpha" operator="out"/>
<feColorMatrix type="matrix" values="0 0 0 0 0.14902 0 0 0 0 0.133333 0 0 0 0 0.203922 0 0 0 0.2 0"/>
<feBlend mode="normal" in2="BackgroundImageFix" result="effect1_dropShadow_1247_857"/>
<feBlend mode="normal" in="SourceGraphic" in2="effect1_dropShadow_1247_857" result="shape"/>
</filter>
<filter id="filter4_d_1247_857" x="254" y="-1" width="125" height="146" filterUnits="userSpaceOnUse" color-interpolation-filters="sRGB">
<feFlood flood-opacity="0" result="BackgroundImageFix"/>
<feColorMatrix in="SourceAlpha" type="matrix" values="0 0 0 0 0 0 0 0 0 0 0 0 0 0 0 0 0 0 127 0" result="hardAlpha"/>
<feOffset dy="4"/>
<feGaussianBlur stdDeviation="2.5"/>
<feComposite in2="hardAlpha" operator="out"/>
<feColorMatrix type="matrix" values="0 0 0 0 0.14902 0 0 0 0 0.133333 0 0 0 0 0.203922 0 0 0 0.2 0"/>
<feBlend mode="normal" in2="BackgroundImageFix" result="effect1_dropShadow_1247_857"/>
<feBlend mode="normal" in="SourceGraphic" in2="effect1_dropShadow_1247_857" result="shape"/>
</filter>
<filter id="filter5_d_1247_857" x="-5" y="-1" width="125" height="146" filterUnits="userSpaceOnUse" color-interpolation-filters="sRGB">
<feFlood flood-opacity="0" result="BackgroundImageFix"/>
<feColorMatrix in="SourceAlpha" type="matrix" values="0 0 0 0 0 0 0 0 0 0 0 0 0 0 0 0 0 0 127 0" result="hardAlpha"/>
<feOffset dy="4"/>
<feGaussianBlur stdDeviation="2.5"/>
<feComposite in2="hardAlpha" operator="out"/>
<feColorMatrix type="matrix" values="0 0 0 0 0.14902 0 0 0 0 0.133333 0 0 0 0 0.203922 0 0 0 0.2 0"/>
<feBlend mode="normal" in2="BackgroundImageFix" result="effect1_dropShadow_1247_857"/>
<feBlend mode="normal" in="SourceGraphic" in2="effect1_dropShadow_1247_857" result="shape"/>
</filter>
<clipPath id="clip0_1247_857">
<rect width="374" height="242" fill="white"/>
</clipPath>
</defs>
</svg>
