<svg width="32" height="32" viewBox="0 0 32 32" fill="none" xmlns="http://www.w3.org/2000/svg">
	<path
		d="M1.06667 25.4289C1.06667 26.7298 2.07593 27.7333 3.38423 27.7333H28.6158C29.9241 27.7333 30.9333 26.7298 30.9333 25.4289V7.10449C30.9333 5.80357 29.9241 4.8 28.6158 4.8H3.38423C2.07593 4.8 1.06667 5.80357 1.06667 7.10449V25.4289ZM2.30021 7.10449C2.30021 6.50978 2.82353 5.87791 3.53375 5.87791H28.7279C29.326 5.87791 29.9615 6.39827 29.9615 7.10449V25.4289C29.9615 26.0236 29.4381 26.6554 28.7279 26.6554H3.38423C2.78615 26.6554 2.15069 26.1351 2.15069 25.4289L2.30021 7.10449Z"
		fill="#6C3BFF" />
	<path fill-rule="evenodd" clip-rule="evenodd"
		d="M12.2133 21.8667C12.2133 22.1907 12.476 22.4533 12.8 22.4533C13.124 22.4533 13.3867 22.1907 13.3867 21.8667C13.3867 21.5427 13.124 21.28 12.8 21.28C12.476 21.28 12.2133 21.5427 12.2133 21.8667ZM12.8 23.4133C11.9458 23.4133 11.2533 22.7209 11.2533 21.8667C11.2533 21.0125 11.9458 20.32 12.8 20.32C13.6542 20.32 14.3467 21.0125 14.3467 21.8667C14.3467 22.7209 13.6542 23.4133 12.8 23.4133Z"
		fill="#6C3BFF" />
	<path fill-rule="evenodd" clip-rule="evenodd"
		d="M18.6133 21.8667C18.6133 22.1907 18.876 22.4534 19.2 22.4534C19.524 22.4534 19.7867 22.1907 19.7867 21.8667C19.7867 21.5427 19.524 21.2801 19.2 21.2801C18.876 21.2801 18.6133 21.5427 18.6133 21.8667ZM19.2 23.4134C18.3458 23.4134 17.6533 22.7209 17.6533 21.8667C17.6533 21.0125 18.3458 20.3201 19.2 20.3201C20.0542 20.3201 20.7467 21.0125 20.7467 21.8667C20.7467 22.7209 20.0542 23.4134 19.2 23.4134Z"
		fill="#6C3BFF" />
	<path fill-rule="evenodd" clip-rule="evenodd"
		d="M8.0802 9.44167C8.16765 9.19141 8.44141 9.05942 8.69167 9.14687L8.88231 9.21348C8.89108 9.21655 8.89983 9.2196 8.90855 9.22265C9.36117 9.38079 9.73996 9.51313 10.037 9.65798C10.3522 9.81167 10.6172 9.99835 10.8161 10.2876C11.0137 10.5751 11.0968 10.8922 11.1354 11.247C11.1402 11.291 11.1444 11.3364 11.148 11.383L19.5657 11.383C20.1651 11.383 20.771 11.383 21.2685 11.4383C21.5212 11.4664 21.7683 11.5108 21.985 11.5865C22.1977 11.6607 22.4252 11.7803 22.5858 11.9878C22.8509 12.3303 22.8998 12.7317 22.8738 13.1507C22.8489 13.5513 22.7485 14.051 22.6277 14.6524L22.6202 14.6898L22.2494 16.4777C22.1396 17.0073 22.0484 17.4474 21.931 17.7935C21.8072 18.1586 21.638 18.4722 21.34 18.7136C21.0423 18.9547 20.7 19.0557 20.3163 19.1024C19.952 19.1467 19.5003 19.1467 18.9559 19.1467H15.0191C14.0329 19.1467 13.2417 19.1467 12.6203 19.0591C11.9749 18.9682 11.4425 18.7745 11.0234 18.3352C10.6346 17.9276 10.4263 17.4958 10.3213 16.8866C10.2223 16.3124 10.2122 15.5583 10.2122 14.5033V12.5292C10.2122 11.9938 10.2116 11.6307 10.1811 11.3509C10.1518 11.082 10.099 10.9392 10.025 10.8316C9.95227 10.7258 9.84394 10.6319 9.61622 10.5209C9.3761 10.4038 9.05134 10.2895 8.56564 10.1197L8.37501 10.0531C8.12475 9.96569 7.99276 9.69193 8.0802 9.44167ZM11.1722 12.343C11.1722 12.3953 11.1722 12.4486 11.1722 12.5029L11.1722 14.5033C11.1722 15.5818 11.1852 16.2466 11.2674 16.7236C11.3435 17.1656 11.4745 17.4173 11.718 17.6725C11.9312 17.896 12.2238 18.0338 12.7542 18.1085C13.3009 18.1856 14.0242 18.1867 15.0561 18.1867H18.9263C19.5079 18.1867 19.9009 18.1858 20.2004 18.1494C20.487 18.1146 20.6308 18.0526 20.7358 17.9675C20.8404 17.8828 20.93 17.7561 21.0219 17.4852C21.118 17.2016 21.1981 16.8199 21.3155 16.2535L21.6796 14.4978C21.6797 14.4973 21.6798 14.4968 21.6799 14.4963C21.8092 13.8525 21.8954 13.418 21.9157 13.0911C21.9353 12.7747 21.8855 12.6515 21.8267 12.5754C21.8253 12.5737 21.7929 12.5362 21.6685 12.4928C21.5481 12.4507 21.3808 12.4167 21.1625 12.3924C20.7237 12.3437 20.1692 12.343 19.5455 12.343H11.1722Z"
		fill="#6C3BFF" />
	<path fill-rule="evenodd" clip-rule="evenodd"
		d="M16.5333 13.3867C16.7984 13.3867 17.0133 13.6016 17.0133 13.8667V14.9867H18.1333C18.3984 14.9867 18.6133 15.2016 18.6133 15.4667C18.6133 15.7318 18.3984 15.9467 18.1333 15.9467H17.0133V17.0667C17.0133 17.3318 16.7984 17.5467 16.5333 17.5467C16.2682 17.5467 16.0533 17.3318 16.0533 17.0667V15.9467H14.9333C14.6682 15.9467 14.4533 15.7318 14.4533 15.4667C14.4533 15.2016 14.6682 14.9867 14.9333 14.9867H16.0533V13.8667C16.0533 13.6016 16.2682 13.3867 16.5333 13.3867Z"
		fill="#6C3BFF" />
</svg>
