<svg width="370" height="222" viewBox="0 0 370 222" fill="none" xmlns="http://www.w3.org/2000/svg">
<rect width="370" height="222" fill="white"/>
<rect x="20" y="114" width="20" height="20" rx="10" transform="rotate(-180 20 114)" fill="#DEE2ED"/>
<path d="M11.6072 107.214L8.39289 104L11.6072 100.786" stroke="#9EA8C7" stroke-width="1.42857" stroke-linecap="round" stroke-linejoin="round"/>
<rect x="350" y="94" width="20" height="20" rx="10" fill="#DEE2ED"/>
<g clip-path="url(#clip0_1134_2418)">
<path d="M358.393 100.786L361.607 104L358.393 107.214" stroke="#9EA8C7" stroke-width="1.42857" stroke-linecap="round" stroke-linejoin="round"/>
</g>
<rect x="153" y="192" width="8" height="8" rx="4" fill="#DEE2ED"/>
<rect x="167" y="192" width="8" height="8" rx="4" fill="#9EA8C7"/>
<rect x="181" y="192" width="8" height="8" rx="4" fill="#DEE2ED"/>
<rect x="195" y="192" width="8" height="8" rx="4" fill="#DEE2ED"/>
<rect x="209" y="192" width="8" height="8" rx="4" fill="#DEE2ED"/>
<rect x="31" y="54" width="96" height="122" rx="3.75385" fill="#F1F3F9"/>
<rect x="37" y="27" width="84" height="65" rx="3.49407" fill="#DEE2ED"/>
<path d="M86.8679 73.9245L77.5578 56.5145L84.9128 44.0111L100.554 73.9245H86.8679ZM71.2269 51.988L82.9576 73.9245H59.4961L71.2269 51.988ZM66.339 47.9995C63.6396 47.9995 61.4512 45.7674 61.4512 43.014C61.4512 40.2605 63.6396 38.0284 66.339 38.0284C69.0385 38.0284 71.2269 40.2605 71.2269 43.014C71.2269 45.7674 69.0385 47.9995 66.339 47.9995Z" fill="white"/>
<rect x="36.8145" y="131.523" width="84.4615" height="3.75385" rx="1.87692" fill="#DEE2ED"/>
<rect x="36.8145" y="140.908" width="79.7692" height="3.75385" rx="1.87692" fill="#DEE2ED"/>
<rect x="36.8145" y="100.554" width="29.6996" height="7.73292" rx="3.86646" fill="#DEE2ED"/>
<rect x="36.8145" y="116.508" width="81.6462" height="7.50769" rx="3.75385" fill="#D5DAE8"/>
<g clip-path="url(#clip1_1134_2418)">
<rect x="36.8164" y="155.923" width="11.2615" height="11.2615" rx="5.63076" fill="#DEE2ED"/>
<g clip-path="url(#clip2_1134_2418)">
<path d="M42.4462 157.8C43.0031 157.8 43.5474 157.965 44.0104 158.274C44.4734 158.584 44.8342 159.024 45.0473 159.538C45.2604 160.052 45.3162 160.618 45.2075 161.165C45.0989 161.711 44.8308 162.212 44.437 162.606C44.0433 163 43.5416 163.268 42.9955 163.377C42.4494 163.485 41.8833 163.43 41.3688 163.216C40.8544 163.003 40.4147 162.643 40.1053 162.18C39.796 161.717 39.6309 161.172 39.6309 160.615L39.6337 160.493C39.6652 159.768 39.9752 159.084 40.4992 158.582C41.0233 158.08 41.7207 157.8 42.4462 157.8Z" fill="white"/>
<path d="M43.5178 164.369C44.2289 164.369 44.9109 164.616 45.4138 165.056C45.9166 165.496 46.1991 166.093 46.1991 166.715V167.185C46.1991 167.433 46.0861 167.672 45.885 167.848C45.6838 168.024 45.411 168.123 45.1266 168.123H39.7639C39.4795 168.123 39.2067 168.024 39.0055 167.848C38.8044 167.672 38.6914 167.433 38.6914 167.185V166.715C38.6914 166.093 38.9739 165.496 39.4767 165.056C39.9796 164.616 40.6616 164.369 41.3727 164.369H43.5178Z" fill="white"/>
</g>
</g>
<rect x="52.5488" y="160.615" width="7.50769" height="2.81538" rx="1.40769" fill="#DEE2ED"/>
<rect x="61.9336" y="160.615" width="25.332" height="2.81538" rx="1.40769" fill="#DEE2ED"/>
<rect x="137" y="54" width="96" height="122" rx="3.75385" fill="#F1F3F9"/>
<rect x="143" y="27" width="84" height="65" rx="3.49407" fill="#DEE2ED"/>
<path d="M192.868 73.9245L183.558 56.5145L190.913 44.0111L206.554 73.9245H192.868ZM177.227 51.988L188.958 73.9245H165.496L177.227 51.988ZM172.339 47.9995C169.64 47.9995 167.451 45.7674 167.451 43.014C167.451 40.2605 169.64 38.0284 172.339 38.0284C175.039 38.0284 177.227 40.2605 177.227 43.014C177.227 45.7674 175.039 47.9995 172.339 47.9995Z" fill="white"/>
<rect x="142.814" y="131.523" width="84.4615" height="3.75385" rx="1.87692" fill="#DEE2ED"/>
<rect x="142.814" y="140.908" width="79.7692" height="3.75385" rx="1.87692" fill="#DEE2ED"/>
<rect x="142.814" y="100.554" width="29.6996" height="7.73292" rx="3.86646" fill="#DEE2ED"/>
<rect x="142.814" y="116.508" width="81.6462" height="7.50769" rx="3.75385" fill="#D5DAE8"/>
<g clip-path="url(#clip3_1134_2418)">
<rect x="142.816" y="155.923" width="11.2615" height="11.2615" rx="5.63076" fill="#DEE2ED"/>
<g clip-path="url(#clip4_1134_2418)">
<path d="M148.446 157.8C149.003 157.8 149.547 157.965 150.01 158.274C150.473 158.584 150.834 159.024 151.047 159.538C151.26 160.052 151.316 160.618 151.208 161.165C151.099 161.711 150.831 162.212 150.437 162.606C150.043 163 149.542 163.268 148.995 163.377C148.449 163.485 147.883 163.43 147.369 163.216C146.854 163.003 146.415 162.643 146.105 162.18C145.796 161.717 145.631 161.172 145.631 160.615L145.634 160.493C145.665 159.768 145.975 159.084 146.499 158.582C147.023 158.08 147.721 157.8 148.446 157.8Z" fill="white"/>
<path d="M149.518 164.369C150.229 164.369 150.911 164.616 151.414 165.056C151.917 165.496 152.199 166.093 152.199 166.715V167.185C152.199 167.433 152.086 167.672 151.885 167.848C151.684 168.024 151.411 168.123 151.127 168.123H145.764C145.479 168.123 145.207 168.024 145.006 167.848C144.804 167.672 144.691 167.433 144.691 167.185V166.715C144.691 166.093 144.974 165.496 145.477 165.056C145.98 164.616 146.662 164.369 147.373 164.369H149.518Z" fill="white"/>
</g>
</g>
<rect x="158.549" y="160.615" width="7.50769" height="2.81538" rx="1.40769" fill="#DEE2ED"/>
<rect x="167.934" y="160.615" width="25.332" height="2.81538" rx="1.40769" fill="#DEE2ED"/>
<rect x="243" y="54" width="96" height="122" rx="3.75385" fill="#F1F3F9"/>
<rect x="249" y="27" width="84" height="65" rx="3.49407" fill="#DEE2ED"/>
<path d="M298.868 73.9245L289.558 56.5145L296.913 44.0111L312.554 73.9245H298.868ZM283.227 51.988L294.958 73.9245H271.496L283.227 51.988ZM278.339 47.9995C275.64 47.9995 273.451 45.7674 273.451 43.014C273.451 40.2605 275.64 38.0284 278.339 38.0284C281.039 38.0284 283.227 40.2605 283.227 43.014C283.227 45.7674 281.039 47.9995 278.339 47.9995Z" fill="white"/>
<rect x="248.814" y="131.523" width="84.4615" height="3.75385" rx="1.87692" fill="#DEE2ED"/>
<rect x="248.814" y="140.908" width="79.7692" height="3.75385" rx="1.87692" fill="#DEE2ED"/>
<rect x="248.814" y="100.554" width="29.6996" height="7.73292" rx="3.86646" fill="#DEE2ED"/>
<rect x="248.814" y="116.508" width="81.6462" height="7.50769" rx="3.75385" fill="#D5DAE8"/>
<g clip-path="url(#clip5_1134_2418)">
<rect x="248.816" y="155.923" width="11.2615" height="11.2615" rx="5.63076" fill="#DEE2ED"/>
<g clip-path="url(#clip6_1134_2418)">
<path d="M254.446 157.8C255.003 157.8 255.547 157.965 256.01 158.274C256.473 158.584 256.834 159.024 257.047 159.538C257.26 160.052 257.316 160.618 257.208 161.165C257.099 161.711 256.831 162.212 256.437 162.606C256.043 163 255.542 163.268 254.995 163.377C254.449 163.485 253.883 163.43 253.369 163.216C252.854 163.003 252.415 162.643 252.105 162.18C251.796 161.717 251.631 161.172 251.631 160.615L251.634 160.493C251.665 159.768 251.975 159.084 252.499 158.582C253.023 158.08 253.721 157.8 254.446 157.8Z" fill="white"/>
<path d="M255.518 164.369C256.229 164.369 256.911 164.616 257.414 165.056C257.917 165.496 258.199 166.093 258.199 166.715V167.185C258.199 167.433 258.086 167.672 257.885 167.848C257.684 168.024 257.411 168.123 257.127 168.123H251.764C251.479 168.123 251.207 168.024 251.006 167.848C250.804 167.672 250.691 167.433 250.691 167.185V166.715C250.691 166.093 250.974 165.496 251.477 165.056C251.98 164.616 252.662 164.369 253.373 164.369H255.518Z" fill="white"/>
</g>
</g>
<rect x="264.549" y="160.615" width="7.50769" height="2.81538" rx="1.40769" fill="#DEE2ED"/>
<rect x="273.934" y="160.615" width="25.332" height="2.81538" rx="1.40769" fill="#DEE2ED"/>
<defs>
<clipPath id="clip0_1134_2418">
<rect width="12.8571" height="12.8571" fill="white" transform="translate(353.571 97.5714)"/>
</clipPath>
<clipPath id="clip1_1134_2418">
<rect x="36.8164" y="155.923" width="11.2615" height="11.2615" rx="5.63076" fill="white"/>
</clipPath>
<clipPath id="clip2_1134_2418">
<rect width="10.4822" height="10.4822" fill="white" transform="translate(36.8164 157.8)"/>
</clipPath>
<clipPath id="clip3_1134_2418">
<rect x="142.816" y="155.923" width="11.2615" height="11.2615" rx="5.63076" fill="white"/>
</clipPath>
<clipPath id="clip4_1134_2418">
<rect width="10.4822" height="10.4822" fill="white" transform="translate(142.816 157.8)"/>
</clipPath>
<clipPath id="clip5_1134_2418">
<rect x="248.816" y="155.923" width="11.2615" height="11.2615" rx="5.63076" fill="white"/>
</clipPath>
<clipPath id="clip6_1134_2418">
<rect width="10.4822" height="10.4822" fill="white" transform="translate(248.816 157.8)"/>
</clipPath>
</defs>
</svg>
