<svg width="370" height="222" viewBox="0 0 370 222" fill="none" xmlns="http://www.w3.org/2000/svg">
<rect width="370" height="222" fill="white"/>
<rect x="29" y="29" width="96" height="149" rx="3.75385" fill="#F1F3F9"/>
<rect x="29" y="29" width="96" height="65" rx="3.49407" fill="#DEE2ED"/>
<path d="M84.8679 75.9245L75.5578 58.5145L82.9128 46.0111L98.5538 75.9245H84.8679ZM69.2269 53.988L80.9576 75.9245H57.4961L69.2269 53.988ZM64.339 49.9995C61.6396 49.9995 59.4512 47.7674 59.4512 45.014C59.4512 42.2605 61.6396 40.0284 64.339 40.0284C67.0385 40.0284 69.2269 42.2605 69.2269 45.014C69.2269 47.7674 67.0385 49.9995 64.339 49.9995Z" fill="white"/>
<rect x="34.8145" y="133.523" width="84.4615" height="3.75385" rx="1.87692" fill="#DEE2ED"/>
<rect x="34.8145" y="142.908" width="79.7692" height="3.75385" rx="1.87692" fill="#DEE2ED"/>
<rect x="34.8145" y="102.554" width="29.6996" height="7.73292" rx="3.86646" fill="#DEE2ED"/>
<rect x="34.8145" y="118.508" width="81.6462" height="7.50769" rx="3.75385" fill="#D5DAE8"/>
<g clip-path="url(#clip0_1134_2529)">
<rect x="34.8164" y="157.923" width="11.2615" height="11.2615" rx="5.63076" fill="#DEE2ED"/>
<g clip-path="url(#clip1_1134_2529)">
<path d="M40.4462 159.8C41.0031 159.8 41.5474 159.965 42.0104 160.274C42.4734 160.584 42.8342 161.024 43.0473 161.538C43.2604 162.052 43.3162 162.618 43.2075 163.165C43.0989 163.711 42.8308 164.212 42.437 164.606C42.0433 165 41.5416 165.268 40.9955 165.377C40.4494 165.485 39.8833 165.43 39.3688 165.216C38.8544 165.003 38.4147 164.643 38.1053 164.18C37.796 163.717 37.6309 163.172 37.6309 162.615L37.6337 162.493C37.6652 161.768 37.9752 161.084 38.4992 160.582C39.0233 160.08 39.7207 159.8 40.4462 159.8Z" fill="white"/>
<path d="M41.5178 166.369C42.2289 166.369 42.9109 166.616 43.4138 167.056C43.9166 167.496 44.1991 168.093 44.1991 168.715V169.185C44.1991 169.433 44.0861 169.672 43.885 169.848C43.6838 170.024 43.411 170.123 43.1266 170.123H37.7639C37.4795 170.123 37.2067 170.024 37.0055 169.848C36.8044 169.672 36.6914 169.433 36.6914 169.185V168.715C36.6914 168.093 36.9739 167.496 37.4767 167.056C37.9796 166.616 38.6616 166.369 39.3727 166.369H41.5178Z" fill="white"/>
</g>
</g>
<rect x="50.5488" y="162.615" width="7.50769" height="2.81538" rx="1.40769" fill="#DEE2ED"/>
<rect x="59.9336" y="162.615" width="25.332" height="2.81538" rx="1.40769" fill="#DEE2ED"/>
<rect x="137" y="29" width="96" height="149" rx="3.75385" fill="#F1F3F9"/>
<rect x="137" y="29" width="96" height="65" rx="3.49407" fill="#DEE2ED"/>
<path d="M192.792 75.925L183.482 58.5149L190.837 46.0115L206.478 75.925H192.792ZM177.151 53.9884L188.881 75.925H165.42L177.151 53.9884ZM172.263 50C169.563 50 167.375 47.7678 167.375 45.0144C167.375 42.2609 169.563 40.0288 172.263 40.0288C174.962 40.0288 177.151 42.2609 177.151 45.0144C177.151 47.7678 174.962 50 172.263 50Z" fill="white"/>
<rect x="142.739" y="133.523" width="84.4615" height="3.75385" rx="1.87692" fill="#DEE2ED"/>
<rect x="142.739" y="142.908" width="79.7692" height="3.75385" rx="1.87692" fill="#DEE2ED"/>
<rect x="142.739" y="102.554" width="29.6996" height="7.73292" rx="3.86646" fill="#DEE2ED"/>
<rect x="142.739" y="118.508" width="81.6462" height="7.50769" rx="3.75385" fill="#D5DAE8"/>
<g clip-path="url(#clip2_1134_2529)">
<rect x="142.739" y="157.923" width="11.2615" height="11.2615" rx="5.63076" fill="#DEE2ED"/>
<g clip-path="url(#clip3_1134_2529)">
<path d="M148.368 159.8C148.925 159.8 149.47 159.965 149.933 160.275C150.395 160.584 150.756 161.024 150.969 161.538C151.183 162.052 151.238 162.619 151.13 163.165C151.021 163.711 150.753 164.212 150.359 164.606C149.965 165 149.464 165.268 148.918 165.377C148.371 165.485 147.805 165.43 147.291 165.217C146.777 165.003 146.337 164.643 146.027 164.18C145.718 163.717 145.553 163.172 145.553 162.615L145.556 162.493C145.587 161.768 145.897 161.084 146.421 160.582C146.945 160.08 147.643 159.8 148.368 159.8Z" fill="white"/>
<path d="M149.442 166.369C150.153 166.369 150.835 166.616 151.338 167.056C151.841 167.496 152.123 168.093 152.123 168.715V169.185C152.123 169.434 152.01 169.672 151.809 169.848C151.608 170.024 151.335 170.123 151.051 170.123H145.688C145.404 170.123 145.131 170.024 144.93 169.848C144.728 169.672 144.615 169.434 144.615 169.185V168.715C144.615 168.093 144.898 167.496 145.401 167.056C145.904 166.616 146.586 166.369 147.297 166.369H149.442Z" fill="white"/>
</g>
</g>
<rect x="158.473" y="162.615" width="7.50769" height="2.81538" rx="1.40769" fill="#DEE2ED"/>
<rect x="167.858" y="162.615" width="25.332" height="2.81538" rx="1.40769" fill="#DEE2ED"/>
<rect x="245" y="29" width="96" height="149" rx="3.75385" fill="#F1F3F9"/>
<rect x="245" y="29" width="96" height="65" rx="3.49407" fill="#DEE2ED"/>
<path d="M302.714 75.9245L293.403 58.5144L300.758 46.011L316.399 75.9245H302.714ZM287.073 53.9879L298.803 75.9245H275.342L287.073 53.9879ZM282.185 49.9995C279.485 49.9995 277.297 47.7674 277.297 45.0139C277.297 42.2604 279.485 40.0283 282.185 40.0283C284.884 40.0283 287.073 42.2604 287.073 45.0139C287.073 47.7674 284.884 49.9995 282.185 49.9995Z" fill="white"/>
<rect x="250.662" y="133.523" width="84.4615" height="3.75385" rx="1.87692" fill="#DEE2ED"/>
<rect x="250.662" y="142.908" width="79.7692" height="3.75385" rx="1.87692" fill="#DEE2ED"/>
<rect x="250.662" y="102.554" width="29.6996" height="7.73292" rx="3.86646" fill="#DEE2ED"/>
<rect x="250.662" y="118.508" width="81.6462" height="7.50769" rx="3.75385" fill="#D5DAE8"/>
<g clip-path="url(#clip4_1134_2529)">
<rect x="250.662" y="157.923" width="11.2615" height="11.2615" rx="5.63076" fill="#DEE2ED"/>
<g clip-path="url(#clip5_1134_2529)">
<path d="M256.292 159.8C256.849 159.8 257.393 159.965 257.856 160.274C258.319 160.584 258.68 161.023 258.893 161.538C259.106 162.052 259.162 162.618 259.053 163.164C258.945 163.711 258.676 164.212 258.283 164.606C257.889 165 257.387 165.268 256.841 165.376C256.295 165.485 255.729 165.429 255.215 165.216C254.7 165.003 254.26 164.642 253.951 164.179C253.642 163.716 253.477 163.172 253.477 162.615L253.479 162.493C253.511 161.768 253.821 161.083 254.345 160.582C254.869 160.08 255.566 159.8 256.292 159.8Z" fill="white"/>
<path d="M257.365 166.369C258.077 166.369 258.759 166.616 259.261 167.056C259.764 167.496 260.047 168.093 260.047 168.715V169.185C260.047 169.433 259.934 169.672 259.733 169.848C259.531 170.024 259.259 170.123 258.974 170.123H253.612C253.327 170.123 253.054 170.024 252.853 169.848C252.652 169.672 252.539 169.433 252.539 169.185V168.715C252.539 168.093 252.822 167.496 253.324 167.056C253.827 166.616 254.509 166.369 255.22 166.369H257.365Z" fill="white"/>
</g>
</g>
<rect x="266.395" y="162.615" width="7.50769" height="2.81538" rx="1.40769" fill="#DEE2ED"/>
<rect x="275.779" y="162.615" width="25.332" height="2.81538" rx="1.40769" fill="#DEE2ED"/>
<rect x="20" y="114" width="20" height="20" rx="10" transform="rotate(-180 20 114)" fill="#DEE2ED"/>
<path d="M11.6072 107.214L8.39289 104L11.6072 100.786" stroke="#9EA8C7" stroke-width="1.42857" stroke-linecap="round" stroke-linejoin="round"/>
<rect x="350" y="94" width="20" height="20" rx="10" fill="#DEE2ED"/>
<g clip-path="url(#clip6_1134_2529)">
<path d="M358.393 100.786L361.607 104L358.393 107.214" stroke="#9EA8C7" stroke-width="1.42857" stroke-linecap="round" stroke-linejoin="round"/>
</g>
<rect x="153" y="192" width="8" height="8" rx="4" fill="#DEE2ED"/>
<rect x="167" y="192" width="8" height="8" rx="4" fill="#9EA8C7"/>
<rect x="181" y="192" width="8" height="8" rx="4" fill="#DEE2ED"/>
<rect x="195" y="192" width="8" height="8" rx="4" fill="#DEE2ED"/>
<rect x="209" y="192" width="8" height="8" rx="4" fill="#DEE2ED"/>
<defs>
<clipPath id="clip0_1134_2529">
<rect x="34.8164" y="157.923" width="11.2615" height="11.2615" rx="5.63076" fill="white"/>
</clipPath>
<clipPath id="clip1_1134_2529">
<rect width="10.4822" height="10.4822" fill="white" transform="translate(34.8164 159.8)"/>
</clipPath>
<clipPath id="clip2_1134_2529">
<rect x="142.739" y="157.923" width="11.2615" height="11.2615" rx="5.63076" fill="white"/>
</clipPath>
<clipPath id="clip3_1134_2529">
<rect width="10.4822" height="10.4822" fill="white" transform="translate(142.739 159.8)"/>
</clipPath>
<clipPath id="clip4_1134_2529">
<rect x="250.662" y="157.923" width="11.2615" height="11.2615" rx="5.63076" fill="white"/>
</clipPath>
<clipPath id="clip5_1134_2529">
<rect width="10.4822" height="10.4822" fill="white" transform="translate(250.662 159.8)"/>
</clipPath>
<clipPath id="clip6_1134_2529">
<rect width="12.8571" height="12.8571" fill="white" transform="translate(353.571 97.5714)"/>
</clipPath>
</defs>
</svg>
