<svg width="24" height="24" viewBox="0 0 24 24" fill="none" xmlns="http://www.w3.org/2000/svg">
<path fill-rule="evenodd" clip-rule="evenodd" d="M6.5 11.75C6.5 10.232 5.268 9 3.75 9C2.232 9 1 10.232 1 11.75C1 13.268 2.232 14.5 3.75 14.5C5.268 14.5 6.5 13.268 6.5 11.75ZM5 11.75C5 12.44 4.44 13 3.75 13C3.06 13 2.5 12.44 2.5 11.75C2.5 11.06 3.06 10.5 3.75 10.5C4.44 10.5 5 11.06 5 11.75Z" fill="#6C3BFF"/>
<path fill-rule="evenodd" clip-rule="evenodd" d="M6.5 19.75C6.5 18.232 5.268 17 3.75 17C2.232 17 1 18.232 1 19.75C1 21.268 2.232 22.5 3.75 22.5C5.268 22.5 6.5 21.268 6.5 19.75ZM5 19.75C5 20.44 4.44 21 3.75 21C3.06 21 2.5 20.44 2.5 19.75C2.5 19.06 3.06 18.5 3.75 18.5C4.44 18.5 5 19.06 5 19.75Z" fill="#6C3BFF"/>
<path fill-rule="evenodd" clip-rule="evenodd" d="M6.5 3.75C6.5 2.232 5.268 1 3.75 1C2.232 1 1 2.232 1 3.75C1 5.268 2.232 6.5 3.75 6.5C5.268 6.5 6.5 5.268 6.5 3.75ZM5 3.75C5 4.44 4.44 5 3.75 5C3.06 5 2.5 4.44 2.5 3.75C2.5 3.06 3.06 2.5 3.75 2.5C4.44 2.5 5 3.06 5 3.75Z" fill="#6C3BFF"/>
<path fill-rule="evenodd" clip-rule="evenodd" d="M2.99097 5.75V9.741C2.99097 10.155 3.32697 10.491 3.74097 10.491C4.15497 10.491 4.49097 10.155 4.49097 9.741V5.75C4.49097 5.336 4.15497 5 3.74097 5C3.32697 5 2.99097 5.336 2.99097 5.75Z" fill="#6C3BFF"/>
<path fill-rule="evenodd" clip-rule="evenodd" d="M3 13.777V17.75C3 18.164 3.336 18.5 3.75 18.5C4.164 18.5 4.5 18.164 4.5 17.75V13.777C4.5 13.363 4.164 13.027 3.75 13.027C3.336 13.027 3 13.363 3 13.777Z" fill="#6C3BFF"/>
<path fill-rule="evenodd" clip-rule="evenodd" d="M9.74097 5.75H16.241C16.655 5.75 16.991 5.414 16.991 5C16.991 4.586 16.655 4.25 16.241 4.25H9.74097C9.32697 4.25 8.99097 4.586 8.99097 5C8.99097 5.414 9.32697 5.75 9.74097 5.75Z" fill="#6C3BFF"/>
<path fill-rule="evenodd" clip-rule="evenodd" d="M9.74097 13.75H16.241C16.655 13.75 16.991 13.414 16.991 13C16.991 12.586 16.655 12.25 16.241 12.25H9.74097C9.32697 12.25 8.99097 12.586 8.99097 13C8.99097 13.414 9.32697 13.75 9.74097 13.75Z" fill="#6C3BFF"/>
<path fill-rule="evenodd" clip-rule="evenodd" d="M9.74097 21.75H16.241C16.655 21.75 16.991 21.414 16.991 21C16.991 20.586 16.655 20.25 16.241 20.25H9.74097C9.32697 20.25 8.99097 20.586 8.99097 21C8.99097 21.414 9.32697 21.75 9.74097 21.75Z" fill="#6C3BFF"/>
<path fill-rule="evenodd" clip-rule="evenodd" d="M9.74097 3.25H22.241C22.655 3.25 22.991 2.914 22.991 2.5C22.991 2.086 22.655 1.75 22.241 1.75H9.74097C9.32697 1.75 8.99097 2.086 8.99097 2.5C8.99097 2.914 9.32697 3.25 9.74097 3.25Z" fill="#6C3BFF"/>
<path fill-rule="evenodd" clip-rule="evenodd" d="M9.74097 11.25H22.241C22.655 11.25 22.991 10.914 22.991 10.5C22.991 10.086 22.655 9.75 22.241 9.75H9.74097C9.32697 9.75 8.99097 10.086 8.99097 10.5C8.99097 10.914 9.32697 11.25 9.74097 11.25Z" fill="#6C3BFF"/>
<path fill-rule="evenodd" clip-rule="evenodd" d="M9.74097 19.25H22.241C22.655 19.25 22.991 18.914 22.991 18.5C22.991 18.086 22.655 17.75 22.241 17.75H9.74097C9.32697 17.75 8.99097 18.086 8.99097 18.5C8.99097 18.914 9.32697 19.25 9.74097 19.25Z" fill="#6C3BFF"/>
</svg>
