<svg width="32" height="32" viewBox="0 0 32 32" fill="none" xmlns="http://www.w3.org/2000/svg">
	<path d="M28.6167 30H3.38327C2.61355 30 2 29.3586 2 28.5823V23.4177C2 22.6301 2.6247 22 3.38327 22H28.6167C29.3865 22 30 22.6414 30 23.4177V28.5823C30 29.3699 29.3753 30 28.6167 30ZM3.38327 22.9451C3.13785 22.9451 2.9259 23.1589 2.9259 23.429V28.5935C2.9259 28.8636 3.12669 29.0774 3.38327 29.0774H28.6167C28.8622 29.0774 29.0741 28.8636 29.0741 28.5935V23.429C29.0741 23.1589 28.8733 22.9451 28.6167 22.9451H3.38327Z" fill="#6C3BFF"/>
	<path d="M15.5185 26.9918C15.3827 26.9918 15.2593 26.959 15.1481 26.8934L14.1481 26.2377C13.9506 26.1066 13.9506 25.8852 14.1481 25.7541C14.3457 25.623 14.679 25.623 14.8765 25.7541L15.5062 26.1721L17.1235 25.0984C17.321 24.9672 17.6543 24.9672 17.8519 25.0984C18.0494 25.2295 18.0494 25.4508 17.8519 25.582L15.8642 26.9016C15.7654 26.9672 15.6296 27 15.4938 27L15.5185 26.9918Z" fill="#6C3BFF"/>
	<path d="M28.6167 10H3.38327C2.61355 10 2 9.38115 2 8.61603V3.38397C2 2.61885 2.6247 2 3.38327 2H28.6167C29.3865 2 30 2.61885 30 3.38397V8.61603C30 9.38115 29.3753 10 28.6167 10ZM3.38327 2.94515C3.13785 2.94515 2.9259 3.14768 2.9259 3.39522V8.62729C2.9259 8.87482 3.12669 9.07736 3.38327 9.07736H28.6167C28.8622 9.07736 29.0741 8.87482 29.0741 8.62729V3.38397C29.0741 3.13643 28.8733 2.9339 28.6167 2.9339H3.38327V2.94515Z" fill="#6C3BFF"/>
	<path d="M25.5189 5H9.48113C9.21766 5 9 4.77381 9 4.5C9 4.22619 9.21766 4 9.48113 4H25.5189C25.7823 4 26 4.22619 26 4.5C26 4.77381 25.7823 5 25.5189 5Z" fill="#6C3BFF"/>
	<path d="M19.5121 8H9.48786C9.2207 8 9 7.77381 9 7.5C9 7.22619 9.2207 7 9.48786 7H19.5121C19.7793 7 20 7.22619 20 7.5C20 7.77381 19.7793 8 19.5121 8Z" fill="#6C3BFF"/>
	<path d="M25.5189 15H9.48113C9.21766 15 9 14.7738 9 14.5C9 14.2262 9.21766 14 9.48113 14H25.5189C25.7823 14 26 14.2262 26 14.5C26 14.7738 25.7823 15 25.5189 15Z" fill="#6C3BFF"/>
	<path d="M19.5121 18H9.48786C9.2207 18 9 17.7738 9 17.5C9 17.2262 9.2207 17 9.48786 17H19.5121C19.7793 17 20 17.2262 20 17.5C20 17.7738 19.7793 18 19.5121 18Z" fill="#6C3BFF"/>
	<path d="M28.6167 20H3.38327C2.61355 20 2 19.3812 2 18.616V13.384C2 12.6188 2.6247 12 3.38327 12H28.6167C29.3865 12 30 12.6188 30 13.384V18.616C30 19.3812 29.3753 20 28.6167 20ZM3.38327 12.9339C3.13785 12.9339 2.9259 13.1364 2.9259 13.384V18.616C2.9259 18.8636 3.12669 19.0661 3.38327 19.0661H28.6167C28.8622 19.0661 29.0741 18.8636 29.0741 18.616V13.384C29.0741 13.1364 28.8733 12.9339 28.6167 12.9339H3.38327Z" fill="#6C3BFF"/>
	<path d="M6.80106 4H5.19894C4.5305 4 4 4.54111 4 5.19894V6.80106C4 7.4695 4.54111 8 5.19894 8H6.80106C7.4695 8 8 7.45889 8 6.80106V5.19894C8 4.5305 7.45889 4 6.80106 4ZM7.20424 6.81167C7.20424 7.03448 7.02387 7.21485 6.80106 7.21485H5.19894C4.97613 7.21485 4.79576 7.03448 4.79576 6.81167V5.20955C4.79576 4.98674 4.97613 4.80637 5.19894 4.80637H6.80106C7.02387 4.80637 7.20424 4.98674 7.20424 5.20955V6.81167Z" fill="#6C3BFF"/>
	<path d="M6.80106 14H5.19894C4.5305 14 4 14.5411 4 15.1989V16.8011C4 17.4695 4.54111 18 5.19894 18H6.80106C7.4695 18 8 17.4589 8 16.8011V15.1989C8 14.5305 7.45889 14 6.80106 14ZM7.20424 16.8117C7.20424 17.0345 7.02387 17.2149 6.80106 17.2149H5.19894C4.97613 17.2149 4.79576 17.0345 4.79576 16.8117V15.2095C4.79576 14.9867 4.97613 14.8064 5.19894 14.8064H6.80106C7.02387 14.8064 7.20424 14.9867 7.20424 15.2095V16.8117Z" fill="#6C3BFF"/>
	</svg>
