
<svg width="32" height="32" viewBox="0 0 32 32" fill="none" xmlns="http://www.w3.org/2000/svg">
    <path d="M2 24.9118C2 26.2035 3.00926 27.2 4.31756 27.2H17.5491C18.8574 27.2 19.8667 26.2035 19.8667 24.9118V6.2882C19.8667 4.99647 18.8574 4 17.5491 4H4.31756C3.00926 4 2 4.99647 2 6.2882V24.9118ZM3.23354 6.2882C3.23354 5.69769 3.75686 5.07029 4.46708 5.07029H17.6612C18.2593 5.07029 18.8948 5.58697 18.8948 6.2882V24.9118C18.8948 25.5023 18.3715 26.1297 17.6612 26.1297H4.31756C3.71948 26.1297 3.08402 25.613 3.08402 24.9118L3.23354 6.2882Z" fill="#6C3BFF"/>
    <path d="M30.1599 11.9333H22.2401C21.9626 11.9333 21.7333 11.6921 21.7333 11.4C21.7333 11.1079 21.9626 10.8667 22.2401 10.8667H30.1599C30.4374 10.8667 30.6667 11.1079 30.6667 11.4C30.6667 11.6921 30.4374 11.9333 30.1599 11.9333Z" fill="#6C3BFF"/>
    <path d="M30.1599 7.93334H22.2401C21.9626 7.93334 21.7333 7.69207 21.7333 7.4C21.7333 7.10794 21.9626 6.86667 22.2401 6.86667H30.1599C30.4374 6.86667 30.6667 7.10794 30.6667 7.4C30.6667 7.69207 30.4374 7.93334 30.1599 7.93334Z" fill="#6C3BFF"/>
    <path d="M30.1607 16.1333H22.2393C21.9622 16.1333 21.7333 15.8921 21.7333 15.6C21.7333 15.3079 21.9622 15.0667 22.2393 15.0667H30.1607C30.4378 15.0667 30.6667 15.3079 30.6667 15.6C30.6667 15.8921 30.4378 16.1333 30.1607 16.1333Z" fill="#6C3BFF"/>
    <path d="M27.0232 20.3333H22.3102C21.9943 20.3333 21.7333 20.0921 21.7333 19.8C21.7333 19.5079 21.9943 19.2667 22.3102 19.2667H27.0232C27.3391 19.2667 27.6 19.5079 27.6 19.8C27.6 20.0921 27.3391 20.3333 27.0232 20.3333Z" fill="#6C3BFF"/>
    <path fill-rule="evenodd" clip-rule="evenodd" d="M9.54483 8.07052C9.68288 8.17002 9.76469 8.32982 9.76469 8.5C9.76469 8.82762 9.89483 9.14182 10.1265 9.37348C10.3582 9.60514 10.6724 9.73529 11 9.73529C11.3276 9.73529 11.6418 9.60514 11.8735 9.37348C12.1051 9.14182 12.2353 8.82762 12.2353 8.5C12.2353 8.32982 12.3171 8.17002 12.4551 8.07052C12.5932 7.97101 12.7707 7.94394 12.9321 7.99775L16.4615 9.17422C16.6777 9.24628 16.8235 9.44859 16.8235 9.67647V12.6176C16.8235 12.91 16.5865 13.1471 16.2941 13.1471H15.0588V17.9118C15.0588 18.2082 14.9411 18.4925 14.7315 18.7021C14.5219 18.9117 14.2376 19.0294 13.9412 19.0294H8.05881C7.76239 19.0294 7.47811 18.9117 7.26851 18.7021C7.05891 18.4925 6.94116 18.2082 6.94116 17.9118V13.1471H5.70586C5.41348 13.1471 5.17645 12.91 5.17645 12.6176V9.67647C5.17645 9.44859 5.32227 9.24628 5.53845 9.17422L9.06786 7.99775C9.2293 7.94394 9.40677 7.97101 9.54483 8.07052ZM6.23528 10.058V12.0882H7.47057C7.76296 12.0882 7.99998 12.3253 7.99998 12.6176V17.9118C7.99998 17.9274 8.00618 17.9423 8.01721 17.9534C8.02824 17.9644 8.0432 17.9706 8.05881 17.9706H13.9412C13.9568 17.9706 13.9717 17.9644 13.9828 17.9534C13.9938 17.9423 14 17.9274 14 17.9118V12.6176C14 12.3253 14.237 12.0882 14.5294 12.0882H15.7647V10.058L13.1853 9.19824C13.0749 9.54355 12.8833 9.86109 12.6222 10.1222C12.1919 10.5524 11.6084 10.7941 11 10.7941C10.3915 10.7941 9.80803 10.5524 9.3778 10.1222C9.1167 9.86109 8.92504 9.54355 8.8147 9.19824L6.23528 10.058Z" fill="#6C3BFF"/>
    <path fill-rule="evenodd" clip-rule="evenodd" d="M2.58673 21.8667C2.58673 21.6016 2.80163 21.3867 3.06673 21.3867H19.2391C19.5042 21.3867 19.7191 21.6016 19.7191 21.8667C19.7191 22.1318 19.5042 22.3467 19.2391 22.3467H3.06673C2.80163 22.3467 2.58673 22.1318 2.58673 21.8667Z" fill="#6C3BFF"/>
    </svg>
    