<svg width="24" height="24" viewBox="0 0 24 24" fill="none" xmlns="http://www.w3.org/2000/svg">
<path d="M11.5 2.5C11.7761 2.5 12 2.72386 12 3C12 3.27614 11.7761 3.5 11.5 3.5C9.12884 3.5 7.40059 3.50117 6.08008 3.67871C4.77407 3.85432 3.94218 4.19454 3.31836 4.81836C2.69454 5.44218 2.35432 6.27407 2.17871 7.58008C2.0272 8.70703 2.00446 10.131 2.00098 11.998L2.92188 11.1924C4.03125 10.2217 5.70375 10.278 6.74609 11.3203L11.0361 15.6094C11.2416 15.8149 11.3766 15.8571 11.4492 15.8643C11.5237 15.8715 11.6218 15.8512 11.7695 15.7598C11.9231 15.6647 12.0828 15.5234 12.2793 15.3418C12.4614 15.1736 12.6816 14.9642 12.9141 14.8008L13.2129 14.5908C13.8443 14.1472 14.5883 13.835 15.4453 13.916C16.2988 13.9967 17.1726 14.4588 18.085 15.3711L20.8525 18.1436C20.9963 16.8603 21 15.2095 21 13C21 12.7239 21.2239 12.5 21.5 12.5C21.7761 12.5 22 12.7239 22 13C22 15.3428 22.001 17.1501 21.8125 18.5527C21.622 19.9697 21.2293 21.0481 20.3887 21.8887C19.5481 22.7293 18.4697 23.122 17.0527 23.3125C15.6501 23.501 13.8428 23.5 11.5 23.5C9.15725 23.5 7.34986 23.501 5.94727 23.3125C4.53025 23.122 3.45195 22.7293 2.61133 21.8887C1.77071 21.0481 1.37801 19.9697 1.1875 18.5527C0.998954 17.1501 1 15.3428 1 13C1 10.6572 0.998954 8.84986 1.1875 7.44727C1.37801 6.03025 1.77071 4.95195 2.61133 4.11133C3.45195 3.27071 4.53025 2.87801 5.94727 2.6875C7.34986 2.49895 9.15725 2.5 11.5 2.5ZM6.03906 12.0273C5.36903 11.3573 4.29422 11.3214 3.58105 11.9453L2 13.3271C2.00046 15.5312 2.00944 17.1609 2.17871 18.4199C2.35432 19.7259 2.69454 20.5578 3.31836 21.1816C3.94218 21.8055 4.77407 22.1457 6.08008 22.3213C7.40059 22.4988 9.12884 22.5 11.5 22.5C13.8712 22.5 15.5994 22.4988 16.9199 22.3213C18.2259 22.1457 19.0578 21.8055 19.6816 21.1816C20.142 20.7213 20.4473 20.1475 20.6465 19.3535L17.3779 16.0781C16.5661 15.2663 15.8966 14.9637 15.3516 14.9121C14.81 14.8609 14.2999 15.0488 13.7871 15.4092L13.4893 15.6182C13.3243 15.7341 13.1608 15.8888 12.958 16.0762C12.7696 16.2503 12.5432 16.4572 12.2959 16.6104C12.0428 16.767 11.7242 16.8952 11.3535 16.8594C10.9808 16.8233 10.6415 16.6296 10.3291 16.3174L6.03906 12.0273ZM22 6.5C22 4.29086 20.2091 2.5 18 2.5C15.7909 2.5 14 4.29086 14 6.5C14 8.70912 15.7909 10.5 18 10.5C20.2091 10.5 22 8.70912 22 6.5ZM17.4961 7.84961V7H16.6504C16.3742 7 16.1504 6.77614 16.1504 6.5C16.1504 6.22386 16.3742 6 16.6504 6H17.4961V5.15039C17.4961 4.87425 17.72 4.65039 17.9961 4.65039C18.272 4.65065 18.4961 4.87441 18.4961 5.15039V6H19.3496C19.6258 6 19.8496 6.22386 19.8496 6.5C19.8496 6.77614 19.6258 7 19.3496 7H18.4961V7.84961C18.4961 8.12559 18.272 8.34935 17.9961 8.34961C17.72 8.34961 17.4961 8.12575 17.4961 7.84961ZM23 6.5C23 9.2614 20.7614 11.5 18 11.5C15.2386 11.5 13 9.2614 13 6.5C13 3.73858 15.2386 1.5 18 1.5C20.7614 1.5 23 3.73857 23 6.5Z" fill="#6C3BFF"/>
</svg>
