<svg width="60" height="60" viewBox="0 0 60 60" fill="none" xmlns="http://www.w3.org/2000/svg">
	<path
		d="M13 9.5C13 11.9853 10.9853 14 8.5 14C6.01472 14 4 11.9853 4 9.5C4 7.01472 6.01472 5 8.5 5C10.9853 5 13 7.01472 13 9.5Z"
		stroke="#6C3BFF" stroke-width="1.8" />
	<path
		d="M13 50.5C13 52.9853 10.9853 55 8.5 55C6.01472 55 4 52.9853 4 50.5C4 48.0147 6.01472 46 8.5 46C10.9853 46 13 48.0147 13 50.5Z"
		stroke="#6C3BFF" stroke-width="1.8" />
	<path
		d="M55 9.5C55 11.9853 52.9853 14 50.5 14C48.0147 14 46 11.9853 46 9.5C46 7.01472 48.0147 5 50.5 5C52.9853 5 55 7.01472 55 9.5Z"
		stroke="#6C3BFF" stroke-width="1.8" />
	<path
		d="M55 50.5C55 52.9853 52.9853 55 50.5 55C48.0147 55 46 52.9853 46 50.5C46 48.0147 48.0147 46 50.5 46C52.9853 46 55 48.0147 55 50.5Z"
		stroke="#6C3BFF" stroke-width="1.8" />
	<path d="M11.5 54H47.5" stroke="#6C3BFF" stroke-width="1.8" stroke-linecap="round" />
	<path
		d="M29 41C29 41.5523 29.4477 42 30 42C30.5523 42 31 41.5523 31 41H29ZM38 25.05C38 25.6023 38.4477 26.05 39 26.05C39.5523 26.05 40 25.6023 40 25.05H38ZM20 25.05C20 25.6023 20.4477 26.05 21 26.05C21.5523 26.05 22 25.6023 22 25.05H20ZM38.341 19.716L39.0768 19.0387V19.0387L38.341 19.716ZM24.375 40C23.8227 40 23.375 40.4477 23.375 41C23.375 41.5523 23.8227 42 24.375 42V40ZM36.75 42C37.3023 42 37.75 41.5523 37.75 41C37.75 40.4477 37.3023 40 36.75 40V42ZM25.5 20H30V18H25.5V20ZM30 20H34.5V18H30V20ZM31 41V19H29V41H31ZM38 23.8889V25.05H40V23.8889H38ZM20 23.8889V25.05H22V23.8889H20ZM34.5 20C35.5913 20 36.3006 20.0025 36.8243 20.079C37.3102 20.15 37.4881 20.266 37.6052 20.3932L39.0768 19.0387C38.5349 18.45 37.8529 18.208 37.1134 18.1C36.4117 17.9975 35.53 18 34.5 18V20ZM40 23.8889C40 22.7626 40.0018 21.8253 39.9101 21.0839C39.8157 20.3216 39.6078 19.6157 39.0768 19.0387L37.6052 20.3932C37.7332 20.5322 37.8548 20.7604 37.9252 21.3295C37.9982 21.9194 38 22.7105 38 23.8889H40ZM25.5 18C24.47 18 23.5883 17.9975 22.8866 18.1C22.1471 18.208 21.4651 18.45 20.9232 19.0387L22.3948 20.3932C22.5119 20.266 22.6898 20.15 23.1757 20.079C23.6994 20.0025 24.4087 20 25.5 20V18ZM22 23.8889C22 22.7105 22.0018 21.9194 22.0748 21.3295C22.1452 20.7604 22.2668 20.5322 22.3948 20.3932L20.9232 19.0387C20.3922 19.6157 20.1843 20.3216 20.0899 21.0839C19.9982 21.8253 20 22.7626 20 23.8889H22ZM24.375 42H36.75V40H24.375V42Z"
		fill="#6C3BFF" />
	<path d="M46 9H14" stroke="#6C3BFF" stroke-width="1.8" stroke-linecap="round" />
	<path d="M51 46V14" stroke="#6C3BFF" stroke-width="1.8" stroke-linecap="round" />
	<path d="M6 14V46.5" stroke="#6C3BFF" stroke-width="1.8" stroke-linecap="round" />
</svg>
	