<svg width="24" height="24" viewBox="0 0 24 24" fill="none" xmlns="http://www.w3.org/2000/svg">
<path d="M15.0995 20.5H4C3.173 20.5 2.5 19.827 2.5 19V7.5H20V14.7939C20 15.0704 20.2235 15.2939 20.5 15.2939C20.7765 15.2939 21 15.0704 21 14.7939V5C21 3.6215 19.8785 2.5 18.5 2.5H17C17 1.673 16.327 1 15.5 1C14.673 1 14 1.673 14 2.5H8.5C8.5 1.673 7.827 1 7 1C6.173 1 5.5 1.673 5.5 2.5H4C2.6215 2.5 1.5 3.6215 1.5 5V19C1.5 20.3785 2.6215 21.5 4 21.5H15.0995C15.376 21.5 15.5995 21.2765 15.5995 21C15.5995 20.7235 15.376 20.5 15.0995 20.5ZM15 2.5C15 2.2245 15.224 2 15.5 2C15.776 2 16 2.2245 16 2.5V3.5C16 3.7755 15.776 4 15.5 4C15.224 4 15 3.7755 15 3.5V2.5ZM6.5 2.5C6.5 2.2245 6.724 2 7 2C7.276 2 7.5 2.2245 7.5 2.5V3.5C7.5 3.7755 7.276 4 7 4C6.724 4 6.5 3.7755 6.5 3.5V2.5ZM2.5 5C2.5 4.173 3.173 3.5 4 3.5H5.5C5.5 4.327 6.173 5 7 5C7.827 5 8.5 4.327 8.5 3.5H14C14 4.327 14.673 5 15.5 5C16.327 5 17 4.327 17 3.5H18.5C19.327 3.5 20 4.173 20 5V6.5H2.5V5Z" fill="#6C3BFF"/>
<path d="M7.5 10.5C7.5 9.9485 7.0515 9.5 6.5 9.5H5C4.4485 9.5 4 9.9485 4 10.5V12C4 12.5515 4.4485 13 5 13H6.5C7.0515 13 7.5 12.5515 7.5 12V10.5ZM5 12V10.5H6.5V12H5Z" fill="#6C3BFF"/>
<path d="M13 10.5C13 9.9485 12.5515 9.5 12 9.5H10.5C9.9485 9.5 9.5 9.9485 9.5 10.5V12C9.5 12.5515 9.9485 13 10.5 13H12C12.5515 13 13 12.5515 13 12V10.5ZM10.5 12V10.5H12V12H10.5Z" fill="#6C3BFF"/>
<path d="M16 9.5C15.4485 9.5 15 9.9485 15 10.5V12C15 12.5515 15.4485 13 16 13H17.5C18.0515 13 18.5 12.5515 18.5 12V10.5C18.5 9.9485 18.0515 9.5 17.5 9.5H16ZM16 12V10.5H17.5V12H16Z" fill="#6C3BFF"/>
<path d="M6.5 15H5C4.4485 15 4 15.4485 4 16V17.5C4 18.0515 4.4485 18.5 5 18.5H6.5C7.0515 18.5 7.5 18.0515 7.5 17.5V16C7.5 15.4485 7.0515 15 6.5 15ZM5 17.5V16H6.5L6.501 17.5H5Z" fill="#6C3BFF"/>
<path d="M12 15H10.5C9.9485 15 9.5 15.4485 9.5 16V17.5C9.5 18.0515 9.9485 18.5 10.5 18.5H12C12.5515 18.5 13 18.0515 13 17.5V16C13 15.4485 12.5515 15 12 15ZM10.5 17.5V16H12L12.001 17.5H10.5Z" fill="#6C3BFF"/>
<path d="M18.5 14C17.61 14 16.74 14.2639 15.9999 14.7584C15.2599 15.2529 14.6831 15.9557 14.3425 16.7779C14.0019 17.6002 13.9128 18.505 14.0865 19.3779C14.2601 20.2508 14.6887 21.0526 15.318 21.682C15.9474 22.3113 16.7492 22.7399 17.6221 22.9135C18.495 23.0872 19.3998 22.998 20.2221 22.6575C21.0443 22.3169 21.7471 21.7401 22.2416 21.0001C22.7361 20.26 23 19.39 23 18.5C22.9986 17.307 22.524 16.1632 21.6804 15.3196C20.8368 14.476 19.693 14.0014 18.5 14ZM18.5 22.1818C17.7718 22.1818 17.06 21.9659 16.4545 21.5613C15.849 21.1568 15.3771 20.5817 15.0984 19.909C14.8198 19.2362 14.7469 18.4959 14.8889 17.7817C15.031 17.0675 15.3817 16.4115 15.8966 15.8966C16.4115 15.3816 17.0675 15.031 17.7817 14.8889C18.4959 14.7469 19.2362 14.8198 19.909 15.0984C20.5817 15.3771 21.1568 15.849 21.5613 16.4545C21.9659 17.06 22.1818 17.7718 22.1818 18.5C22.1807 19.4761 21.7925 20.412 21.1022 21.1022C20.412 21.7925 19.4761 22.1807 18.5 22.1818Z" fill="#6C3BFF"/>
<path d="M19 18.793V16.5C19 16.3674 18.9473 16.2402 18.8536 16.1464C18.7598 16.0527 18.6326 16 18.5 16C18.3674 16 18.2402 16.0527 18.1464 16.1464C18.0527 16.2402 18 16.3674 18 16.5V19C18 19.1326 18.0527 19.2598 18.1465 19.3535L19.1465 20.3535C19.2408 20.4446 19.3671 20.495 19.4982 20.4938C19.6293 20.4927 19.7547 20.4401 19.8474 20.3474C19.9401 20.2547 19.9927 20.1293 19.9938 19.9982C19.995 19.8671 19.9446 19.7408 19.8535 19.6465L19 18.793Z" fill="#6C3BFF"/>
</svg>
