<svg width="32" height="32" viewBox="0 0 32 32" fill="none" xmlns="http://www.w3.org/2000/svg">
<path d="M28 9H5V25H28V9ZM27 24H6V10H27V24Z" fill="#6C3BFF"/>
<path d="M8 12H25V14H8V12Z" fill="#6C3BFF"/>
<path d="M8 16H18V18H8V16Z" fill="#6C3BFF"/>
<path d="M8 20H13V22H8V20Z" fill="#6C3BFF"/>
<path d="M20 16H25V18H20V16Z" fill="#6C3BFF"/>
<path d="M15 20H25V22H15V20Z" fill="#6C3BFF"/>
<path d="M7.5 7C8.709 7 9.718 6.141 9.949 5H14.051C14.282 6.141 15.291 7 16.5 7C17.709 7 18.718 6.141 18.949 5H23.051C23.282 6.141 24.291 7 25.5 7C26.88 7 28 5.88 28 4.5C28 3.12 26.88 2 25.5 2C24.291 2 23.282 2.859 23.051 4H18.949C18.718 2.859 17.709 2 16.5 2C15.291 2 14.282 2.859 14.051 4H9.949C9.718 2.859 8.709 2 7.5 2C6.12 2 5 3.12 5 4.5C5 5.88 6.12 7 7.5 7ZM25.5 3C26.328 3 27 3.672 27 4.5C27 5.328 26.328 6 25.5 6C24.672 6 24 5.328 24 4.5C24 3.672 24.672 3 25.5 3ZM16.5 3C17.328 3 18 3.672 18 4.5C18 5.328 17.328 6 16.5 6C15.672 6 15 5.328 15 4.5C15 3.672 15.672 3 16.5 3Z" fill="#6C3BFF"/>
<path d="M26 28H23V30H26V31L28 29L26 27V28Z" fill="#6C3BFF"/>
</svg>
