<svg width="24" height="24" viewBox="0 0 24 24" fill="none" xmlns="http://www.w3.org/2000/svg">
<g clip-path="url(#clip0_8859_44)">
<path d="M22.2513 7.37513C21.7265 6.2175 21.01 5.15674 20.1322 4.2375C20.1073 4.19935 20.0757 4.16606 20.0388 4.13925C18.6637 2.72919 16.9421 1.70547 15.0465 1.17075C13.1509 0.636044 11.1481 0.609144 9.23882 1.09275C9.22421 1.09398 9.20968 1.09611 9.19532 1.09913C9.19157 1.09913 9.18895 1.104 9.18482 1.1055C7.51342 1.53566 5.96339 2.3446 4.65468 3.46973C3.34597 4.59486 2.31367 6.006 1.63767 7.59397C0.961666 9.18194 0.66008 10.9042 0.75625 12.6273C0.85242 14.3505 1.34377 16.0285 2.19227 17.5314C3.04077 19.0343 4.22368 20.3218 5.64945 21.2943C7.07523 22.2668 8.70564 22.8983 10.4145 23.1398C12.1234 23.3813 13.865 23.2264 15.5044 22.687C17.1438 22.1477 18.6372 21.2384 19.8689 20.0295C19.8871 20.0154 19.9038 19.9996 19.9188 19.9823C21.548 18.371 22.6449 16.2997 23.0622 14.0466C23.4796 11.7935 23.1972 9.46675 22.2532 7.37888L22.2513 7.37513ZM19.4624 5.74725C19.6575 5.5765 19.8203 5.37214 19.9432 5.14388C20.4699 5.75233 20.9252 6.41919 21.2999 7.13138C20.8676 7.12388 20.4884 7.11638 20.1843 7.1085C19.5311 7.09388 19.1242 7.08038 18.8463 7.071C18.5453 7.05066 18.2433 7.05254 17.9426 7.07663C17.487 7.11506 17.0342 7.18093 16.5866 7.27388C16.1542 7.35825 15.9839 7.38375 15.9179 7.32225C15.811 7.18095 15.7616 7.00429 15.7799 6.828C15.775 6.64052 15.8421 6.45829 15.9674 6.31875C16.0469 6.25313 16.1669 6.267 16.4861 6.32363C16.9699 6.42827 17.4691 6.44099 17.9576 6.36113C18.5056 6.29675 19.0258 6.08456 19.4624 5.74725ZM9.0802 1.91625C9.30492 2.571 9.29737 3.28316 9.05882 3.933C8.93853 4.20276 8.79195 4.46 8.6212 4.701C8.39095 5.04788 8.17345 5.376 8.4367 5.66325C8.72507 5.97488 9.1012 5.72738 9.5362 5.44163C10.0394 5.11013 10.8007 4.6095 11.3613 4.80413C11.5145 4.86786 11.6536 4.96123 11.7706 5.07887C11.8876 5.1965 11.9802 5.3361 12.0431 5.48963C12.1199 5.62827 12.1424 5.79057 12.1061 5.94488C12.0798 6.00188 11.9129 6.02738 11.6613 6.06C11.1371 6.10423 10.6291 6.26297 10.1729 6.525C9.73391 6.78302 9.37689 7.16005 9.1432 7.6125C8.98647 7.9376 8.73492 8.20759 8.4217 8.38688C8.05448 8.58664 7.63918 8.68099 7.2217 8.6595C6.99341 8.63331 6.76215 8.6603 6.54604 8.73837C6.32992 8.81644 6.1348 8.94346 5.97595 9.1095C5.3092 9.897 5.68382 11.2316 6.0982 11.9385C6.59845 12.7954 7.2202 13.2653 7.89632 13.2968C8.11271 13.2981 8.32715 13.2558 8.52687 13.1725C8.72659 13.0892 8.9075 12.9666 9.05882 12.8119C9.21584 12.6336 9.43472 12.5215 9.6712 12.4984C9.92132 12.4984 10.0556 12.6296 10.3364 12.9263C10.712 13.3638 11.1881 13.7037 11.7239 13.9166C12.1044 14.0591 12.5058 14.1377 12.9119 14.1491C13.2427 14.1694 13.3068 14.1866 13.3713 14.2721C13.6297 14.6134 13.2995 14.9884 13.1045 15.3416C12.9107 15.7082 12.0823 15.7694 11.7239 15.978C11.3305 16.229 11.3335 17.1671 11.0418 17.5314C10.5811 18.1349 10.4659 18.901 10.3151 19.6451C10.3031 19.6928 10.2903 19.7438 10.2776 19.7933C10.0372 19.3423 9.89072 18.8472 9.84696 18.3381C9.8032 17.8289 9.86307 17.3161 10.0229 16.8308C10.107 16.6528 10.1472 16.4573 10.1403 16.2606C10.1333 16.0639 10.0793 15.8717 9.98282 15.7001C9.64982 15.2033 9.00557 15.1609 8.4877 15.1271C8.26601 15.1296 8.04547 15.095 7.8352 15.0248C7.85947 14.951 7.8938 14.881 7.9372 14.8166C8.02534 14.6988 8.08663 14.5631 8.11675 14.4191C8.14687 14.2751 8.14511 14.1263 8.11157 13.983C7.92407 13.3988 7.24345 13.3526 6.52195 13.3035C5.81957 13.2559 5.02195 13.2019 4.5592 12.7185C4.27232 12.4185 4.25657 12.1103 4.23295 11.6408C4.23377 11.0873 4.11171 10.5405 3.87557 10.0399C3.48874 9.31452 2.8868 8.72673 2.15245 8.35725C2.72587 6.81833 3.65081 5.43461 4.85357 4.31636C6.05633 3.19811 7.50365 2.37624 9.0802 1.91625ZM1.49995 12C1.50009 11.0134 1.63985 10.0318 1.91507 9.08438C2.46327 9.37666 2.91198 9.82563 3.20395 10.374C3.39283 10.782 3.48815 11.2271 3.48295 11.6768C3.46499 11.9592 3.50302 12.2424 3.59485 12.5101C3.68669 12.7779 3.83052 13.0248 4.01807 13.2368C4.68182 13.929 5.6737 13.9961 6.47057 14.0501C6.78623 14.0423 7.10041 14.0958 7.3957 14.2076C7.37347 14.2893 7.33745 14.3665 7.2892 14.436C7.19398 14.5583 7.13086 14.7025 7.10558 14.8554C7.0803 15.0084 7.09366 15.1652 7.14445 15.3116C7.35482 15.8033 7.93007 15.8408 8.43782 15.8741C8.80982 15.8985 9.23132 15.9259 9.36032 16.1183C9.4147 16.1985 9.39782 16.2915 9.3022 16.6185C9.17727 17.006 9.10463 17.4084 9.0862 17.8151C9.04195 18.9356 9.44395 20.0438 9.85757 20.4686C9.92117 20.5419 9.99918 20.6012 10.0867 20.643C10.1743 20.6847 10.2695 20.7079 10.3664 20.7113H10.3751C10.8251 20.6985 10.9353 20.2549 11.0418 19.8263C11.168 19.1865 11.2356 18.5179 11.6291 17.9979C11.8754 17.6932 11.8027 16.8068 12.1339 16.5975C12.591 16.3226 13.5147 16.1718 13.7637 15.7001C13.8477 15.5479 14.5874 14.6385 13.9706 13.8214C13.8479 13.6753 13.6919 13.5608 13.5156 13.4877C13.3394 13.4146 13.1482 13.385 12.9581 13.4014C12.6287 13.3943 12.3028 13.332 11.9939 13.2173C11.5616 13.0459 11.1789 12.7693 10.8806 12.4125C10.7411 12.2182 10.5596 12.0577 10.3497 11.943C10.1398 11.8283 9.90673 11.7623 9.66782 11.7499C9.2548 11.7693 8.86441 11.9442 8.57507 12.2396C8.33132 12.4451 8.17907 12.5599 7.93045 12.5486C7.5262 12.5303 7.10545 12.1796 6.74357 11.5605C6.37757 10.9358 6.19795 10.0073 6.54557 9.59738C6.68357 9.43613 6.83582 9.41925 7.2352 9.40988C7.77853 9.42916 8.31694 9.301 8.79332 9.039C9.21937 8.79517 9.5649 8.43217 9.78745 7.99463C9.95763 7.65106 10.2241 7.36441 10.5543 7.16963C10.9226 6.96119 11.3324 6.83685 11.7543 6.8055C12.1424 6.75525 12.5823 6.69863 12.7859 6.25725C12.8506 6.08542 12.8789 5.90202 12.8689 5.71869C12.859 5.53535 12.8111 5.35609 12.7282 5.19225C12.6239 4.94342 12.4705 4.71815 12.2772 4.52989C12.0839 4.34163 11.8547 4.19423 11.6032 4.0965C10.9117 3.85538 10.1969 4.16063 9.6187 4.5015C9.66557 4.41113 9.7102 4.317 9.75032 4.21988C10.0529 3.42177 10.0724 2.54398 9.80545 1.73325C11.5116 1.36802 13.282 1.43466 14.9559 1.92712C16.6298 2.41958 18.1542 3.32227 19.3908 4.55325C19.3071 4.79185 19.1649 5.00563 18.9772 5.175C18.6436 5.42342 18.2496 5.57802 17.8361 5.62275C17.4313 5.68781 17.0177 5.67509 16.6177 5.58525C16.4311 5.52167 16.2323 5.50249 16.037 5.52924C15.8417 5.556 15.6553 5.62795 15.4927 5.73938C15.3466 5.87477 15.2302 6.0389 15.1506 6.22147C15.071 6.40404 15.0301 6.6011 15.0303 6.80025C15.0143 6.99474 15.0394 7.19042 15.104 7.37456C15.1686 7.5587 15.2713 7.72717 15.4053 7.869C15.4899 7.94849 15.5895 8.01033 15.6982 8.05089C15.807 8.09146 15.9227 8.10994 16.0387 8.10525C16.2718 8.09489 16.5034 8.06301 16.7306 8.01C17.1514 7.92181 17.5772 7.85919 18.0056 7.8225C18.2778 7.80171 18.5511 7.80045 18.8234 7.81875C19.1032 7.8285 19.5119 7.84238 20.1686 7.85625C20.5582 7.866 21.0686 7.87613 21.6641 7.8855C22.0164 8.71481 22.2595 9.58634 22.3874 10.4783C21.9481 10.2805 21.5315 10.0356 21.1451 9.74775C21.0269 9.65813 20.9201 9.5715 20.8233 9.49088C20.4869 9.14167 20.0378 8.92287 19.5554 8.87325C19.1742 8.85932 18.8 8.97866 18.4972 9.21075C18.2464 9.39077 17.9585 9.51248 17.6546 9.567C17.3718 9.61839 17.0816 9.61202 16.8014 9.54825C16.4442 9.4501 16.0631 9.49028 15.7342 9.66075C15.469 9.82342 15.2423 10.0418 15.0699 10.3009C14.8976 10.5599 14.7836 10.8533 14.7359 11.1608C14.669 11.5037 14.6914 11.8581 14.8008 12.19C14.9102 12.5218 15.103 12.82 15.3607 13.056C15.9044 13.4813 16.5134 13.3316 17.0508 13.1996C17.5098 13.0871 17.9441 12.9803 18.3408 13.1996C18.8823 13.4996 19.2033 14.2811 19.0383 14.6246C18.9506 14.8058 18.6656 14.8871 18.3903 14.964C18.0408 15.0626 17.6058 15.1856 17.5158 15.6195C17.4179 16.0856 17.8203 16.3849 18.2099 16.674C18.494 16.8661 18.7491 17.098 18.9674 17.3625C19.3424 17.8541 19.4489 18.588 19.2959 19.5409C17.8155 20.9762 15.9449 21.9435 13.9179 22.3218C11.8909 22.7002 9.79732 22.473 7.89872 21.6685C6.00011 20.864 4.38065 19.5179 3.24263 17.7983C2.1046 16.0788 1.49847 14.062 1.49995 12ZM20.1097 18.6619C20.1194 18.0359 19.9293 17.4231 19.5671 16.9125C19.3068 16.5901 19.0005 16.3077 18.6581 16.0744C18.5314 15.985 18.4104 15.8878 18.2958 15.7834C18.3941 15.7465 18.4943 15.7147 18.5958 15.6881C18.8248 15.6546 19.0438 15.5714 19.2372 15.4443C19.4306 15.3172 19.5939 15.1493 19.7156 14.9524C20.0703 14.2136 19.5693 13.0211 18.7049 12.5449C18.4194 12.4131 18.1106 12.339 17.7963 12.3268C17.482 12.3146 17.1684 12.3645 16.8734 12.4736C16.3822 12.5944 16.0687 12.6581 15.8201 12.4639C15.6713 12.3097 15.5625 12.1216 15.5029 11.9158C15.4433 11.71 15.4348 11.4928 15.4781 11.283C15.5062 11.0889 15.5751 10.9029 15.6801 10.7372C15.7851 10.5715 15.9239 10.4298 16.0874 10.3215C16.1772 10.2776 16.2748 10.252 16.3746 10.246C16.4744 10.2401 16.5743 10.254 16.6687 10.287C17.0512 10.3702 17.4468 10.3738 17.8307 10.2974C18.2147 10.221 18.5788 10.0663 18.9003 9.843C19.0719 9.69703 19.2908 9.61851 19.5161 9.62213C19.8078 9.63675 19.9912 9.77775 20.3463 10.0699C20.4513 10.1561 20.5642 10.2491 20.6921 10.3459C21.2392 10.752 21.8387 11.0821 22.4744 11.3273C22.4902 11.55 22.4999 11.775 22.4999 12C22.5022 14.431 21.6569 16.7868 20.1097 18.6619Z" fill="#6C3BFF"/>
<path d="M15.2917 18.217C14.7061 18.217 14.2297 18.6668 14.2297 19.2198C14.2297 19.7727 14.7061 20.2225 15.2917 20.2225C15.8772 20.2225 16.3537 19.7727 16.3537 19.2198C16.3537 18.6668 15.8773 18.217 15.2917 18.217ZM15.2917 19.8003C14.9526 19.8003 14.6768 19.5399 14.6768 19.2198C14.6768 18.8997 14.9526 18.6392 15.2917 18.6392C15.6307 18.6392 15.9065 18.8997 15.9065 19.2198C15.9065 19.5399 15.6307 19.8003 15.2917 19.8003Z" fill="#6C3BFF"/>
<path d="M15.2917 17C14.028 17 13 17.9707 13 19.1639V19.2237C13 19.8271 13.3664 20.5303 14.089 21.3137C14.6129 21.8816 15.1015 22.3762 15.1232 22.3928L15.2637 22.5L15.4042 22.3928C15.4259 22.3762 15.9704 21.8816 16.4943 21.3137C17.2169 20.5303 17.5833 19.8272 17.5833 19.2237V19.1639C17.5833 17.9707 16.5553 17 15.2917 17ZM17.1362 19.2237C17.1362 20.2435 15.7166 21.5765 15.2637 21.9513C14.8106 21.5764 13.4471 20.2434 13.4471 19.2237V19.1639C13.4471 18.2035 14.2746 17.4222 15.2917 17.4222C16.3087 17.4222 17.1362 18.2035 17.1362 19.1639V19.2237Z" fill="#6C3BFF"/>
</g>
<defs>
<clipPath id="clip0_8859_44">
<rect width="24" height="24" fill="white"/>
</clipPath>
</defs>
</svg>
