<svg width="24" height="24" viewBox="0 0 24 24" fill="none" xmlns="http://www.w3.org/2000/svg">
<path d="M16.6444 22.0725C17.5651 22.0725 18.3903 21.9103 19.0997 21.5914C21.2845 20.6118 21.9032 19.7154 22.037 19.1349C22.152 18.647 21.98 18.1324 21.5127 17.564C21.1252 17.0948 19.1215 14.7545 17.5906 14.7298C16.7291 14.7504 16.3967 15.0771 15.9766 15.4901C15.703 15.7588 15.395 16.0616 14.9584 16.2437C14.5915 16.3951 14.1744 16.5349 13.6176 16.5349H13.5636C10.759 16.4907 7.50958 13.2416 7.46648 10.437C7.45675 9.8547 7.60027 9.42186 7.75654 9.04187C7.93868 8.60529 8.24147 8.29724 8.50903 8.02594C8.92426 7.60397 9.24991 7.27119 9.27052 6.43028C9.24579 4.87994 6.90661 2.87507 6.43857 2.48944C5.85921 2.01163 5.35743 1.84825 4.86538 1.96328C4.28526 2.09819 3.38886 2.71877 2.4093 4.90054C2.07578 5.6433 1.91425 6.51084 1.93001 7.48367C2.05292 15.2668 8.73352 21.9474 16.5166 22.0714L16.6444 22.0725ZM17.5947 15.7371C18.4072 15.7498 19.9545 17.257 20.7347 18.2033C20.9865 18.5083 21.0949 18.7452 21.0574 18.9055C21.0375 18.9872 20.8123 19.7184 18.6875 20.6736C18.1081 20.9333 17.4205 21.0652 16.6443 21.0652L16.533 21.0641C9.40425 20.9509 3.05156 14.5959 2.93651 7.46791C2.92377 6.64385 3.0553 5.91983 3.32775 5.31386C4.28223 3.18904 5.01412 2.96271 5.09468 2.94508C5.22434 2.91436 5.39374 2.93496 5.79695 3.2666C6.74318 4.04569 8.25042 5.59415 8.26315 6.42721C8.25229 6.84918 8.15597 6.94847 7.79209 7.31835C7.49191 7.62265 7.0827 8.0386 6.826 8.65731C6.63713 9.11374 6.44638 9.68523 6.45912 10.4527C6.51121 13.7786 10.2216 17.4889 13.5486 17.5433H13.6175C14.3561 17.5433 14.9276 17.3465 15.3429 17.1742C15.9627 16.9175 16.3779 16.5082 16.6818 16.2092C17.0525 15.8454 17.151 15.748 17.5947 15.7371Z" fill="#6C3BFF"/>
<path d="M12.7501 7.11145C13.8199 7.35886 14.7706 7.93031 15.5067 8.76199C16.2428 9.59367 16.6904 10.6066 16.8101 11.6988C16.8389 11.9739 17.0625 12.178 17.3307 12.1944C17.3637 12.1964 17.3928 12.194 17.4261 12.1919C17.7344 12.161 17.9541 11.8845 17.9232 11.5762C17.7801 10.2547 17.234 9.02462 16.3468 8.02222C15.4597 7.01983 14.3051 6.32829 13.0109 6.02579C12.7086 5.95767 12.4116 6.14249 12.3397 6.44041C12.2677 6.73833 12.4478 7.04334 12.7501 7.11145Z" fill="#6C3BFF"/>
<path d="M21.5247 10.6924C21.3149 8.75578 20.5182 6.9566 19.2153 5.48406C17.9124 4.01152 16.2239 3.00198 14.3278 2.55841C14.0628 2.49435 13.7983 2.66251 13.7342 2.92765C13.6736 3.19669 13.8381 3.46101 14.1068 3.5253C15.7996 3.91962 17.3101 4.82618 18.4754 6.13922C19.6404 7.45594 20.3528 9.06571 20.5385 10.7945C20.5641 11.0393 20.7631 11.221 21.0016 11.2355C21.031 11.2373 21.0569 11.2352 21.0865 11.2333C21.3569 11.2092 21.5561 10.9634 21.5247 10.6924Z" fill="#6C3BFF"/>
</svg>
