<svg width="24" height="24" viewBox="0 0 24 24" fill="none" xmlns="http://www.w3.org/2000/svg">
<path d="M12.7832 19.7168C12.9199 19.8534 12.9364 20.0645 12.834 20.2197L12.7832 20.2832L10.9239 22.1416C10.6896 22.3755 10.3104 22.3755 10.0762 22.1416L8.21683 20.2832C8.06062 20.127 8.06062 19.873 8.21683 19.7168C8.37304 19.5606 8.62703 19.5606 8.78324 19.7168L10.5 21.4336L12.2168 19.7168L12.2803 19.666C12.4355 19.5636 12.6466 19.5801 12.7832 19.7168Z" fill="#6C3BFF"/>
<path d="M19.7944 6.71682C19.931 6.5802 20.1421 6.56368 20.2973 6.66604L20.3608 6.71682L22.2192 8.5762C22.4531 8.81044 22.4531 9.18962 22.2192 9.42386L20.3608 11.2832C20.2046 11.4394 19.9506 11.4394 19.7944 11.2832C19.6382 11.127 19.6382 10.873 19.7944 10.7168L21.5112 9.00003L19.7944 7.28323L19.7436 7.21975C19.6413 7.06451 19.6578 6.85345 19.7944 6.71682Z" fill="#6C3BFF"/>
<path d="M16.5 14.2002V15H3.5V14.2002H16.5ZM17.2002 13.5V4.5C17.2002 4.1134 16.8866 3.7998 16.5 3.7998H3.5C3.1134 3.7998 2.7998 4.1134 2.7998 4.5V13.5C2.7998 13.8866 3.1134 14.2002 3.5 14.2002V15C2.67157 15 2 14.3284 2 13.5V4.5C2 3.67157 2.67157 3 3.5 3H16.5C17.3284 3 18 3.67157 18 4.5V13.5C18 14.3284 17.3284 15 16.5 15V14.2002C16.8866 14.2002 17.2002 13.8866 17.2002 13.5Z" fill="#6C3BFF"/>
<path d="M7.48728 7.89655C7.9673 7.89666 8.42207 8.07602 8.81736 8.38971L8.98338 8.53229L8.98826 8.53717L12.2519 11.6924C12.4104 11.846 12.415 12.0992 12.2617 12.2579C12.1082 12.4167 11.8541 12.4211 11.6953 12.2676L8.43845 9.11823L8.32029 9.01666C8.04402 8.79707 7.75882 8.69744 7.48728 8.69733C7.17925 8.69733 6.85317 8.82552 6.54295 9.11139L2.77927 12.7862C2.62121 12.9404 2.36816 12.9374 2.21384 12.7794C2.05953 12.6213 2.06264 12.3683 2.22068 12.2139L5.98338 8.53912L5.99021 8.53229L6.26267 8.82526L5.99119 8.53229C6.42281 8.13091 6.93864 7.89655 7.48728 7.89655Z" fill="#6C3BFF"/>
<path d="M14.0134 8.68512C14.4935 8.68517 14.9482 8.86461 15.3435 9.17828L15.5095 9.32086L15.5271 9.33844L17.7898 11.7252C17.9418 11.8854 17.9354 12.1386 17.7751 12.2906C17.6148 12.4424 17.3617 12.4352 17.2097 12.275L14.9578 9.90094C14.6473 9.61459 14.3217 9.48596 14.0134 9.4859C13.703 9.4859 13.3746 9.61625 13.0623 9.9068L13.0613 9.90582L11.4363 11.4781L11.3728 11.5289C11.216 11.6288 11.0053 11.608 10.8708 11.4693C10.7173 11.3105 10.7208 11.0564 10.8796 10.9029L12.5115 9.32574L12.5173 9.32086L12.6824 9.17828C13.0778 8.8644 13.5332 8.68512 14.0134 8.68512Z" fill="#6C3BFF"/>
<path d="M11.499 6.40039C11.8304 6.40039 12.0996 6.66863 12.0996 7C12.0996 7.33137 11.8304 7.59961 11.499 7.59961H11.4893C11.1579 7.59961 10.8896 7.33137 10.8896 7C10.8896 6.66863 11.1579 6.40039 11.4893 6.40039H11.499Z" fill="#6C3BFF"/>
<path d="M17 16.5996L17.0811 16.6084C17.2631 16.6459 17.4004 16.8069 17.4004 17C17.4004 17.1931 17.2631 17.3541 17.0811 17.3916L17 17.4004L3 17.4004C2.77909 17.4004 2.59961 17.2209 2.59961 17C2.59961 16.7791 2.77909 16.5996 3 16.5996L17 16.5996Z" fill="#6C3BFF"/>
</svg>
