<svg width="24" height="24" viewBox="0 0 24 24" fill="none" xmlns="http://www.w3.org/2000/svg">
<path d="M18.7168 9.71682C18.8534 9.5802 19.0645 9.56368 19.2197 9.66604L19.2832 9.71682L21.6416 12.0762C21.8755 12.3104 21.8755 12.6896 21.6416 12.9239L19.2832 15.2832C19.127 15.4394 18.873 15.4394 18.7168 15.2832C18.5606 15.127 18.5606 14.873 18.7168 14.7168L20.9336 12.5L18.7168 10.2832L18.666 10.2198C18.5636 10.0645 18.5801 9.85345 18.7168 9.71682Z" fill="#6C3BFF"/>
<path d="M4.78323 15.2832C4.64661 15.4198 4.43555 15.4363 4.2803 15.334L4.21683 15.2832L1.85843 12.9238C1.62452 12.6896 1.62453 12.3104 1.85843 12.0761L4.21683 9.71677C4.37304 9.56056 4.62702 9.56056 4.78323 9.71677C4.93944 9.87298 4.93944 10.127 4.78323 10.2832L2.56644 12.5L4.78323 14.7168L4.83401 14.7802C4.93638 14.9355 4.91986 15.1466 4.78323 15.2832Z" fill="#6C3BFF"/>
<path d="M9.5 12.5C9.5 13.1904 8.94036 13.75 8.25 13.75C7.55964 13.75 7 13.1904 7 12.5C7 11.8096 7.55964 11.25 8.25 11.25C8.94036 11.25 9.5 11.8096 9.5 12.5Z" fill="#6C3BFF"/>
<path d="M13.4751 12.5C13.4751 13.1904 12.9155 13.75 12.2251 13.75C11.5347 13.75 10.9751 13.1904 10.9751 12.5C10.9751 11.8096 11.5347 11.25 12.2251 11.25C12.9155 11.25 13.4751 11.8096 13.4751 12.5Z" fill="#6C3BFF"/>
<path d="M17.475 12.5C17.475 13.1904 16.9153 13.75 16.225 13.75C15.5346 13.75 14.975 13.1904 14.975 12.5C14.975 11.8096 15.5346 11.25 16.225 11.25C16.9153 11.25 17.475 11.8096 17.475 12.5Z" fill="#6C3BFF"/>
</svg>
