<svg width="24" height="24" viewBox="0 0 24 24" fill="none" xmlns="http://www.w3.org/2000/svg">
<path d="M0.833437 21.1386H23.1659V2.8607H0.833437V21.1386ZM24 21.3299C24 21.6999 23.7094 22 23.3512 22H0.648153C0.290015 21.9999 0 21.6998 0 21.3299V2.66935C0.000122128 2.29958 0.290093 2.00013 0.648153 2H23.3512C23.7093 2 23.9999 2.29951 24 2.66935V21.3299Z" fill="#6C3BFF"/>
<path d="M3.62598 7.4517C3.62598 7.32089 3.73202 7.21484 3.86283 7.21484H10.5666C10.6974 7.21484 10.8035 7.32089 10.8035 7.4517V16.5241C10.8035 16.6549 10.6974 16.7609 10.5666 16.7609H3.86283C3.73202 16.7609 3.62598 16.6549 3.62598 16.5241V7.4517Z" fill="#6C3BFF"/>
<path d="M11.9879 7.4517C11.9879 7.32089 12.0939 7.21484 12.2247 7.21484H15.3398C15.4706 7.21484 15.5766 7.32089 15.5766 7.4517V16.5241C15.5766 16.6549 15.4706 16.7609 15.3398 16.7609H12.2247C12.0939 16.7609 11.9879 16.6549 11.9879 16.5241V7.4517Z" fill="#6C3BFF"/>
<path d="M16.7609 7.4517C16.7609 7.32089 16.8669 7.21484 16.9978 7.21484H20.1128C20.2436 7.21484 20.3496 7.32089 20.3496 7.4517V16.5241C20.3496 16.6549 20.2436 16.7609 20.1128 16.7609H16.9978C16.8669 16.7609 16.7609 16.6549 16.7609 16.5241V7.4517Z" fill="#6C3BFF"/>
</svg>
