<svg width="24" height="24" viewBox="0 0 24 24" fill="none" xmlns="http://www.w3.org/2000/svg">
<path d="M4.5 18.5C5.05228 18.5 5.5 18.9477 5.5 19.5V20.5C5.5 21.0523 5.05228 21.5 4.5 21.5H3.5C2.94772 21.5 2.5 21.0523 2.5 20.5V19.5C2.5 18.9477 2.94772 18.5 3.5 18.5H4.5ZM20.5 18.5C21.0523 18.5 21.5 18.9477 21.5 19.5V20.5C21.5 21.0523 21.0523 21.5 20.5 21.5H19.5C18.9477 21.5 18.5 21.0523 18.5 20.5V19.5C18.5 18.9477 18.9477 18.5 19.5 18.5H20.5ZM4.5 2.5C5.05228 2.5 5.5 2.94772 5.5 3.5V4.5C5.5 5.05228 5.05228 5.5 4.5 5.5H3.5C2.94772 5.5 2.5 5.05228 2.5 4.5V3.5C2.5 2.94772 2.94772 2.5 3.5 2.5H4.5ZM20.5 2.5C21.0523 2.5 21.5 2.94772 21.5 3.5V4.5C21.5 5.05228 21.0523 5.5 20.5 5.5H19.5C18.9477 5.5 18.5 5.05228 18.5 4.5V3.5C18.5 2.94772 18.9477 2.5 19.5 2.5H20.5Z" stroke="#6C3BFF"/>
<path d="M6 20H18M5 4H19M4 5L4 18M20 5V19" stroke="#6C3BFF"/>
<path d="M9.53188 12.25C9.53188 13.6117 10.6383 14.7181 12 14.7181C12.0425 14.7181 12.0638 14.7181 12.1064 14.7181C11.4681 14.101 11.0851 13.2287 11.0851 12.2712C11.0851 11.3138 11.4681 10.4414 12.1064 9.82442L12 9.82442C10.6383 9.78186 9.53188 10.8883 9.53188 12.25Z" fill="#6C3BFF"/>
<path d="M9.4681 14.7181C9.51065 14.7181 9.53193 14.7181 9.57448 14.7181C8.93618 14.101 8.5532 13.2287 8.5532 12.2712C8.5532 11.3138 8.93618 10.4414 9.57448 9.82442L9.4681 9.82442C8.10639 9.82442 7 10.9308 7 12.2925C7 13.6542 8.10639 14.7181 9.4681 14.7181Z" fill="#6C3BFF"/>
<path d="M12.0642 12.25C12.0642 11.2921 12.6168 10.4626 13.4252 10.0584C13.4684 10.0373 13.5105 10.0163 13.5537 9.99419C13.8516 9.86681 14.1705 9.78156 14.5316 9.78156C15.8937 9.78156 17 10.8879 17 12.25C17 13.6121 15.8937 14.7184 14.5316 14.7184C13.1916 14.7184 12.0852 13.6121 12.0642 12.25Z" fill="#6C3BFF"/>
</svg>
