<svg
	xmlns="http://www.w3.org/2000/svg"
	width="41"
	height="41"
	fill="none"
	viewBox="0 0 41 41"
>
	<g clipPath="url(#clip0_2_22448)">
		<path
			fill="#6C3BFF"
			d="M39.85 5.172a.872.872 0 00-.949.191l-2.62 2.621A20.207 20.207 0 0020.19 0H5.973a.86.86 0 00-.801.54.876.876 0 00.191.949l2.621 2.62A20.202 20.202 0 000 20.192v14.218c0 .348.209.67.54.8a.86.86 0 00.949-.191L4.1 32.406c3.326 4.423 8.132 6.356 8.445 6.478A20.146 20.146 0 0020.2 40.38c5.416 0 10.5-2.115 14.323-5.955a.867.867 0 000-1.228l-7.558-7.557a.87.87 0 00-1.236.009 7.717 7.717 0 01-5.529 2.316 7.795 7.795 0 01-7.078-4.563l2.594-2.594a.873.873 0 00-.61-1.489h-2.602c.304-2.7 2.01-5.085 4.501-6.208l2.586 2.595a.873.873 0 001.489-.61v-2.603c2.699.305 5.084 2.011 6.207 4.501l-2.594 2.586a.873.873 0 00.61 1.489h14.217c.48 0 .871-.392.871-.87V5.972a.86.86 0 00-.54-.801zM11.275 23.499a9.56 9.56 0 008.924 6.208 9.368 9.368 0 006.121-2.238l6.338 6.339a18.332 18.332 0 01-12.459 4.84 18.34 18.34 0 01-7-1.375h-.017c-.052-.017-5.207-2.072-8.237-6.678a.904.904 0 00-.635-.392h-.087a.876.876 0 00-.618.253L1.74 32.319V21.07h11.25l-1.516 1.515a.854.854 0 00-.2.914zM19.33 12.99l-1.515-1.515a.854.854 0 00-.915-.2c-3.439 1.271-5.833 4.44-6.172 8.054H1.759A18.438 18.438 0 019.812 4.945a.873.873 0 00.375-.635.872.872 0 00-.253-.697L8.071 1.75H19.32v11.249l.009-.009zm19.328 6.339H27.408l1.515-1.515a.854.854 0 00.2-.915c-1.27-3.439-4.44-5.833-8.053-6.172V1.759a18.467 18.467 0 0114.392 8.053.873.873 0 00.636.375.862.862 0 00.696-.253l1.863-1.863V19.329z"
		></path>
	</g>
	<defs>
		<clipPath id="clip0_2_22448">
			<path fill="#fff" d="M0 0H40.39V40.39H0z"></path>
		</clipPath>
	</defs>
</svg>
