<svg
	xmlns="http://www.w3.org/2000/svg"
	width="39"
	height="36"
	fill="none"
	viewBox="0 0 39 36"
>
	<g fill="#6C3BFF" clipPath="url(#clip0_2_22438)">
		<path
			d="M35.32 20.415V4.12a2.983 2.983 0 00-2.978-2.978h-7.62v-.42A.725.725 0 0024 0a.725.725 0 00-.723.723v.42H10.995v-.42A.725.725 0 0010.272 0a.725.725 0 00-.723.723v.42H2.98A2.983 2.983 0 000 4.12v25.432a2.983 2.983 0 002.978 2.978h19.93a8.718 8.718 0 006.97 3.477c4.82 0 8.746-3.925 8.746-8.747a8.734 8.734 0 00-3.304-6.838v-.008zM2.978 2.66h6.579v1.706c0 .398.325.723.723.723a.725.725 0 00.722-.723V2.66h12.282v1.706c0 .398.326.723.723.723a.725.725 0 00.723-.723V2.66h7.62c.802 0 1.46.65 1.46 1.46v5.632H1.518V4.12c0-.802.65-1.46 1.46-1.46zm0 28.345a1.46 1.46 0 01-1.46-1.46V11.198h32.284v8.248a8.66 8.66 0 00-8.262.224c-.03 0-.058-.022-.094-.022h-1.439a.72.72 0 00-.275 1.388 8.728 8.728 0 00-2.602 6.217c0 1.345.31 2.617.86 3.752H2.978zm26.9 3.55a7.309 7.309 0 01-7.302-7.302 7.309 7.309 0 017.301-7.301 7.309 7.309 0 017.301 7.301 7.309 7.309 0 01-7.3 7.301z"></path>
		<path
			d="M10.272 14.472h-4.38a.725.725 0 00-.723.723c0 .398.325.723.723.723h4.38a.725.725 0 00.723-.723.725.725 0 00-.723-.723zM10.272 19.641h-4.38a.725.725 0 00-.723.723c0 .397.325.723.723.723h4.38a.725.725 0 00.723-.723.725.725 0 00-.723-.723zM10.272 24.817h-4.38a.725.725 0 00-.723.723c0 .397.325.723.723.723h4.38a.725.725 0 00.723-.723.725.725 0 00-.723-.723zM19.323 14.472h-4.38a.725.725 0 00-.724.723c0 .398.325.723.723.723h4.38a.725.725 0 00.724-.723.725.725 0 00-.723-.723zM19.323 19.641h-4.38a.725.725 0 00-.724.723c0 .397.325.723.723.723h4.38a.725.725 0 00.724-.723.725.725 0 00-.723-.723zM19.323 24.817h-4.38a.725.725 0 00-.724.723c0 .397.325.723.723.723h4.38a.725.725 0 00.724-.723.725.725 0 00-.723-.723zM24 15.918h4.373a.725.725 0 00.723-.723.725.725 0 00-.723-.723H24a.725.725 0 00-.723.723c0 .398.325.723.723.723zM30.21 21.954a.725.725 0 00-.723.723v4.627l-2.263 2.884a.723.723 0 00.123 1.012.73.73 0 001.02-.123l2.566-3.275v-5.125a.725.725 0 00-.723-.723z"></path>
	</g>
	<defs>
		<clipPath id="clip0_2_22438">
			<path fill="#fff" d="M0 0H38.624V36H0z"></path>
		</clipPath>
	</defs>
</svg>
