<svg width="24" height="24" viewBox="0 0 24 24" fill="none" xmlns="http://www.w3.org/2000/svg">
<path d="M2.1 9.06667V21.1667C2.1 21.7742 2.59249 22.2667 3.2 22.2667H20.8C21.4075 22.2667 21.9 21.7742 21.9 21.1667V9.06667C22.5075 9.06667 23 8.57419 23 7.96667V2.83334C23 2.22582 22.5075 1.73334 21.9 1.73334H2.1C1.49249 1.73334 1 2.22582 1 2.83334V7.96667C1 8.57419 1.49249 9.06667 2.1 9.06667ZM21.1667 17.1333H2.83333V13.4667H21.1667V17.1333ZM21.1667 21.1667C21.1667 21.3692 21.0025 21.5333 20.8 21.5333H3.2C2.9975 21.5333 2.83333 21.3692 2.83333 21.1667V17.8667H21.1667V21.1667ZM21.1667 12.7333H2.83333V9.06667H21.1667V12.7333ZM22.2667 2.83334V7.96667C22.2667 8.16918 22.1025 8.33334 21.9 8.33334H16.7667C16.5642 8.33334 16.4 8.16918 16.4 7.96667V2.83334C16.4 2.63083 16.5642 2.46667 16.7667 2.46667H21.9C22.1025 2.46667 22.2667 2.63083 22.2667 2.83334ZM1.73333 2.83334C1.73333 2.63083 1.8975 2.46667 2.1 2.46667H15.7341C15.6907 2.5841 15.6679 2.70814 15.6667 2.83334V7.96667C15.6679 8.09187 15.6907 8.21591 15.7341 8.33334H2.1C1.8975 8.33334 1.73333 8.16918 1.73333 7.96667V2.83334Z" fill="#6C3BFF"/>
<path d="M19.5758 4.47868C19.5114 4.41466 19.4242 4.37872 19.3334 4.37872C19.2426 4.37872 19.1555 4.41466 19.0911 4.47868L17.7161 5.85368C17.6598 5.91944 17.6303 6.00403 17.6337 6.09055C17.637 6.17706 17.6729 6.25913 17.7341 6.32035C17.7953 6.38157 17.8774 6.41743 17.9639 6.42077C18.0504 6.42411 18.135 6.39469 18.2008 6.33837L19.3334 5.20743L20.4661 6.33837C20.5318 6.39469 20.6164 6.42411 20.7029 6.42077C20.7895 6.41743 20.8715 6.38157 20.9327 6.32035C20.994 6.25913 21.0298 6.17706 21.0332 6.09055C21.0365 6.00403 21.0071 5.91944 20.9508 5.85368L19.5758 4.47868Z" fill="#6C3BFF"/>
<path d="M3.56674 5.76666H6.86674C7.06924 5.76666 7.23341 5.6025 7.23341 5.39999C7.23341 5.19749 7.06924 5.03333 6.86674 5.03333H3.56674C3.36424 5.03333 3.20007 5.19749 3.20007 5.39999C3.20007 5.6025 3.36424 5.76666 3.56674 5.76666Z" fill="#6C3BFF"/>
<path d="M10.1666 5.76666H13.4666C13.6691 5.76666 13.8333 5.6025 13.8333 5.39999C13.8333 5.19749 13.6691 5.03333 13.4666 5.03333H10.1666C9.96409 5.03333 9.79993 5.19749 9.79993 5.39999C9.79993 5.6025 9.96409 5.76666 10.1666 5.76666Z" fill="#6C3BFF"/>
<path d="M14.5667 10.5333H4.30002C4.09751 10.5333 3.93335 10.6975 3.93335 10.9C3.93335 11.1025 4.09751 11.2667 4.30002 11.2667H14.5667C14.7692 11.2667 14.9333 11.1025 14.9333 10.9C14.9333 10.6975 14.7692 10.5333 14.5667 10.5333Z" fill="#6C3BFF"/>
<path d="M4.30002 15.6667H14.5667C14.7692 15.6667 14.9333 15.5025 14.9333 15.3C14.9333 15.0975 14.7692 14.9333 14.5667 14.9333H4.30002C4.09751 14.9333 3.93335 15.0975 3.93335 15.3C3.93335 15.5025 4.09751 15.6667 4.30002 15.6667Z" fill="#6C3BFF"/>
<path d="M4.30002 20.0667H14.5667C14.7692 20.0667 14.9333 19.9025 14.9333 19.7C14.9333 19.4975 14.7692 19.3333 14.5667 19.3333H4.30002C4.09751 19.3333 3.93335 19.4975 3.93335 19.7C3.93335 19.9025 4.09751 20.0667 4.30002 20.0667Z" fill="#6C3BFF"/>
</svg>
