<svg width="24" height="24" viewBox="0 0 24 24" fill="none" xmlns="http://www.w3.org/2000/svg">
<path d="M22.214 4H1.78208C1.34216 4 1 4.31234 1 4.71391V20.2861C1 20.6877 1.34216 21 1.78208 21H22.214C22.6539 21 22.9961 20.6877 22.9961 20.2861V4.75853C23.0449 4.31234 22.6295 4 22.214 4ZM22.4095 20.2861C22.4095 20.3753 22.3117 20.4646 22.214 20.4646H1.78208C1.68432 20.4646 1.58656 20.3753 1.58656 20.2861V4.75853C1.58656 4.66929 1.68432 4.58005 1.78208 4.58005H22.214C22.3117 4.58005 22.4095 4.66929 22.4095 4.75853V20.2861Z" fill="#6C3BFF"/>
<path d="M7.80231 12.3264H3.92386C3.51015 12.3264 3.19988 11.9903 3.19988 11.6024V7.72398C3.19988 7.31028 3.53601 7 3.92386 7H7.80231C8.21601 7 8.52629 7.33614 8.52629 7.72398V11.6024C8.52629 12.0161 8.19016 12.3264 7.80231 12.3264ZM3.898 7.56884C3.82043 7.56884 3.76872 7.62056 3.76872 7.69813V11.5766C3.76872 11.6542 3.82043 11.7059 3.898 11.7059H7.77646C7.85403 11.7059 7.90574 11.6542 7.90574 11.5766V7.69813C7.90574 7.62056 7.85403 7.56884 7.77646 7.56884H3.898Z" fill="#6C3BFF"/>
<path d="M14.0596 12.3264H10.1811C9.76743 12.3264 9.45716 11.9903 9.45716 11.6024V7.72398C9.45716 7.31028 9.79329 7 10.1811 7H14.0596C14.4733 7 14.7836 7.33614 14.7836 7.72398V11.6024C14.8094 12.0161 14.4733 12.3264 14.0596 12.3264ZM10.1811 7.56884C10.1036 7.56884 10.0519 7.62056 10.0519 7.69813V11.5766C10.0519 11.6542 10.1036 11.7059 10.1811 11.7059H14.0596C14.1372 11.7059 14.1889 11.6542 14.1889 11.5766V7.69813C14.1889 7.62056 14.1372 7.56884 14.0596 7.56884H10.1811Z" fill="#6C3BFF"/>
<path d="M20.3427 12.3264H16.4642C16.0505 12.3264 15.7402 11.9903 15.7402 11.6024V7.72398C15.7402 7.31028 16.0764 7 16.4642 7H20.3427C20.7564 7 21.0667 7.33614 21.0667 7.72398V11.6024C21.0667 12.0161 20.7305 12.3264 20.3427 12.3264ZM16.4384 7.56884C16.3608 7.56884 16.3091 7.62056 16.3091 7.69813V11.5766C16.3091 11.6542 16.3608 11.7059 16.4384 11.7059H20.3168C20.3944 11.7059 20.4461 11.6542 20.4461 11.5766V7.69813C20.4461 7.62056 20.3944 7.56884 20.3168 7.56884H16.4384Z" fill="#6C3BFF"/>
<path d="M7.80227 18.6323H3.92382C3.51012 18.6323 3.19984 18.2961 3.19984 17.9083V14.0298C3.19984 13.6161 3.53597 13.3059 3.92382 13.3059H7.80227C8.21598 13.3059 8.52625 13.642 8.52625 14.0298V17.9083C8.52625 18.322 8.19012 18.6323 7.80227 18.6323ZM3.89796 13.8747C3.82039 13.8747 3.76868 13.9264 3.76868 14.004V17.8824C3.76868 17.96 3.82039 18.0117 3.89796 18.0117H7.77642C7.85399 18.0117 7.9057 17.96 7.9057 17.8824V14.004C7.9057 13.9264 7.85399 13.8747 7.77642 13.8747H3.89796Z" fill="#6C3BFF"/>
<path d="M14.0596 18.6323H10.1811C9.76739 18.6323 9.45712 18.2961 9.45712 17.9083V14.0298C9.45712 13.6161 9.79325 13.3059 10.1811 13.3059H14.0596C14.4733 13.3059 14.7835 13.642 14.7835 14.0298V17.9083C14.8094 18.322 14.4733 18.6323 14.0596 18.6323ZM10.1811 13.8747C10.1035 13.8747 10.0518 13.9264 10.0518 14.004V17.8824C10.0518 17.96 10.1035 18.0117 10.1811 18.0117H14.0596C14.1371 18.0117 14.1888 17.96 14.1888 17.8824V14.004C14.1888 13.9264 14.1371 13.8747 14.0596 13.8747H10.1811Z" fill="#6C3BFF"/>
</svg>
