<?xml version="1.0" encoding="UTF-8"?>
<svg id="Layer_1" data-name="Layer 1" xmlns="http://www.w3.org/2000/svg" viewBox="0 0 1728.42 1292.64">
  <defs>
    <style>
      .cls-1, .cls-2 {
        opacity: .8;
      }

      .cls-1, .cls-3 {
        fill: #a80000;
      }

      .cls-4 {
        fill: #d20000;
      }

      .cls-4, .cls-5, .cls-6, .cls-7 {
        stroke: #000;
        stroke-miterlimit: 10;
      }

      .cls-5 {
        isolation: isolate;
        stroke-width: 5px;
      }

      .cls-6 {
        stroke-width: 2px;
      }

      .cls-6, .cls-7 {
        fill: none;
      }

      .cls-7 {
        stroke-width: 10px;
      }
    </style>
  </defs>
  <path class="cls-5" d="M1096.4,961.65c-11.72-18.17-19.93-38.5-24.48-59.82h0c-6.35-29.77-9.09-60.22-8.4-90.7.04-1.91.06-3.59.04-4.97-.38-23.62-19.03-116.91-19.03-116.91-35.7-140.45,101.04-18.1,115.73-3.81,1.11,1.07,2.28,2.08,3.5,3.01,126.06,94.88,113.86-68.92,113.86-68.92-5.66-73.53,119.25-95.7,140.01-98.86,2.11-.31,4.2-.83,6.24-1.52,97.25-32.82-12.85-52.42-26.6-54.68-.86-.14-1.74-.24-2.62-.31-68.68-5.74-145.36-67.36-145.36-67.36-41.98-34.92-177.77-53.91-192.18-55.84-.86-.11-1.7-.25-2.55-.44-75.81-16.13-181.11,4.56-277.69,33.94-116.2,35.35-219.78,83.3-244.13,94.87-3.63,1.72-7.49,2.82-11.47,3.26h-.01v-.05l-119.54,13.18c-.85.09-1.71.22-2.56.38-89.97,16.4-75.83,62.29-44.3,82.5,21.39,13.7,51.04,10.69,60.1,9.36,1.59-.24,3.14-.58,4.69-1.02l41.12-11.85c7.01-2.02,14.47-1.93,21.38.49,66.95,23.36,6.74,82.03-7.43,94.76-2.09,1.88-3.99,4-5.63,6.33-63.18,90.29,91.52,101.67,116.5,102.91,2.31.11,4.61,0,6.9-.33,91.82-13.01,35.65-85.65,25.14-98.24-.96-1.14-1.99-2.23-3.06-3.24-64.92-61.49,26.41-94.88,65.54-30.44,37.75,62.17-39.73,171.02-46.37,180.14-.33.45-.65.92-.97,1.4-98.62,148.13,89.23,140.51,89.23,140.51,104.58-1.16,36.73-90.34,24.09-105.89-1.32-1.63-2.53-3.35-3.57-5.19-13.65-21.09,2.55-92.42,2.55-92.42l25.67-96.15c.36-1.35.79-2.68,1.29-3.97,63.36-164.62,124.73-35.18,140.66,4.25l9.55,43.15s34.84,124.2,39.92,182.71c.75,8.66.85,15.89.09,21.05-.68,4.63-1.3,9.28-1.51,13.96-.02.45-.04.91-.06,1.36,0,0-2.7,6.88-15.84,66.28-13.14,59.4,54.21,96.74,54.21,96.74,0,0,11.5,16.97,55.03,22.91,43.53,5.94,89.61-73.22,42.34-146.5Z"/>
  <path class="cls-1" d="M784.37,369.15c-12.37,4.19-16.57,20.33-21.42,32.79-12.06,30.99-31,90.62-11.44,119.1,0,0,8.88,15.47,24.4,27.96,11.96,9.62,27.84,12.13,42.13,6.9,14.96-5.49,39.13-9.72,62.37,6.29,2.02,1.4,4.14,2.62,6.36,3.64,10.91,5.02,43.98,22.18,41.87,45.21-.83,9.06,1.49,18.12,5.95,25.96,7.75,13.62,13.69,33.03,16.8,44.61-.11,1.99.93,3.94,1.04,5.92l12.47,60.75c.86,14.92,49.24,248.72,52.98,264.76,4.71,15.17,44.35,127.29,62.83,31.51,2.72-27.16-56.33-289.04-55.35-291.68q-4.17-16.6-14.29-70.58c-1.82-3.26-3.07-22.83-4.04-26.47-4.66-17.37-13.14-64.18,27.84-72.44,0,0,16.61-9.15,61.42,28.98,4.85,4.14,10.47,7.24,16.54,8.97,14.67,4.19,43.35,14.2,55.04,30.96,7.01,10.05,17.22,17.31,29.05,19.27,19.18,3.17,40.46.24,25.11-35.02-2.66-6.08-6.63-11.46-11.55-15.8l-15.4-13.56c-19.57-17.23-21.06-48.23-2.75-66.87,13.7-13.97,25.43-33.58,25.11-59.71-.05-3.64.46-7.23,1.27-10.75,2.87-12.26,24.17-54.29,1.13-89.78-4.6-7.07-14.37-7.35-21.92-10.77-16.06-4.55-49.23-17.09-97.35-24.96-40.22-6.57-76.33-12.53-123.8-11.41-36.87.86-75.74,8.29-119.08,18.24-23.12,5.31-48.63,9.18-73.32,17.92v.06Z"/>
  <g>
    <path class="cls-3" d="M1250.51,547.57c10.61-10.99,26.95-9.41,37.25-20.69,1.82-1.99,3.32-4.3,5.25-6.19,5.75-5.69,14.38-7.02,22.33-6.55.96.06,1.97.16,2.78.71,1.32.89,1.71,2.76,1.43,4.36-.68,3.93-4.51,6.51-8.25,7.43s-7.71.71-11.48,1.58c-6.01,1.4-11.09,5.42-15.93,9.36-7.8,6.32-15.6,12.62-23.4,18.94-1.47,1.19-2.99,2.41-4.81,2.88-1.82.47-3.99,0-4.99-1.63-1.55-2.49.41-5.91-.5-8.73"/>
    <path class="cls-3" d="M1252.12,549.23c7.01-7.1,16.93-8.84,25.66-12.71,4.4-1.96,8.56-4.58,11.82-8.23,1.99-2.23,3.63-4.78,5.89-6.74,1.9-1.65,4.17-2.82,6.52-3.61,2.35-.78,4.93-1.27,7.45-1.44,1.27-.09,2.56-.11,3.84-.09.94.02,2.84-.24,3.61.42,1.73,1.46-.79,4.62-1.91,5.5-2.12,1.68-4.81,2.26-7.42,2.56-2.91.33-5.86.42-8.71,1.13-2.64.66-5.19,1.82-7.54,3.21-5.14,3.04-9.69,7.16-14.35,10.93-5.66,4.58-11.3,9.15-16.96,13.73-1.37,1.11-5.54,5.09-7.39,2.68-.68-.89-.23-2.62-.11-3.64.18-1.55.23-3.01-.15-4.53-.76-2.92-5.14-1.68-4.38,1.25.7,2.73-.77,5.5.24,8.25,1.02,2.74,3.7,4.14,6.43,4,3.16-.16,5.63-2.29,8.01-4.2l9.06-7.34c5.69-4.59,11.27-9.36,17.1-13.78,2.56-1.94,5.28-3.82,8.25-5.03,3.17-1.3,6.46-1.54,9.83-1.88,5.51-.55,11.88-2.23,14.28-8.04,1.08-2.62,1.05-6.03-1.05-8.12-2.09-2.08-5.61-1.83-8.31-1.8-5.78.08-11.82,1.21-16.78,4.4-5.22,3.37-8.01,9.28-13.11,12.82-5.1,3.54-11.12,5.3-16.89,7.45-5.77,2.15-11.59,4.94-16.14,9.55-2.09,2.12,1.12,5.46,3.22,3.32h0v-.02Z"/>
  </g>
  <path class="cls-4" d="M1200.96,797.34s112.8,10.75,158.24-54.88c0,0,17.86-17.81,13.21-58.6-.88-7.69-3.02-15.17-5.98-22.33-5.42-13.11-11.96-44.59,32.2-72.39,0,0,27.39-27.15,130.87-27.71,0,0,4.38-11.32-16.43-11.32,0,0-56.94-6.79-123.74,27.15,0,0-59.23,14.26-40.52,95.6,0,0,16.98,53.75-32.85,84.29,0,0-63.51,36.21-106.78,29.42,0,0-23-3.4-8.21,10.75h-.02v.02Z"/>
  <path class="cls-1" d="M741.92,960.87c-71.67,7.1-102.66-13.55-102.66-13.55-91.35-31.94,11.63-159.1,11.63-159.1,25.46-45.83,32.93-77.22,32.93-77.22,2.2-19.97,6.61-30.69,2.67-30.33,3.94-.36,8.01,56.65,8.01,56.65,4.07,55.51-9.07,86.02-18.45,100.32-7.35,11.2-10.4,24.72-8.76,38.01,3.35,27.05,18.33,66.82,74.62,85.22Z"/>
  <g>
    <path class="cls-3" d="M584.27,580.36c11.42-11.96,24.81-21.9,39.4-29.3,4.4-2.23,9.85-4.15,13.93-1.36-3.66,4.88-7.31,9.73-10.95,14.61-5.55,7.4-11.39,15.05-19.54,19.14s-19.3,3.43-24.76-4.04"/>
    <path class="cls-3" d="M585.88,582.03c7.3-7.6,15.34-14.39,24.03-20.21,4.25-2.84,8.63-5.44,13.14-7.81,3.9-2.04,9.18-4.94,13.4-2.27l-.46-3.7c-4.28,5.71-8.54,11.46-12.87,17.13-3.61,4.75-7.45,9.55-12.2,13.14-7.77,5.86-20.24,8.32-26.98-.56-1.81-2.38-5.01.97-3.22,3.32,7.28,9.59,21.33,8.64,30.47,2.71,5.51-3.57,9.94-8.57,13.99-13.78,4.76-6.13,9.36-12.43,14.03-18.65.9-1.19.91-2.82-.46-3.7-4.61-2.92-9.97-1.52-14.6.58-5.14,2.34-10.1,5.31-14.85,8.4-9.65,6.27-18.6,13.68-26.63,22.04-2.06,2.15,1.15,5.47,3.22,3.32h0l-.03.03h0Z"/>
  </g>
  <g>
    <path class="cls-3" d="M532.05,494.15c14.47-5.74,28.95-11.49,43.42-17.23,14.03-5.56,30.07-11.07,43.54-4.19-17.22,11.63-37.76,16.54-57.82,21.24-10,2.35-20.59,4.67-30.34,1.41"/>
    <path class="cls-3" d="M532.66,496.42c14.88-5.91,29.74-11.87,44.64-17.71,12.53-4.92,27.6-10.38,40.55-3.93v-4.06c-9.68,6.49-20.41,10.91-31.44,14.31-11.03,3.4-22.91,6.44-34.49,8.57-6.81,1.25-13.81,1.69-20.5-.45-2.81-.89-4.01,3.64-1.21,4.53,12.18,3.9,25.06.16,37.06-2.71,12-2.87,23.53-5.86,34.74-10.57,6.31-2.65,12.4-5.78,18.12-9.61,1.32-.89,1.62-3.24,0-4.06-10.39-5.17-21.95-3.84-32.7-.58-12.03,3.65-23.67,8.92-35.35,13.56-6.89,2.73-13.78,5.47-20.66,8.2-2.7,1.08-1.53,5.63,1.21,4.53h0l.02-.02Z"/>
  </g>
  <path class="cls-4" d="M173.03,606.59c34.35-6.82,69.52-8.46,104.34-5.08,33.47,3.26,68.59,10.78,99.47,24.89,10.68,4.88,24.03,12.45,26.4,25.46,2.97,16.37-11.73,31.65-20.51,43.48-18.49,24.92-34.76,55.37-19.31,86.37,7.69,15.46,21.26,28.92,34.59,39.2,14.5,11.19,31.56,18,49.69,13.57,11.39-2.77,6.57-20.93-4.84-18.14-15.72,3.84-30.45-6.51-41.6-16.9-11.03-10.27-23.71-23.23-25.87-39.17-4.55-33.76,30.48-57.18,42.12-85.07,5.72-13.68,5.92-29.28-2.43-41.92-7.72-11.69-19.74-19.06-32.1-24.5-30.78-13.53-64.25-21.22-97.39-25.21-39.13-4.7-78.71-2.82-117.38,4.86-11.5,2.29-6.63,20.41,4.84,18.14h0Z"/>
  <path class="cls-4" d="M224,423.34c52.21,11.52,106.07,12.41,158.59,2.45,26.81-5.09,52.54-13.59,78.07-23.29,25.26-9.59,50.49-19.34,77.03-24.5,31.04-6.02,62.8-6.65,94.28-7.41,11.7-.28,11.74-19.09,0-18.81-27.07.66-54.16,1.41-81.02,5.13-26.85,3.72-52.42,11.38-77.83,20.9-24.73,9.26-49.25,19.01-74.89,25.36-25.9,6.43-52.37,9.99-79,10.69-30.37.8-60.66-2.1-90.36-8.65-11.42-2.52-16.31,15.61-4.84,18.14h-.03v.02Z"/>
  <g>
    <path class="cls-7" d="M603.3,251.26l106.86,109.85-106.86-109.85h0Z"/>
    <path class="cls-7" d="M704.16,202.99s-5.77,87.17,70.25,141.35"/>
    <path class="cls-7" d="M799.64,172.24s-29.52,64.18,32.13,149.98"/>
    <path class="cls-7" d="M912.87,153.99s-63.63,83.58-14.35,156.66"/>
    <path class="cls-7" d="M1002.53,165.41s-63.77,69.13-21.44,136.75"/>
    <path class="cls-7" d="M1102.36,168.59s-70.55,66.21-42.63,139.95"/>
    <path class="cls-7" d="M1228.58,172.57s-86.48,74.14-63.15,153.31"/>
    <path class="cls-7" d="M1343.96,199.39s-149.53,79.43-98.75,162.62"/>
  </g>
  <g>
    <path class="cls-3" d="M1251.47,438.16c14.94,4.23,29.9,8.48,44.85,12.71,14.49,4.11,30.57,9.5,37.46,23.29-20.54-1.18-39.9-9.8-58.76-18.29-9.41-4.23-19.27-8.84-25.25-17.45"/>
    <path class="cls-3" d="M1250.86,440.43c13.38,3.79,26.76,7.59,40.14,11.38,10.09,2.85,20.56,5.5,29.49,11.32,4.72,3.07,8.69,7.1,11.32,12.23l1.97-3.54c-12.41-.77-24.44-4.28-36.03-8.75-5.87-2.26-11.64-4.78-17.39-7.35-5.05-2.26-10.15-4.45-14.99-7.13-5.17-2.87-10.12-6.41-13.62-11.35-1.71-2.41-5.67-.06-3.93,2.37,6.75,9.5,17.19,14.3,27.35,18.87,11.99,5.39,24.06,10.75,36.72,14.26,7.16,1.99,14.49,3.31,21.91,3.78,1.81.11,2.72-2.05,1.97-3.54-4.96-9.7-14.17-15.49-23.77-19.39-11.61-4.73-24.02-7.52-36.03-10.93-7.95-2.26-15.92-4.51-23.87-6.77-2.82-.8-4.04,3.73-1.21,4.53h-.03v.02Z"/>
  </g>
  <path class="cls-6" d="M941.36,389.21s-.5,38.98-46.97,38.54c0,0-29.98-3.94-2.5-42.92,0,0,16.49-23.21,66.96-21.02,0,0,35.48,1.9,41.48-.15,0,0-17.6-.73-60.02,70.22,0,0-26.93-.88-40.92,16.64,0,0,15.49-12.26,38.48-11.39,0,0-28.7,56.93-57.57,59.56,0,0-22.38,4.82-28.88-6.13,0,0-8.99-14.89,12.99-19.27,0,0-26.24,2.41-17.99,21.02,0,0,5.5,13.14,35.98,9.2,0,0,35.98-1.31,71.46-64.38l43.47.44s-39.48,50.96-18.49,64.68c0,0,31.48-64.68,34.48-64.68s25.48-1.75,30.98-3.5c0,0-7.8,5.52-20.44,19.3-10.43,11.37-24.16,28.37-39.53,52.53,0,0-28.98,40.73-59.46,47.3,0,0-23.99,4.38-29.48-9.64,0,0-6-14.01,15.99-17.96,0,0-15.96-5.14-22.49,10.95,0,0-4.5,24.53,29.98,22.34,0,0,28.48,6.57,69.96-49.93l32.98-48.57s-8.49,22.73-8.99,34.12c0,0-10.99,54.74-17.49,55.62,0,0,12.49-5.69,44.47-49.49,0,0,42.97-49.49,49.47-52.12,0,0-31.98,40.73-33.98,61.75,0,0-14.99,34.16,12.49,46.86,0,0,26.48,9.64,41.98-20.15,0,0-22.49,29.34-41.48,10.95,0,0-12.99-15.77,11.99-63.94,0,0,22.49-54.74,53.97-57.37,0,0-23.93-11.32-61.96,31.1l-53.47,61.31s16.49-77.08,34.48-88.91c0,0-23.49,4.82-35.98,1.75,0,0,38.48-72.7,79.45-74.89,0,0-27.48-12.7-71.96,40.73l-22.99,34.16-43.97-.44c-3.4,7.53,44.17-68.42,60.46-75.77,0,0-37.5-.08-68.96,0,0,0-55.47-3.5-76.95,36.36,0,0-17.49,33.28,20.49,38.1,0,0,29.58,4.24,46.16-17.09,0,0,9.31-12.26,2.31-25.83Z"/>
  <path class="cls-4" d="M1587.31,415.32c-30.32-20.56-64.59-31.19-100.97-31.12-18.57.04-37.37,3.54-56.38,8.25-18.8,4.65-37.63,9.45-56.04,9.6-21.53.16-42.05-5-62.44-9.97-7.57-1.85-12.73,16.24-5.12,18.1,17.53,4.28,35.1,8.47,53.32,9.77s36.69-1.44,55.57-5.99c18.37-4.43,36.74-9.36,54.9-10.82,18.35-1.49,36.28-.11,53.54,4.05,19.68,4.74,38.3,13.03,55.55,24.72,6.63,4.5,14.7-12.06,8.04-16.57h.02s0,0,0,0Z"/>
  <ellipse class="cls-4" cx="607.14" cy="1014.6" rx="37.12" ry="31.3"/>
  <ellipse class="cls-4" cx="696.37" cy="1029.96" rx="37.12" ry="31.3"/>
  <ellipse class="cls-4" cx="632.13" cy="1089.57" rx="37.12" ry="31.3"/>
  <g class="cls-2">
    <path class="cls-3" d="M521.76,469.53c-46.13,6.01-68.89,7.7-123.01,14.4-14.75,1.96-35.88,9.15-48.99,16.38s-24.23,22.47-20.84,38.44c3.65,13.94,12.67,24.28,19.33,28.73,22.76,14.44,44.68,16.98,65.44,13.09,21.11-3.72,22.44-6.15,40.49-11.23,15.89-4.3,26.59-5.82,47.23,9.2,13.12,9.54,9.67,34.38,3.31,40.6-8.75,18.95-18,25.32-31.94,38.98-13.94,13.65-24.81,39.55-19.89,58.74,5.17,20.25,32.51,35.1,51.83,41.41,19.92,6.52,37.1,10.07,67.26,12.86,7.28.67,14.2,1.48,21.38.14,10.83-2.03,10.54-.35,9.3-3.83-.77-2.18-21.03-19.29-22.91-20.53-20.19-13.15-44.73-25.8-50.17-49.82-8.09-35.57,32.15-67.14,27.99-103.41-2.28-19.86-17.3-35.22-31.44-48.88-10.04-9.7-20.1-19.41-30.15-29.11-2.72-2.62-5.66-5.8-5.4-9.64.17-2.24,1.43-4.25,2.75-6.03l28.42-30.48Z"/>
  </g>
</svg>