<?xml version="1.0" encoding="UTF-8"?>
<svg id="Layer_2" data-name="Layer 2" xmlns="http://www.w3.org/2000/svg" viewBox="0 0 56.1 48.16">
  <defs>
    <style>
      .cls-1 {
        fill: #f4978e;
      }

      .cls-1, .cls-2, .cls-3, .cls-4 {
        stroke: #1a132f;
        stroke-miterlimit: 10;
      }

      .cls-2 {
        fill: #f18781;
      }

      .cls-3 {
        fill: #fcd2c3;
      }

      .cls-4 {
        fill: #f29e8f;
      }
    </style>
  </defs>
  <g id="opt2">
    <g>
      <path class="cls-3" d="M55.6,14.1c0,7.51-6.09,13.6-13.6,13.6-3.44,0-6.58-1.27-8.97-3.37-1.51-1.33-2.72-2.98-3.52-4.85-.06-.15-.13-.3-.18-.45-.6-1.52-.93-3.18-.93-4.93,0-6.99,5.27-12.75,12.06-13.51.51-.06,1.02-.09,1.54-.09h.08c.72,0,1.43.06,2.12.18,6.46,1.05,11.4,6.66,11.4,13.42Z"/>
      <path class="cls-1" d="M42,17.57c-.36-.05-.73-.07-1.1-.06.36-.02.73.01,1.1.06Z"/>
      <path class="cls-2" d="M54.49,36.3c-1.34,2.22-3.88,3.34-6.47,3.11v.05H7.7c1.08-1.78,3.03-3.11,5.36-3.54-1.35-1.62-2.14-3.6-2.14-5.74,0-5.43,5.14-9.84,11.49-9.84,1.74,0,3.39.33,4.87.94-.02-.11-.02-.23-.02-.35,0-3.41,3.23-6.18,7.25-6.25.7.83,1.24,1.82,1.58,2.9.15.47.26.96.32,1.46,1-.73,2.13-1.22,3.3-1.42.17-.03.34-.05.52-.07.22-.02.44-.04.67-.04.37-.01.74.01,1.1.06.16.02.32.05.47.08.31.06.61.14.91.25.09.03.17.06.26.1.37.14.74.32,1.09.53,2.46,1.48,3.72,4.21,3.52,7,1.15.1,2.31.47,3.39,1.11,3.51,2.11,4.79,6.43,2.85,9.66Z"/>
      <path class="cls-4" d="M27.26,20.93c0,.12,0,.24.02.35-1.48-.61-3.13-.94-4.87-.94-6.35,0-11.49,4.41-11.49,9.84,0,1.8.56,3.49,1.55,4.94h3.77v4.34H7.22c-3.72,0-6.72-2.6-6.72-5.8,0-2.77,2.27-5.1,5.29-5.66-1.13-1.36-1.8-3.02-1.8-4.82,0-4.56,4.32-8.26,9.65-8.26,2.85,0,5.42,1.06,7.17,2.75,1.02-3.38,4.06-5.83,7.67-5.83,2.41,0,4.57,1.1,6.03,2.84-4.02.07-7.25,2.84-7.25,6.25Z"/>
      <path class="cls-3" d="M31.92,43.92c-.11.11-.23.21-.35.3-3.38,2.93-8.22,4.2-13.03,2.97-7.65-1.95-12.35-9.45-10.49-16.74,1.59-6.24,7.47-10.32,13.94-10.13.12,0,.25,0,.37,0-1.82,1.68-3.18,3.86-3.83,6.41-1.86,7.29,2.84,14.78,10.49,16.73.97.25,1.95.39,2.9.45Z"/>
    </g>
  </g>
</svg>