<?xml version="1.0" encoding="UTF-8"?>
<svg id="Layer_1" xmlns="http://www.w3.org/2000/svg" version="1.1" viewBox="0 0 1431.32 285.24">
  <!-- Generator: Adobe Illustrator 30.3.0, SVG Export Plug-In . SVG Version: 2.1.3 Build 182)  -->
  <path d="M1321.76,97.79c-.24-.13-.48-.26-.72-.36.26.16.5.35.73.55v-.19" fill="#64646c"/>
  <path d="M1319.68,96.93c.45.12.9.29,1.34.49-.41-.26-.87-.43-1.34-.49" fill="#64646c"/>
  <path d="M1431.32,30.26C1001.18,112.99,1018.73,226.05,0,136.82v148.42h1431.32V30.26Z" fill="#50525a"/>
  <g>
    <path d="M1328.94,132.69c-3.23.3-7.38,7.1-10.79,15.8l-7.89,19.87-12.19,30.62c-.45,1.2-2.06,1.2-2.49,0l-4.13-9.7-7.57-17.76-.58-1.42-6.94-16.28-18.75,45.17c-.58,1.2-2.21,1.2-2.65,0l-22.58-55.21c-.22-.56-.47-1.14-.73-1.72-1.22-2.75-2.84-5.55-4.86-7.37-.43-.37-.88-.73-1.35-1.01-.31-.19-.33-.19-.04-.02-.77-.49-1.61-.8-2.49-.92-.06-.02-.09-.04-.15-.04-.15-.06-.32-.09-.47-.13-.54-.32-.45-1.22.32-1.22.28.02.56.04.84.04.54.04,1.1.07,1.68.09.54.02,1.1.06,1.68.07,4.06.15,8.66.24,13.09.24,3.98,0,9.44,0,17.42-.45.75,0,.75,1.33,0,1.33-6.08.3-6.36,3.38-4,9.61l12.54,32.75h.15c3.12-7.95,6.21-16.08,9.03-24.04l-2.39-5.91c-2.21-5.31-4.99-12.11-9.14-12.41-.73-.13-.73-1.33,0-1.33,5.03.28,11.37.45,17.27.45,4.6,0,10.64,0,19.5-.45.88,0,.88,1.33,0,1.33-8.58.3-9.59,3.38-7.24,9.61l10.82,27.16,2.17,5.46h.28c.77-2.09,1.53-4.28,2.3-6.49,2.3-6.52,4.69-13.5,7.01-20.53,3.1-8.86,1.03-14.92-5.61-15.22-.88-.13-.88-1.33,0-1.33,2.52.28,6.51.45,10.79.45,2.95,0,6.04-.17,8.11-.45.75,0,.75,1.33,0,1.33l.03.03Z" fill="#44464f"/>
    <path d="M1339.9,179.86c0,5.31-3.23,8.71-7.09,8.71-4.73,0-8.28-4.6-7.24-13.87-.73-.92-2.21-1.35-3.68-1.35-6.51-.13-11.22,9.74-11.22,25.71v21.84c0,9.76.43,14.75,10.17,14.92.9,0,.9,1.31,0,1.31-5.31-.28-10.49-.43-19.33-.43-6.94,0-12.41,0-17.27.43-.9,0-.9-1.16,0-1.31,6.64-.3,7.22-5.16,7.22-14.77v-33.8c0-7.95-1.7-14.96-7.57-15.72l-.58-1.42h6.67c2.64,0,9.09-.06,13.91-.64l2.17,5.46h.28c.77-2.09,1.53-4.28,2.3-6.49.3-.13.52-.24.71-.39.41-.32.75-.09.92.32.06.15.09.36.09.56-.58,2.82-.45,7.09-.45,13.44v10.64h.17c1.18-17.29,8.41-25.13,17.41-25.13,8.13,0,12.41,5.78,12.41,11.98h0Z" fill="#44464f"/>
  </g>
  <path d="M1195.14,183.37c-23.58-.94-37.29,13.08-37.85,27.01-.26,6.49,2.34,12.93,8.3,18.4-8.29,4.91-15.29,5.74-21.31,5.5-2.25-6.92-6.84-11.37-12.37-11.59-4.43-.18-8.98,2.49-9.17,7.4-.21,5.37,4.85,9.38,13.56,9.73,19.93.8,53.96-21.62,74.72-41.56,6.77,9.15,10.67,22.61,10.07,37.8-1.02,25.64-13.81,43.99-37.7,51.13-1.96-14.51-12.87-19.38-12.56-27.14.21-5.37,5.61-9.29,11.46-9.05,1.11.04,2.06.25,3.14.93-1.59,12.15,3.58,17.26,8.17,17.44,3.96.16,8.03-2.69,8.41-8.07.3-7.59-7.76-12.2-15.35-12.5-11.4-.46-22.67,7.97-23.29,23.49-.81,20.26,16.31,24.42,15.98,32.64-.09,2.22-1.59,3.9-3.19,4.16-12.23-7.15-18.64-1.53-18.85,3.69-.17,4.27,2.89,7.08,7.32,7.26,10.13.4,18.43-13.2,18.97-26.82.07-1.74-.03-3.16-.13-4.6,37.74-8.48,57.49-30.67,58.6-58.37,1.27-31.8-23.85-45.96-46.95-46.88h.02ZM1210.13,196.97c-6.77,6.54-15.29,13.5-21.44,16.89-3.25,1.78-5.48,2.16-7.53,2.07-6.17-.25-9.6-5.93-9.32-12.89.37-9.33,5.96-18.31,17.36-17.85,8.07.32,15.34,4.74,20.93,11.78h0Z" fill="#44464f"/>
  <path d="M1388.76,185.13c23.58.94,37.29-13.08,37.85-27.01.26-6.49-2.34-12.93-8.3-18.4,8.29-4.91,15.29-5.74,21.31-5.5,2.25,6.92,6.84,11.37,12.37,11.59,4.43.18,8.98-2.49,9.17-7.4.21-5.37-4.85-9.38-13.56-9.73-19.93-.8-53.96,21.62-74.72,41.56-6.77-9.15-10.67-22.61-10.07-37.8,1.02-25.64,13.81-43.99,37.7-51.13,1.96,14.51,12.87,19.38,12.56,27.14-.21,5.37-5.61,9.29-11.46,9.05-1.11-.04-2.06-.25-3.14-.93,1.59-12.15-3.58-17.26-8.17-17.44-3.96-.16-8.03,2.69-8.41,8.07-.3,7.59,7.76,12.2,15.35,12.5,11.4.46,22.67-7.97,23.29-23.49.81-20.26-16.31-24.42-15.98-32.64.09-2.22,1.59-3.9,3.19-4.16,12.23,7.15,18.64,1.53,18.85-3.69.17-4.27-2.89-7.08-7.32-7.26-10.13-.4-18.43,13.2-18.97,26.82-.07,1.74.03,3.16.13,4.6-37.74,8.48-57.49,30.67-58.6,58.37-1.27,31.8,23.85,45.96,46.95,46.88h-.02ZM1373.77,171.53c6.77-6.54,15.29-13.5,21.44-16.89,3.25-1.78,5.48-2.16,7.53-2.07,6.17.25,9.6,5.93,9.32,12.89-.37,9.33-5.96,18.31-17.36,17.85-8.07-.32-15.34-4.74-20.93-11.78h0Z" fill="#44464f"/>
  <path d="M1368.75,261.17c-15.67-44.84-38.14-17.65-56.84-27.84-.32-10.63-11.18-9.22-9.18-2.95,1.15,3.6,5.3,4.63,7.79,4.12,1.09,1.12,1.88,2.19,2.39,3.8,2.18,6.8-3.05,14.36-.88,21.16,2.22,6.94,11.31,9.17,22.48,5.45,1.07-.34.64-1.68-.3-1.38-5.56,1.93-8.69.43-10.27-4.51-1.28-4-1.14-7.72-2.43-11.72-1.45-4.54-4.02-7.98-9.77-12.61l.18-.35c14.99,9.61,39.46,11.19,55.43,27.56.92,1.03,1.9.42,1.38-.74h.02Z" fill="#44464f"/>
  <path d="M1231.65,142.06c-1.22-2.75-2.84-5.55-4.86-7.37-.02-.11-.02-.22-.02-.36-.45-.24-.88-.47-1.33-.65-.3-.12-.31-.13-.04-.02-.82-.37-1.65-.67-2.49-.92-.06-.02-.09-.04-.15-.04-.15-.06-.32-.09-.47-.13-17.7-4.62-37.93,15.24-52.38-26.08-.5-1.16.47-1.78,1.38-.75,14.86,15.22,37.09,17.65,52.16,25.65,1.14.6,2.22,1.23,3.27,1.91l.19-.36c-.64-.5-1.22-.99-1.78-1.46-4.51-3.93-6.71-7.1-8-11.14-1.27-4-1.14-7.72-2.41-11.72-1.59-4.94-4.71-6.43-10.26-4.51-.93.3-1.36-1.05-.3-1.38,11.16-3.72,20.25-1.48,22.47,5.46,2.19,6.81-3.05,14.36-.88,21.16.28.86.64,1.55,1.07,2.21.39.56.82,1.07,1.33,1.59,2.49-.5,6.64.5,7.8,4.11,1.08,3.38-1.57,5.35-4.3,4.79h0Z" fill="#44464f"/>
  <line x1="1106.1" y1="251.69" x2="325.22" y2="251.69" fill="none" stroke="#44464f" stroke-miterlimit="10" stroke-width="3"/>
</svg>