<?xml version="1.0" encoding="UTF-8"?>
<svg id="Layer_1" xmlns="http://www.w3.org/2000/svg" version="1.1" viewBox="0 0 1431.32 285.24">
  <!-- Generator: Adobe Illustrator 30.3.0, SVG Export Plug-In . SVG Version: 2.1.3 Build 182)  -->
  <path d="M1431.32,43.75v241.48h-633.61c232.77-27.87,325.47-87.25,420.15-144.64,2.6-1.58,5.22-3.16,7.83-4.74,6.25-3.78,12.54-7.54,18.89-11.27,1.13-.68,2.26-1.35,3.41-2.01,50.02-29.31,104.57-57.12,183.34-78.83" fill="#6e6e76"/>
  <path d="M1259.05,150.54c-.37-.2-.74-.4-1.11-.56.4.25.77.54,1.13.85-.02-.09-.02-.19-.02-.29" fill="#64646c"/>
  <path d="M1376.86,257.43c-12.07-12.38-29.96-14.66-42.57-20.93-.62-.02-1.25-.05-1.89-.06,3.34,3.02,5.03,5.57,6.07,8.75,1.07,3.36.94,6.49,2.01,9.83,1.33,4.13,3.96,5.39,8.62,3.78.77-.25,1.13.87.23,1.16-9.35,3.11-16.97,1.24-18.82-4.57-1.83-5.71,2.54-12.04.73-17.74-.14-.45-.31-.87-.54-1.24-2.51-.06-5.4-.09-9.01-.09-5.81,0-10.4,0-14.47.34-.76,0-.76-.96,0-1.08,5.57-.26,6.04-4.32,6.04-12.38v-26.61l-6.33-14.89-.5-1.18-5.82-13.64-15.7,37.83c-.48,1.01-1.86,1.01-2.21,0l-18.93-46.27c-.2-.45-.4-.94-.6-1.42-1.02-2.29-2.38-4.66-4.09-6.18-.02-.09-.02-.19-.02-.29-.37-.2-.74-.4-1.11-.56-.25-.11-.26-.11-.03-.02-.63-.4-1.35-.67-2.07-.76-.05-.02-.08-.03-.12-.03-.12-.05-.26-.08-.39-.11-12.37-3.22-26.19,7.79-37.46-8.47,2.6-1.58,5.22-3.16,7.83-4.74,10.39,5.2,21.91,7.6,30.59,12.21.45.03.93.06,1.42.08-3.78-3.3-5.64-5.94-6.72-9.35-1.07-3.34-.94-6.46-2.03-9.81-.87-2.66-2.24-4.13-4.38-4.4,1.13-.68,2.26-1.35,3.41-2.01,5.56-.15,9.66,1.98,10.96,6.05,1.84,5.71-2.55,12.03-.74,17.73.25.73.54,1.3.91,1.86,3.39.12,7.24.2,10.96.2,3.33,0,7.91,0,14.58-.37.63,0,.63,1.11,0,1.11-5.08.23-5.33,2.83-3.34,8.05l10.51,27.45h.12c2.63-6.67,5.2-13.48,7.57-20.16l-2.01-4.94c-1.84-4.46-4.16-10.17-7.65-10.4-.62-.11-.62-1.11,0-1.11,4.21.23,9.52.37,14.46.37,3.87,0,8.92,0,16.35-.37.74,0,.74,1.11,0,1.11-7.18.23-8.03,2.83-6.05,8.05l9.07,22.76,1.8,4.58h.25c.65-1.75,1.28-3.59,1.92-5.43,1.94-5.46,3.95-11.32,5.88-17.21,2.62-7.42.85-12.51-4.69-12.74-.74-.11-.74-1.11,0-1.11,2.11.23,5.45.37,9.04.37,2.46,0,5.06-.14,6.8-.37.62,0,.62,1.11,0,1.11-2.72.23-6.19,5.94-9.04,13.24l-6.61,16.66c.03.12.06.29.06.46-.46,2.35-.36,5.93-.36,11.25v8.92h.14c.98-14.49,7.04-21.05,14.57-21.05,6.83,0,10.42,4.85,10.42,10.03,0,4.46-2.72,7.31-5.94,7.31-3.96,0-6.94-3.85-6.07-11.61-.6-.77-1.84-1.15-3.08-1.15-5.45-.09-9.4,8.17-9.4,21.55v18.3c0,3.07.05,5.57.54,7.52.08.19.12.37.19.59.48,1.52,1.3,2.63,2.68,3.36,15.16,5.34,32.77-13.42,45.25,22.28.45.96-.37,1.49-1.16.62" fill="#64646c"/>
  <path d="M1232.55,191.63c-19.75-.79-31.24,10.96-31.72,22.63-.22,5.43,1.97,10.84,6.97,15.42-6.95,4.12-12.82,4.81-17.86,4.61-1.89-5.81-5.73-9.54-10.36-9.72-3.72-.15-7.52,2.09-7.69,6.21-.17,4.5,4.07,7.86,11.38,8.14,16.69.68,45.2-18.11,62.6-34.82,5.67,7.66,8.95,18.95,8.44,31.67-.87,21.49-11.58,36.86-31.6,42.85-1.64-12.17-10.77-16.24-10.53-22.74.19-4.5,4.71-7.79,9.61-7.59.93.03,1.72.2,2.63.77-1.35,10.17,3,14.46,6.84,14.61,3.31.12,6.73-2.26,7.04-6.77.26-6.36-6.5-10.22-12.85-10.46-9.57-.39-19.01,6.67-19.52,19.68-.39,9.75,4.18,15.05,8.08,19.1h8.76c.05-.53.09-1.04.11-1.56.06-1.46-.02-2.66-.09-3.85,31.61-7.11,48.18-25.7,49.09-48.92,1.07-26.64-19.97-38.5-39.34-39.27M1227.14,217.17c-2.71,1.49-4.58,1.81-6.3,1.73-5.17-.2-8.05-4.97-7.82-10.81.31-7.8,5-15.33,14.55-14.95,6.77.28,12.85,3.98,17.54,9.88-5.67,5.48-12.82,11.3-17.97,14.15" fill="#64646c"/>
  <path d="M1431.32,148.05c-16.16,5.4-36.35,19.61-49.83,32.57-5.68-7.68-8.95-18.95-8.44-31.69.85-21.49,11.56-36.86,31.58-42.84,1.66,12.15,10.79,16.24,10.53,22.74-.17,4.5-4.71,7.79-9.6,7.59-.93-.03-1.72-.2-2.63-.77,1.33-10.17-3-14.46-6.84-14.61-3.31-.14-6.73,2.24-7.06,6.77-.25,6.35,6.5,10.22,12.86,10.46,9.55.39,18.99-6.67,19.52-19.68.68-16.98-13.67-20.47-13.39-27.35.08-1.86,1.33-3.27,2.66-3.48,10.26,5.99,15.62,1.28,15.81-3.1.14-3.58-2.43-5.93-6.15-6.08-8.48-.34-15.43,11.07-15.9,22.48-.05,1.46.03,2.65.11,3.85-31.63,7.11-48.18,25.7-49.1,48.9-1.07,26.66,19.99,38.52,39.35,39.29,19.75.79,31.24-10.96,31.7-22.63.22-5.45-1.95-10.84-6.95-15.42,4.32-2.55,8.22-3.79,11.77-4.32v-2.68h0ZM1414.3,176.61c-.31,7.82-4.98,15.34-14.54,14.97-6.77-.28-12.85-3.98-17.54-9.88,5.67-5.48,12.82-11.32,17.96-14.15,2.72-1.5,4.6-1.81,6.32-1.75,5.17.22,8.03,4.98,7.8,10.81" fill="#64646c"/>
  <path d="M1255.83,149.21c.7.19,1.39.45,2.07.76-.63-.4-1.35-.67-2.07-.76" fill="#64646c"/>
  <path d="M797.71,285.24h633.61V43.75c-247,68.08-255.9,196.26-633.61,241.49" fill="none"/>
</svg>