<?xml version="1.0" encoding="UTF-8"?>
<svg id="Layer_1" xmlns="http://www.w3.org/2000/svg" version="1.1" viewBox="0 0 221.72 106.32">
  <!-- Generator: Adobe Illustrator 30.3.0, SVG Export Plug-In . SVG Version: 2.1.3 Build 182)  -->
  <defs>
    <style>
      .st0, .st1 {
        fill: #6e6e76;
      }

      .st1, .st2 {
        stroke: #d0aad0;
        stroke-miterlimit: 10;
        stroke-width: 1.82px;
      }

      .st3 {
        fill: #f5eef6;
      }

      .st4 {
        fill: #f6f1f8;
      }

      .st2 {
        fill: #363a43;
      }

      .st5 {
        fill: #f2eaf4;
      }

      .st6 {
        fill: #fbf8fb;
      }

      .st7 {
        fill: #d0aad0;
      }

      .st8 {
        fill: #f8f3f9;
      }

      .st9 {
        fill: #131e29;
      }
    </style>
  </defs>
  <path class="st9" d="M87.9,22.66c-.35,0-.35.5-.06.5.5,0,.95.05,1.34.15.1-.21.19-.43.28-.64h-1.56Z"/>
  <path class="st0" d="M36.93,24.8c-4.61.22-11.57.22-16.23,0-.29-.06-.4.49,0,.49,2.71.27,3.11,3.45,3.28,6.28l.41,6.41-11.05,16.28h-.11l-1.21-23.51c-.17-3.6.57-5.19,3.98-5.46.34-.05.39-.55.05-.49-4.48.22-11.27.22-15.76,0-.35-.06-.4.49-.06.49,2.77.27,3.11,3.45,3.34,6.28l2.87,33.03c0,.43.86.43,1.15-.06l5.7-9.23,11.15-16.24.77,9.67c2.54-3.47,5.11-6.86,7.58-10.17l-.29-7.82c-.11-3.49.64-5.3,4.37-5.46.35-.05.46-.55.06-.49Z"/>
  <g>
    <path class="st6" d="M32.47,54.4l-.49-13.27-.9,1.2c-1.62,2.17-3.29,4.4-4.95,6.66l1.14,14.46,5.22-8.34-.02-.71ZM52.06,25.71h-1.09c.2.23.36.47.47.68.38.74.47,1.63.25,2.64,1.32-1.46,2.55-2.56,3.74-3.33-1.05.01-2.22.01-3.37.01Z"/>
    <path class="st7" d="M58.62,24.8c-1.8.03-4.29.06-6.56.06-1.66,0-3.22-.01-4.31-.06-.35,0-.41.49-.06.49,3.68.23,4.37,3,1.21,7.44l-15.41,21.65h-.12l-.57-15.81c-2.47,3.31-5.04,6.7-7.58,10.17l1.25,15.85c0,.22.19.32.43.32.25,0,.55-.13.72-.38l5.7-9.07,16.39-22.58c2.71-3.66,5.81-7,8.8-7.6.35-.05.45-.49.12-.49ZM27.27,63.44l-1.14-14.46c1.65-2.25,3.33-4.48,4.95-6.66l.9-1.2.49,13.27.02.71-5.22,8.34ZM51.69,29.03c.22-1.01.13-1.9-.25-2.64-.11-.22-.26-.46-.47-.68h1.09c1.15,0,2.31,0,3.37-.01-1.19.77-2.42,1.88-3.74,3.33Z"/>
  </g>
  <path class="st0" d="M62.6,55.9c-1.22,4.48-3.34,7.27-5.07,7.27-1.15,0-1.9-.82-.86-3.77.97-3.14,2.36-6.57,3.8-9.62-3.27,1.37-6.37,2.87-9.31,4.48-.6,1.45-1.05,2.73-1.34,3.81-1.03,4.38.45,7.21,4.43,7.21,5.52,0,7.94-5.25,8.92-9.24.11-.48-.47-.55-.57-.16Z"/>
  <g>
    <path class="st7" d="M58.91,39.11c-4.72,0-7.88,3.35-9.42,7.82-.07.23.11.39.29.39.12,0,.24-.07.29-.22,1.37-4.05,4.02-6.28,5.57-6.28,1.04,0,1.44.82.8,2.12-1.98,4.12-3.94,8.1-5.27,11.33,2.93-1.62,6.04-3.12,9.31-4.48.69-1.47,1.4-2.85,2.06-4.05,2.01-3.45.75-6.62-3.62-6.62ZM52.97,52.33c1.02-2.28,2.24-4.8,3.52-7.44l.77-1.58c.61-1.27.38-2.08.07-2.54-.14-.22-.34-.39-.56-.52.66-.17,1.37-.27,2.14-.27,1.6,0,2.74.47,3.29,1.35.61.99.44,2.45-.47,4.02-.65,1.17-1.29,2.45-1.94,3.8-2.31.97-4.6,2.04-6.83,3.19Z"/>
    <path class="st8" d="M61.73,45.34c-.65,1.17-1.29,2.45-1.94,3.8-2.31.97-4.6,2.04-6.83,3.19,1.02-2.28,2.24-4.8,3.52-7.44l.77-1.58c.61-1.27.38-2.08.07-2.54-.14-.22-.34-.39-.56-.52.66-.17,1.37-.27,2.14-.27,1.6,0,2.74.47,3.29,1.35.61.99.44,2.45-.47,4.02Z"/>
  </g>
  <path class="st0" d="M78.13,55.9c-1.22,4.48-3.4,7.27-5.25,7.27-.97,0-1.72-.77-.8-3.45l7.74-22.67c-2.72,2.79-6.01,5.5-10.01,7.98l-4.05,11.96c-1.68,4.97-.29,8.31,4.02,8.31,5.4,0,7.99-5.25,8.92-9.24.11-.48-.47-.55-.57-.16Z"/>
  <g>
    <path class="st3" d="M83.89,23.12c-.81,1.73-1.78,4.34-2.13,5.51l-2.72,7.97c-2.25,2.29-4.78,4.39-7.57,6.3l4.8-14.18c.79-2.32.77-3.99-.07-5.09-.04-.05-.06-.08-.1-.13,3.5-.01,6.1-.08,7.78-.39Z"/>
    <path class="st7" d="M85.19,21.82s-.07.01-.11.03c-1.33.82-6.05.82-10.77.82h-1.48c-.35,0-.35.49-.06.49,2.87,0,3.92,1.58,2.65,5.29l-5.62,16.58c4-2.48,7.29-5.19,10.01-7.98h.01s2.78-8.15,2.78-8.15c.46-1.55,2.01-5.59,2.77-6.68.14-.18,0-.41-.18-.41ZM71.47,42.9l4.8-14.18c.79-2.32.77-3.99-.07-5.09-.04-.05-.06-.08-.1-.13,3.5-.01,6.1-.08,7.78-.39-.81,1.73-1.78,4.34-2.13,5.51l-2.72,7.97c-2.25,2.29-4.78,4.39-7.57,6.3Z"/>
  </g>
  <path class="st0" d="M100.16,21.84c-1.31.82-6,.82-10.7.82h-1.56c-.35,0-.35.5-.06.5.5,0,.95.05,1.34.15,1.83.48,2.36,2.08,1.31,5.15l-9.66,28.54c-1.67,4.97-.29,8.31,4.03,8.31,5.4,0,7.99-5.25,8.91-9.24.12-.49-.46-.55-.57-.16-1.21,4.48-3.4,7.27-5.24,7.27-.98,0-1.73-.77-.8-3.44l10.53-30.83c.46-1.54,2.01-5.58,2.76-6.67.17-.22-.06-.5-.29-.38Z"/>
  <path class="st0" d="M109.36,55.9c-1.21,4.48-3.33,7.27-5.06,7.27-1.15,0-1.9-.82-.86-3.77,1.44-4.65,3.79-9.9,5.87-13.67,2-3.45.75-6.62-3.63-6.62-4.71,0-7.87,3.34-9.43,7.82-.12.38.46.55.58.17,1.38-4.05,4.03-6.29,5.58-6.29,1.03,0,1.44.82.8,2.13-2.88,5.96-5.69,11.64-6.62,15.14-1.03,4.37.46,7.22,4.43,7.22,5.52,0,7.94-5.25,8.92-9.24.12-.49-.46-.55-.58-.16Z"/>
  <path class="st0" d="M142.84,40.05c.11-.27-.12-.44-.4-.44-2.01.21-4.38.21-6.39,0-.22,0-.46.11-.46.27l-2.07,5.58c.63-4.54-1.38-6.67-4.38-6.67-8.22,0-17.43,10.66-17.43,18.64,0,4.65,2.77,7.82,6.62,7.82,4.55,0,8.69-4.48,11.86-11.21h.17c-2.36,8.04-.35,11.21,3.79,11.21,5.29,0,7.71-5.19,8.58-9.18.12-.49-.46-.55-.58-.16-1.15,4.42-3.23,7.27-5.06,7.27-1.5,0-2.19-1.48.11-7.87l5.65-15.26ZM131.97,49.23l-.52,1.32c-2.88,6.72-7.3,12.79-10.53,12.79-1.38,0-2.07-1.26-1.61-4.54.86-6.34,5.81-18.86,10.98-18.86,2.88,0,3.8,4.1,1.67,9.29Z"/>
  <path class="st0" d="M185.58,38.84c-6.1,0-11.51,5.74-15.36,13.01h-.17l2.93-7.65c1.27-3.27-.22-5.36-3.79-5.36-5.58,0-10.76,5.85-14.26,13.5h-.12l2.93-8.42c1.03-3-.46-4.81-3.79-4.81-4.67,0-7.6,3.28-9.15,7.82-.11.38.47.55.52.17,1.44-4.16,4.08-6.46,5.52-6.46.69,0,.86.5.64,1.26l-7.83,22.3c-.05.21.12.38.47.32,2.3-.32,3.85-.22,6.32,0,.23,0,.47-.11.58-.32l2.65-7.88c3.1-9.07,9.49-15.69,12.88-15.69.81,0,1.1.5.69,1.43l-8.57,22.14c-.06.21.11.38.46.32,2.36-.32,3.91-.22,6.38,0,.23,0,.4-.11.52-.32l2.81-8.2c3.16-9.08,10.42-15.47,14.04-15.47.92,0,1.38.49.8,1.26-4.49,6.72-8.11,14.05-8.11,18.31,0,3.01,1.9,5.19,5.12,5.19,5.35,0,7.77-5.19,8.68-9.18.12-.55-.46-.61-.58-.22-1.15,4.54-3.28,7.27-4.94,7.27-.98,0-1.38-.82-1.38-2.08,0-3.83,3.4-10.71,7.07-16.24,2.42-3.28.35-6.01-3.96-6.01Z"/>
  <g>
    <path class="st4" d="M68.12,32.06c-1.29.82-2.36,2.2-3.05,3.91-.69-1.72-1.75-3.1-3.04-3.91,1.29-.82,2.35-2.18,3.04-3.9.69,1.72,1.76,3.08,3.05,3.9Z"/>
    <path class="st7" d="M65.06,23.31c0,4.84-2.63,8.75-5.89,8.75,3.26,0,5.89,3.93,5.89,8.75,0-4.82,2.65-8.75,5.9-8.75-3.26,0-5.9-3.91-5.9-8.75ZM65.06,35.97c-.69-1.72-1.75-3.1-3.04-3.91,1.29-.82,2.35-2.18,3.04-3.9.69,1.72,1.76,3.08,3.05,3.9-1.29.82-2.36,2.2-3.05,3.91Z"/>
  </g>
  <path class="st0" d="M117.8,32.06c-3.26,0-5.9,3.92-5.9,8.75,0-4.83-2.64-8.75-5.9-8.75,3.26,0,5.9-3.92,5.9-8.75,0,4.83,2.64,8.75,5.9,8.75Z"/>
  <g>
    <path class="st5" d="M214.56,28.76c-2.14,1.09-4.17,2.69-5.98,4.72-.16-.13-.32-.24-.49-.35-.34-.25-.68-.49-1.03-.76-3.81-2.86-7.14-6.08-9.92-9.57,2.24-2.88,4.01-6.37,5.21-10.24,2.36,7.51,6.78,13.41,12.2,16.21Z"/>
    <path class="st7" d="M202.34,0c0,9.26-2.96,17.51-7.53,22.76,2.83,3.77,6.44,7.5,11.09,10.99.36.27.73.53,1.1.81.62.44,1.28.9,1.94,1.35,3.4-4.45,7.88-7.15,12.78-7.15-10.72,0-19.38-12.88-19.38-28.77ZM208.09,33.13c-.34-.25-.68-.49-1.03-.76-3.81-2.86-7.14-6.08-9.92-9.57,2.24-2.88,4.01-6.37,5.21-10.24,2.36,7.51,6.78,13.41,12.2,16.21-2.14,1.09-4.17,2.69-5.98,4.72-.16-.13-.32-.24-.49-.35Z"/>
  </g>
  <path class="st0" d="M208.94,35.92c-4.05,5.27-6.6,13.01-6.6,21.63,0-15.9-8.68-28.78-19.38-28.78,4.47,0,8.57-2.23,11.84-6.01,2.83,3.77,6.44,7.5,11.09,10.99.36.27.73.53,1.1.81.62.44,1.28.9,1.94,1.35Z"/>
  <g>
    <path class="st7" d="M29.62,95.08l-2.71.03v7.07c0,1.83.44,3.37,2.96,3.46.19,0,.19.27,0,.24-.96-.06-2.68-.06-4.58-.06-1.28,0-2.68,0-3.86.06-.19.03-.19-.24,0-.24,2.33-.12,2.52-1.63,2.52-3.46v-14.52c0-1.89-.16-2.9-2.52-2.96-.19-.03-.22-.3,0-.27h9.09c4.08,0,7.1,1.77,7.1,5.06s-2.86,5.21-6.85,5.47c7.19.77,5.35,9.79,8.9,9.79.65,0,1.06-.41,1.53-1.57.06-.18.34-.06.25.15-.69,2.01-2.15,2.81-3.55,2.81-6.2,0-2.71-11.12-8.28-11.06ZM34.47,89.69c0-2.78-1.87-4.94-5.2-4.97h-.34c-1.24-.03-2.02.5-2.02,1.42v8.61l2.71.03c3.05.03,4.86-1.89,4.86-5.09Z"/>
    <path class="st7" d="M48.36,105.64c2.58-.09,2.77-1.63,2.77-3.46v-4.94l-5.2-9.05c-.84-1.45-1.71-3.28-3.42-3.52-.19,0-.19-.27,0-.27,2.37.18,6.1.18,8.41,0,.19,0,.19.27,0,.27-2.8.18-2.93,1.27-1.9,3.08l4.92,8.79h.06l4.79-8.61c1.03-1.81.53-2.99-1.56-3.28-.19,0-.19-.27,0-.27,1.43.15,3.89.24,5.35.06.19-.03.19.24,0,.27-1.28.36-2.37,1.86-3.27,3.4l-5.23,8.87v5.21c0,1.83.19,3.37,2.71,3.46.19,0,.19.27,0,.24-1.18-.06-2.43-.06-4.08-.06s-3.08.03-4.36.06c-.16.03-.16-.24,0-.24Z"/>
    <path class="st7" d="M64.76,105.61c1.74-.38,2.71-1.51,2.71-3.82l.06-14.35c0-1.72-.72-2.69-2.58-2.81-.19-.03-.19-.27,0-.27,1.03.06,2.77.09,3.36.06l1.31-.06c.12,0,.22.06.28.18l12.02,16h.03l.03-11.92c0-2.34-.87-3.82-2.65-3.93-.19-.03-.19-.3,0-.27,1.52.18,3.8.21,5.54,0,.19-.03.19.24,0,.27-1.59.38-2.43,1.6-2.46,3.9l-.12,12.75.12,4.44c0,.24-.22.33-.4.15l-14.1-19.05h-.06l.06,14.88c0,2.34.87,3.76,2.65,3.9.19,0,.19.27,0,.27-1.59-.18-3.95-.24-5.79-.06-.19.03-.19-.24,0-.27Z"/>
    <path class="st7" d="M87.64,105.76c2.24-.5,2.49-1.09,2.49-2.99v-15.06c0-1.98-.22-2.81-2.46-3.05-.22,0-.22-.27,0-.24,1.03.03,2.24,0,3.55,0h4.73c8.31,0,12.36,4.58,12.36,11.18,0,5.77-4.58,10.26-10.49,10.26h-1.37c-2.4,0-3.58-.12-5.01-.12-1.65,0-2.9.09-3.77.27-.19.03-.22-.21-.03-.27ZM104.98,95.05c0-5.71-2.34-10.32-9.03-10.32h-1.84c-.78,0-1.06.47-1.06,1.04v17.07c0,2.34,1.77,2.78,3.52,2.78,5.88,0,8.41-4.17,8.41-10.56Z"/>
    <path class="st7" d="M111.77,105.76c2.37-.5,2.62-1.09,2.62-2.99v-15.03c0-2.04-.25-2.84-2.62-3.08-.22,0-.22-.27,0-.24,1.03.06,2.43.06,3.8.06l12.45-.06c.19,0,.34.09.34.3-.06,1.81.06,3.49.22,5.15.03.21-.31.21-.31,0-.28-2.93-2.68-5.06-5.85-5.12l-3.36-.06c-1.03-.03-1.71.47-1.71,1.42v8.22l2.52-.03c2.55-.03,4.23-1.42,4.23-3.79,0-.21.31-.21.31,0-.16,2.93-.16,5.68,0,8.43,0,.21-.31.21-.31,0,0-2.72-1.68-4.32-4.23-4.35l-2.52-.03v8.31c0,1.63.93,2.84,2.34,2.81l3.74-.06c3.14-.06,5.57-2.49,5.85-5.68,0-.21.31-.18.31,0-.19,1.95-.28,3.82-.22,5.77,0,.18-.16.27-.34.27l-8.56-.09c-1.71-.03-3.24-.09-4.76-.15-1.71,0-2.93.09-3.89.27-.19.03-.22-.24-.03-.27Z"/>
    <path class="st7" d="M140.63,95.08l-2.71.03v7.07c0,1.83.44,3.37,2.96,3.46.19,0,.19.27,0,.24-.96-.06-2.68-.06-4.58-.06-1.28,0-2.68,0-3.86.06-.19.03-.19-.24,0-.24,2.33-.12,2.52-1.63,2.52-3.46v-14.52c0-1.89-.16-2.9-2.52-2.96-.19-.03-.22-.3,0-.27h9.09c4.08,0,7.1,1.77,7.1,5.06s-2.86,5.21-6.85,5.47c7.19.77,5.35,9.79,8.9,9.79.65,0,1.06-.41,1.53-1.57.06-.18.34-.06.25.15-.69,2.01-2.15,2.81-3.55,2.81-6.2,0-2.71-11.12-8.28-11.06ZM145.48,89.69c0-2.78-1.87-4.94-5.2-4.97h-.34c-1.24-.03-2.02.5-2.02,1.42v8.61l2.71.03c3.05.03,4.86-1.89,4.86-5.09Z"/>
    <path class="st7" d="M155.79,103.89l-1,1.6c-.09.24-.4.21-.37-.03.19-1.89.19-3.76-.06-5.59-.06-.24.37-.3.4,0,.75,3.94,3.14,6.15,6.63,6.15,3.24,0,5.38-1.89,5.38-5,0-3.43-2.09-4.35-6.23-5.62-3.92-1.24-5.76-2.69-5.76-5.8,0-3.52,3.08-5.62,6.41-5.62,2.15,0,3.55.89,4.58,2.07l1-1.54c.09-.24.37-.15.37.03-.22,1.89-.22,3.61.03,5.5.06.24-.4.24-.4,0-.72-3.85-2.74-5.77-5.54-5.77-2.4,0-3.95,1.51-3.95,3.85,0,2.87,1.84,3.67,5.26,4.62,3.8,1.04,6.57,2.49,6.6,6.69,0,4.02-3.49,6.89-7.69,6.89-2.46,0-4.36-.98-5.67-2.43Z"/>
  </g>
  <g>
    <path class="st7" d="M64.34,76.14c.23.31.47.55.74.7.27.15.54.23.83.23.51,0,.89-.16,1.15-.49s.39-.8.39-1.43v-5.21h1.09v5.23c0,.46-.06.86-.18,1.21-.12.35-.29.65-.51.9s-.5.43-.82.56c-.32.13-.69.19-1.11.19-.49,0-.93-.11-1.33-.32-.4-.21-.72-.5-.97-.86l.72-.72Z"/>
    <path class="st7" d="M70.32,72.29c.2-.5.48-.94.83-1.3.36-.36.79-.65,1.28-.85.49-.2,1.03-.31,1.61-.31s1.13.1,1.63.31c.49.2.92.49,1.28.85.36.37.64.8.84,1.3.2.51.3,1.06.3,1.65s-.1,1.16-.3,1.66c-.2.51-.48.94-.84,1.3-.36.36-.78.64-1.28.84-.49.2-1.04.3-1.63.3s-1.12-.1-1.61-.3c-.49-.2-.92-.48-1.28-.84-.36-.36-.64-.79-.83-1.3-.2-.5-.3-1.05-.3-1.65s.1-1.15.3-1.66ZM72.88,71.05c-.36.16-.66.37-.92.65-.25.28-.45.61-.59.99s-.21.8-.21,1.25.07.89.21,1.27.34.71.59.98c.25.27.56.49.92.64.36.16.75.24,1.18.24s.82-.08,1.18-.24c.36-.16.66-.37.92-.64.25-.27.45-.6.58-.98s.2-.8.2-1.27-.07-.86-.2-1.25-.33-.71-.58-.99c-.25-.28-.56-.49-.92-.65-.36-.16-.75-.24-1.18-.24s-.82.08-1.18.24Z"/>
    <path class="st7" d="M79.61,69.95h1.13l5.05,6.47-.14.06v-6.53h1.09v7.97h-1.11l-5.05-6.42.14-.06v6.48h-1.1v-7.97Z"/>
    <path class="st7" d="M91.09,69.95h1.2l3.3,7.97h-1.16l-.8-2,.25.18h-4.4l.27-.18-.78,2h-1.15l3.28-7.97ZM89.82,75.22h3.78l-.13.19-1.86-4.41h.18l-1.86,4.41-.11-.19Z"/>
    <path class="st7" d="M94.75,69.95h6.29v.99h-6.29v-.99ZM97.35,70.75h1.09v7.17h-1.09v-7.17Z"/>
    <path class="st7" d="M102.2,69.95h1.1v7.97h-1.1v-7.97ZM107.98,73.36v.96h-4.92v-.96h4.92ZM107.74,77.92v-7.97h1.1v7.97h-1.1Z"/>
    <path class="st7" d="M113.17,69.95h1.2l3.3,7.97h-1.16l-.8-2,.25.18h-4.4l.27-.18-.78,2h-1.15l3.28-7.97ZM111.89,75.22h3.78l-.13.19-1.86-4.41h.18l-1.86,4.41-.11-.19Z"/>
    <path class="st7" d="M118.74,69.95h1.13l5.05,6.47-.14.06v-6.53h1.09v7.97h-1.11l-5.05-6.42.14-.06v6.48h-1.1v-7.97Z"/>
  </g>
  <line class="st1" x1="130.66" y1="73.93" x2="184.12" y2="73.93"/>
  <line class="st2" x1="5.51" y1="73.93" x2="58.82" y2="73.93"/>
</svg>