<svg width="32" height="32" viewBox="0 0 32 32" fill="none" xmlns="http://www.w3.org/2000/svg">
	<path d="M28.8 3.84H3.2C1.44 3.84 0 5.28 0 7.04V24.96C0 26.72 1.44 28.16 3.2 28.16H28.8C30.56 28.16 32 26.72 32 24.96V7.04C32 5.28 30.56 3.84 28.8 3.84ZM20.48 26.88H3.2C2.144 26.88 1.28 26.016 1.28 24.96V7.04C1.28 5.984 2.144 5.12 3.2 5.12H20.48V26.88ZM30.72 24.96C30.72 26.016 29.856 26.88 28.8 26.88H21.76V5.12H28.8C29.856 5.12 30.72 5.984 30.72 7.04V24.96Z" fill="#6C3BFF"/>
	<path d="M3.84001 8.64H4.48001C4.83201 8.64 5.12001 8.352 5.12001 8C5.12001 7.648 4.83201 7.36 4.48001 7.36H3.84001C3.48801 7.36 3.20001 7.648 3.20001 8C3.20001 8.352 3.48801 8.64 3.84001 8.64Z" fill="#6C3BFF"/>
	<path d="M6.72002 8.64H7.36002C7.71202 8.64 8.00002 8.352 8.00002 8C8.00002 7.648 7.71202 7.36 7.36002 7.36H6.72002C6.36802 7.36 6.08002 7.648 6.08002 8C6.08002 8.352 6.36802 8.64 6.72002 8.64Z" fill="#6C3BFF"/>
	<path d="M9.60002 8.64H10.24C10.592 8.64 10.88 8.352 10.88 8C10.88 7.648 10.592 7.36 10.24 7.36H9.60002C9.24802 7.36 8.96002 7.648 8.96002 8C8.96002 8.352 9.24802 8.64 9.60002 8.64Z" fill="#6C3BFF"/>
	<path d="M27.2 9.28H24.96C24.608 9.28 24.32 9.568 24.32 9.92C24.32 10.272 24.608 10.56 24.96 10.56H27.2C27.552 10.56 27.84 10.272 27.84 9.92C27.84 9.568 27.552 9.28 27.2 9.28Z" fill="#6C3BFF"/>
	<path d="M27.2 12.48H24.96C24.608 12.48 24.32 12.768 24.32 13.12C24.32 13.472 24.608 13.76 24.96 13.76H27.2C27.552 13.76 27.84 13.472 27.84 13.12C27.84 12.768 27.552 12.48 27.2 12.48Z" fill="#6C3BFF"/>
	<path d="M27.2 15.68H24.96C24.608 15.68 24.32 15.968 24.32 16.32C24.32 16.672 24.608 16.96 24.96 16.96H27.2C27.552 16.96 27.84 16.672 27.84 16.32C27.84 15.968 27.552 15.68 27.2 15.68Z" fill="#6C3BFF"/>
	<path fill-rule="evenodd" clip-rule="evenodd" d="M4.42671 11.7067V23.6533H17.2534V11.7067H4.42671ZM4.24005 10.64C3.75404 10.64 3.36005 11.034 3.36005 11.52V23.84C3.36005 24.326 3.75404 24.72 4.24005 24.72H17.44C17.9261 24.72 18.32 24.326 18.32 23.84V11.52C18.32 11.034 17.9261 10.64 17.44 10.64H4.24005Z" fill="#6C3BFF"/>
	<path d="M6.71996 14.6133H7.35996C7.71196 14.6133 7.99996 14.3253 7.99996 13.9733C7.99996 13.6213 7.71196 13.3333 7.35996 13.3333H6.71996C6.36796 13.3333 6.07996 13.6213 6.07996 13.9733C6.07996 14.3253 6.36796 14.6133 6.71996 14.6133Z" fill="#6C3BFF"/>
	<path d="M9.60002 14.6133H10.24C10.592 14.6133 10.88 14.3253 10.88 13.9733C10.88 13.6213 10.592 13.3333 10.24 13.3333H9.60002C9.24802 13.3333 8.96002 13.6213 8.96002 13.9733C8.96002 14.3253 9.24802 14.6133 9.60002 14.6133Z" fill="#6C3BFF"/>
	<path d="M12.3733 14.6133H13.0133C13.3653 14.6133 13.6533 14.3253 13.6533 13.9733C13.6533 13.6213 13.3653 13.3333 13.0133 13.3333H12.3733C12.0213 13.3333 11.7333 13.6213 11.7333 13.9733C11.7333 14.3253 12.0213 14.6133 12.3733 14.6133Z" fill="#6C3BFF"/>
	</svg>
