<svg width="60" height="60" viewBox="0 0 60 60" fill="none" xmlns="http://www.w3.org/2000/svg">
	<path
		d="M2 50.7096C2 53.1316 3.89237 55 6.34543 55H53.6546C56.1076 55 58 53.1316 58 50.7096V8.29037C58 5.86839 56.1076 4 53.6546 4H6.34543C3.89237 4 2 5.86839 2 8.29037V50.7096ZM4.31289 8.29037C4.31289 7.18318 5.29412 6.00678 6.62578 6.00678H53.8648C54.9862 6.00678 56.1777 6.97558 56.1777 8.29037V50.7096C56.1777 51.8168 55.1965 52.9932 53.8648 52.9932H6.34543C5.22403 52.9932 4.03254 52.0244 4.03254 50.7096L4.31289 8.29037Z"
		fill="#6C3BFF" />
	<path d="M4 14.5H56.5" stroke="#6C3BFF" stroke-width="1.8" stroke-linecap="round" />
	<path
		d="M9.25 11.5C9.94036 11.5 10.5 10.9404 10.5 10.25C10.5 9.55964 9.94036 9 9.25 9C8.55964 9 8 9.55964 8 10.25C8 10.9404 8.55964 11.5 9.25 11.5Z"
		fill="#6C3BFF" />
	<path
		d="M13 11.5C13.6904 11.5 14.25 10.9404 14.25 10.25C14.25 9.55964 13.6904 9 13 9C12.3096 9 11.75 9.55964 11.75 10.25C11.75 10.9404 12.3096 11.5 13 11.5Z"
		fill="#6C3BFF" />
	<path
		d="M16.75 11.5C17.4404 11.5 18 10.9404 18 10.25C18 9.55964 17.4404 9 16.75 9C16.0596 9 15.5 9.55964 15.5 10.25C15.5 10.9404 16.0596 11.5 16.75 11.5Z"
		fill="#6C3BFF" />
	<path
		d="M16.8763 39C16.7067 39 16.5407 38.9445 16.3985 38.8401C16.2563 38.7357 16.144 38.5871 16.0753 38.4121C16.0065 38.2372 15.9842 38.0434 16.0111 37.8545C16.038 37.6655 16.1129 37.4894 16.2268 37.3475L18.9467 33.9708L16.2322 30.5941C16.0975 30.3977 16.0331 30.1512 16.0521 29.9037C16.071 29.6562 16.1718 29.4259 16.3344 29.2584C16.4971 29.091 16.7096 28.9987 16.9298 29C17.1499 29.0013 17.3616 29.0961 17.5226 29.2655L20.7727 33.3022C20.919 33.4841 21 33.7209 21 33.9665C21 34.2121 20.919 34.4489 20.7727 34.6308L17.5226 38.6762C17.4408 38.7778 17.341 38.8592 17.2297 38.9149C17.1185 38.9707 16.9981 38.9996 16.8763 39Z"
		fill="#6C3BFF" />
	<path
		d="M15.75 34.5H10.75C10.5511 34.5 10.3603 34.421 10.2197 34.2803C10.079 34.1397 10 33.9489 10 33.75C10 33.5511 10.079 33.3603 10.2197 33.2197C10.3603 33.079 10.5511 33 10.75 33H15.75C15.9489 33 16.1397 33.079 16.2803 33.2197C16.421 33.3603 16.5 33.5511 16.5 33.75C16.5 33.9489 16.421 34.1397 16.2803 34.2803C16.1397 34.421 15.9489 34.5 15.75 34.5Z"
		fill="#6C3BFF" />
	<path
		d="M29.75 34.5H24.75C24.5511 34.5 24.3603 34.421 24.2197 34.2803C24.079 34.1397 24 33.9489 24 33.75C24 33.5511 24.079 33.3603 24.2197 33.2197C24.3603 33.079 24.5511 33 24.75 33H29.75C29.9489 33 30.1397 33.079 30.2803 33.2197C30.421 33.3603 30.5 33.5511 30.5 33.75C30.5 33.9489 30.421 34.1397 30.2803 34.2803C30.1397 34.421 29.9489 34.5 29.75 34.5Z"
		fill="#6C3BFF" />
	<path
		d="M46.75 34.5H38.75C38.5511 34.5 38.3603 34.421 38.2197 34.2803C38.079 34.1397 38 33.9489 38 33.75C38 33.5511 38.079 33.3603 38.2197 33.2197C38.3603 33.079 38.5511 33 38.75 33H46.75C46.9489 33 47.1397 33.079 47.2803 33.2197C47.421 33.3603 47.5 33.5511 47.5 33.75C47.5 33.9489 47.421 34.1397 47.2803 34.2803C47.1397 34.421 46.9489 34.5 46.75 34.5Z"
		fill="#6C3BFF" />
	<path
		d="M29.345 38.72C29.1384 38.5273 29.0148 38.2579 29.0012 37.9714C28.9877 37.6848 29.0853 37.4044 29.2727 37.1919L32.5297 33.4973L29.2727 29.8026C29.0878 29.5897 28.9923 29.3103 29.0068 29.0252C29.0214 28.74 29.1449 28.4724 29.3504 28.2806C29.5559 28.0888 29.8268 27.9883 30.104 28.0011C30.3812 28.0139 30.6422 28.1389 30.8302 28.3489L34.7273 32.7697C34.9028 32.9687 35 33.2279 35 33.4966C35 33.7653 34.9028 34.0244 34.7273 34.2235L30.8302 38.6443C30.7375 38.7496 30.6256 38.8351 30.5008 38.8959C30.376 38.9567 30.2408 38.9916 30.1028 38.9987C29.9649 39.0057 29.827 38.9847 29.697 38.9369C29.5669 38.8891 29.4473 38.8154 29.345 38.72Z"
		fill="#6C3BFF" />
	<path
		d="M46.345 38.7193C46.1384 38.5264 46.0148 38.257 46.0012 37.9704C45.9877 37.6837 46.0853 37.4032 46.2727 37.1907L49.5297 33.4949L46.274 29.8032C46.0891 29.5902 45.9936 29.3107 46.0081 29.0255C46.0227 28.7403 46.1462 28.4726 46.3517 28.2807C46.5572 28.0888 46.8281 27.9883 47.1053 28.0011C47.3825 28.0139 47.6435 28.1389 47.8315 28.349L51.7273 32.7671C51.9028 32.9662 52 33.2254 52 33.4942C52 33.763 51.9028 34.0222 51.7273 34.2213L47.8315 38.6435C47.7388 38.7491 47.6268 38.8348 47.5019 38.8957C47.377 38.9567 47.2416 38.9916 47.1035 38.9987C46.9654 39.0057 46.8274 38.9847 46.6972 38.9367C46.5671 38.8888 46.4474 38.8149 46.345 38.7193Z"
		fill="#6C3BFF" />
</svg>
