<svg width="370" height="222" viewBox="0 0 370 222" fill="none" xmlns="http://www.w3.org/2000/svg">
<g clip-path="url(#clip0_1134_954)">
<rect width="370" height="222" fill="white"/>
<g filter="url(#filter0_d_1134_954)">
<g clip-path="url(#clip1_1134_954)">
<rect x="4.29749" y="4.5" width="112.696" height="147.671" rx="3.88608" fill="white"/>
<rect x="8.18359" y="8.38606" width="104.924" height="66.0633" rx="3.61715" fill="#F1F3F9"/>
<path d="M70.0776 63.4134L58.5946 42.3611L67.6662 27.242L86.9576 63.4134H70.0776ZM50.7862 36.8877L65.2548 63.4134H36.3176L50.7862 36.8877ZM44.7576 32.0648C41.4281 32.0648 38.7291 29.3657 38.7291 26.0362C38.7291 22.7068 41.4281 20.0077 44.7576 20.0077C48.0871 20.0077 50.7862 22.7068 50.7862 26.0362C50.7862 29.3657 48.0871 32.0648 44.7576 32.0648Z" fill="white"/>
<rect x="9.15515" y="103.595" width="102.981" height="3.88608" rx="1.94304" fill="#E9EDF6"/>
<rect x="9.15515" y="113.31" width="97.1519" height="3.88608" rx="1.94304" fill="#E9EDF6"/>
<rect x="9.15515" y="92.9082" width="7.77215" height="2.91456" rx="1.45728" fill="#DEE2ED"/>
<rect x="18.8704" y="92.9082" width="7.77215" height="2.91456" rx="1.45728" fill="#DEE2ED"/>
<rect x="28.5854" y="92.9082" width="35.9462" height="2.91456" rx="1.45728" fill="#DEE2ED"/>
<rect x="8.18359" y="79.307" width="104.924" height="5.82911" rx="2.91456" fill="#DEE2ED"/>
<g clip-path="url(#clip2_1134_954)">
<rect x="51.9019" y="124.968" width="15.5443" height="15.5443" rx="7.77215" fill="#DEE2ED"/>
<g clip-path="url(#clip3_1134_954)">
<path d="M59.6677 128.208C60.3082 128.208 60.9343 128.398 61.4669 128.754C61.9994 129.11 62.4145 129.616 62.6596 130.207C62.9047 130.799 62.9688 131.45 62.8439 132.079C62.7189 132.707 62.4105 133.284 61.9576 133.737C61.5047 134.19 60.9277 134.498 60.2995 134.623C59.6713 134.748 59.0202 134.684 58.4284 134.439C57.8367 134.194 57.3309 133.778 56.9751 133.246C56.6192 132.713 56.4293 132.087 56.4293 131.447L56.4326 131.306C56.4688 130.472 56.8254 129.685 57.4282 129.108C58.0309 128.531 58.8332 128.208 59.6677 128.208Z" fill="white"/>
<path d="M60.9683 135.98C61.8271 135.98 62.6508 136.321 63.2582 136.928C63.8655 137.535 64.2067 138.359 64.2067 139.218V139.866C64.2067 140.209 64.0702 140.539 63.8273 140.782C63.5843 141.025 63.2549 141.161 62.9113 141.161H56.4345C56.091 141.161 55.7615 141.025 55.5186 140.782C55.2756 140.539 55.1392 140.209 55.1392 139.866V139.218C55.1392 138.359 55.4803 137.535 56.0877 136.928C56.695 136.321 57.5187 135.98 58.3776 135.98H60.9683Z" fill="white"/>
</g>
</g>
</g>
</g>
<g filter="url(#filter1_d_1134_954)">
<g clip-path="url(#clip4_1134_954)">
<rect x="128.652" y="4.5" width="112.696" height="147.671" rx="3.88608" fill="white"/>
<rect x="132.538" y="8.38606" width="104.924" height="66.0633" rx="3.61715" fill="#F1F3F9"/>
<path d="M194.432 63.4134L182.949 42.3611L192.02 27.242L211.312 63.4134H194.432ZM175.14 36.8877L189.609 63.4134H160.672L175.14 36.8877ZM169.112 32.0648C165.782 32.0648 163.083 29.3657 163.083 26.0362C163.083 22.7068 165.782 20.0077 169.112 20.0077C172.441 20.0077 175.14 22.7068 175.14 26.0362C175.14 29.3657 172.441 32.0648 169.112 32.0648Z" fill="white"/>
<rect x="133.51" y="103.595" width="102.981" height="3.88608" rx="1.94304" fill="#E9EDF6"/>
<rect x="133.51" y="113.31" width="97.1519" height="3.88608" rx="1.94304" fill="#E9EDF6"/>
<rect x="133.51" y="92.9082" width="7.77215" height="2.91456" rx="1.45728" fill="#DEE2ED"/>
<rect x="143.225" y="92.9082" width="7.77215" height="2.91456" rx="1.45728" fill="#DEE2ED"/>
<rect x="152.94" y="92.9082" width="35.9462" height="2.91456" rx="1.45728" fill="#DEE2ED"/>
<rect x="132.538" y="79.307" width="104.924" height="5.82911" rx="2.91456" fill="#DEE2ED"/>
<g clip-path="url(#clip5_1134_954)">
<rect x="176.256" y="124.968" width="15.5443" height="15.5443" rx="7.77215" fill="#DEE2ED"/>
<g clip-path="url(#clip6_1134_954)">
<path d="M184.022 128.208C184.663 128.208 185.289 128.398 185.821 128.754C186.354 129.11 186.769 129.616 187.014 130.207C187.259 130.799 187.323 131.45 187.198 132.079C187.073 132.707 186.765 133.284 186.312 133.737C185.859 134.19 185.282 134.498 184.654 134.623C184.026 134.748 183.375 134.684 182.783 134.439C182.191 134.194 181.685 133.778 181.33 133.246C180.974 132.713 180.784 132.087 180.784 131.447L180.787 131.306C180.823 130.472 181.18 129.685 181.783 129.108C182.385 128.531 183.188 128.208 184.022 128.208Z" fill="white"/>
<path d="M185.323 135.98C186.182 135.98 187.005 136.321 187.613 136.928C188.22 137.535 188.561 138.359 188.561 139.218V139.866C188.561 140.209 188.425 140.539 188.182 140.782C187.939 141.025 187.609 141.161 187.266 141.161H180.789C180.445 141.161 180.116 141.025 179.873 140.782C179.63 140.539 179.494 140.209 179.494 139.866V139.218C179.494 138.359 179.835 137.535 180.442 136.928C181.049 136.321 181.873 135.98 182.732 135.98H185.323Z" fill="white"/>
</g>
</g>
</g>
</g>
<g filter="url(#filter2_d_1134_954)">
<g clip-path="url(#clip7_1134_954)">
<rect x="253.006" y="4.5" width="112.696" height="147.671" rx="3.88608" fill="white"/>
<rect x="256.892" y="8.38606" width="104.924" height="66.0633" rx="3.61715" fill="#F1F3F9"/>
<path d="M318.786 63.4134L307.303 42.3611L316.375 27.242L335.666 63.4134H318.786ZM299.495 36.8877L313.964 63.4134H285.026L299.495 36.8877ZM293.466 32.0648C290.137 32.0648 287.438 29.3657 287.438 26.0362C287.438 22.7068 290.137 20.0077 293.466 20.0077C296.796 20.0077 299.495 22.7068 299.495 26.0362C299.495 29.3657 296.796 32.0648 293.466 32.0648Z" fill="white"/>
<rect x="257.864" y="103.595" width="102.981" height="3.88608" rx="1.94304" fill="#E9EDF6"/>
<rect x="257.864" y="113.31" width="97.1519" height="3.88608" rx="1.94304" fill="#E9EDF6"/>
<rect x="257.864" y="92.9082" width="7.77215" height="2.91456" rx="1.45728" fill="#DEE2ED"/>
<rect x="267.579" y="92.9082" width="7.77215" height="2.91456" rx="1.45728" fill="#DEE2ED"/>
<rect x="277.294" y="92.9082" width="35.9462" height="2.91456" rx="1.45728" fill="#DEE2ED"/>
<rect x="256.892" y="79.307" width="104.924" height="5.82911" rx="2.91456" fill="#DEE2ED"/>
<g clip-path="url(#clip8_1134_954)">
<rect x="300.611" y="124.968" width="15.5443" height="15.5443" rx="7.77215" fill="#DEE2ED"/>
<g clip-path="url(#clip9_1134_954)">
<path d="M308.377 128.208C309.017 128.208 309.643 128.398 310.176 128.754C310.708 129.11 311.123 129.616 311.368 130.207C311.614 130.799 311.678 131.45 311.553 132.079C311.428 132.707 311.119 133.284 310.666 133.737C310.214 134.19 309.637 134.498 309.008 134.623C308.38 134.748 307.729 134.684 307.137 134.439C306.546 134.194 306.04 133.778 305.684 133.246C305.328 132.713 305.138 132.087 305.138 131.447L305.141 131.306C305.178 130.472 305.534 129.685 306.137 129.108C306.74 128.531 307.542 128.208 308.377 128.208Z" fill="white"/>
<path d="M309.677 135.98C310.536 135.98 311.36 136.321 311.967 136.928C312.574 137.535 312.916 138.359 312.916 139.218V139.866C312.916 140.209 312.779 140.539 312.536 140.782C312.293 141.025 311.964 141.161 311.62 141.161H305.144C304.8 141.161 304.47 141.025 304.228 140.782C303.985 140.539 303.848 140.209 303.848 139.866V139.218C303.848 138.359 304.189 137.535 304.797 136.928C305.404 136.321 306.228 135.98 307.087 135.98H309.677Z" fill="white"/>
</g>
</g>
</g>
</g>
<g filter="url(#filter3_d_1134_954)">
<g clip-path="url(#clip10_1134_954)">
<rect x="4.29749" y="163.829" width="112.696" height="147.671" rx="3.88608" fill="white"/>
<rect x="8.18359" y="167.715" width="104.924" height="66.0633" rx="3.61715" fill="#F1F3F9"/>
<path d="M70.0776 222.743L58.5946 201.69L67.6662 186.571L86.9576 222.743H70.0776ZM50.7862 196.217L65.2548 222.743H36.3176L50.7862 196.217ZM44.7576 191.394C41.4281 191.394 38.7291 188.695 38.7291 185.365C38.7291 182.036 41.4281 179.337 44.7576 179.337C48.0871 179.337 50.7862 182.036 50.7862 185.365C50.7862 188.695 48.0871 191.394 44.7576 191.394Z" fill="white"/>
</g>
</g>
<g filter="url(#filter4_d_1134_954)">
<g clip-path="url(#clip11_1134_954)">
<rect x="128.652" y="163.829" width="112.696" height="147.671" rx="3.88608" fill="white"/>
<rect x="132.538" y="167.715" width="104.924" height="66.0633" rx="3.61715" fill="#F1F3F9"/>
<path d="M194.432 222.743L182.949 201.69L192.02 186.571L211.312 222.743H194.432ZM175.14 196.217L189.609 222.743H160.672L175.14 196.217ZM169.112 191.394C165.782 191.394 163.083 188.695 163.083 185.365C163.083 182.036 165.782 179.337 169.112 179.337C172.441 179.337 175.14 182.036 175.14 185.365C175.14 188.695 172.441 191.394 169.112 191.394Z" fill="white"/>
</g>
</g>
<g filter="url(#filter5_d_1134_954)">
<g clip-path="url(#clip12_1134_954)">
<rect x="253.006" y="163.829" width="112.696" height="147.671" rx="3.88608" fill="white"/>
<rect x="256.892" y="167.715" width="104.924" height="66.0633" rx="3.61715" fill="#F1F3F9"/>
<path d="M318.786 222.743L307.303 201.69L316.375 186.571L335.666 222.743H318.786ZM299.495 196.217L313.964 222.743H285.026L299.495 196.217ZM293.466 191.394C290.137 191.394 287.438 188.695 287.438 185.365C287.438 182.036 290.137 179.337 293.466 179.337C296.796 179.337 299.495 182.036 299.495 185.365C299.495 188.695 296.796 191.394 293.466 191.394Z" fill="white"/>
</g>
</g>
</g>
<defs>
<filter id="filter0_d_1134_954" x="0.41141" y="1.58544" width="120.468" height="155.443" filterUnits="userSpaceOnUse" color-interpolation-filters="sRGB">
<feFlood flood-opacity="0" result="BackgroundImageFix"/>
<feColorMatrix in="SourceAlpha" type="matrix" values="0 0 0 0 0 0 0 0 0 0 0 0 0 0 0 0 0 0 127 0" result="hardAlpha"/>
<feOffset dy="0.971519"/>
<feGaussianBlur stdDeviation="1.94304"/>
<feComposite in2="hardAlpha" operator="out"/>
<feColorMatrix type="matrix" values="0 0 0 0 0 0 0 0 0 0 0 0 0 0 0 0 0 0 0.1 0"/>
<feBlend mode="normal" in2="BackgroundImageFix" result="effect1_dropShadow_1134_954"/>
<feBlend mode="normal" in="SourceGraphic" in2="effect1_dropShadow_1134_954" result="shape"/>
</filter>
<filter id="filter1_d_1134_954" x="124.766" y="1.58544" width="120.468" height="155.443" filterUnits="userSpaceOnUse" color-interpolation-filters="sRGB">
<feFlood flood-opacity="0" result="BackgroundImageFix"/>
<feColorMatrix in="SourceAlpha" type="matrix" values="0 0 0 0 0 0 0 0 0 0 0 0 0 0 0 0 0 0 127 0" result="hardAlpha"/>
<feOffset dy="0.971519"/>
<feGaussianBlur stdDeviation="1.94304"/>
<feComposite in2="hardAlpha" operator="out"/>
<feColorMatrix type="matrix" values="0 0 0 0 0 0 0 0 0 0 0 0 0 0 0 0 0 0 0.1 0"/>
<feBlend mode="normal" in2="BackgroundImageFix" result="effect1_dropShadow_1134_954"/>
<feBlend mode="normal" in="SourceGraphic" in2="effect1_dropShadow_1134_954" result="shape"/>
</filter>
<filter id="filter2_d_1134_954" x="249.12" y="1.58544" width="120.468" height="155.443" filterUnits="userSpaceOnUse" color-interpolation-filters="sRGB">
<feFlood flood-opacity="0" result="BackgroundImageFix"/>
<feColorMatrix in="SourceAlpha" type="matrix" values="0 0 0 0 0 0 0 0 0 0 0 0 0 0 0 0 0 0 127 0" result="hardAlpha"/>
<feOffset dy="0.971519"/>
<feGaussianBlur stdDeviation="1.94304"/>
<feComposite in2="hardAlpha" operator="out"/>
<feColorMatrix type="matrix" values="0 0 0 0 0 0 0 0 0 0 0 0 0 0 0 0 0 0 0.1 0"/>
<feBlend mode="normal" in2="BackgroundImageFix" result="effect1_dropShadow_1134_954"/>
<feBlend mode="normal" in="SourceGraphic" in2="effect1_dropShadow_1134_954" result="shape"/>
</filter>
<filter id="filter3_d_1134_954" x="0.41141" y="160.915" width="120.468" height="155.443" filterUnits="userSpaceOnUse" color-interpolation-filters="sRGB">
<feFlood flood-opacity="0" result="BackgroundImageFix"/>
<feColorMatrix in="SourceAlpha" type="matrix" values="0 0 0 0 0 0 0 0 0 0 0 0 0 0 0 0 0 0 127 0" result="hardAlpha"/>
<feOffset dy="0.971519"/>
<feGaussianBlur stdDeviation="1.94304"/>
<feComposite in2="hardAlpha" operator="out"/>
<feColorMatrix type="matrix" values="0 0 0 0 0 0 0 0 0 0 0 0 0 0 0 0 0 0 0.1 0"/>
<feBlend mode="normal" in2="BackgroundImageFix" result="effect1_dropShadow_1134_954"/>
<feBlend mode="normal" in="SourceGraphic" in2="effect1_dropShadow_1134_954" result="shape"/>
</filter>
<filter id="filter4_d_1134_954" x="124.766" y="160.915" width="120.468" height="155.443" filterUnits="userSpaceOnUse" color-interpolation-filters="sRGB">
<feFlood flood-opacity="0" result="BackgroundImageFix"/>
<feColorMatrix in="SourceAlpha" type="matrix" values="0 0 0 0 0 0 0 0 0 0 0 0 0 0 0 0 0 0 127 0" result="hardAlpha"/>
<feOffset dy="0.971519"/>
<feGaussianBlur stdDeviation="1.94304"/>
<feComposite in2="hardAlpha" operator="out"/>
<feColorMatrix type="matrix" values="0 0 0 0 0 0 0 0 0 0 0 0 0 0 0 0 0 0 0.1 0"/>
<feBlend mode="normal" in2="BackgroundImageFix" result="effect1_dropShadow_1134_954"/>
<feBlend mode="normal" in="SourceGraphic" in2="effect1_dropShadow_1134_954" result="shape"/>
</filter>
<filter id="filter5_d_1134_954" x="249.12" y="160.915" width="120.468" height="155.443" filterUnits="userSpaceOnUse" color-interpolation-filters="sRGB">
<feFlood flood-opacity="0" result="BackgroundImageFix"/>
<feColorMatrix in="SourceAlpha" type="matrix" values="0 0 0 0 0 0 0 0 0 0 0 0 0 0 0 0 0 0 127 0" result="hardAlpha"/>
<feOffset dy="0.971519"/>
<feGaussianBlur stdDeviation="1.94304"/>
<feComposite in2="hardAlpha" operator="out"/>
<feColorMatrix type="matrix" values="0 0 0 0 0 0 0 0 0 0 0 0 0 0 0 0 0 0 0.1 0"/>
<feBlend mode="normal" in2="BackgroundImageFix" result="effect1_dropShadow_1134_954"/>
<feBlend mode="normal" in="SourceGraphic" in2="effect1_dropShadow_1134_954" result="shape"/>
</filter>
<clipPath id="clip0_1134_954">
<rect width="370" height="222" fill="white"/>
</clipPath>
<clipPath id="clip1_1134_954">
<rect x="4.29749" y="4.5" width="112.696" height="147.671" rx="3.88608" fill="white"/>
</clipPath>
<clipPath id="clip2_1134_954">
<rect x="51.9019" y="124.968" width="15.5443" height="15.5443" rx="7.77215" fill="white"/>
</clipPath>
<clipPath id="clip3_1134_954">
<rect width="15.5443" height="15.5443" fill="white" transform="translate(51.9019 126.911)"/>
</clipPath>
<clipPath id="clip4_1134_954">
<rect x="128.652" y="4.5" width="112.696" height="147.671" rx="3.88608" fill="white"/>
</clipPath>
<clipPath id="clip5_1134_954">
<rect x="176.256" y="124.968" width="15.5443" height="15.5443" rx="7.77215" fill="white"/>
</clipPath>
<clipPath id="clip6_1134_954">
<rect width="15.5443" height="15.5443" fill="white" transform="translate(176.256 126.911)"/>
</clipPath>
<clipPath id="clip7_1134_954">
<rect x="253.006" y="4.5" width="112.696" height="147.671" rx="3.88608" fill="white"/>
</clipPath>
<clipPath id="clip8_1134_954">
<rect x="300.611" y="124.968" width="15.5443" height="15.5443" rx="7.77215" fill="white"/>
</clipPath>
<clipPath id="clip9_1134_954">
<rect width="15.5443" height="15.5443" fill="white" transform="translate(300.611 126.911)"/>
</clipPath>
<clipPath id="clip10_1134_954">
<rect x="4.29749" y="163.829" width="112.696" height="147.671" rx="3.88608" fill="white"/>
</clipPath>
<clipPath id="clip11_1134_954">
<rect x="128.652" y="163.829" width="112.696" height="147.671" rx="3.88608" fill="white"/>
</clipPath>
<clipPath id="clip12_1134_954">
<rect x="253.006" y="163.829" width="112.696" height="147.671" rx="3.88608" fill="white"/>
</clipPath>
</defs>
</svg>
