<svg width="370" height="222" viewBox="0 0 370 222" fill="none" xmlns="http://www.w3.org/2000/svg">
<g clip-path="url(#clip0_1134_1654)">
<rect width="370" height="222" fill="white"/>
<rect x="0.280273" y="219.468" width="117.447" height="73.5319" rx="3.8024" fill="#F1F3F9"/>
<rect x="127" width="115" height="115" rx="3.72319" fill="#F1F3F9"/>
<path d="M194.717 80.124L182.897 58.4546L192.234 42.8922L212.091 80.124H194.717ZM174.86 52.8207L189.752 80.124H159.967L174.86 52.8207ZM168.654 47.8564C165.227 47.8564 162.449 45.0782 162.449 41.6511C162.449 38.224 165.227 35.4458 168.654 35.4458C172.081 35.4458 174.86 38.224 174.86 41.6511C174.86 45.0782 172.081 47.8564 168.654 47.8564Z" fill="white" fill-opacity="0.45"/>
<rect x="141" y="14" width="83" height="5" rx="2.5" fill="#D2D8EA"/>
<rect x="141" y="25" width="83" height="5" rx="2.5" fill="#D2D8EA"/>
<rect x="141" y="36" width="62" height="5" rx="2.5" fill="#D2D8EA"/>
<rect x="141" y="51" width="8" height="3" rx="1.5" fill="#DEE2ED"/>
<rect x="151" y="51" width="8" height="3" rx="1.5" fill="#DEE2ED"/>
<rect x="161" y="51" width="31" height="3" rx="1.5" fill="#DEE2ED"/>
<rect x="255" width="115" height="115" rx="3.72319" fill="#F1F3F9"/>
<path d="M322.717 80.124L310.897 58.4546L320.234 42.8922L340.091 80.124H322.717ZM302.86 52.8207L317.752 80.124H287.967L302.86 52.8207ZM296.654 47.8564C293.227 47.8564 290.449 45.0782 290.449 41.6511C290.449 38.224 293.227 35.4458 296.654 35.4458C300.081 35.4458 302.86 38.224 302.86 41.6511C302.86 45.0782 300.081 47.8564 296.654 47.8564Z" fill="white" fill-opacity="0.45"/>
<rect x="269" y="14" width="83" height="5" rx="2.5" fill="#D2D8EA"/>
<rect x="269" y="25" width="83" height="5" rx="2.5" fill="#D2D8EA"/>
<rect x="269" y="36" width="77" height="5" rx="2.5" fill="#D2D8EA"/>
<rect x="269" y="51" width="8" height="3" rx="1.5" fill="#DEE2ED"/>
<rect x="279" y="51" width="8" height="3" rx="1.5" fill="#DEE2ED"/>
<rect x="289" y="51" width="31" height="3" rx="1.5" fill="#DEE2ED"/>
<rect y="127" width="115" height="115" rx="3.72319" fill="#F1F3F9"/>
<path d="M67.7165 207.124L55.8969 185.455L65.2344 169.892L85.0914 207.124H67.7165ZM47.8595 179.821L62.7523 207.124H32.9668L47.8595 179.821ZM41.6542 174.856C38.2271 174.856 35.4489 172.078 35.4489 168.651C35.4489 165.224 38.2271 162.446 41.6542 162.446C45.0813 162.446 47.8595 165.224 47.8595 168.651C47.8595 172.078 45.0813 174.856 41.6542 174.856Z" fill="white" fill-opacity="0.45"/>
<rect x="14" y="141" width="83" height="5" rx="2.5" fill="#D2D8EA"/>
<rect x="14" y="152" width="83" height="5" rx="2.5" fill="#D2D8EA"/>
<rect x="14" y="163" width="62" height="5" rx="2.5" fill="#D2D8EA"/>
<rect x="14" y="178" width="8" height="3" rx="1.5" fill="#DEE2ED"/>
<rect x="24" y="178" width="8" height="3" rx="1.5" fill="#DEE2ED"/>
<rect x="34" y="178" width="31" height="3" rx="1.5" fill="#DEE2ED"/>
<rect x="127" y="127" width="115" height="115" rx="3.72319" fill="#F1F3F9"/>
<path d="M194.717 207.124L182.897 185.455L192.234 169.892L212.091 207.124H194.717ZM174.86 179.821L189.752 207.124H159.967L174.86 179.821ZM168.654 174.856C165.227 174.856 162.449 172.078 162.449 168.651C162.449 165.224 165.227 162.446 168.654 162.446C172.081 162.446 174.86 165.224 174.86 168.651C174.86 172.078 172.081 174.856 168.654 174.856Z" fill="white" fill-opacity="0.45"/>
<rect x="141" y="141" width="83" height="5" rx="2.5" fill="#D2D8EA"/>
<rect x="141" y="152" width="83" height="5" rx="2.5" fill="#D2D8EA"/>
<rect x="141" y="163" width="68" height="5" rx="2.5" fill="#D2D8EA"/>
<rect x="141" y="178" width="8" height="3" rx="1.5" fill="#DEE2ED"/>
<rect x="151" y="178" width="8" height="3" rx="1.5" fill="#DEE2ED"/>
<rect x="161" y="178" width="31" height="3" rx="1.5" fill="#DEE2ED"/>
<rect x="255" y="127" width="115" height="115" rx="3.72319" fill="#F1F3F9"/>
<path d="M322.717 207.124L310.897 185.455L320.234 169.892L340.091 207.124H322.717ZM302.86 179.821L317.752 207.124H287.967L302.86 179.821ZM296.654 174.856C293.227 174.856 290.449 172.078 290.449 168.651C290.449 165.224 293.227 162.446 296.654 162.446C300.081 162.446 302.86 165.224 302.86 168.651C302.86 172.078 300.081 174.856 296.654 174.856Z" fill="white" fill-opacity="0.45"/>
<rect x="269" y="141" width="83" height="5" rx="2.5" fill="#D2D8EA"/>
<rect x="269" y="152" width="77" height="5" rx="2.5" fill="#D2D8EA"/>
<rect x="269" y="167" width="8" height="3" rx="1.5" fill="#DEE2ED"/>
<rect x="279" y="167" width="8" height="3" rx="1.5" fill="#DEE2ED"/>
<rect x="289" y="167" width="31" height="3" rx="1.5" fill="#DEE2ED"/>
<rect width="115" height="115" rx="3.72319" fill="#F1F3F9"/>
<path d="M67.7165 80.124L55.8969 58.4546L65.2344 42.8922L85.0914 80.124H67.7165ZM47.8595 52.8207L62.7523 80.124H32.9668L47.8595 52.8207ZM41.6542 47.8564C38.2271 47.8564 35.4489 45.0782 35.4489 41.6511C35.4489 38.224 38.2271 35.4458 41.6542 35.4458C45.0813 35.4458 47.8595 38.224 47.8595 41.6511C47.8595 45.0782 45.0813 47.8564 41.6542 47.8564Z" fill="white" fill-opacity="0.45"/>
<rect x="14" y="14" width="83" height="5" rx="2.5" fill="#D2D8EA"/>
<rect x="14" y="25" width="77" height="5" rx="2.5" fill="#D2D8EA"/>
<rect x="14" y="40" width="8" height="3" rx="1.5" fill="#DEE2ED"/>
<rect x="24" y="40" width="8" height="3" rx="1.5" fill="#DEE2ED"/>
<rect x="34" y="40" width="31" height="3" rx="1.5" fill="#DEE2ED"/>
</g>
<defs>
<clipPath id="clip0_1134_1654">
<rect width="370" height="222" fill="white"/>
</clipPath>
</defs>
</svg>
