<svg width="370" height="222" viewBox="0 0 370 222" fill="none" xmlns="http://www.w3.org/2000/svg">
<g clip-path="url(#clip0_1134_1175)">
<rect width="370" height="222" fill="white"/>
<rect x="128" y="147" width="115" height="72" rx="3.72319" fill="#F1F3F9"/>
<path d="M195.708 205.641L183.889 183.971L193.226 168.409L213.083 205.641H195.708ZM175.851 178.337L190.744 205.641H160.959L175.851 178.337ZM169.646 173.373C166.219 173.373 163.441 170.595 163.441 167.168C163.441 163.74 166.219 160.962 169.646 160.962C173.073 160.962 175.851 163.74 175.851 167.168C175.851 170.595 173.073 173.373 169.646 173.373Z" fill="white"/>
<rect x="255" y="147" width="115" height="72" rx="3.72319" fill="#F1F3F9"/>
<path d="M322.708 205.641L310.889 183.971L320.226 168.409L340.083 205.641H322.708ZM302.851 178.337L317.744 205.641H287.959L302.851 178.337ZM296.646 173.373C293.219 173.373 290.441 170.595 290.441 167.168C290.441 163.74 293.219 160.962 296.646 160.962C300.073 160.962 302.851 163.74 302.851 167.168C302.851 170.595 300.073 173.373 296.646 173.373Z" fill="white"/>
<rect y="147" width="115" height="72" rx="3.72319" fill="#F1F3F9"/>
<path d="M67.7085 205.641L55.8888 183.971L65.2263 168.409L85.0833 205.641H67.7085ZM47.8515 178.337L62.7442 205.641H32.9587L47.8515 178.337ZM41.6462 173.373C38.2191 173.373 35.4409 170.595 35.4409 167.168C35.4409 163.74 38.2191 160.962 41.6462 160.962C45.0733 160.962 47.8515 163.74 47.8515 167.168C47.8515 170.595 45.0733 173.373 41.6462 173.373Z" fill="white"/>
<rect x="128" width="115" height="72" rx="3.72319" fill="#F1F3F9"/>
<path d="M195.708 58.6405L183.889 36.9711L193.226 21.4087L213.083 58.6405H195.708ZM175.851 31.3372L190.744 58.6405H160.959L175.851 31.3372ZM169.646 26.3729C166.219 26.3729 163.441 23.5947 163.441 20.1676C163.441 16.7405 166.219 13.9623 169.646 13.9623C173.073 13.9623 175.851 16.7405 175.851 20.1676C175.851 23.5947 173.073 26.3729 169.646 26.3729Z" fill="white"/>
<rect x="128" y="103" width="115" height="4" rx="2" fill="#E9EDF6"/>
<rect x="128" y="113" width="109" height="4" rx="2" fill="#E9EDF6"/>
<g clip-path="url(#clip1_1134_1175)">
<rect x="128.234" y="125" width="11.1696" height="11.1696" rx="5.58478" fill="#DEE2ED"/>
<g clip-path="url(#clip2_1134_1175)">
<path d="M133.815 127.794C134.276 127.794 134.725 127.931 135.108 128.186C135.491 128.442 135.789 128.806 135.965 129.231C136.141 129.656 136.187 130.124 136.098 130.575C136.008 131.027 135.786 131.441 135.461 131.767C135.135 132.092 134.721 132.314 134.269 132.404C133.818 132.493 133.35 132.447 132.925 132.271C132.5 132.095 132.136 131.797 131.88 131.414C131.625 131.031 131.488 130.582 131.488 130.121L131.491 130.02C131.517 129.421 131.773 128.855 132.206 128.441C132.639 128.026 133.216 127.794 133.815 127.794Z" fill="white"/>
<path d="M134.749 133.378C135.366 133.378 135.958 133.624 136.395 134.06C136.831 134.496 137.076 135.088 137.076 135.705V136.171C137.076 136.418 136.978 136.654 136.803 136.829C136.629 137.004 136.392 137.102 136.145 137.102H131.491C131.244 137.102 131.008 137.004 130.833 136.829C130.659 136.654 130.561 136.418 130.561 136.171V135.705C130.561 135.088 130.806 134.496 131.242 134.06C131.679 133.624 132.27 133.378 132.888 133.378H134.749Z" fill="white"/>
</g>
</g>
<rect x="143" y="130" width="8" height="3" rx="1.5" fill="#DEE2ED"/>
<rect x="153" y="130" width="26.9931" height="3" rx="1.5" fill="#DEE2ED"/>
<rect x="128" y="90" width="8" height="3" rx="1.5" fill="#DEE2ED"/>
<rect x="138" y="90" width="8" height="3" rx="1.5" fill="#DEE2ED"/>
<rect x="148" y="90" width="37" height="3" rx="1.5" fill="#DEE2ED"/>
<rect x="128" y="78" width="114" height="6" rx="3" fill="#DEE2ED"/>
<rect x="255" width="115" height="72" rx="3.72319" fill="#F1F3F9"/>
<path d="M322.708 58.6405L310.889 36.9711L320.226 21.4087L340.083 58.6405H322.708ZM302.851 31.3372L317.744 58.6405H287.959L302.851 31.3372ZM296.646 26.3729C293.219 26.3729 290.441 23.5947 290.441 20.1676C290.441 16.7405 293.219 13.9623 296.646 13.9623C300.073 13.9623 302.851 16.7405 302.851 20.1676C302.851 23.5947 300.073 26.3729 296.646 26.3729Z" fill="white"/>
<rect x="255" y="103" width="115" height="4" rx="2" fill="#E9EDF6"/>
<rect x="255" y="113" width="109" height="4" rx="2" fill="#E9EDF6"/>
<g clip-path="url(#clip3_1134_1175)">
<rect x="255.234" y="125" width="11.1696" height="11.1696" rx="5.58478" fill="#DEE2ED"/>
<g clip-path="url(#clip4_1134_1175)">
<path d="M260.815 127.794C261.276 127.794 261.725 127.931 262.108 128.186C262.491 128.442 262.789 128.806 262.965 129.231C263.141 129.656 263.187 130.124 263.098 130.575C263.008 131.027 262.786 131.441 262.461 131.767C262.135 132.092 261.721 132.314 261.269 132.404C260.818 132.493 260.35 132.447 259.925 132.271C259.5 132.095 259.136 131.797 258.88 131.414C258.625 131.031 258.488 130.582 258.488 130.121L258.491 130.02C258.517 129.421 258.773 128.855 259.206 128.441C259.639 128.026 260.216 127.794 260.815 127.794Z" fill="white"/>
<path d="M261.749 133.378C262.366 133.378 262.958 133.624 263.395 134.06C263.831 134.496 264.076 135.088 264.076 135.705V136.171C264.076 136.418 263.978 136.654 263.803 136.829C263.629 137.004 263.392 137.102 263.145 137.102H258.491C258.244 137.102 258.008 137.004 257.833 136.829C257.659 136.654 257.561 136.418 257.561 136.171V135.705C257.561 135.088 257.806 134.496 258.242 134.06C258.679 133.624 259.27 133.378 259.888 133.378H261.749Z" fill="white"/>
</g>
</g>
<rect x="270" y="130" width="8" height="3" rx="1.5" fill="#DEE2ED"/>
<rect x="280" y="130" width="26.9931" height="3" rx="1.5" fill="#DEE2ED"/>
<rect x="255" y="90" width="8" height="3" rx="1.5" fill="#DEE2ED"/>
<rect x="265" y="90" width="8" height="3" rx="1.5" fill="#DEE2ED"/>
<rect x="275" y="90" width="37" height="3" rx="1.5" fill="#DEE2ED"/>
<rect x="255" y="78" width="114" height="6" rx="3" fill="#DEE2ED"/>
<rect width="115" height="72" rx="3.72319" fill="#F1F3F9"/>
<path d="M67.7085 58.6405L55.8888 36.9711L65.2263 21.4087L85.0833 58.6405H67.7085ZM47.8515 31.3372L62.7442 58.6405H32.9587L47.8515 31.3372ZM41.6462 26.3729C38.2191 26.3729 35.4409 23.5947 35.4409 20.1676C35.4409 16.7405 38.2191 13.9623 41.6462 13.9623C45.0733 13.9623 47.8515 16.7405 47.8515 20.1676C47.8515 23.5947 45.0733 26.3729 41.6462 26.3729Z" fill="white"/>
<rect y="103" width="115" height="4" rx="2" fill="#E9EDF6"/>
<rect y="113" width="109" height="4" rx="2" fill="#E9EDF6"/>
<g clip-path="url(#clip5_1134_1175)">
<rect x="0.234375" y="125" width="11.1696" height="11.1696" rx="5.58478" fill="#DEE2ED"/>
<g clip-path="url(#clip6_1134_1175)">
<path d="M5.81527 127.794C6.27551 127.794 6.7254 127.931 7.10808 128.186C7.49075 128.442 7.789 128.806 7.96513 129.231C8.14125 129.656 8.18733 130.124 8.09755 130.575C8.00776 131.027 7.78614 131.441 7.4607 131.767C7.13526 132.092 6.72064 132.314 6.26924 132.404C5.81785 132.493 5.34997 132.447 4.92477 132.271C4.49957 132.095 4.13614 131.797 3.88045 131.414C3.62476 131.031 3.48828 130.582 3.48828 130.121L3.49061 130.02C3.51663 129.421 3.77292 128.855 4.20603 128.441C4.63914 128.026 5.21562 127.794 5.81527 127.794Z" fill="white"/>
<path d="M6.74913 133.378C7.36628 133.378 7.95816 133.624 8.39456 134.06C8.83095 134.496 9.07612 135.088 9.07612 135.705V136.171C9.07612 136.418 8.97805 136.654 8.80349 136.829C8.62894 137.004 8.39218 137.102 8.14532 137.102H3.49134C3.24448 137.102 3.00773 137.004 2.83317 136.829C2.65861 136.654 2.56055 136.418 2.56055 136.171V135.705C2.56055 135.088 2.80571 134.496 3.24211 134.06C3.6785 133.624 4.27038 133.378 4.88754 133.378H6.74913Z" fill="white"/>
</g>
</g>
<rect x="15" y="130" width="8" height="3" rx="1.5" fill="#DEE2ED"/>
<rect x="25" y="130" width="26.9931" height="3" rx="1.5" fill="#DEE2ED"/>
<rect y="90" width="8" height="3" rx="1.5" fill="#DEE2ED"/>
<rect x="10" y="90" width="8" height="3" rx="1.5" fill="#DEE2ED"/>
<rect x="20" y="90" width="37" height="3" rx="1.5" fill="#DEE2ED"/>
<rect y="78" width="114" height="6" rx="3" fill="#DEE2ED"/>
</g>
<defs>
<clipPath id="clip0_1134_1175">
<rect width="370" height="222" fill="white"/>
</clipPath>
<clipPath id="clip1_1134_1175">
<rect x="128.234" y="125" width="11.1696" height="11.1696" rx="5.58478" fill="white"/>
</clipPath>
<clipPath id="clip2_1134_1175">
<rect width="11.1696" height="11.1696" fill="white" transform="translate(128.234 126.862)"/>
</clipPath>
<clipPath id="clip3_1134_1175">
<rect x="255.234" y="125" width="11.1696" height="11.1696" rx="5.58478" fill="white"/>
</clipPath>
<clipPath id="clip4_1134_1175">
<rect width="11.1696" height="11.1696" fill="white" transform="translate(255.234 126.862)"/>
</clipPath>
<clipPath id="clip5_1134_1175">
<rect x="0.234375" y="125" width="11.1696" height="11.1696" rx="5.58478" fill="white"/>
</clipPath>
<clipPath id="clip6_1134_1175">
<rect width="11.1696" height="11.1696" fill="white" transform="translate(0.234375 126.862)"/>
</clipPath>
</defs>
</svg>
