<svg width="370" height="222" viewBox="0 0 370 222" fill="none" xmlns="http://www.w3.org/2000/svg">
<g clip-path="url(#clip0_1134_1797)">
<rect width="370" height="222" fill="white"/>
<rect x="0.280273" y="219.468" width="117.447" height="73.5319" rx="3.8024" fill="#F1F3F9"/>
<rect width="115" height="114" rx="3.72319" fill="#F1F3F9"/>
<path d="M66.7497 65.6782L54.9301 44.0088L64.2676 28.4464L84.1246 65.6782H66.7497ZM46.8927 38.3749L61.7855 65.6782H32L46.8927 38.3749ZM40.6874 33.4106C37.2603 33.4106 34.4821 30.6324 34.4821 27.2053C34.4821 23.7782 37.2603 21 40.6874 21C44.1145 21 46.8927 23.7782 46.8927 27.2053C46.8927 30.6324 44.1145 33.4106 40.6874 33.4106Z" fill="white" fill-opacity="0.45"/>
<rect x="8" y="92" width="93" height="5" rx="2.5" fill="#D2D8EA"/>
<rect x="8" y="101" width="53" height="5" rx="2.5" fill="#D2D8EA"/>
<rect x="128" y="113" width="115" height="109" rx="3.72319" fill="#F1F3F9"/>
<path d="M194.75 178.678L182.93 157.009L192.268 141.446L212.125 178.678H194.75ZM174.893 151.375L189.785 178.678H160L174.893 151.375ZM168.687 146.411C165.26 146.411 162.482 143.632 162.482 140.205C162.482 136.778 165.26 134 168.687 134C172.115 134 174.893 136.778 174.893 140.205C174.893 143.632 172.115 146.411 168.687 146.411Z" fill="white" fill-opacity="0.45"/>
<rect x="136" y="201" width="87" height="5" rx="2.5" fill="#D2D8EA"/>
<rect x="136" y="210" width="74" height="5" rx="2.5" fill="#D2D8EA"/>
<rect y="126" width="115" height="91" rx="3.72319" fill="#F1F3F9"/>
<path d="M66.7497 193.678L54.9301 172.009L64.2676 156.446L84.1246 193.678H66.7497ZM46.8927 166.375L61.7855 193.678H32L46.8927 166.375ZM40.6874 161.411C37.2603 161.411 34.4821 158.632 34.4821 155.205C34.4821 151.778 37.2603 149 40.6874 149C44.1145 149 46.8927 151.778 46.8927 155.205C46.8927 158.632 44.1145 161.411 40.6874 161.411Z" fill="white" fill-opacity="0.45"/>
<rect x="8" y="195" width="87" height="5" rx="2.5" fill="#D2D8EA"/>
<rect x="8" y="204" width="74" height="5" rx="2.5" fill="#D2D8EA"/>
<rect x="255" width="115" height="91" rx="3.72319" fill="#F1F3F9"/>
<path d="M321.75 67.6782L309.93 46.0088L319.268 30.4464L339.125 67.6782H321.75ZM301.893 40.3749L316.785 67.6782H287L301.893 40.3749ZM295.687 35.4106C292.26 35.4106 289.482 32.6324 289.482 29.2053C289.482 25.7782 292.26 23 295.687 23C299.115 23 301.893 25.7782 301.893 29.2053C301.893 32.6324 299.115 35.4106 295.687 35.4106Z" fill="white" fill-opacity="0.45"/>
<rect x="263" y="69" width="87" height="5" rx="2.5" fill="#D2D8EA"/>
<rect x="263" y="78" width="74" height="5" rx="2.5" fill="#D2D8EA"/>
<rect x="128" width="115" height="101" rx="3.72319" fill="#DEE2ED"/>
<path d="M195.717 73.124L183.897 51.4546L193.234 35.8922L213.091 73.124H195.717ZM175.86 45.8207L190.752 73.124H160.967L175.86 45.8207ZM169.654 40.8564C166.227 40.8564 163.449 38.0782 163.449 34.6511C163.449 31.224 166.227 28.4458 169.654 28.4458C173.081 28.4458 175.86 31.224 175.86 34.6511C175.86 38.0782 173.081 40.8564 169.654 40.8564Z" fill="white" fill-opacity="0.25"/>
<g clip-path="url(#clip1_1134_1797)">
<rect x="135.662" y="51.9229" width="11.2615" height="11.2615" rx="5.63076" fill="#BAC4E2"/>
<g clip-path="url(#clip2_1134_1797)">
<path d="M141.292 53.7998C141.849 53.7998 142.393 53.9649 142.856 54.2743C143.319 54.5836 143.68 55.0233 143.893 55.5378C144.106 56.0522 144.162 56.6183 144.053 57.1644C143.945 57.7106 143.676 58.2122 143.283 58.606C142.889 58.9997 142.387 59.2678 141.841 59.3765C141.295 59.4851 140.729 59.4294 140.215 59.2163C139.7 59.0032 139.26 58.6423 138.951 58.1793C138.642 57.7163 138.477 57.172 138.477 56.6152L138.479 56.493C138.511 55.7682 138.821 55.0835 139.345 54.5817C139.869 54.08 140.566 53.7998 141.292 53.7998Z" fill="white"/>
<path d="M142.365 60.3691C143.077 60.3691 143.759 60.6163 144.261 61.0563C144.764 61.4963 145.047 62.0931 145.047 62.7153V63.1845C145.047 63.4334 144.934 63.6721 144.733 63.8481C144.531 64.0241 144.259 64.123 143.974 64.123H138.612C138.327 64.123 138.054 64.0241 137.853 63.8481C137.652 63.6721 137.539 63.4334 137.539 63.1845V62.7153C137.539 62.0931 137.822 61.4963 138.324 61.0563C138.827 60.6163 139.509 60.3691 140.22 60.3691H142.365Z" fill="white"/>
</g>
</g>
<rect x="151.395" y="56.6152" width="7.50769" height="2.81538" rx="1.40769" fill="#BAC4E2"/>
<rect x="160.779" y="56.6152" width="25.332" height="2.81538" rx="1.40769" fill="#BAC4E2"/>
<rect x="136" y="70" width="95" height="5" rx="2.5" fill="#B7C0DA"/>
<rect x="136" y="79" width="74" height="5" rx="2.5" fill="#B7C0DA"/>
<rect x="136" y="90" width="8" height="3" rx="1.5" fill="#BAC4E2"/>
<rect x="146" y="90" width="8" height="3" rx="1.5" fill="#BAC4E2"/>
<rect x="156" y="90" width="31" height="3" rx="1.5" fill="#BAC4E2"/>
<rect x="255" y="103" width="115" height="101" rx="3.72319" fill="#F1F3F9"/>
<path d="M322.717 176.124L310.897 154.455L320.234 138.892L340.091 176.124H322.717ZM302.86 148.821L317.752 176.124H287.967L302.86 148.821ZM296.654 143.856C293.227 143.856 290.449 141.078 290.449 137.651C290.449 134.224 293.227 131.446 296.654 131.446C300.081 131.446 302.86 134.224 302.86 137.651C302.86 141.078 300.081 143.856 296.654 143.856Z" fill="#F7F8FC"/>
<rect x="263" y="182" width="95" height="5" rx="2.5" fill="#D2D8EA"/>
<rect x="263" y="191" width="74" height="5" rx="2.5" fill="#D2D8EA"/>
</g>
<defs>
<clipPath id="clip0_1134_1797">
<rect width="370" height="222" fill="white"/>
</clipPath>
<clipPath id="clip1_1134_1797">
<rect x="135.662" y="51.9229" width="11.2615" height="11.2615" rx="5.63076" fill="white"/>
</clipPath>
<clipPath id="clip2_1134_1797">
<rect width="10.4822" height="10.4822" fill="white" transform="translate(135.662 53.7998)"/>
</clipPath>
</defs>
</svg>
