<svg width="370" height="222" viewBox="0 0 370 222" fill="none" xmlns="http://www.w3.org/2000/svg">
<g clip-path="url(#clip0_1134_2296)">
<rect width="370" height="222" fill="white"/>
<rect x="0.280273" y="219.468" width="117.447" height="73.5319" rx="3.8024" fill="#F1F3F9"/>
<rect width="168" height="162" rx="3.72319" fill="#DEE2ED"/>
<path d="M102.399 126.227L77.875 81.2661L97.2488 48.9766L138.449 126.227H102.399ZM61.1988 69.5766L92.0988 126.227H30.2988L61.1988 69.5766ZM48.3238 59.2766C41.2132 59.2766 35.4488 53.5123 35.4488 46.4016C35.4488 39.291 41.2132 33.5266 48.3238 33.5266C55.4345 33.5266 61.1988 39.291 61.1988 46.4016C61.1988 53.5123 55.4345 59.2766 48.3238 59.2766Z" fill="white" fill-opacity="0.25"/>
<rect x="130" y="12" width="240" height="138" rx="4" fill="#F1F3F9"/>
<rect x="146" y="43" width="187" height="6" rx="3" fill="#D2D8EA"/>
<rect x="146" y="53" width="129" height="6" rx="3" fill="#D2D8EA"/>
<g clip-path="url(#clip1_1134_2296)">
<rect x="147.002" y="111" width="11.2615" height="11.2615" rx="5.63076" fill="#DEE2ED"/>
<g clip-path="url(#clip2_1134_2296)">
<path d="M152.632 112.877C153.189 112.877 153.733 113.042 154.196 113.352C154.659 113.661 155.02 114.101 155.233 114.615C155.446 115.13 155.502 115.696 155.393 116.242C155.284 116.788 155.016 117.29 154.623 117.683C154.229 118.077 153.727 118.345 153.181 118.454C152.635 118.562 152.069 118.507 151.554 118.294C151.04 118.081 150.6 117.72 150.291 117.257C149.982 116.794 149.816 116.249 149.816 115.693L149.819 115.57C149.851 114.846 150.161 114.161 150.685 113.659C151.209 113.157 151.906 112.877 152.632 112.877Z" fill="white"/>
<path d="M153.703 119.446C154.414 119.446 155.096 119.693 155.599 120.133C156.102 120.573 156.385 121.17 156.385 121.792V122.262C156.385 122.511 156.272 122.749 156.071 122.925C155.869 123.101 155.597 123.2 155.312 123.2H149.949C149.665 123.2 149.392 123.101 149.191 122.925C148.99 122.749 148.877 122.511 148.877 122.262V121.792C148.877 121.17 149.159 120.573 149.662 120.133C150.165 119.693 150.847 119.446 151.558 119.446H153.703Z" fill="white"/>
</g>
</g>
<rect x="163" y="116" width="9" height="3" rx="1.5" fill="#DEE2ED"/>
<rect x="174" y="116" width="32" height="3" rx="1.5" fill="#DEE2ED"/>
<rect x="146" y="28" width="9" height="3" rx="1.5" fill="#DEE2ED"/>
<rect x="157" y="28" width="32" height="3" rx="1.5" fill="#DEE2ED"/>
<rect x="146" y="68" width="208" height="4" rx="2" fill="#DEE2ED"/>
<rect x="146" y="77" width="208" height="4" rx="2" fill="#DEE2ED"/>
<rect x="146" y="86" width="148" height="4" rx="2" fill="#DEE2ED"/>
<rect x="1" y="177" width="115" height="72" rx="3.72319" fill="#F1F3F9"/>
<path d="M68.7087 235.641L56.8891 213.971L66.2266 198.409L86.0836 235.641H68.7087ZM48.8517 208.337L63.7445 235.641H33.959L48.8517 208.337ZM42.6464 203.373C39.2193 203.373 36.4411 200.595 36.4411 197.168C36.4411 193.741 39.2193 190.962 42.6464 190.962C46.0735 190.962 48.8517 193.741 48.8517 197.168C48.8517 200.595 46.0735 203.373 42.6464 203.373Z" fill="white"/>
<rect x="128" y="177" width="115" height="72" rx="3.72319" fill="#F1F3F9"/>
<path d="M195.709 235.641L183.889 213.971L193.227 198.409L213.084 235.641H195.709ZM175.852 208.337L190.744 235.641H160.959L175.852 208.337ZM169.646 203.373C166.219 203.373 163.441 200.595 163.441 197.168C163.441 193.741 166.219 190.962 169.646 190.962C173.074 190.962 175.852 193.741 175.852 197.168C175.852 200.595 173.074 203.373 169.646 203.373Z" fill="white"/>
<rect x="254" y="177" width="115" height="72" rx="3.72319" fill="#F1F3F9"/>
<path d="M321.709 235.641L309.889 213.971L319.227 198.409L339.084 235.641H321.709ZM301.852 208.337L316.744 235.641H286.959L301.852 208.337ZM295.646 203.373C292.219 203.373 289.441 200.595 289.441 197.168C289.441 193.741 292.219 190.962 295.646 190.962C299.074 190.962 301.852 193.741 301.852 197.168C301.852 200.595 299.074 203.373 295.646 203.373Z" fill="white"/>
</g>
<defs>
<clipPath id="clip0_1134_2296">
<rect width="370" height="222" fill="white"/>
</clipPath>
<clipPath id="clip1_1134_2296">
<rect x="147.002" y="111" width="11.2615" height="11.2615" rx="5.63076" fill="white"/>
</clipPath>
<clipPath id="clip2_1134_2296">
<rect width="10.4822" height="10.4822" fill="white" transform="translate(147.002 112.877)"/>
</clipPath>
</defs>
</svg>
