<svg width="370" height="222" viewBox="0 0 370 222" fill="none" xmlns="http://www.w3.org/2000/svg">
<g clip-path="url(#clip0_1134_1414)">
<rect width="370" height="222" fill="white"/>
<rect x="0.280273" y="219.468" width="117.447" height="73.5319" rx="3.8024" fill="#F1F3F9"/>
<rect width="377.872" height="1.02128" transform="translate(0.0637207 197.106)" fill="#DFE4F1"/>
<rect x="0.0637207" y="214.468" width="117.447" height="73.5319" rx="3.8024" fill="#F1F3F9"/>
<g clip-path="url(#clip1_1134_1414)">
<rect x="129.766" y="217.532" width="12.2553" height="12.2553" rx="6.12766" fill="#DEE2ED"/>
<g clip-path="url(#clip2_1134_1414)">
<path d="M135.893 219.574C136.499 219.574 137.092 219.754 137.596 220.091C138.099 220.427 138.492 220.906 138.724 221.466C138.956 222.026 139.017 222.642 138.898 223.236C138.78 223.83 138.488 224.376 138.06 224.805C137.631 225.233 137.085 225.525 136.491 225.643C135.897 225.761 135.281 225.701 134.721 225.469C134.161 225.237 133.683 224.844 133.346 224.34C133.009 223.837 132.83 223.244 132.83 222.638L132.833 222.505C132.867 221.717 133.204 220.971 133.775 220.425C134.345 219.879 135.104 219.575 135.893 219.574Z" fill="white"/>
</g>
</g>
<rect x="0.0637207" width="117.447" height="73.5319" rx="3.8024" fill="#F1F3F9"/>
<path d="M69.2129 59.8882L57.1418 37.7577L66.678 21.8641L86.9575 59.8882H69.2129ZM48.9335 32.0039L64.1431 59.8882H33.7239L48.9335 32.0039ZM42.5961 26.934C39.0961 26.934 36.2588 24.0967 36.2588 20.5967C36.2588 17.0967 39.0961 14.2593 42.5961 14.2593C46.0962 14.2593 48.9335 17.0967 48.9335 20.5967C48.9335 24.0967 46.0962 26.934 42.5961 26.934Z" fill="white"/>
<g clip-path="url(#clip3_1134_1414)">
<rect x="129.766" y="3.06387" width="12.2553" height="12.2553" rx="6.12766" fill="#DEE2ED"/>
<g clip-path="url(#clip4_1134_1414)">
<path d="M135.893 5.10639C136.499 5.10639 137.092 5.28608 137.596 5.62274C138.099 5.9594 138.492 6.4379 138.724 6.99774C138.956 7.55759 139.017 8.17362 138.898 8.76794C138.78 9.36227 138.488 9.90819 138.06 10.3367C137.631 10.7652 137.085 11.057 136.491 11.1752C135.897 11.2934 135.281 11.2327 134.721 11.0008C134.161 10.7689 133.683 10.3762 133.346 9.87239C133.009 9.36855 132.83 8.77619 132.83 8.17022L132.833 8.03725C132.867 7.24847 133.204 6.50336 133.775 5.95731C134.345 5.41127 135.104 5.10644 135.893 5.10639Z" fill="white"/>
<path d="M137.061 12.2553C137.835 12.2553 138.577 12.5243 139.124 13.0031C139.671 13.4819 139.979 14.1314 139.979 14.8085V15.3191C139.979 15.59 139.856 15.8498 139.637 16.0413C139.418 16.2328 139.121 16.3404 138.811 16.3404H132.976C132.666 16.3404 132.369 16.2328 132.15 16.0413C131.931 15.8498 131.808 15.59 131.808 15.3191V14.8085C131.808 14.1314 132.116 13.4819 132.663 13.0031C133.21 12.5243 133.952 12.2553 134.726 12.2553H137.061Z" fill="white"/>
</g>
</g>
<rect x="146.888" y="8.17021" width="8.17021" height="3.06383" rx="1.53191" fill="#DEE2ED"/>
<rect x="157.101" y="8.17021" width="27.5674" height="3.06383" rx="1.53191" fill="#DEE2ED"/>
<rect x="129.766" y="67.4043" width="8.17021" height="3.06383" rx="1.53191" fill="#DEE2ED"/>
<rect x="139.979" y="67.4043" width="8.17021" height="3.06383" rx="1.53191" fill="#DEE2ED"/>
<rect x="150.191" y="67.4043" width="37.7872" height="3.06383" rx="1.53191" fill="#DEE2ED"/>
<rect x="129.766" y="36.766" width="238.979" height="4.08511" rx="2.04255" fill="#E9EDF6"/>
<rect x="129.766" y="45.9574" width="238.979" height="4.08511" rx="2.04255" fill="#E9EDF6"/>
<rect x="129.766" y="55.1489" width="169.532" height="4.08511" rx="2.04255" fill="#E9EDF6"/>
<rect x="129.766" y="22.4681" width="186.894" height="6.12766" rx="3.06383" fill="#DEE2ED"/>
<rect x="0.0637207" y="107.234" width="117.447" height="73.5319" rx="3.8024" fill="#F1F3F9"/>
<path d="M69.2129 167.122L57.1418 144.992L66.678 129.098L86.9575 167.122H69.2129ZM48.9335 139.238L64.1431 167.122H33.7239L48.9335 139.238ZM42.5961 134.168C39.0961 134.168 36.2588 131.331 36.2588 127.831C36.2588 124.331 39.0961 121.493 42.5961 121.493C46.0962 121.493 48.9335 124.331 48.9335 127.831C48.9335 131.331 46.0962 134.168 42.5961 134.168Z" fill="white"/>
<g clip-path="url(#clip5_1134_1414)">
<rect x="129.766" y="110.298" width="12.2553" height="12.2553" rx="6.12766" fill="#DEE2ED"/>
<g clip-path="url(#clip6_1134_1414)">
<path d="M135.893 112.34C136.499 112.34 137.092 112.52 137.596 112.857C138.099 113.193 138.492 113.672 138.724 114.232C138.956 114.792 139.017 115.408 138.898 116.002C138.78 116.596 138.488 117.142 138.06 117.571C137.631 117.999 137.085 118.291 136.491 118.409C135.897 118.527 135.281 118.467 134.721 118.235C134.161 118.003 133.683 117.61 133.346 117.106C133.009 116.603 132.83 116.01 132.83 115.404L132.833 115.271C132.867 114.482 133.204 113.737 133.775 113.191C134.345 112.645 135.104 112.34 135.893 112.34Z" fill="white"/>
<path d="M137.061 119.489C137.835 119.489 138.577 119.758 139.124 120.237C139.671 120.716 139.979 121.365 139.979 122.043V122.553C139.979 122.824 139.856 123.084 139.637 123.275C139.418 123.467 139.121 123.574 138.811 123.574H132.976C132.666 123.574 132.369 123.467 132.15 123.275C131.931 123.084 131.808 122.824 131.808 122.553V122.043C131.808 121.365 132.116 120.716 132.663 120.237C133.21 119.758 133.952 119.489 134.726 119.489H137.061Z" fill="white"/>
</g>
</g>
<rect x="146.888" y="115.404" width="8.17021" height="3.06383" rx="1.53191" fill="#DEE2ED"/>
<rect x="157.101" y="115.404" width="27.5674" height="3.06383" rx="1.53191" fill="#DEE2ED"/>
<rect x="129.766" y="174.638" width="8.17021" height="3.06383" rx="1.53191" fill="#DEE2ED"/>
<rect x="139.979" y="174.638" width="8.17021" height="3.06383" rx="1.53191" fill="#DEE2ED"/>
<rect x="150.191" y="174.638" width="37.7872" height="3.06383" rx="1.53191" fill="#DEE2ED"/>
<rect x="129.766" y="144" width="238.979" height="4.08511" rx="2.04255" fill="#E9EDF6"/>
<rect x="129.766" y="153.191" width="238.979" height="4.08511" rx="2.04255" fill="#E9EDF6"/>
<rect x="129.766" y="162.383" width="169.532" height="4.08511" rx="2.04255" fill="#E9EDF6"/>
<rect x="129.766" y="129.702" width="186.894" height="6.12766" rx="3.06383" fill="#DEE2ED"/>
<rect width="377.872" height="1.02128" transform="translate(0.0637207 89.8723)" fill="#DFE4F1"/>
</g>
<defs>
<clipPath id="clip0_1134_1414">
<rect width="370" height="222" fill="white"/>
</clipPath>
<clipPath id="clip1_1134_1414">
<rect x="129.766" y="217.532" width="12.2553" height="12.2553" rx="6.12766" fill="white"/>
</clipPath>
<clipPath id="clip2_1134_1414">
<rect width="11.4072" height="11.4072" fill="white" transform="translate(129.766 219.574)"/>
</clipPath>
<clipPath id="clip3_1134_1414">
<rect x="129.766" y="3.06387" width="12.2553" height="12.2553" rx="6.12766" fill="white"/>
</clipPath>
<clipPath id="clip4_1134_1414">
<rect width="11.4072" height="11.4072" fill="white" transform="translate(129.766 5.10638)"/>
</clipPath>
<clipPath id="clip5_1134_1414">
<rect x="129.766" y="110.298" width="12.2553" height="12.2553" rx="6.12766" fill="white"/>
</clipPath>
<clipPath id="clip6_1134_1414">
<rect width="11.4072" height="11.4072" fill="white" transform="translate(129.766 112.34)"/>
</clipPath>
</defs>
</svg>
